<?xml version="1.0" encoding="utf-8"?>
<!-- Generator: Adobe Illustrator 19.0.0, SVG Export Plug-In . SVG Version: 6.00 Build 0)  -->
<svg version="1.1" id="Layer_1" xmlns="http://www.w3.org/2000/svg" xmlns:xlink="http://www.w3.org/1999/xlink" x="0px" y="0px"
	 viewBox="0 0 500 500" style="enable-background:new 0 0 500 500;" xml:space="preserve">
<style type="text/css">
	.st0{fill:#1A1A1A;}
	.st1{fill:#C4C4C4;}
	.st2{fill:#FFFFFF;}
	.st3{fill:url(#XMLID_33_);}
	.st4{fill:url(#path2500_2_);}
	.st5{fill:url(#path2508_2_);}
	.st6{fill:url(#path2516_2_);}
	.st7{fill:url(#path2524_2_);}
	.st8{fill:url(#path2532_2_);}
	.st9{fill:url(#path2536_2_);}
	.st10{fill:url(#path2548_2_);}
	.st11{fill:url(#path2552_2_);}
	.st12{fill:url(#path2564_2_);}
	.st13{fill:url(#path2572_2_);}
	.st14{fill:url(#path2584_2_);}
	.st15{fill:url(#path2588_2_);}
	.st16{fill:url(#path2596_2_);}
	.st17{fill:url(#path2632_2_);}
	.st18{fill:url(#path2644_2_);}
	.st19{fill:url(#path2656_2_);}
	.st20{fill:url(#path2660_2_);}
	.st21{fill:url(#path2696_2_);}
	.st22{fill:url(#path2700_2_);}
	.st23{fill:url(#path2708_2_);}
	.st24{fill:url(#path2496_2_);}
	.st25{fill:url(#path2504_2_);}
	.st26{fill:url(#path2512_2_);}
	.st27{fill:url(#path2520_2_);}
	.st28{fill:url(#path2528_2_);}
	.st29{fill:url(#path2540_2_);}
	.st30{fill:url(#path2544_2_);}
	.st31{fill:url(#path2556_2_);}
	.st32{fill:url(#path2560_2_);}
	.st33{fill:url(#path2568_2_);}
	.st34{fill:url(#path2576_2_);}
	.st35{fill:url(#path2580_2_);}
	.st36{fill:url(#path2592_2_);}
	.st37{fill:url(#path2600_2_);}
	.st38{fill:url(#path2628_2_);}
	.st39{fill:url(#path2640_2_);}
	.st40{fill:url(#path2648_2_);}
	.st41{fill:url(#path2652_2_);}
	.st42{fill:url(#path2664_2_);}
	.st43{fill:url(#path2704_2_);}
	.st44{fill:url(#path2712_2_);}
	.st45{fill:url(#path2668_2_);}
	.st46{fill:url(#path2672_2_);}
	.st47{fill:url(#path2676_2_);}
	.st48{fill:url(#path2680_2_);}
	.st49{fill:url(#path2684_2_);}
	.st50{fill:url(#path2688_2_);}
	.st51{fill:url(#path2692_2_);}
	.st52{fill:url(#path2604_2_);}
	.st53{fill:url(#path2716_2_);}
</style>
<g id="XMLID_1_">
	<path id="path2492" class="st0" d="M283.6,197.2c-11.5-5.5-21.9-7.3-34.2-7.3c-11.2,0-22.9,2.4-33.6,6.9
		c-11.1-3.8-37.6-1.5-43.4-1.4c-6.6,0.2-34.1-1.5-40.6-1.5c-6.5,0-19.9,0.2-30,0.9c-15.4,1-32.8-0.4-34.9-1c-1-0.2-1.8,0.4-1.8,0.4
		c-0.5,0.6-5.1,5.8-5.1,5.8l0.5,1.5l11,5.5l-1.5,7.2l10.7,4.8c0,0,0,6,0.6,6.7c0.6,0.8,11.3,3.4,11.3,3.4s1.1,7,1.8,7.6
		c1.3,1.1,12.5,2.2,12.5,2.2s3.5,6.3,5,6.9c1.5,0.6,13.6,2.4,15.8,1.8c0,0,1,5.2,3.1,6.2c2.3,1,15.4,0.6,15.4,0.6s1.6,5.1,4.2,5.9
		c2.4,0.7,13.9-2.2,13.9-2.2s1.7,3.8,3.3,4.5c2.5,1,11.7-2.2,11.7-2.2c4.7,19.3,20.5,33,39.1,40.1l2.6,5.2l6.1-2.3l3.2,4.8l5.6-3
		l3.8,4.6l5-3.6l4.4,4.1l4.4-4.2l5,3.6l3.8-4.6l5.6,3l3.2-4.8l6.1,2.3l2.5-5.2c17.2-6.6,33.2-20.4,38.4-37.8
		c1.6,0.7,4.7,1.7,7.2,1.9c0,0,2.9-1,4.1-4.6c0,0,10,3.1,11.8,2.5c0,0,1.7-0.1,3.2-5.1c1,0.5,1.9,0.2,3.4,0.5
		c7.8,1.7,11.2,0.8,11.2,0.8s1.7-0.3,3.1-6.8c0.7,0.1,1.2,0.2,1.7,0.2c0,0,11.6,0.3,13.6-0.7c0,0,1.8-0.5,2.5-7
		c4.8,0.7,9.1,1,12.5,0.6c0,0,3.9-1.3,5.4-8.9c2.6-0.2,10.4-0.7,11.3-1.8c0,0,1.9-0.9,1.9-7.7c3-0.2,7.9-0.8,9.7-2.7
		c0,0,1.9-2.1,1.1-7.3c7.1-1.5,9.6-3.8,9.6-3.8c0-2.5-2.3-7.1-2.3-7.1s8-3,9.9-4.6l0.6-1.1c0,0-4.8-5.7-5.6-5.9
		c-1.7-0.4-17.2,1.9-27.2,1.9c-10,0-28-1.5-35.5-1.5c-7.4,0-30.6,1.7-41.5,1.7c-10.9,0-15.1-1.7-23.2-1.7
		C302.1,194.4,290.6,194.7,283.6,197.2"/>
	<g id="XMLID_2_">
		<path id="path2608_1_" d="M203.7,247.9c0-18.7,20.2-33.8,45.2-33.8c25,0,45.2,15.1,45.2,33.8c0,18.7-20.2,33.8-45.2,33.8
			C224,281.7,203.7,266.6,203.7,247.9z"/>
		<path id="XMLID_3_" class="st1" d="M248.9,282c-25.1,0-45.4-15.3-45.4-34.1c0-18.8,20.4-34.1,45.4-34.1
			c25.1,0,45.5,15.3,45.5,34.1C294.4,266.7,274,282,248.9,282z M248.9,214.3c-24.8,0-44.9,15-44.9,33.5c0,18.5,20.1,33.6,44.9,33.6
			c24.8,0,44.9-15.1,44.9-33.6C293.8,229.4,273.7,214.3,248.9,214.3z"/>
	</g>
	<path id="path2612" class="st2" d="M245.5,220.7c-0.4,0.2-1,0.1-1.4,0.1c-1.8,0.2-3.7,0.5-5.4,0.8c-5.1,0.9-10.1,2.9-14.2,5.8
		c-1.1,0.7-2.3,1.5-3.1,2.6c0,0,0,0.1-0.1,0.1c-0.3,0.5-0.8,0.9-1,1.4c-0.1,0.2-0.2,0.6-0.1,0.8c0.3,0.8,1.8,2.2,2.6,2.6
		c0.4,0.2,1,0.7,1.1,1.1c0.1,0.7-0.1,1.4-0.1,2c0,0.9,0,1.7,0,2.6v12.6v5c0,0.7,0,1.5,0,2.2c-0.1,0.4-1.6,1.7-1.9,2.1
		c-0.5,0.5-0.7,1.2-1.1,1.7c0,0,0,0.1,0,0.1c0.2,0.2,0.2,0.6,0.3,0.8c0.4,0.7,1.2,1.5,1.9,2c5.7,4.4,14.3,6.9,21.9,7.5
		c3,0.2,6.1,0,9.2,0c0.3-0.3,2.2-0.3,2.7-0.3c0.2-0.2,1.6-0.3,2-0.3c0.3-0.3,1.1-0.3,1.5-0.3c0.2-0.2,0.4-0.2,0.7-0.2
		c0.2-0.3,0.8-0.3,1.2-0.3c0.2-0.2,0.7-0.3,0.9-0.3c0.2-0.2,0.6-0.3,0.9-0.3c0.2-0.2,0.7-0.3,0.9-0.3c0.3-0.3,1.1-0.5,1.5-0.5
		c0.2-0.3,0.6-0.3,0.9-0.5c0.7-0.4,1.5-0.7,2.2-1.1c2.6-1.5,4.8-3.5,6.2-6.1c0.3-0.5,0.6-1,0.6-1.6c0.2-0.2,0.3-0.6,0.3-0.9
		c0.3-0.3,0.3-1,0.3-1.5c0.3-0.4,0.2-1.5,0.2-2.1c-0.1-5.2-4.1-10.1-8.7-12.1c-0.1,0-0.3,0-0.3-0.2c0.3-0.2,0.8-0.7,1.2-0.7
		c0.3-0.5,1.4-0.9,1.9-1.4c1.1-0.9,3.6-3.4,3.6-4.7c0.2-0.2,0.3-0.4,0.3-0.7c0.2-0.2,0.3-0.6,0.3-0.9c0.4-0.4,0.3-1.4,0.3-2
		c0.3-0.4,0.1-1.2,0-1.6c-0.5-2.5-1.5-4.5-3.2-6.3c-0.4-0.4-0.8-0.7-1.2-1.1c-1.2-1.2-2.8-2-4.3-2.8c-4.2-2.1-9-3.2-14.1-3.4
		C250.4,220.7,248,220.7,245.5,220.7L245.5,220.7z M248.1,225.2c2.9,0,5.7,0.2,7.9,1.5c3.4,2,4.4,6.1,3.9,10
		c-0.3,2.3-1.1,4.6-2.9,6.1c-1.7,1.5-4,1.9-6.3,2.2c-5.2,0.7-10.6-1.1-12.1-6.1c-0.4-1.2-0.6-2.5-0.7-3.8c0-0.7,0.1-1.3,0.1-2
		c0.2-0.2,0.3-0.9,0.3-1.2c0.2-0.2,0.3-0.5,0.3-0.8c0.1-0.1,0.3-0.4,0.3-0.6c0.1-0.1,0.2-0.2,0.2-0.4c0.3-0.2,0.8-1,0.8-1.4
		c0.4-0.2,0.6-0.7,1-1c0.9-0.8,2.6-1.9,3.9-1.9c0.1-0.1,0.3-0.2,0.5-0.2c0.3-0.3,1.1-0.3,1.5-0.3
		C246.9,225.1,247.7,225.4,248.1,225.2z M247.4,249c3.5,0,6.6,0.1,9.4,1.3c5.9,2.7,6.5,12.5,2.4,16.9c-3,3.3-9.4,3.8-13.8,2.7
		c-1-0.3-2-0.5-2.9-1c-1.2-0.7-2.1-1.5-2.9-2.7c-1.1-1.6-1.8-3.8-1.9-5.8c-0.1-1.2,0.1-2.3,0.1-3.4c0.2-0.2,0.3-0.7,0.3-1
		c0.2-0.2,0.3-0.6,0.3-0.8c0.2-0.1,0.3-0.4,0.3-0.6c0.2-0.2,0.4-0.6,0.4-0.8c0.5-0.3,0.8-1,1.1-1.5c0.4-0.5,1.9-1.8,2.5-1.8
		c0.2-0.3,0.8-0.5,1.2-0.5c0.2-0.2,0.6-0.3,0.8-0.3c0.2-0.2,0.7-0.3,1.1-0.3C246.1,249.1,247,249.4,247.4,249z"/>
	<g id="XMLID_6_">
		<radialGradient id="XMLID_33_" cx="248.9137" cy="247.8767" r="40.186" gradientUnits="userSpaceOnUse">
			<stop  offset="0" style="stop-color:#FFFFFF"/>
			<stop  offset="1" style="stop-color:#E6E6E6"/>
		</radialGradient>
		<path id="XMLID_10_" class="st3" d="M248.9,282c-25.1,0-45.4-15.3-45.4-34.1c0-18.8,20.4-34.1,45.4-34.1
			c25.1,0,45.5,15.3,45.5,34.1C294.4,266.7,274,282,248.9,282z M248.9,214.3c-24.8,0-44.9,15-44.9,33.5c0,18.5,20.1,33.6,44.9,33.6
			c24.8,0,44.9-15.1,44.9-33.6C293.8,229.4,273.7,214.3,248.9,214.3z"/>
		<g id="XMLID_13_">
			<linearGradient id="path2500_2_" gradientUnits="userSpaceOnUse" x1="76.879" y1="213.0272" x2="160.6792" y2="213.0272">
				<stop  offset="0" style="stop-color:#FFFFFF"/>
				<stop  offset="0.3637" style="stop-color:#CCCCCC"/>
				<stop  offset="0.5278" style="stop-color:#E1E1E1"/>
				<stop  offset="0.7435" style="stop-color:#F7F7F7"/>
				<stop  offset="0.8828" style="stop-color:#FFFFFF"/>
				<stop  offset="1" style="stop-color:#B3B3B3"/>
			</linearGradient>
			<path id="path2500_1_" class="st4" d="M78.3,209.1c-0.9,0.3-1.3,0.8-1.4,1.7c-0.1,0.7,0.4,2.3,2.2,3.2c1.2,0.6,5.9,2.7,7.1,3
				c1.1,0.2,71.1-3.8,71.3-3.8c0.9-0.4,3.5-1.1,3.3-2.6c-0.1-0.4-0.7-0.8-1.1-1c-0.8-0.3-9.4,0.5-10.1,0.5
				C143.5,210,79.9,209.1,78.3,209.1"/>
			<linearGradient id="path2508_2_" gradientUnits="userSpaceOnUse" x1="162.1918" y1="212.981" x2="176.1635" y2="212.981">
				<stop  offset="0" style="stop-color:#FFFFFF"/>
				<stop  offset="0.3637" style="stop-color:#CCCCCC"/>
				<stop  offset="0.5278" style="stop-color:#E1E1E1"/>
				<stop  offset="0.7435" style="stop-color:#F7F7F7"/>
				<stop  offset="0.8828" style="stop-color:#FFFFFF"/>
				<stop  offset="1" style="stop-color:#B3B3B3"/>
			</linearGradient>
			<path id="path2508_1_" class="st5" d="M173.5,210.1c-2.4,0.7-5,1.1-7.5,1.6c-1,0.2-2.3,0.2-3.1,0.8c-0.4,0.3-0.6,0.6-0.7,1.1
				c-0.1,0.4,0,0.9,0.2,1.2c0.4,0.4,2.7,1.4,4.3,1.2c2.4-0.6,4.5-1.3,6.8-2.1c0.8-0.2,1.8-0.4,2.4-1c0.6-0.7,0.2-1.4-0.3-2
				C175.1,210.3,174.3,209.9,173.5,210.1"/>
			<linearGradient id="path2516_2_" gradientUnits="userSpaceOnUse" x1="166.7414" y1="219.513" x2="179.9128" y2="219.513">
				<stop  offset="0" style="stop-color:#FFFFFF"/>
				<stop  offset="0.3637" style="stop-color:#CCCCCC"/>
				<stop  offset="0.5278" style="stop-color:#E1E1E1"/>
				<stop  offset="0.7435" style="stop-color:#F7F7F7"/>
				<stop  offset="0.8828" style="stop-color:#FFFFFF"/>
				<stop  offset="1" style="stop-color:#B3B3B3"/>
			</linearGradient>
			<path id="path2516_1_" class="st6" d="M176.6,215.7c-2.3,0.5-4.4,1.4-6.6,2.2c-0.9,0.3-2.1,0.5-2.8,1.2c-0.4,0.4-0.5,1-0.4,1.6
				c0.1,0.4,0.3,1,0.6,1.4c0.6,0.7,2.1,1.3,3.2,1.3c0.6,0,1.5-0.2,1.9-0.3c1.7-0.9,3.4-1.8,5.2-2.8c0.6-0.3,1.3-0.4,1.8-0.9
				C181.1,217.7,178,215.4,176.6,215.7"/>
			<linearGradient id="path2524_2_" gradientUnits="userSpaceOnUse" x1="86.8446" y1="221.4543" x2="163.261" y2="221.4543">
				<stop  offset="0" style="stop-color:#FFFFFF"/>
				<stop  offset="0.3637" style="stop-color:#CCCCCC"/>
				<stop  offset="0.5278" style="stop-color:#E1E1E1"/>
				<stop  offset="0.7435" style="stop-color:#F7F7F7"/>
				<stop  offset="0.8828" style="stop-color:#FFFFFF"/>
				<stop  offset="1" style="stop-color:#B3B3B3"/>
			</linearGradient>
			<path id="path2524_1_" class="st7" d="M159.2,216c-1.6,0.2-13.1,1.3-17.4,1.5c-2.3,0.2-41.6,2.6-45,2.6c-0.6,0-8.9,0-9.8,0.7
				c-0.4,0.4,0,2.6,0.5,3c0.8,0.8,2.3,1,3.3,1.3c3.1,0.8,5.8,1.8,9.3,1.8c0.2,0,61.7-7.8,62.8-7.8c0.2-0.2,0.3-0.3,0.3-0.5
				c0-0.6-2.2-2.2-2.7-2.5C160.1,216,159.7,216,159.2,216"/>
			<linearGradient id="path2532_2_" gradientUnits="userSpaceOnUse" x1="98.8143" y1="229.0843" x2="165.052" y2="229.0843">
				<stop  offset="0" style="stop-color:#FFFFFF"/>
				<stop  offset="0.3637" style="stop-color:#CCCCCC"/>
				<stop  offset="0.5278" style="stop-color:#E1E1E1"/>
				<stop  offset="0.7435" style="stop-color:#F7F7F7"/>
				<stop  offset="0.8828" style="stop-color:#FFFFFF"/>
				<stop  offset="1" style="stop-color:#B3B3B3"/>
			</linearGradient>
			<path id="path2532_1_" class="st8" d="M158.3,222.4c-3.4,0.6-6.9,1.2-10.3,1.8c-5.4,1-26.8,4.1-32,4.7c-3.4,0.4-6.8,0.8-10.3,1
				c-6.4-0.3-7.5,0.7-6.7,2.4c0.3,0.7,0.7,1.7,1.4,2.2c0.9,0.6,8,2.1,10.7,2.1c3.3,0.1,18-2.2,20.4-2.8c3.8-0.9,32.5-8.6,33.3-9
				c0.6-0.4,0.1-2.1-0.6-3C163.6,221.1,159.9,222.1,158.3,222.4"/>
			<linearGradient id="path2536_2_" gradientUnits="userSpaceOnUse" x1="172.7143" y1="225.9111" x2="185.5123" y2="225.9111">
				<stop  offset="0" style="stop-color:#FFFFFF"/>
				<stop  offset="0.3637" style="stop-color:#CCCCCC"/>
				<stop  offset="0.5278" style="stop-color:#E1E1E1"/>
				<stop  offset="0.7435" style="stop-color:#F7F7F7"/>
				<stop  offset="0.8828" style="stop-color:#FFFFFF"/>
				<stop  offset="1" style="stop-color:#B3B3B3"/>
			</linearGradient>
			<path id="path2536_1_" class="st9" d="M181.5,221.7c-1,0-8,4.4-8.5,5c-0.3,0.4-0.3,1-0.2,1.5c0.1,0.4,0.3,0.9,0.6,1.2
				c0.8,0.8,2.5,0.8,3.6,0.8c0.3-0.1,0.6-0.2,0.9-0.4c0.6-0.3,1.1-0.9,1.7-1.3c1.2-0.9,2.1-1.6,3.3-2.6c0.6-0.4,2-0.8,2.4-1.4
				C186.3,222.8,182.7,221.6,181.5,221.7"/>
			<linearGradient id="path2548_2_" gradientUnits="userSpaceOnUse" x1="180.184" y1="231.0549" x2="191.7902" y2="231.0549">
				<stop  offset="0" style="stop-color:#FFFFFF"/>
				<stop  offset="0.3637" style="stop-color:#CCCCCC"/>
				<stop  offset="0.5278" style="stop-color:#E1E1E1"/>
				<stop  offset="0.7435" style="stop-color:#F7F7F7"/>
				<stop  offset="0.8828" style="stop-color:#FFFFFF"/>
				<stop  offset="1" style="stop-color:#B3B3B3"/>
			</linearGradient>
			<path id="path2548_1_" class="st10" d="M187.7,226.6c-1,0-4.1,3.1-5.2,4c-0.5,0.4-1.9,1.6-2.1,2.2c-0.5,1.3,0.3,1.9,1.1,2.5
				c0.8,0.6,3.1,0.2,4.1-0.6c0.8-0.6,5.6-4.9,5.9-5.4C192.9,226.9,189.3,226.6,187.7,226.6"/>
			<linearGradient id="path2552_2_" gradientUnits="userSpaceOnUse" x1="113.9243" y1="235.6891" x2="170.489" y2="235.6891">
				<stop  offset="0" style="stop-color:#FFFFFF"/>
				<stop  offset="0.3637" style="stop-color:#CCCCCC"/>
				<stop  offset="0.5278" style="stop-color:#E1E1E1"/>
				<stop  offset="0.7435" style="stop-color:#F7F7F7"/>
				<stop  offset="0.8828" style="stop-color:#FFFFFF"/>
				<stop  offset="1" style="stop-color:#B3B3B3"/>
			</linearGradient>
			<path id="path2552_1_" class="st11" d="M168.2,226.6c-0.4,0.1-0.8,0.2-1.2,0.3c-1.1,0.5-26.3,8.2-38.3,10.7
				c-3.4,0.7-6.9,1.2-10.5,1.7c-1.1,0.2-3.4,0-4.2,0.6c-0.5,0.4,1,2.7,1.4,3.4c1.1,1.6,13.4,2.1,18.9,0.6c2.2-0.6,35-12,35.6-12.8
				c0.7-0.9,0.5-3,0.4-3.4C170.2,226.7,169.2,226.6,168.2,226.6"/>
			<linearGradient id="path2564_2_" gradientUnits="userSpaceOnUse" x1="187.9706" y1="235.1826" x2="197.7315" y2="235.1826">
				<stop  offset="0" style="stop-color:#FFFFFF"/>
				<stop  offset="0.3637" style="stop-color:#CCCCCC"/>
				<stop  offset="0.5278" style="stop-color:#E1E1E1"/>
				<stop  offset="0.7435" style="stop-color:#F7F7F7"/>
				<stop  offset="0.8828" style="stop-color:#FFFFFF"/>
				<stop  offset="1" style="stop-color:#B3B3B3"/>
			</linearGradient>
			<path id="path2564_1_" class="st12" d="M193.7,231.1c-0.8,0.5-1.8,1.7-2.4,2.4c-0.5,0.5-0.9,1-1.4,1.5c-0.9,0.9-2.9,2.6-1.2,3.7
				c0.7,0.5,1.9,0.9,2.6,0.7c0.6-0.3,1.2-0.3,1.7-0.8c0.5-0.4,0.9-1.1,1.2-1.7c0.4-0.6,1.8-2.6,2.2-2.9c0.7-0.6,1.8-1.1,1.1-2.4
				C197.2,231.1,194.5,230.7,193.7,231.1"/>
			<linearGradient id="path2572_2_" gradientUnits="userSpaceOnUse" x1="132.9458" y1="242.4287" x2="178.0967" y2="242.4287">
				<stop  offset="0" style="stop-color:#FFFFFF"/>
				<stop  offset="0.3637" style="stop-color:#CCCCCC"/>
				<stop  offset="0.5278" style="stop-color:#E1E1E1"/>
				<stop  offset="0.7435" style="stop-color:#F7F7F7"/>
				<stop  offset="0.8828" style="stop-color:#FFFFFF"/>
				<stop  offset="1" style="stop-color:#B3B3B3"/>
			</linearGradient>
			<path id="path2572_1_" class="st13" d="M172.7,233.2c-1.6,0.1-7.5,3.4-9.9,4.4c-6.6,2.8-13.4,5.1-20.3,7.4
				c-1.8,0.5-3.6,1.1-5.5,1.6c-1.1,0.3-2.5,0.5-3.5,1.1c-0.3,0.2-0.6,0.4-0.6,0.8c-0.1,0.6,0.4,1.1,0.8,1.4c0.5,0.4,1,0.8,1.6,1
				c1,0.3,2.1,0.3,3.2,0.4c2.6,0.1,7.8,0.9,11.1-0.5c3.1-1.3,16.2-8.2,19.7-10c1.6-0.9,8.8-4.2,8.7-5.5
				C177.9,233.2,174.6,233.2,172.7,233.2"/>
			<linearGradient id="path2584_2_" gradientUnits="userSpaceOnUse" x1="151.0732" y1="247.6434" x2="185.5334" y2="247.6434">
				<stop  offset="0" style="stop-color:#FFFFFF"/>
				<stop  offset="0.3637" style="stop-color:#CCCCCC"/>
				<stop  offset="0.5278" style="stop-color:#E1E1E1"/>
				<stop  offset="0.7435" style="stop-color:#F7F7F7"/>
				<stop  offset="0.8828" style="stop-color:#FFFFFF"/>
				<stop  offset="1" style="stop-color:#B3B3B3"/>
			</linearGradient>
			<path id="path2584_1_" class="st14" d="M179.7,238.5c-1.2,0.3-28.2,14.9-28.5,15.6c-0.6,1,1.3,2.6,2.3,2.9
				c1.5,0.3,9.7-0.5,13.2-2.5c1-0.8,13.2-10.3,14.2-11c1.2-1,5-2.9,4.6-3.8C185,238.6,180.9,238.1,179.7,238.5"/>
			<linearGradient id="path2588_2_" gradientUnits="userSpaceOnUse" x1="168.596" y1="250.7637" x2="193.7169" y2="250.7637">
				<stop  offset="0" style="stop-color:#FFFFFF"/>
				<stop  offset="0.3637" style="stop-color:#CCCCCC"/>
				<stop  offset="0.5278" style="stop-color:#E1E1E1"/>
				<stop  offset="0.7435" style="stop-color:#F7F7F7"/>
				<stop  offset="0.8828" style="stop-color:#FFFFFF"/>
				<stop  offset="1" style="stop-color:#B3B3B3"/>
			</linearGradient>
			<path id="path2588_1_" class="st15" d="M187.3,242.2c-0.7-0.1-5,5.2-15.3,12.3c-0.9,0.6-2.9,1.9-3.3,2.8
				c-0.6,1.7,2.3,2.2,3.4,2.2c0.2,0,5.8-0.7,8.4-2.2c1.2-0.7,12.7-12.1,13.1-12.6c0.2-0.2,0.3-1.4,0.2-1.5c-0.6-0.9-2.5-0.3-3.6-0.4
				C189.3,242.5,188.1,242.3,187.3,242.2"/>
			<linearGradient id="path2596_2_" gradientUnits="userSpaceOnUse" x1="184.4688" y1="280.105" x2="218.8063" y2="280.105">
				<stop  offset="0" style="stop-color:#FFFFFF"/>
				<stop  offset="0.3637" style="stop-color:#CCCCCC"/>
				<stop  offset="0.5278" style="stop-color:#E1E1E1"/>
				<stop  offset="0.7435" style="stop-color:#F7F7F7"/>
				<stop  offset="0.8828" style="stop-color:#FFFFFF"/>
				<stop  offset="1" style="stop-color:#B3B3B3"/>
			</linearGradient>
			<path id="path2596_1_" class="st16" d="M184.8,264.3c-0.5,0.2-0.3,1-0.2,1.4c0.2,0.7,3.2,5.6,4.6,7.5c1.1,1.7,2.2,3.4,3.6,4.9
				c5.1,5.9,11.3,11.2,17.9,14.6c1,0.5,6.5,3.3,7.8,3.2c0.3,0,0.4-0.3,0.3-0.4c-0.1-0.3-0.4-0.5-0.6-0.7c-1.3-0.6-2.5-1.2-3.8-1.8
				c-2.2-1-4.3-2.2-6.3-3.5c-4.8-3.1-9.2-6.7-13.2-11.1c-1.8-2-3.1-4.1-4.8-6.5c-1.6-2.3-3.7-6.4-4.2-7.3
				C185.6,264.3,185.2,264.1,184.8,264.3"/>
			<linearGradient id="path2632_2_" gradientUnits="userSpaceOnUse" x1="160.7268" y1="207.3703" x2="173.8384" y2="207.3703">
				<stop  offset="0" style="stop-color:#FFFFFF"/>
				<stop  offset="0.3637" style="stop-color:#CCCCCC"/>
				<stop  offset="0.5278" style="stop-color:#E1E1E1"/>
				<stop  offset="0.7435" style="stop-color:#F7F7F7"/>
				<stop  offset="0.8828" style="stop-color:#FFFFFF"/>
				<stop  offset="1" style="stop-color:#B3B3B3"/>
			</linearGradient>
			<path id="path2632_1_" class="st17" d="M173.8,207.1c0.1,1.2-5.1,1.2-6.4,1.3c-1.8,0.2-4.8,1.4-5.8,0.3c-0.7-0.8-1.7-3.2-0.2-3.2
				c2.1-0.1,3.7,0.1,6.1,0.2C170,205.9,173.7,205.4,173.8,207.1"/>
			<linearGradient id="path2644_2_" gradientUnits="userSpaceOnUse" x1="175.5744" y1="218.4242" x2="206.8119" y2="218.4242">
				<stop  offset="0" style="stop-color:#FFFFFF"/>
				<stop  offset="0.3637" style="stop-color:#CCCCCC"/>
				<stop  offset="0.5278" style="stop-color:#E1E1E1"/>
				<stop  offset="0.7435" style="stop-color:#F7F7F7"/>
				<stop  offset="0.8828" style="stop-color:#FFFFFF"/>
				<stop  offset="1" style="stop-color:#B3B3B3"/>
			</linearGradient>
			<path id="path2644_1_" class="st18" d="M176.9,206.4c-0.7,0-1.2,0.1-1.3,0.8c-0.1,0.8,0,2.1,1.4,2.1c1.6,0,3.6-2.1,4.5-0.8
				c1.1,1.5-4.5,2.4-3.6,4.3c1.1,2.4,3.4,0.2,3.8,0.1c1.1-0.5,4.6-3.6,6-1.6c1.3,1.8-4.5,4.4-5.2,5.2c-0.2,0.2-0.6,1.6-0.4,1.9
				c1.3,2.7,4.4,0.1,6.5-2.2c0.8-0.9,1.4-1.3,2.1-1.5c1.1-0.3,2-0.1,2.3,0.9c0.2,0.5,0,1.2-0.4,1.6c-0.4,0.4-5.4,3.9-5.2,5
				c0.3,2.1,1.6,2.4,2.6,2c1-0.5,3.9-5.3,5.6-4.7c0.5,0.2,1,0.2,1.2,0.7c0.3,0.6,0.2,1.4-0.2,1.9c-0.5,0.6-1.4,1.5-2,2
				c-0.5,0.5-1.1,1-1.4,1.5c-0.8,1.4,0.4,2.1,1.7,2.1c0.5,0,0.7-0.3,1-0.5c0.8-0.7,1.6-3.7,3.3-2.9c1.7,0.8-1.5,3.2-1.1,4.9
				c0.5,1.3,2.5,1.5,3.1,0.6c0.6-1.5,0.3-3.9,0.9-6.5c0.6-2.4,2.3-6,3.2-7.4c0.5-0.8,1.2-1.5,1.4-2.5c0-0.1,0-0.1,0-0.2
				c0.1-1.1-0.5-1.9-1.3-2.6c-1.2-1.1-2.8-1.7-4.3-2.2c-4.4-1.4-9.1-1.6-14.1-1.8C183.8,206.5,180.4,206.4,176.9,206.4"/>
			<linearGradient id="path2656_2_" gradientUnits="userSpaceOnUse" x1="183.4197" y1="252.6474" x2="199.2158" y2="252.6474">
				<stop  offset="0" style="stop-color:#FFFFFF"/>
				<stop  offset="0.3637" style="stop-color:#CCCCCC"/>
				<stop  offset="0.5278" style="stop-color:#E1E1E1"/>
				<stop  offset="0.7435" style="stop-color:#F7F7F7"/>
				<stop  offset="0.8828" style="stop-color:#FFFFFF"/>
				<stop  offset="1" style="stop-color:#B3B3B3"/>
			</linearGradient>
			<path id="path2656_1_" class="st19" d="M193.9,247.4c1.3-1.7,2.9-3.2,4.5-3c0.4,0,0.6,0.1,0.8,0.3c-0.1,1-0.2,2-0.2,3.1l0,0.5
				l0,0.1c-0.4,1.6-0.6,1.2-1.7,3.2c-1.6,3.1-3.4,7.5-4.4,7.9c-1.5,0.7-3.8,0.6-5.5,1c-2.4,0.6-4.1,0-4.1-1.1
				C183.4,258.1,193,248.8,193.9,247.4"/>
			<linearGradient id="path2660_2_" gradientUnits="userSpaceOnUse" x1="188.5659" y1="276.925" x2="227.2028" y2="276.925">
				<stop  offset="0" style="stop-color:#FFFFFF"/>
				<stop  offset="0.3637" style="stop-color:#CCCCCC"/>
				<stop  offset="0.5278" style="stop-color:#E1E1E1"/>
				<stop  offset="0.7435" style="stop-color:#F7F7F7"/>
				<stop  offset="0.8828" style="stop-color:#FFFFFF"/>
				<stop  offset="1" style="stop-color:#B3B3B3"/>
			</linearGradient>
			<path id="path2660_1_" class="st20" d="M194.6,261.9c1.4,0.1,1.8,2,3.5,2.4c1,0.2,2.3-0.3,3.1-0.8c0.5-0.3,1.3-0.9,2-0.8
				c4.7,8.2,13.3,14.9,24,18.8c0,0,0,0.1,0.1,0.1c0.1,0.4,0,0.8-0.2,0.9c-0.6,0.6-6,9.1-7.1,9.4c-1,0.3-4.7-2-6.1-2.8
				c-7.1-3.8-13.8-8.9-19-15.5c-1.6-2.1-6.3-7.4-6.2-9.6C188.6,262.5,193.7,261.9,194.6,261.9"/>
			<linearGradient id="path2696_2_" gradientUnits="userSpaceOnUse" x1="194.8409" y1="237.8559" x2="203.078" y2="237.8559">
				<stop  offset="0" style="stop-color:#FFFFFF"/>
				<stop  offset="0.3637" style="stop-color:#CCCCCC"/>
				<stop  offset="0.5278" style="stop-color:#E1E1E1"/>
				<stop  offset="0.7435" style="stop-color:#F7F7F7"/>
				<stop  offset="0.8828" style="stop-color:#FFFFFF"/>
				<stop  offset="1" style="stop-color:#B3B3B3"/>
			</linearGradient>
			<path id="path2696_1_" class="st21" d="M200.3,233.2c0.8-0.2,2.5-0.8,2.8,0c-1.8,3.1-3,6.3-3.6,9.7c-0.6,0.4-2.2-0.6-3.9-1.2
				c-2.2-0.9,1.1-2.8,2.3-4.5C198.5,236.2,199.5,233.8,200.3,233.2"/>
			<linearGradient id="path2700_2_" gradientUnits="userSpaceOnUse" x1="196.5525" y1="256.8089" x2="202.179" y2="256.8089">
				<stop  offset="0" style="stop-color:#FFFFFF"/>
				<stop  offset="0.3637" style="stop-color:#CCCCCC"/>
				<stop  offset="0.5278" style="stop-color:#E1E1E1"/>
				<stop  offset="0.7435" style="stop-color:#F7F7F7"/>
				<stop  offset="0.8828" style="stop-color:#FFFFFF"/>
				<stop  offset="1" style="stop-color:#B3B3B3"/>
			</linearGradient>
			<path id="path2700_1_" class="st22" d="M199.3,251.6c0.5,3.2,1.4,6.3,2.9,9.3c-0.3,0.6-3.6,1.8-5.4,0.3
				C195.8,260,198.1,251.5,199.3,251.6"/>
			<linearGradient id="path2708_2_" gradientUnits="userSpaceOnUse" x1="67.3378" y1="213.1188" x2="222.2119" y2="213.1188">
				<stop  offset="0" style="stop-color:#FFFFFF"/>
				<stop  offset="0.3637" style="stop-color:#CCCCCC"/>
				<stop  offset="0.5278" style="stop-color:#E1E1E1"/>
				<stop  offset="0.7435" style="stop-color:#F7F7F7"/>
				<stop  offset="0.8828" style="stop-color:#FFFFFF"/>
				<stop  offset="1" style="stop-color:#B3B3B3"/>
			</linearGradient>
			<path id="path2708_1_" class="st23" d="M131.4,195.9c6.8,0,12.8,0.6,19.4,0.9c3.4,0.2,6.6,0.2,10,0.4c3.4,0.2,6.9,0.4,10.3,0.4
				c6.2,0,12-0.4,18.1-0.7l4.6,0c2.9,0,6.1-0.2,9,0.1c1.8,0.2,3.7,0.2,5.4,0.4c2.4,0.3,6.5,0.8,8.3,1.5c1.6,0.7,2.8,1.8,3.4,2.5
				c1.2,1.3,2.9,3.3,2,4.8c-0.4,0.8-1.5,1.9-2.1,2.5c-0.8,0.9-6.9,5.9-8.5,8.1c-1.4,1.9-1.8,3.4-2.6,4.9c-1.2,1.9,0.1,3.4-0.3,4.5
				c-1.3,1.3-2.4,2.7-3.5,4.2c-0.2,0.1-0.4,0.2-0.6,0c-1.1-0.7-0.8-2.3-0.6-4.3c0.1-1.5,1.3-4.7,1.8-5.5c0.9-1.6,3.7-5,3.9-5.6
				c1.8-5-3.2-8-7-9.3c-1.3-0.4-2.5-0.9-3.8-1.1c-4.9-0.9-10.1-0.8-15.4-0.9c-3.6-0.1-7.4-0.3-11.1-0.3l-8,0
				c-2.5-0.2-5.1-0.3-7.5-0.9c-4.1-1-7.5-1.8-11.5-2.7c-3.5-0.8-7.2-1.4-10.9-1.6c-2.5-0.2-6.9-0.4-9.5-0.4
				c-1.9,0-16.2-0.1-18.3,0.4c-0.7,0.1-0.6,1.5-0.1,1.6c2.7,0.8,12.9,1,19.6,0.8c4,0.2,8.4,0.7,12.1,1.2c4.8,0.7,9.3,1.6,13.8,3
				l4.8,1.2c0.8,0.2,1.8,0.8,0.7,1.5c-3,0-5.7-0.6-8.7-0.6c-7.6,0-18.5-0.2-26.1-0.2c-0.8,0-37.6-0.4-41.9-0.7
				c-4.9-0.3-9.3-2.6-10.9-3.4c-0.6-0.3-2.5-1.7-2.4-2c0.4-0.9,2.4-4.3,3.9-4.4c3.3,0.3,7.4,0.7,10.8,0.9c0,0,24.6-0.3,25.3-0.3
				c3.7-0.3,12.5-0.7,16.3-0.7C125.8,195.9,129.3,195.8,131.4,195.9"/>
		</g>
		<g id="XMLID_14_">
			<linearGradient id="path2496_2_" gradientUnits="userSpaceOnUse" x1="338.2921" y1="211.3252" x2="424.3712" y2="211.3252">
				<stop  offset="0" style="stop-color:#B3B3B3"/>
				<stop  offset="0.1172" style="stop-color:#FFFFFF"/>
				<stop  offset="0.2565" style="stop-color:#F7F7F7"/>
				<stop  offset="0.4722" style="stop-color:#E1E1E1"/>
				<stop  offset="0.6363" style="stop-color:#CCCCCC"/>
				<stop  offset="1" style="stop-color:#FFFFFF"/>
			</linearGradient>
			<path id="path2496_1_" class="st24" d="M414.7,207.8c-2.6,0-5.2,0-7.8,0c-4.4,0.2-9.2,0.1-13.7,0.2c-6,0.1-19.8,0.2-20.5,0.3
				c-2.9,0-5.7,0-8.6,0c-4.9,0-9.2,0-14,0c-0.8,0-5.8,0.2-7.3,0.2c-0.7,0-2-0.1-2.6,0c-1.2,0.2-3,2.6-0.8,2.6c0.1,0,0.2,0,0.3-0.1
				c0.2,0,0.5-0.1,0.7-0.1c0.6-0.2,1.5,0,2.1,0.1c1.2,0.1,2.4,0.2,3.6,0.3c3.2,0.2,6.4,0.4,9.5,0.6c2.3,0.2,4.6,0.4,6.9,0.5
				c16.7,1,33.3,2.5,50.6,2.5c4,0,7.6-1.7,8.8-2.1c0.5-0.2,1.7-0.3,2.1-0.7c0.9-0.8-0.1-3.6-1-4.1
				C422.4,207.6,415.4,207.8,414.7,207.8"/>
			<linearGradient id="path2504_2_" gradientUnits="userSpaceOnUse" x1="321.6651" y1="213.0693" x2="335.4299" y2="213.0693">
				<stop  offset="0" style="stop-color:#B3B3B3"/>
				<stop  offset="0.1172" style="stop-color:#FFFFFF"/>
				<stop  offset="0.2565" style="stop-color:#F7F7F7"/>
				<stop  offset="0.4722" style="stop-color:#E1E1E1"/>
				<stop  offset="0.6363" style="stop-color:#CCCCCC"/>
				<stop  offset="1" style="stop-color:#FFFFFF"/>
			</linearGradient>
			<path id="path2504_1_" class="st25" d="M323.7,210.1c-0.8,0-1.6,0.4-1.9,1.3c-0.3,0.7-0.3,1.6,0.3,2.1c0.6,0.5,1.6,0.6,2.3,0.8
				c1.2,0.3,2.5,0.6,3.7,1c1.4,0.3,2.6,0.5,4.3,0.7c1.3,0.1,2.4-0.2,2.7-1.2c0.4-1.2,0.2-2-0.7-2.5c-0.4-0.2-2.2-0.7-4.9-1.2
				C327.1,210.6,324.5,210.2,323.7,210.1"/>
			<linearGradient id="path2512_2_" gradientUnits="userSpaceOnUse" x1="337.6229" y1="219.2024" x2="415.5826" y2="219.2024">
				<stop  offset="0" style="stop-color:#B3B3B3"/>
				<stop  offset="0.1172" style="stop-color:#FFFFFF"/>
				<stop  offset="0.2565" style="stop-color:#F7F7F7"/>
				<stop  offset="0.4722" style="stop-color:#E1E1E1"/>
				<stop  offset="0.6363" style="stop-color:#CCCCCC"/>
				<stop  offset="1" style="stop-color:#FFFFFF"/>
			</linearGradient>
			<path id="path2512_1_" class="st26" d="M339,213.9c-0.3,0.1-0.6,0.2-0.8,0.5c-0.8,0.8-1,2.1,0.5,2.1c0.6-0.2,2.3,0.1,2.9,0.2
				c1.1,0.2,2.2,0.3,3.3,0.5c4.5,0.7,9,1.4,13.5,2.1c5.4,0.9,10.8,1.8,16.3,2.4c3.9,0.4,7.7,1.1,11.6,1.5c6,0.6,11.9,1.4,18.3,1.4
				c0.4,0,0.8,0,1.2,0c0.2,0,0.5,0,0.7,0c0.2,0,0.3,0,0.5-0.1c0.2,0,0.3,0,0.5-0.1c0.2,0,0.4,0,0.6,0c0.2,0,0.3,0,0.5-0.1
				c0.1,0,0.2,0,0.4-0.1c0.1,0,0.2,0,0.3,0c0.1,0,0.2,0,0.3-0.1c0.1,0,0.2,0,0.3-0.1c0.6-0.1,1.2-0.3,1.7-0.4c2-0.6,3-1.4,3.7-3.4
				c0.2-0.4,0.3-1.1,0-1.5c-0.3-0.4-0.8-0.4-1.3-0.4c-2.5,0-5.1,0-7.6,0c-3.4-0.1-6.9-0.3-10.3-0.4c-12.8-0.6-25.5-1.6-38.1-2.4
				c-4.3-0.3-8.6-0.7-12.9-1C343.4,214.3,340.9,213.9,339,213.9"/>
			<linearGradient id="path2520_2_" gradientUnits="userSpaceOnUse" x1="318.0021" y1="219.8027" x2="331.5643" y2="219.8027">
				<stop  offset="0" style="stop-color:#B3B3B3"/>
				<stop  offset="0.1172" style="stop-color:#FFFFFF"/>
				<stop  offset="0.2565" style="stop-color:#F7F7F7"/>
				<stop  offset="0.4722" style="stop-color:#E1E1E1"/>
				<stop  offset="0.6363" style="stop-color:#CCCCCC"/>
				<stop  offset="1" style="stop-color:#FFFFFF"/>
			</linearGradient>
			<path id="path2520_1_" class="st27" d="M320.5,216.5c-1,0.3-3.2,1.5-2.3,2.6c0.4,0.4,1.6,0.8,2.1,1c0.6,0.3,0.6,0.4,1.2,0.6
				c0.7,0.3,1.4,0.7,2.2,1c1.3,0.6,2.1,1.4,3.8,1.4c2,0,2.9,0.3,3.9-1.6c0.3-0.5,0.1-1-0.2-1.4c-0.5-0.6-3.1-1.6-4.3-1.9
				C324.7,217.4,321.1,216.3,320.5,216.5"/>
			<linearGradient id="path2528_2_" gradientUnits="userSpaceOnUse" x1="334.2102" y1="226.066" x2="404.7947" y2="226.066">
				<stop  offset="0" style="stop-color:#B3B3B3"/>
				<stop  offset="0.1172" style="stop-color:#FFFFFF"/>
				<stop  offset="0.2565" style="stop-color:#F7F7F7"/>
				<stop  offset="0.4722" style="stop-color:#E1E1E1"/>
				<stop  offset="0.6363" style="stop-color:#CCCCCC"/>
				<stop  offset="1" style="stop-color:#FFFFFF"/>
			</linearGradient>
			<path id="path2528_1_" class="st28" d="M335.4,218.5c-0.6,0.2-1.3,0.5-1.2,1.4c0.1,0.6,0.4,1.5,0.9,1.9c0.8,0.6,2.8,0.9,3.8,1.2
				c3,0.8,6,1.5,9.1,2.3c4.5,1.1,9,2.1,13.5,3.1c5.5,1.3,11.2,2.4,16.8,3.3c3.1,0.5,6.2,1,9.4,1.5c1.7,0.2,3.3,0.5,5,0.5
				c0.2,0,0.3,0,0.5-0.1c0.3,0,0.6,0,0.9,0c0.2,0,0.4,0,0.6-0.1c0.2,0,0.3,0,0.5-0.1c0.2,0,0.5,0,0.7,0c0.2,0,0.5,0,0.7,0
				c0.2,0,0.5,0,0.7-0.1c0.2,0,0.3,0,0.5-0.1c0.2,0,0.3,0,0.5,0c0.2,0,0.3,0,0.5-0.1c0.2,0,0.3,0,0.5-0.1c0.1,0,0.3,0,0.4,0
				c0.1,0,0.2,0,0.3-0.1c0.1,0,0.2,0,0.3-0.1c0.1,0,0.2,0,0.3-0.1c0.1,0,0.2,0,0.3-0.1c0.6-0.3,1.3-0.3,1.9-0.7
				c0.8-0.5,2.7-3.1,1.7-3.9c-0.8-0.7-5.1-0.5-6.5-0.6c-4.1-0.3-8.1-0.8-12.2-1.2c-5.8-0.5-11.5-1.6-17.2-2.3
				c-6.8-0.9-13.4-2-20.1-3.1c-3.1-0.5-6.2-1-9.3-1.6C337.9,219.2,336.9,218.5,335.4,218.5"/>
			<linearGradient id="path2540_2_" gradientUnits="userSpaceOnUse" x1="312.4167" y1="225.675" x2="325.9356" y2="225.675">
				<stop  offset="0" style="stop-color:#B3B3B3"/>
				<stop  offset="0.1172" style="stop-color:#FFFFFF"/>
				<stop  offset="0.2565" style="stop-color:#F7F7F7"/>
				<stop  offset="0.4722" style="stop-color:#E1E1E1"/>
				<stop  offset="0.6363" style="stop-color:#CCCCCC"/>
				<stop  offset="1" style="stop-color:#FFFFFF"/>
			</linearGradient>
			<path id="path2540_1_" class="st29" d="M315.9,221.7c-1.2,0.1-3.3,0.8-3.5,2.3c-0.1,0.4,0,0.8,0.3,1c0.5,0.4,4.7,2.5,6,3.3
				c1,0.6,1.8,1.4,3.1,1.4c1.8-0.1,2.4-0.5,2.9-0.8c0.8-0.5,1.7-1.6,1-2.5c-0.6-0.8-1.8-1.2-2.7-1.6c-0.9-0.4-1.9-0.9-2.8-1.3
				C319.5,223.2,317,221.7,315.9,221.7"/>
			<linearGradient id="path2544_2_" gradientUnits="userSpaceOnUse" x1="328.6693" y1="233.549" x2="391.3674" y2="233.549">
				<stop  offset="0" style="stop-color:#B3B3B3"/>
				<stop  offset="0.1172" style="stop-color:#FFFFFF"/>
				<stop  offset="0.2565" style="stop-color:#F7F7F7"/>
				<stop  offset="0.4722" style="stop-color:#E1E1E1"/>
				<stop  offset="0.6363" style="stop-color:#CCCCCC"/>
				<stop  offset="1" style="stop-color:#FFFFFF"/>
			</linearGradient>
			<path id="path2544_1_" class="st30" d="M333.1,224.7c-0.6,0.3-1.2,0.5-1.9,0.8c-0.8,0.3-3,0.8-2.5,2.1c0.4,1,10.5,4,13.5,5.1
				c8,2.7,14.9,5.1,23.3,6.9c6.1,1.3,12.7,2.8,19.5,2.8c0.3,0,0.6,0,0.8,0c0.2,0,0.4,0,0.6,0c0.1,0,0.2,0,0.3-0.1
				c0.5-0.2,0.9-0.3,1.4-0.6c0.7-0.5,1.1-1.2,1.6-1.8c0.5-0.5,1.2-0.9,1.5-1.6c0.1-0.3,0.1-0.7-0.1-0.9c-0.2-0.3-0.6-0.4-0.9-0.5
				c-1.6-0.2-3.1-0.4-4.7-0.6c-3-0.5-6.1-1-9.1-1.5c-4.1-0.7-8.2-1.6-12.2-2.4c-6.4-1.4-12.7-2.8-18.9-4.4c-2.9-0.8-5.8-1.5-8.7-2.3
				c-0.6-0.2-1.2-0.4-1.8-0.6C334.2,225,333.8,224.7,333.1,224.7"/>
			<linearGradient id="path2556_2_" gradientUnits="userSpaceOnUse" x1="306.5396" y1="230.7923" x2="318.5982" y2="230.7923">
				<stop  offset="0" style="stop-color:#B3B3B3"/>
				<stop  offset="0.1172" style="stop-color:#FFFFFF"/>
				<stop  offset="0.2565" style="stop-color:#F7F7F7"/>
				<stop  offset="0.4722" style="stop-color:#E1E1E1"/>
				<stop  offset="0.6363" style="stop-color:#CCCCCC"/>
				<stop  offset="1" style="stop-color:#FFFFFF"/>
			</linearGradient>
			<path id="path2556_1_" class="st31" d="M310,226.7c-1,0.3-2.5-0.2-3.1,0.8c-0.3,0.5-0.4,1.3-0.1,1.8c0.4,0.6,5.7,4.9,6.4,5.2
				c0.8,0.4,1.9,0.4,3,0.4c0.9,0,2.7-0.8,2.5-2.1c-0.1-0.4-0.3-0.7-0.6-0.9c-0.8-0.7-1.8-1.2-2.7-1.8c-0.8-0.5-1.6-1.1-2.4-1.6
				c-0.7-0.5-1.3-0.9-2-1.4C310.7,226.8,310.3,226.7,310,226.7"/>
			<linearGradient id="path2560_2_" gradientUnits="userSpaceOnUse" x1="300.2407" y1="235.1489" x2="310.7538" y2="235.1489">
				<stop  offset="0" style="stop-color:#B3B3B3"/>
				<stop  offset="0.1172" style="stop-color:#FFFFFF"/>
				<stop  offset="0.2565" style="stop-color:#F7F7F7"/>
				<stop  offset="0.4722" style="stop-color:#E1E1E1"/>
				<stop  offset="0.6363" style="stop-color:#CCCCCC"/>
				<stop  offset="1" style="stop-color:#FFFFFF"/>
			</linearGradient>
			<path id="path2560_1_" class="st32" d="M302,230.9c-0.9,0.2-1.9,0.6-1.7,1.8c0,0.2,1.4,1.3,1.9,1.8c1.2,1.2,2.1,3.3,3.6,4.1
				c1.1,0.6,2.6,1.3,3.8,0.7c1.5-0.7,1.1-2.2,0.9-2.5c-1.1-1.4-2.6-2.5-3.9-3.7c-0.6-0.6-1.2-1.5-2-1.8
				C304,230.8,302.9,230.9,302,230.9"/>
			<linearGradient id="path2568_2_" gradientUnits="userSpaceOnUse" x1="324.2053" y1="240.1084" x2="374.3831" y2="240.1084">
				<stop  offset="0" style="stop-color:#B3B3B3"/>
				<stop  offset="0.1172" style="stop-color:#FFFFFF"/>
				<stop  offset="0.2565" style="stop-color:#F7F7F7"/>
				<stop  offset="0.4722" style="stop-color:#E1E1E1"/>
				<stop  offset="0.6363" style="stop-color:#CCCCCC"/>
				<stop  offset="1" style="stop-color:#FFFFFF"/>
			</linearGradient>
			<path id="path2568_1_" class="st33" d="M327.4,231.2c-0.7,0.3-3.2,1.2-3.2,1.9c0.1,1,1.6,1.5,2.5,1.8c0.7,0.2,1.3,0.6,1.9,0.9
				c1.3,0.7,2.6,1.4,3.9,2c2.1,1,4.1,2.1,6.2,3.1c3,1.6,6,3,9.1,4.3c3.2,1.3,6.5,2.9,10,3.5c3,0.5,6.5,0.4,9.8,0.4
				c0.3,0,0.5,0,0.8-0.1c0.4,0,0.9,0,1.3-0.1c0.2,0,0.5,0,0.7,0c0.1,0,0.3,0,0.4-0.1c0.1,0,0.3,0,0.4-0.1c0.1,0,0.2,0,0.3-0.1
				c0.3-0.1,0.6-0.3,1-0.4c0.7-0.5,2.5-2.3,1.7-3.2c-0.7-0.8-3.6-1-4.7-1.3c-2.5-0.5-4.9-1.1-7.3-1.7c-8.7-2.2-17.1-5-25.4-7.8
				c-2.1-0.8-4.3-1.6-6.4-2.3C329.4,231.7,328.5,231.2,327.4,231.2"/>
			<linearGradient id="path2576_2_" gradientUnits="userSpaceOnUse" x1="318.8138" y1="245.5195" x2="356.8727" y2="245.5195">
				<stop  offset="0" style="stop-color:#B3B3B3"/>
				<stop  offset="0.1172" style="stop-color:#FFFFFF"/>
				<stop  offset="0.2565" style="stop-color:#F7F7F7"/>
				<stop  offset="0.4722" style="stop-color:#E1E1E1"/>
				<stop  offset="0.6363" style="stop-color:#CCCCCC"/>
				<stop  offset="1" style="stop-color:#FFFFFF"/>
			</linearGradient>
			<path id="path2576_1_" class="st34" d="M320.8,235.4c-0.6,0.4-2.2,1.6-2,2.4c0.2,0.9,3.1,2.2,3.6,2.6c4.5,3.3,8.9,6.6,13.5,9.6
				c2.6,1.6,5.2,3.3,8,4.4c2.8,1,6.1,1.4,9.4,1.4c0.2,0,0.4,0,0.6,0c0.3-0.1,0.5-0.2,0.8-0.3c0.8-0.5,2.6-2,2-3
				c-0.1-0.2-0.4-0.4-0.6-0.5c-0.7-0.2-1.3-0.5-2-0.7c-1.2-0.4-2.3-0.8-3.5-1.3c-3.6-1.4-7.1-3-10.6-4.7c-4.8-2.3-9.5-4.7-14.2-7.2
				c-1.5-0.8-2.9-1.6-4.3-2.5c-0.1,0-0.2-0.1-0.4-0.1C321,235.4,320.9,235.4,320.8,235.4"/>
			<linearGradient id="path2580_2_" gradientUnits="userSpaceOnUse" x1="311.743" y1="248.728" x2="340.3134" y2="248.728">
				<stop  offset="0" style="stop-color:#B3B3B3"/>
				<stop  offset="0.1172" style="stop-color:#FFFFFF"/>
				<stop  offset="0.2565" style="stop-color:#F7F7F7"/>
				<stop  offset="0.4722" style="stop-color:#E1E1E1"/>
				<stop  offset="0.6363" style="stop-color:#CCCCCC"/>
				<stop  offset="1" style="stop-color:#FFFFFF"/>
			</linearGradient>
			<path id="path2580_1_" class="st35" d="M313.8,238.4c-0.3,0.1-0.5,0.3-0.7,0.5c-0.3,0.5-0.5,1.1-0.7,1.6
				c-0.2,0.5-0.4,0.9-0.6,1.4c-0.1,0.3-0.1,0.6,0,0.8c0.3,0.5,1,0.6,1.5,0.8c0.4,0.2,0.8,0.5,1.2,0.8c3.2,3,6.3,6.2,9.6,9.1
				c1.2,1.1,2.3,2.4,3.7,3.1c1.1,0.6,2.5,0.9,3.7,1.2c1.9,0.5,3.8,1.2,6,1.2c0.8-0.4,3.2-1.1,2.8-2.4c0,0,0-0.1-0.1-0.1
				c0-0.1-0.1-0.2-0.2-0.2c-0.8-0.9-2-1.3-3-1.9c-1.8-1.1-3.6-2.3-5.3-3.4c-4.3-2.8-8.4-6-12.6-9.1c-1.5-1.1-2.6-2.9-4.5-3.4
				c-0.1,0-0.2,0-0.3,0c-0.1,0-0.2,0-0.3,0C314,238.4,313.9,238.4,313.8,238.4"/>
			<linearGradient id="path2592_2_" gradientUnits="userSpaceOnUse" x1="304.161" y1="251.5719" x2="325.0442" y2="251.5719">
				<stop  offset="0" style="stop-color:#B3B3B3"/>
				<stop  offset="0.1172" style="stop-color:#FFFFFF"/>
				<stop  offset="0.2565" style="stop-color:#F7F7F7"/>
				<stop  offset="0.4722" style="stop-color:#E1E1E1"/>
				<stop  offset="0.6363" style="stop-color:#CCCCCC"/>
				<stop  offset="1" style="stop-color:#FFFFFF"/>
			</linearGradient>
			<path id="path2592_1_" class="st36" d="M305.8,242.2c-1,0.3-2,1.5-1.5,2.7c0.2,0.6,0.9,0.8,1.4,1.2c0.5,0.4,0.8,0.8,1.1,1.3
				c2.1,2.8,4.1,5.7,6.3,8.4c0.8,1,1.7,2.4,2.9,3.2c1.5,1,4.5,2.1,6.5,2.1c0.7-0.4,2.5-0.4,2.6-1.5c0,0,0-0.1,0-0.1
				c-0.1-1-2.1-2.4-2.8-3.1c-3.1-2.9-6.1-5.8-9.2-8.7c-0.6-0.6-1.3-1.3-1.9-1.9c-0.6-0.7-1.1-1.4-1.8-2
				C308.4,242.8,307.1,242.2,305.8,242.2"/>
			<linearGradient id="path2600_2_" gradientUnits="userSpaceOnUse" x1="279.22" y1="280.4843" x2="313.2463" y2="280.4843">
				<stop  offset="0" style="stop-color:#B3B3B3"/>
				<stop  offset="0.1172" style="stop-color:#FFFFFF"/>
				<stop  offset="0.2565" style="stop-color:#F7F7F7"/>
				<stop  offset="0.4722" style="stop-color:#E1E1E1"/>
				<stop  offset="0.6363" style="stop-color:#CCCCCC"/>
				<stop  offset="1" style="stop-color:#FFFFFF"/>
			</linearGradient>
			<path id="path2600_1_" class="st37" d="M312.6,264.8c-0.5,0.3-3.5,5.8-6.1,9.5c-2.9,4.1-6.5,8.1-10.6,11.3
				c-3.4,2.7-6.7,4.6-10.4,6.6c-2.3,1.1-5.3,2.4-5.9,2.9c-0.7,0.6-0.4,1.1,0.5,1.1c0.8-0.3,4.2-1.7,7.7-3.6
				c7.3-4,14.7-10.6,19.8-17.4c2.2-3,5.2-8.5,5.5-9.3C313.4,265.2,313.2,264.9,312.6,264.8"/>
			<linearGradient id="path2628_2_" gradientUnits="userSpaceOnUse" x1="324.2395" y1="206.8512" x2="337.567" y2="206.8512">
				<stop  offset="0" style="stop-color:#B3B3B3"/>
				<stop  offset="0.1172" style="stop-color:#FFFFFF"/>
				<stop  offset="0.2565" style="stop-color:#F7F7F7"/>
				<stop  offset="0.4722" style="stop-color:#E1E1E1"/>
				<stop  offset="0.6363" style="stop-color:#CCCCCC"/>
				<stop  offset="1" style="stop-color:#FFFFFF"/>
			</linearGradient>
			<path id="path2628_1_" class="st38" d="M324.2,206.5c-0.1,1.8,5,1.4,6.2,1.5c1.8,0.2,5.4,1.5,6.1,0.9c0.8-0.7,1.7-4.2,0.2-4.3
				c-2.2-0.1-3,0.2-5.4,0.3C328.9,205.1,324.4,204.8,324.2,206.5"/>
			<linearGradient id="path2640_2_" gradientUnits="userSpaceOnUse" x1="292.3051" y1="218.0058" x2="321.6684" y2="218.0058">
				<stop  offset="0" style="stop-color:#B3B3B3"/>
				<stop  offset="0.1172" style="stop-color:#FFFFFF"/>
				<stop  offset="0.2565" style="stop-color:#F7F7F7"/>
				<stop  offset="0.4722" style="stop-color:#E1E1E1"/>
				<stop  offset="0.6363" style="stop-color:#CCCCCC"/>
				<stop  offset="1" style="stop-color:#FFFFFF"/>
			</linearGradient>
			<path id="path2640_1_" class="st39" d="M320.4,205.9c0.5,0.1,1.2,0.1,1.3,0.8c0.1,0.8-0.5,1.5-2.1,1.7c-1.1-0.1-3.4-2.1-4.3-0.3
				c-0.8,1.5,4,2.1,3.8,3.5c-0.2,1.2-0.6,1.4-1.7,1.4c-0.5,0-1.7-0.7-2.1-0.8c-1.1-0.5-3.7-2.5-4.6-0.9c-1,1.6,5.6,3.8,5.4,5
				c-0.2,1.2-1.4,2.1-2.3,1.8c-1.3-0.3-5.3-5-7.1-3.1c-1.7,1.7,5.1,4.7,4.7,5.7c-0.6,1.7-2.1,2.3-4.2,0.5c-1.1-0.9-2.9-2.6-3.9-1.3
				c-1.2,1.7,2.3,3.7,2.6,4.3c0.8,1.4-1,3-2.2,2.7c-1.1-0.1-2.7-4.2-4.3-2.8c-1.2,1.1,1.7,3.6,1.4,4.7c-0.1,0.9-2.6,2.2-3.7,1.3
				c-1.6-1,2.1-6.4-1.5-11.4c-1.7-2.1-3.2-5.4-3.3-6c-0.1-1-0.1-2.8,0.6-3.6c2.5-3.4,14-3.1,18.9-3.4
				C315.2,205.5,317,205.9,320.4,205.9"/>
			<linearGradient id="path2648_2_" gradientUnits="userSpaceOnUse" x1="295.1249" y1="238.3111" x2="302.9179" y2="238.3111">
				<stop  offset="0" style="stop-color:#B3B3B3"/>
				<stop  offset="0.1172" style="stop-color:#FFFFFF"/>
				<stop  offset="0.2565" style="stop-color:#F7F7F7"/>
				<stop  offset="0.4722" style="stop-color:#E1E1E1"/>
				<stop  offset="0.6363" style="stop-color:#CCCCCC"/>
				<stop  offset="1" style="stop-color:#FFFFFF"/>
			</linearGradient>
			<path id="path2648_1_" class="st40" d="M295.2,233.5c0.6-1.2,3.4,0.1,3.7,0.4c0.8,0.7,1,1.8,1.6,2.6c0.7,1,2.5,3.1,2.4,4.2
				c-0.1,0.9-3.6,3.6-4.4,3c0,0,0-0.1-0.1-0.1c-0.5-3.4-1.7-6.6-3.3-9.7C295.1,233.7,295.2,233.6,295.2,233.5"/>
			<linearGradient id="path2652_2_" gradientUnits="userSpaceOnUse" x1="298.6962" y1="253.5253" x2="312.8433" y2="253.5253">
				<stop  offset="0" style="stop-color:#B3B3B3"/>
				<stop  offset="0.1172" style="stop-color:#FFFFFF"/>
				<stop  offset="0.2565" style="stop-color:#F7F7F7"/>
				<stop  offset="0.4722" style="stop-color:#E1E1E1"/>
				<stop  offset="0.6363" style="stop-color:#CCCCCC"/>
				<stop  offset="1" style="stop-color:#FFFFFF"/>
			</linearGradient>
			<path id="path2652_1_" class="st41" d="M299,245.3c1,0,2.6,0.4,3.3,1c0.6,0.5,0.8,1.2,1.2,1.8l2.1,2.9l4.8,6.3l2.2,2.8
				c0.4,0.7,0.3,1.2-0.3,1.7l-0.4,0c-2.2,0-5.7-0.8-7.2-2.1c-0.8-0.7-1.2-1.4-1.6-2.2l-2.3-4.3c-0.4-0.6-1.7-2.6-2-3.3
				c0-0.1-0.1-0.2-0.1-0.3c0-0.6,0-1.1,0-1.7c0-0.7,0-1.5-0.1-2.2C298.8,245.5,298.9,245.3,299,245.3"/>
			<linearGradient id="path2664_2_" gradientUnits="userSpaceOnUse" x1="270.9062" y1="277.5031" x2="308.5656" y2="277.5031">
				<stop  offset="0" style="stop-color:#B3B3B3"/>
				<stop  offset="0.1172" style="stop-color:#FFFFFF"/>
				<stop  offset="0.2565" style="stop-color:#F7F7F7"/>
				<stop  offset="0.4722" style="stop-color:#E1E1E1"/>
				<stop  offset="0.6363" style="stop-color:#CCCCCC"/>
				<stop  offset="1" style="stop-color:#FFFFFF"/>
			</linearGradient>
			<path id="path2664_1_" class="st42" d="M303.7,263.2c0.6-0.2,4.8,1.3,4.9,2.3c0,0.8-2.6,4.4-5.5,8.3
				c-5.1,6.8-11.4,11.4-18.5,15.2c-1.5,0.8-3.1,1.6-4.7,2.3l-1.4,0.5c-0.4,0-0.8-0.1-1.1-0.4c-0.5-0.6-6.1-8.7-6.3-9
				c-0.2-0.3-0.2-0.8,0-1.1c10-3.8,18.2-9.9,23-17.6c0.8-0.2,2.2,1,2.8,1.3c1.1,0.5,2.4,1,3.7,0.7
				C302,265.4,302.6,263.7,303.7,263.2"/>
			<linearGradient id="path2704_2_" gradientUnits="userSpaceOnUse" x1="277.678" y1="213.7188" x2="431.9251" y2="213.7188">
				<stop  offset="0" style="stop-color:#B3B3B3"/>
				<stop  offset="0.1172" style="stop-color:#FFFFFF"/>
				<stop  offset="0.2565" style="stop-color:#F7F7F7"/>
				<stop  offset="0.4722" style="stop-color:#E1E1E1"/>
				<stop  offset="0.6363" style="stop-color:#CCCCCC"/>
				<stop  offset="1" style="stop-color:#FFFFFF"/>
			</linearGradient>
			<path id="path2704_1_" class="st43" d="M426.3,196.3c0.8,0,1.5,0,2.2,0.3c0.9,0.4,3.5,3,3.4,4c0,0.5-3.2,1.5-4.7,2.1
				c-1.1,0.5-3.5,1.4-3.9,1.6c-0.3,0.1-2.2,0.1-2.5,0.1c-0.4,0-3.5,0-4.7,0c-0.5,0-9.7,0.3-12.8,0.3c-3.5,0-6.9,0.1-10.3,0.1
				c-0.8,0-4.7,0.1-5,0.1h-14.8h-3.2l-1.3,0l-0.8,0h-9.5c-0.7,0-5.6,0.1-7.7,0.3c-3,0.2-7.4,0.6-7.5,0.6c-0.6,0-1.7,0.2-1.9-0.4
				c-0.2-0.7,1.3-1,1.7-1.1c5.3-1,10.6-2.3,16.7-3c10-1.2,14.8-1.4,16.5-1.9c0.9-0.3,0.8-1.5,0-1.6c-10.7-1.3-34.7,3.4-38.2,4.1
				c-6.4,1.4-11.1,1.7-12.7,1.7h-14.9c-8.3,0-11.9,0.9-12.5,1c-1.6,0.4-3.1,0.9-4.5,1.6c-3,1.5-4.9,3.4-3.7,7
				c0.5,0.8,0.9,1.8,1.3,2.6c1,2,2.4,4.5,3.4,6.5c0.8,1.4,1.3,3.2,1.3,4.9l-0.4,2.2c0,0.4-1,2-1.4,1.7c0,0-0.1-0.1-0.2-0.3
				c-0.6-0.8-1.2-1.7-1.9-2.5c-0.2-0.3-0.4-0.5-0.5-0.6c-0.8-1,1.5-2.4,1.3-3.6c-0.4-2.5-4.2-7.3-7-9.6c-1.6-1.3-3.2-3.1-4.6-4.8
				c-0.6-0.8-1.3-1.5-1.9-2.3c-0.5-0.7-0.8-1.2-1-2c-0.4-1.7,0.6-2.8,1.8-3.7c0.7-0.5,2-1.3,3-1.8c2.8-1.2,9.5-2.3,13.4-2.8
				c1.3-0.1,4.5-0.5,6.9-0.6c2.7,0,5.2,0.1,7.7,0.3c4.9,0.4,9.6,1.3,14.7,1.3c7.4,0.1,14.4-0.3,21.6-0.7c3.2-0.2,6.5-0.4,9.9-0.6
				c5.2-0.4,21.1-0.2,23.5-0.1c1.2,0.1,11.7,0.5,17,0.9c1.2,0.1,2.1,0.2,2.9,0.3c2.3,0,4.7,0.1,7-0.1c4.3-0.3,8.6-0.7,12.8-1.1
				L426.3,196.3L426.3,196.3z"/>
			<linearGradient id="path2712_2_" gradientUnits="userSpaceOnUse" x1="295.2043" y1="258.5609" x2="301.3772" y2="258.5609">
				<stop  offset="0" style="stop-color:#B3B3B3"/>
				<stop  offset="0.1172" style="stop-color:#FFFFFF"/>
				<stop  offset="0.2565" style="stop-color:#F7F7F7"/>
				<stop  offset="0.4722" style="stop-color:#E1E1E1"/>
				<stop  offset="0.6363" style="stop-color:#CCCCCC"/>
				<stop  offset="1" style="stop-color:#FFFFFF"/>
			</linearGradient>
			<path id="path2712_1_" class="st44" d="M298.9,253.3c1.1-0.1,3.5,9.5,2,10.3c-1.5,0.8-5.1-1-5.6-1.5c-0.1-0.1-0.1-0.2-0.1-0.3
				c1.4-2.6,2.4-5.3,3-8.1C298.4,253.5,298.6,253.4,298.9,253.3"/>
		</g>
		<g id="XMLID_15_">
			<g id="XMLID_16_">
				<radialGradient id="path2668_2_" cx="256.9529" cy="294.2847" r="7.1066" gradientUnits="userSpaceOnUse">
					<stop  offset="0" style="stop-color:#B3B3B3"/>
					<stop  offset="0.1172" style="stop-color:#FFFFFF"/>
					<stop  offset="0.2565" style="stop-color:#F7F7F7"/>
					<stop  offset="0.4722" style="stop-color:#E1E1E1"/>
					<stop  offset="0.6363" style="stop-color:#CCCCCC"/>
					<stop  offset="1" style="stop-color:#FFFFFF"/>
				</radialGradient>
				<path id="path2668_1_" class="st45" d="M256.4,284.8c0.6,0.3,0.8,0.9,1.1,1.4c0.4,0.9,1.8,8.6,2.5,11.6c0.2,1,0.5,2.6,0.3,3.6
					c-0.1,0.9-1.2,2.2-2.4,2.4c-0.9,0.1-2.8-1.3-3.1-2c-0.4-0.9-0.3-2.1-0.4-3.1c-0.2-3.3-0.7-11.1-0.7-11.9c0-0.5,0.2-1.3,0.7-1.7
					C255,284.9,255.7,284.9,256.4,284.8"/>
				<radialGradient id="path2672_2_" cx="264.408" cy="293.025" r="7.3535" gradientUnits="userSpaceOnUse">
					<stop  offset="0" style="stop-color:#B3B3B3"/>
					<stop  offset="0.1172" style="stop-color:#FFFFFF"/>
					<stop  offset="0.2565" style="stop-color:#F7F7F7"/>
					<stop  offset="0.4722" style="stop-color:#E1E1E1"/>
					<stop  offset="0.6363" style="stop-color:#CCCCCC"/>
					<stop  offset="1" style="stop-color:#FFFFFF"/>
				</radialGradient>
				<path id="path2672_1_" class="st46" d="M262.8,283.7c0.3,0.3,0.5,0.6,0.7,0.8c0.6,0.8,3.3,8.4,4.6,11.3c0.4,1,1,2.5,1,3.6
					c0,1-0.8,2.5-1.9,2.8c-0.9,0.3-3.1-0.8-3.5-1.4c-0.6-0.9-0.7-2-1-3.1c-0.8-3.2-2.7-11.1-2.9-11.9c-0.1-0.4-0.1-1,0.2-1.5
					C260.9,284.1,261.9,284,262.8,283.7"/>
				<radialGradient id="path2676_2_" cx="271.4757" cy="291.1818" r="7.49" gradientUnits="userSpaceOnUse">
					<stop  offset="0" style="stop-color:#B3B3B3"/>
					<stop  offset="0.1172" style="stop-color:#FFFFFF"/>
					<stop  offset="0.2565" style="stop-color:#F7F7F7"/>
					<stop  offset="0.4722" style="stop-color:#E1E1E1"/>
					<stop  offset="0.6363" style="stop-color:#CCCCCC"/>
					<stop  offset="1" style="stop-color:#FFFFFF"/>
				</radialGradient>
				<path id="path2676_1_" class="st47" d="M268.7,282.2c0.4,0.2,0.7,0.6,0.9,0.8c0.7,0.7,4.3,7.9,5.9,10.7c0.5,0.9,1.3,2.4,1.4,3.4
					c0.1,0.9-0.5,2.5-1.6,3c-0.9,0.4-3.1-0.4-3.7-1c-0.7-0.8-1-1.9-1.4-2.9c-1.2-3.1-4.1-10.7-4.3-11.5c-0.1-0.4-0.2-1.1,0.1-1.7
					C267,282.7,267.9,282.4,268.7,282.2"/>
				<radialGradient id="path2680_2_" cx="249.0052" cy="294.7077" r="7.0238" gradientUnits="userSpaceOnUse">
					<stop  offset="0" style="stop-color:#B3B3B3"/>
					<stop  offset="0.1172" style="stop-color:#FFFFFF"/>
					<stop  offset="0.2565" style="stop-color:#F7F7F7"/>
					<stop  offset="0.4722" style="stop-color:#E1E1E1"/>
					<stop  offset="0.6363" style="stop-color:#CCCCCC"/>
					<stop  offset="1" style="stop-color:#FFFFFF"/>
				</radialGradient>
				<path id="path2680_1_" class="st48" d="M249.9,285.2c0.5,0.4,0.7,1,0.9,1.5c0.3,0.9,0.7,8.7,1,11.8c0.1,1,0.2,2.6-0.1,3.6
					c-0.3,0.9-1.5,2.1-2.6,2.1c-0.9,0-2.6-1.6-2.9-2.3c-0.3-1-0.1-2.1-0.1-3.2c0.2-3.3,0.6-11.1,0.7-11.9c0.1-0.5,0.3-1.2,0.8-1.6
					c0.4,0,0.8,0,1.2,0C249.3,285.2,249.6,285.2,249.9,285.2"/>
				<radialGradient id="path2684_2_" cx="241.1103" cy="294.2349" r="7.096" gradientUnits="userSpaceOnUse">
					<stop  offset="0" style="stop-color:#B3B3B3"/>
					<stop  offset="0.1172" style="stop-color:#FFFFFF"/>
					<stop  offset="0.2565" style="stop-color:#F7F7F7"/>
					<stop  offset="0.4722" style="stop-color:#E1E1E1"/>
					<stop  offset="0.6363" style="stop-color:#CCCCCC"/>
					<stop  offset="1" style="stop-color:#FFFFFF"/>
				</radialGradient>
				<path id="path2684_1_" class="st49" d="M244,285c0.4,0.5,0.5,1.1,0.6,1.6c0.2,0.9-0.7,8.7-0.9,11.8c-0.1,1-0.2,2.6-0.7,3.6
					c-0.4,0.8-1.8,1.8-2.9,1.6c-0.9-0.1-2.3-2-2.5-2.7c-0.1-1,0.2-2.1,0.4-3.1c0.7-3.2,2.4-10.9,2.6-11.7c0.1-0.4,0.4-0.9,0.8-1.3
					C242.4,284.9,243.2,285,244,285"/>
				<radialGradient id="path2688_2_" cx="233.8" cy="293.1066" r="7.2876" gradientUnits="userSpaceOnUse">
					<stop  offset="0" style="stop-color:#B3B3B3"/>
					<stop  offset="0.1172" style="stop-color:#FFFFFF"/>
					<stop  offset="0.2565" style="stop-color:#F7F7F7"/>
					<stop  offset="0.4722" style="stop-color:#E1E1E1"/>
					<stop  offset="0.6363" style="stop-color:#CCCCCC"/>
					<stop  offset="1" style="stop-color:#FFFFFF"/>
				</radialGradient>
				<path id="path2688_1_" class="st50" d="M238,284.3c0.5,0.6,0.5,1.4,0.5,1.9c0,1-2.2,8.5-2.9,11.5c-0.3,1-0.7,2.5-1.3,3.4
					c-0.5,0.8-2.1,1.5-3.2,1.1c-0.9-0.3-2-2.3-1.9-3.1c0-1,0.6-2,1-3c1.2-3,4.2-10.3,4.6-11c0.2-0.4,0.6-0.9,1.1-1.1
					C236.5,284.1,237.2,284.2,238,284.3"/>
				<radialGradient id="path2692_2_" cx="226.6434" cy="291.0676" r="7.3533" gradientUnits="userSpaceOnUse">
					<stop  offset="0" style="stop-color:#B3B3B3"/>
					<stop  offset="0.1172" style="stop-color:#FFFFFF"/>
					<stop  offset="0.2565" style="stop-color:#F7F7F7"/>
					<stop  offset="0.4722" style="stop-color:#E1E1E1"/>
					<stop  offset="0.6363" style="stop-color:#CCCCCC"/>
					<stop  offset="1" style="stop-color:#FFFFFF"/>
				</radialGradient>
				<path id="path2692_1_" class="st51" d="M232.1,283c0.4,0.6,0.2,1.4,0.1,1.9c-0.1,0.9-3.5,8-4.7,10.9c-0.4,0.9-1.1,2.4-1.8,3.1
					c-0.7,0.7-2.3,1.1-3.3,0.6c-0.8-0.4-1.6-2.6-1.4-3.4c0.2-1,0.9-1.9,1.5-2.8c1.7-2.8,5.8-9.5,6.3-10.2c0.2-0.3,0.5-0.6,1-0.8
					C230.5,282.6,231.3,282.8,232.1,283"/>
			</g>
			<g id="XMLID_17_">
				<radialGradient id="path2604_2_" cx="250.2893" cy="196.0202" r="21.44" gradientUnits="userSpaceOnUse">
					<stop  offset="0" style="stop-color:#B3B3B3"/>
					<stop  offset="0.1172" style="stop-color:#FFFFFF"/>
					<stop  offset="0.2565" style="stop-color:#F7F7F7"/>
					<stop  offset="0.4722" style="stop-color:#E1E1E1"/>
					<stop  offset="0.6363" style="stop-color:#CCCCCC"/>
					<stop  offset="1" style="stop-color:#FFFFFF"/>
				</radialGradient>
				<path id="path2604_1_" class="st52" d="M220.4,198.9c0,0-0.7-1.4,0.9-2.2c1.6-0.8,13.8-4.7,28.2-4.7c15.8,0,29.6,5.1,30.4,5.7
					c1.1,0.9,0.1,2.5-1.1,2.3c-1.2-0.2-13.7-5.5-29.1-5.5c-15.4,0-26.1,4-27.1,4.6C221.5,199.8,220.4,198.9,220.4,198.9"/>
				<radialGradient id="path2716_2_" cx="250.5015" cy="210.6644" r="29.2435" gradientUnits="userSpaceOnUse">
					<stop  offset="0" style="stop-color:#B3B3B3"/>
					<stop  offset="0.1172" style="stop-color:#FFFFFF"/>
					<stop  offset="0.2565" style="stop-color:#F7F7F7"/>
					<stop  offset="0.4722" style="stop-color:#E1E1E1"/>
					<stop  offset="0.6363" style="stop-color:#CCCCCC"/>
					<stop  offset="1" style="stop-color:#FFFFFF"/>
				</radialGradient>
				<path id="path2716_1_" class="st53" d="M249.8,196.6c-12.3,0-25.5,3.4-26,4.2c-1.1,1.8,1.3,1.7,1.2,4.2c-0.1,3-2.4,5-3.3,5.9
					c-3.1,3.3-7.1,5-9.9,8.6c-0.2,0.3-0.4,1.5-0.1,1.9c0.7,1,2.4-0.1,2.9-0.4c5.8-4.5,11.3-6.3,17.8-8.3c1.6-0.5,9.9-2.2,20.6-1.8
					c9.5,0.4,18.2,2.8,25.8,7.3c3,1.8,5.7,3.9,8.6,6.3c1,0.9,1.9-0.4,1.9-0.9c0-0.5-0.4-1.3-0.7-1.8c-2.2-3.6-7-6.9-10.3-10.7
					c-1.7-1.9-2.5-2.6-3.1-3.7c-2-3.4,1.1-3.6,0.7-5.2C275.6,200.9,263.5,196.6,249.8,196.6"/>
			</g>
		</g>
	</g>
</g>
</svg>
