<?xml version="1.0" encoding="UTF-8" standalone="no"?>
<svg
   xmlns:dc="http://purl.org/dc/elements/1.1/"
   xmlns:cc="http://creativecommons.org/ns#"
   xmlns:rdf="http://www.w3.org/1999/02/22-rdf-syntax-ns#"
   xmlns:svg="http://www.w3.org/2000/svg"
   xmlns="http://www.w3.org/2000/svg"
   xmlns:sodipodi="http://sodipodi.sourceforge.net/DTD/sodipodi-0.dtd"
   xmlns:inkscape="http://www.inkscape.org/namespaces/inkscape"
   id="mb-stern_x5F_10"
   viewBox="0 0 64 64"
   width="2500"
   height="2500"
   version="1.1"
   sodipodi:docname="bozza.svg"
   inkscape:version="0.92.4 5da689c313, 2019-01-14">
  <metadata
     id="metadata239">
    <rdf:RDF>
      <cc:Work
         rdf:about="">
        <dc:format>image/svg+xml</dc:format>
        <dc:type
           rdf:resource="http://purl.org/dc/dcmitype/StillImage" />
        <dc:title></dc:title>
      </cc:Work>
    </rdf:RDF>
  </metadata>
  <defs
     id="defs237" />
  <sodipodi:namedview
     pagecolor="#ffffff"
     bordercolor="#666666"
     borderopacity="1"
     objecttolerance="10"
     gridtolerance="10"
     guidetolerance="10"
     inkscape:pageopacity="0"
     inkscape:pageshadow="2"
     inkscape:window-width="1920"
     inkscape:window-height="1052"
     id="namedview235"
     showgrid="false"
     inkscape:zoom="0.0944"
     inkscape:cx="1250"
     inkscape:cy="1250"
     inkscape:window-x="0"
     inkscape:window-y="0"
     inkscape:window-maximized="1"
     inkscape:current-layer="mb-stern_x5F_10" />
  <style
     id="style2">.st0{fill:url(#outer_1_)}.st1{fill:url(#SVGID_1_)}.st2{opacity:.4;fill:url(#SVGID_2_);enable-background:new}.st3{fill:#fff}.st4{opacity:.4;fill:url(#SVGID_3_);enable-background:new}.st5{fill:#565f64}.st6{fill:url(#SVGID_4_)}.st7{fill:#a4aaae;fill-opacity:.6}.st8{fill:#333e46}.st9{fill:url(#SVGID_5_)}.st10{fill:url(#SVGID_6_);fill-opacity:.8}.st11{opacity:.8;fill:url(#SVGID_7_);enable-background:new}.st12{fill:url(#SVGID_8_)}.st13{fill:url(#SVGID_9_)}.st14{fill:url(#SVGID_10_)}.st15{fill:url(#SVGID_11_)}.st16{fill:url(#SVGID_12_)}.st17{fill:url(#SVGID_13_)}.st18{fill:url(#SVGID_14_)}.st19{fill:#fbfbfb}.st20{fill:#333f47}</style>
  <linearGradient
     id="outer_1_"
     gradientUnits="userSpaceOnUse"
     x1="7.998"
     y1="54.102"
     x2="56.002"
     y2="13.898"
     gradientTransform="matrix(1 0 0 -1 0 66)">
    <stop
       offset="0"
       stop-color="#fff"
       id="stop4" />
    <stop
       offset=".1"
       stop-color="#e7e8e6"
       id="stop6" />
    <stop
       offset=".1"
       stop-color="#cdd0d0"
       id="stop8" />
    <stop
       offset=".2"
       stop-color="#b5bbbd"
       id="stop10" />
    <stop
       offset=".2"
       stop-color="#a5acaf"
       id="stop12" />
    <stop
       offset=".3"
       stop-color="#9ba3a7"
       id="stop14" />
    <stop
       offset=".3"
       stop-color="#98a0a4"
       id="stop16" />
    <stop
       offset=".4"
       stop-color="#828a8f"
       id="stop18" />
    <stop
       offset=".5"
       stop-color="#667075"
       id="stop20" />
    <stop
       offset=".6"
       stop-color="#535c63"
       id="stop22" />
    <stop
       offset=".7"
       stop-color="#475158"
       id="stop24" />
    <stop
       offset=".8"
       stop-color="#434d54"
       id="stop26" />
    <stop
       offset="1"
       stop-color="#475157"
       id="stop28" />
  </linearGradient>
  <linearGradient
     id="SVGID_1_"
     gradientUnits="userSpaceOnUse"
     x1="9.471"
     y1="52.941"
     x2="54.471"
     y2="15.141"
     gradientTransform="matrix(1 0 0 -1 0 66)">
    <stop
       offset="0"
       stop-color="#0b1f2a"
       id="stop32" />
    <stop
       offset=".2"
       stop-color="#333f47"
       id="stop34" />
    <stop
       offset=".5"
       stop-color="#777f84"
       id="stop36" />
    <stop
       offset=".5"
       stop-color="#81898d"
       id="stop38" />
    <stop
       offset=".7"
       stop-color="#b3b8b8"
       id="stop40" />
    <stop
       offset=".8"
       stop-color="#d2d5d3"
       id="stop42" />
    <stop
       offset=".8"
       stop-color="#dee0dd"
       id="stop44" />
    <stop
       offset="1"
       stop-color="#fbfbfb"
       id="stop46" />
  </linearGradient>
  <linearGradient
     id="SVGID_2_"
     gradientUnits="userSpaceOnUse"
     x1="1648.736"
     y1="-160.944"
     x2="1670.636"
     y2="-221.143"
     gradientTransform="matrix(-1 0 0 1 1691.673 223.007)">
    <stop
       offset="0"
       stop-color="#e1e3e1"
       id="stop51" />
    <stop
       offset=".1"
       stop-color="#c1c5c4"
       id="stop53" />
    <stop
       offset=".3"
       stop-color="#9ba1a2"
       id="stop55" />
    <stop
       offset=".5"
       stop-color="#7d8487"
       id="stop57" />
    <stop
       offset=".7"
       stop-color="#687074"
       stop-opacity="0"
       id="stop59" />
    <stop
       offset=".8"
       stop-color="#5b6469"
       stop-opacity="0"
       id="stop61" />
    <stop
       offset="1"
       stop-color="#576065"
       stop-opacity="0"
       id="stop63" />
  </linearGradient>
  <linearGradient
     id="SVGID_3_"
     gradientUnits="userSpaceOnUse"
     x1="18.201"
     y1="57.899"
     x2="45.799"
     y2="10.101"
     gradientTransform="matrix(1 0 0 -1 0 66)">
    <stop
       offset="0"
       stop-color="#e1e3e1"
       id="stop70" />
    <stop
       offset=".1"
       stop-color="#c1c5c4"
       id="stop72" />
    <stop
       offset=".3"
       stop-color="#9ba1a2"
       id="stop74" />
    <stop
       offset=".5"
       stop-color="#7d8487"
       id="stop76" />
    <stop
       offset=".7"
       stop-color="#687074"
       stop-opacity="0"
       id="stop78" />
    <stop
       offset=".8"
       stop-color="#5b6469"
       stop-opacity="0"
       id="stop80" />
    <stop
       offset="1"
       stop-color="#576065"
       stop-opacity="0"
       id="stop82" />
  </linearGradient>
  <linearGradient
     id="SVGID_4_"
     gradientUnits="userSpaceOnUse"
     x1="44.488"
     y1="26.607"
     x2="42.788"
     y2="23.807"
     gradientTransform="matrix(1 0 0 -1 0 66)">
    <stop
       offset="0"
       stop-color="#27343c"
       id="stop91" />
    <stop
       offset="1"
       stop-color="#00111e"
       stop-opacity="0"
       id="stop93" />
  </linearGradient>
  <linearGradient
     id="SVGID_5_"
     gradientUnits="userSpaceOnUse"
     x1="39.58"
     y1="36.888"
     x2="36.78"
     y2="41.388"
     gradientTransform="matrix(1 0 0 -1 0 66)">
    <stop
       offset=".1"
       stop-color="#02131f"
       id="stop108" />
    <stop
       offset=".9"
       stop-color="#02131f"
       stop-opacity="0"
       id="stop110" />
  </linearGradient>
  <linearGradient
     id="SVGID_6_"
     gradientUnits="userSpaceOnUse"
     x1="31.982"
     y1="29.664"
     x2="27.782"
     y2="28.464"
     gradientTransform="matrix(1 0 0 -1 0 66)">
    <stop
       offset=".2"
       stop-color="#02131f"
       id="stop115" />
    <stop
       offset=".9"
       stop-color="#02131f"
       stop-opacity="0"
       id="stop117" />
  </linearGradient>
  <linearGradient
     id="SVGID_7_"
     gradientUnits="userSpaceOnUse"
     x1="20.791"
     y1="24.096"
     x2="20.191"
     y2="25.596"
     gradientTransform="matrix(1 0 0 -1 0 66)">
    <stop
       offset="0"
       stop-color="#02131f"
       id="stop122" />
    <stop
       offset=".1"
       stop-color="#02131f"
       id="stop124" />
    <stop
       offset="1"
       stop-color="#02131f"
       stop-opacity="0"
       id="stop126" />
  </linearGradient>
  <linearGradient
     id="SVGID_8_"
     gradientUnits="userSpaceOnUse"
     x1="35.602"
     y1="48.786"
     x2="32.202"
     y2="48.386"
     gradientTransform="matrix(1 0 0 -1 0 66)">
    <stop
       offset=".3"
       stop-color="#02131f"
       id="stop131" />
    <stop
       offset=".3"
       stop-color="#02131f"
       id="stop133" />
    <stop
       offset=".8"
       stop-color="#02131f"
       stop-opacity="0"
       id="stop135" />
  </linearGradient>
  <linearGradient
     id="SVGID_9_"
     gradientUnits="userSpaceOnUse"
     x1="35.708"
     y1="48.843"
     x2="33.407"
     y2="48.543"
     gradientTransform="matrix(1 0 0 -1 0 66)">
    <stop
       offset=".4"
       stop-color="#27343c"
       id="stop140" />
    <stop
       offset="1"
       stop-color="#3b474e"
       stop-opacity="0"
       id="stop142" />
  </linearGradient>
  <linearGradient
     id="SVGID_10_"
     gradientUnits="userSpaceOnUse"
     x1="-.36"
     y1="33.169"
     x2="27.54"
     y2="17.069"
     gradientTransform="matrix(1 0 0 -1 0 66)">
    <stop
       offset="0"
       stop-color="#24303a"
       stop-opacity="0"
       id="stop147" />
    <stop
       offset="0"
       stop-color="#25323b"
       stop-opacity="0"
       id="stop149" />
    <stop
       offset=".1"
       stop-color="#27343c"
       id="stop151" />
  </linearGradient>
  <linearGradient
     id="SVGID_11_"
     gradientUnits="userSpaceOnUse"
     x1="31.95"
     y1="28.6"
     x2="31.95"
     y2="33.4"
     gradientTransform="matrix(1 0 0 -1 0 66)">
    <stop
       offset=".3"
       stop-color="#a5abaf"
       id="stop156" />
    <stop
       offset="1"
       stop-color="#a5abaf"
       stop-opacity="0"
       id="stop158" />
  </linearGradient>
  <linearGradient
     id="SVGID_12_"
     gradientUnits="userSpaceOnUse"
     x1="47.65"
     y1="63.7"
     x2="47.65"
     y2="2.7"
     gradientTransform="matrix(1 0 0 -1 0 66)">
    <stop
       offset="0"
       stop-color="#dee0dd"
       id="stop163" />
    <stop
       offset="0"
       stop-color="#c5c9c7"
       id="stop165" />
    <stop
       offset="0"
       stop-color="#9ea4a5"
       id="stop167" />
    <stop
       offset="0"
       stop-color="#82898c"
       id="stop169" />
    <stop
       offset="0"
       stop-color="#71797d"
       id="stop171" />
    <stop
       offset="0"
       stop-color="#6b7378"
       id="stop173" />
    <stop
       offset=".2"
       stop-color="#333f47"
       id="stop175" />
    <stop
       offset=".5"
       stop-color="#27343c"
       id="stop177" />
    <stop
       offset=".8"
       stop-color="#333f47"
       id="stop179" />
    <stop
       offset="1"
       stop-color="#434d54"
       id="stop181" />
  </linearGradient>
  <linearGradient
     id="SVGID_13_"
     gradientUnits="userSpaceOnUse"
     x1="32"
     y1="65.3"
     x2="32.3"
     y2="65.3"
     gradientTransform="matrix(1 0 0 -1 0 66)">
    <stop
       offset="0"
       stop-color="#dee0dd"
       id="stop186" />
    <stop
       offset="0"
       stop-color="#c5c9c7"
       id="stop188" />
    <stop
       offset="0"
       stop-color="#9ea4a5"
       id="stop190" />
    <stop
       offset="0"
       stop-color="#82898c"
       id="stop192" />
    <stop
       offset="0"
       stop-color="#71797d"
       id="stop194" />
    <stop
       offset="0"
       stop-color="#6b7378"
       id="stop196" />
    <stop
       offset=".2"
       stop-color="#333f47"
       id="stop198" />
    <stop
       offset=".5"
       stop-color="#27343c"
       id="stop200" />
    <stop
       offset=".8"
       stop-color="#333f47"
       id="stop202" />
    <stop
       offset="1"
       stop-color="#434d54"
       id="stop204" />
  </linearGradient>
  <linearGradient
     id="SVGID_14_"
     gradientUnits="userSpaceOnUse"
     x1="57.289"
     y1="57.907"
     x2="43.789"
     y2="38.107"
     gradientTransform="matrix(1 0 0 -1 0 66)">
    <stop
       offset=".7"
       stop-color="#27343c"
       id="stop209" />
    <stop
       offset=".7"
       stop-color="#2b373f"
       id="stop211" />
    <stop
       offset=".7"
       stop-color="#36424a"
       id="stop213" />
    <stop
       offset=".7"
       stop-color="#49545b"
       id="stop215" />
    <stop
       offset=".8"
       stop-color="#646d73"
       stop-opacity="0"
       id="stop217" />
    <stop
       offset=".8"
       stop-color="#868d92"
       stop-opacity="0"
       id="stop219" />
    <stop
       offset=".8"
       stop-color="#b0b5b8"
       stop-opacity="0"
       id="stop221" />
    <stop
       offset=".8"
       stop-color="#e1e3e4"
       stop-opacity="0"
       id="stop223" />
    <stop
       offset=".8"
       stop-color="#fff"
       stop-opacity="0"
       id="stop225" />
  </linearGradient>
  <g
     id="g272"
     transform="matrix(0.33202598,0,0,0.33202598,0.27118684,0.27118609)"
     style="clip-rule:evenodd;fill-rule:evenodd">
    <path
       id="path260"
       d="M 0,0 H 192.756 V 192.756 H 0 Z"
       inkscape:connector-curvature="0"
       style="fill:#ffffff" />
    <path
       id="path262"
       d="m 98.072,184.252 c 1.848,-1.453 3.271,-2.713 4.695,-3.84 3.994,-2.164 6.324,-4.064 11.119,-5.418 14.115,-3.982 19.568,-3.117 32.424,-12.861 22.982,-17.42 31.686,-39.824 19.105,-72.22 -2.703,-6.963 -1.127,-15.731 8.854,-22.982 -5.217,-14.667 -5.873,-19.333 -0.168,-34.379 -2.633,-1.919 -7.623,-7.433 -10.258,-9.352 -12.152,2.104 -17.955,1.422 -22.328,-0.97 C 109.842,4.896 85.067,2.824 50.34,22.643 c -4.33,2.47 -7.936,1.866 -20.125,-0.022 -2.6,1.966 -9.13,7.139 -11.729,9.105 5.78,14.945 5.223,19.815 0.271,34.572 10.113,7.072 11.49,17.432 8.913,24.443 -11.991,32.615 -2.882,54.861 20.413,71.869 13.029,9.512 19.115,8.82 33.3,12.551 5.872,1.544 11.528,6.126 16.689,9.091 z"
       inkscape:connector-curvature="0" />
    <path
       id="path264"
       d="m 159.822,76.628 0.352,-1 0.404,-0.997 0.451,-0.987 0.498,-0.979 0.547,-0.967 0.596,-0.956 0.643,-0.942 0.689,-0.93 0.738,-0.915 0.785,-0.899 0.83,-0.885 0.879,-0.868 0.416,-0.383 -0.389,-1.178 -0.389,-1.219 -0.361,-1.192 -0.338,-1.169 -0.283,-1.06 -23.494,13.846 7.734,15.056 -33.936,11.43 -4.211,-8.563 -1.326,0.781 4.213,8.237 -11.766,3.699 -11.163,-0.703 -0.014,-0.195 -28.032,16.521 1.593,19.898 -3.72,1.031 -9.946,-0.879 10.341,-19.031 -28.566,16.836 0.527,1.033 1.007,1.77 1.098,1.74 1.187,1.711 1.28,1.689 1.371,1.664 1.461,1.639 1.554,1.617 1.645,1.596 1.736,1.574 1.827,1.549 1.916,1.529 2.02,1.518 1.104,0.793 1.073,0.742 1.032,0.688 0.996,0.635 0.958,0.584 0.925,0.537 0.892,0.492 0.871,0.453 0.849,0.42 0.828,0.383 0.812,0.354 0.807,0.328 0.801,0.307 0.799,0.285 0.802,0.266 0.817,0.254 0.827,0.242 0.842,0.23 0.864,0.225 0.89,0.219 0.917,0.219 0.944,0.217 0.979,0.219 1.016,0.223 1.052,0.23 1.091,0.24 1.128,0.254 1.174,0.266 1.218,0.285 1.262,0.303 1.311,0.326 1.395,0.359 0.693,0.195 0.711,0.221 0.7,0.238 0.689,0.254 0.673,0.27 0.662,0.279 0.652,0.293 0.643,0.301 0.633,0.312 0.619,0.318 0.61,0.324 0.604,0.332 0.594,0.338 0.582,0.338 0.573,0.342 0.571,0.346 0.562,0.346 0.546,0.342 0.543,0.344 0.537,0.344 0.525,0.338 0.519,0.334 0.507,0.33 0.506,0.326 0.152,0.1 0.238,-0.197 0.291,-0.238 0.289,-0.234 0.293,-0.238 0.688,-0.547 1.146,-0.631 0.639,-0.363 0.631,-0.367 0.635,-0.373 0.643,-0.377 0.656,-0.385 0.682,-0.389 0.711,-0.395 0.744,-0.395 0.781,-0.395 0.818,-0.387 0.863,-0.379 0.906,-0.365 0.953,-0.35 0.998,-0.332 1.021,-0.307 1.385,-0.383 1.301,-0.348 1.252,-0.322 1.205,-0.303 1.156,-0.281 1.111,-0.266 1.068,-0.252 2,-0.469 0.969,-0.229 0.914,-0.223 0.887,-0.223 0.855,-0.223 0.828,-0.227 0.807,-0.234 0.789,-0.242 0.773,-0.252 0.766,-0.268 0.76,-0.285 0.762,-0.305 0.768,-0.328 0.777,-0.355 0.791,-0.387 0.814,-0.42 0.838,-0.459 0.867,-0.5 0.898,-0.547 0.936,-0.596 0.971,-0.646 1.012,-0.701 1.059,-0.764 1.092,-0.814 1.99,-1.553 1.889,-1.561 1.797,-1.584 1.709,-1.604 1.615,-1.623 1.523,-1.645 1.432,-1.666 1.342,-1.688 1.246,-1.711 1.158,-1.732 1.064,-1.76 0.975,-1.787 0.883,-1.812 0.795,-1.846 0.703,-1.879 0.613,-1.914 0.523,-1.953 0.432,-1.996 0.338,-2.041 0.246,-2.092 0.15,-2.141 0.053,-2.195 -0.047,-2.254 -0.148,-2.312 -0.254,-2.373 -0.359,-2.438 -0.471,-2.5 -0.582,-2.566 -0.697,-2.633 -0.812,-2.701 -0.932,-2.768 -1.088,-2.931 -0.289,-0.784 -0.291,-0.901 -0.254,-0.916 -0.217,-0.928 -0.184,-0.943 -0.141,-0.96 -0.102,-0.968 -0.061,-0.977 -0.018,-0.987 0.025,-0.997 0.07,-1.001 0.117,-1.006 0.162,-1.007 0.211,-1.01 0.256,-1.008 z m -31.228,4.454 -8.709,5.132 18.926,-2.485 -2.297,-7.056 -7.348,4.696 z m -36.743,22.992 11.381,0.85 c 5.18,-1.484 7.646,-2.447 12.322,-3.787 l 0.789,2.982 v 0.037 l 13.061,4.852 0.16,3.654 -13.27,-4.93 -0.027,1.953 13.453,4.998 0.16,3.654 -13.664,-5.076 -0.025,1.812 13.555,5.037 0.16,3.652 -13.764,-5.113 -0.146,1.697 13.539,5.031 0.16,3.652 -13.748,-5.107 -1.932,8.781 -11.736,0.346 -3.893,-5.639 -10.941,6.785 -1.29,-2.973 10.865,-6.869 -0.862,-1.934 -10.88,6.783 -1.286,-2.967 10.802,-6.875 -0.738,-1.627 -10.823,6.762 -1.286,-2.965 10.746,-6.855 -0.798,-1.814 -10.765,6.775 -1.494,-3.445 11.772,-6.945 z m 10.379,29.944 11.633,-0.262 -6.203,12.309 -11.147,-5.863 z m -6.254,6.886 11.069,5.936 -16.406,10.828 -2.333,-8.979 z m -8.674,8.076 2.048,8.854 -17.929,-2.287 3.49,-7.303 z m -13.415,-0.835 -3.678,7.135 -7.771,-13.979 3.626,-1.189 z"
       inkscape:connector-curvature="0"
       style="fill:#cc2229" />
    <path
       id="path266"
       d="m 157.297,57.225 -1.021,0.119 -0.996,0.103 -0.965,0.087 c -4.119,0.318 -8.09,0.312 -12.135,-0.603 l -0.682,-0.176 -0.67,-0.192 C 125.785,51.723 116.469,43.091 99.455,41.542 L 97.572,41.435 C 74.622,40.876 58.479,57.818 41.028,57.548 l -0.69,-0.025 -0.702,-0.039 -0.724,-0.053 -0.731,-0.066 -0.747,-0.076 -0.772,-0.087 -0.795,-0.098 -0.818,-0.106 -0.849,-0.115 -0.881,-0.125 -0.916,-0.134 -0.95,-0.143 -0.988,-0.15 -1.9,-0.384 -0.222,1.086 -0.26,1.148 -0.289,1.165 -0.315,1.181 -0.341,1.203 -0.365,1.228 -0.387,1.251 0.551,0.514 0.904,0.919 0.853,0.939 0.8,0.963 0.749,0.983 0.694,0.999 0.641,1.012 0.589,1.025 0.539,1.036 0.487,1.046 0.437,1.052 0.385,1.056 0.34,1.061 0.289,1.063 0.243,1.058 0.196,1.055 0.153,1.054 0.107,1.049 0.065,1.036 0.024,1.03 -0.016,1.024 -0.058,1.01 -0.094,0.993 -0.133,0.984 -0.169,0.969 -0.206,0.953 -0.241,0.936 -0.276,0.918 -0.274,0.797 -1.042,2.957 -0.881,2.784 -0.765,2.715 -0.648,2.645 -0.536,2.576 -0.425,2.508 -0.316,2.443 -0.21,2.377 -0.107,2.314 -0.006,2.254 0.092,2.195 0.189,2.137 0.283,2.088 0.376,2.033 0.468,1.988 0.56,1.943 0.647,1.906 0.737,1.863 0.437,0.967 55.396,-32.648 -36.402,0.666 0.21,-31.418 31.737,-19.683 -9.79,21.502 11.146,0.305 -16.78,16.243 -8.111,-3.62 0.419,9.524 29.135,-4.812 0.369,10.154 1.636,-0.963 -0.847,-11.674 5.607,0.947 7.505,-1.125 3.863,-2.555 1.926,3.766 1.35,-0.795 -0.877,-1.779 5.012,-0.658 11.357,-6.694 -21.502,-10.815 12.611,-2.542 -17.434,-16.728 34.994,9.197 6.223,12.111 23.879,-14.073 -0.119,-0.525 -0.113,-0.519 c -1.921,0.167 -5.847,0.74 -7.921,1 z"
       inkscape:connector-curvature="0"
       style="fill:#fff22d" />
    <path
       id="path268"
       d="m 164.877,53.515 c -0.512,-3.812 -0.439,-6.841 0.195,-10.667 l 0.229,-1.168 0.264,-1.183 0.299,-1.198 0.336,-1.221 0.367,-1.245 0.402,-1.273 0.434,-1.307 0.057,-0.161 -0.059,-0.055 -0.727,-0.697 -0.725,-0.702 -0.717,-0.699 -0.709,-0.688 -0.688,-0.667 -0.664,-0.633 -0.619,-0.584 -0.004,-0.003 -0.574,0.087 -1.08,0.15 -1.049,0.134 -1.021,0.119 -0.994,0.104 -0.965,0.087 -0.941,0.073 -0.922,0.057 -0.9,0.042 -0.875,0.025 -0.855,0.011 -0.838,-0.007 -0.818,-0.021 -0.797,-0.039 -0.785,-0.054 -0.771,-0.072 -0.754,-0.088 -0.736,-0.105 -0.729,-0.123 -0.711,-0.141 -0.701,-0.159 -0.682,-0.176 -0.67,-0.192 -0.656,-0.211 -0.645,-0.227 -0.623,-0.243 -0.611,-0.257 -0.604,-0.277 -0.58,-0.287 -0.518,-0.275 -0.863,-0.47 -0.82,-0.444 -0.814,-0.438 -0.807,-0.432 -0.803,-0.423 -0.801,-0.419 -0.797,-0.411 -0.789,-0.403 -0.787,-0.396 -0.787,-0.39 -0.785,-0.383 -0.783,-0.376 -0.779,-0.367 -0.779,-0.36 -0.781,-0.354 -0.775,-0.344 -0.777,-0.335 -0.781,-0.329 -0.783,-0.321 -0.779,-0.312 -0.785,-0.305 -0.789,-0.297 -0.789,-0.288 -0.791,-0.279 -0.797,-0.271 -0.805,-0.264 -0.807,-0.254 C 102.685,13.091 91.085,12.84 75.741,17.678 a 125.236,125.236 0 0 0 -9.242,3.557 l -1.831,0.824 -1.821,0.856 -1.812,0.887 -1.804,0.918 -1.795,0.946 -1.785,0.973 -1.827,1.028 -0.513,0.283 -0.582,0.297 -0.593,0.277 -0.606,0.258 -0.627,0.24 -0.639,0.214 -0.646,0.189 -0.654,0.163 -0.66,0.139 -0.664,0.113 -0.673,0.09 -0.67,0.065 -0.673,0.045 -0.679,0.024 -0.68,0.007 -0.685,-0.011 -0.689,-0.025 -0.703,-0.039 -0.723,-0.053 -0.731,-0.066 -0.747,-0.075 -0.772,-0.086 -0.796,-0.098 -0.818,-0.106 -0.847,-0.115 -0.881,-0.126 -0.916,-0.134 -0.95,-0.143 -0.989,-0.15 -0.639,-0.099 -0.469,0.364 -0.779,0.607 -0.815,0.636 -0.84,0.657 -0.856,0.661 -0.855,0.669 -0.846,0.661 -0.653,0.51 0.396,1.164 0.41,1.271 0.376,1.241 0.342,1.217 0.309,1.198 0.274,1.185 0.239,1.168 0.202,1.159 0.166,1.152 0.126,1.146 0.089,1.14 0.05,1.135 0.012,1.132 c -0.039,1.574 0.151,2.874 -0.215,4.631 l 1.403,0.119 0.988,0.15 0.95,0.143 0.916,0.134 0.881,0.126 0.847,0.115 0.818,0.107 0.795,0.097 0.772,0.087 0.747,0.075 0.731,0.066 0.723,0.053 0.703,0.039 0.69,0.025 C 58.457,55.055 74.601,38.112 97.55,38.672 l 1.883,0.107 c 17.014,1.55 26.33,10.182 41.375,15.022 l 0.67,0.192 0.682,0.176 c 4.043,0.915 8.014,0.921 12.133,0.603 l 0.965,-0.087 0.996,-0.104 1.021,-0.119 c 1.957,-0.245 5.629,-0.857 7.602,-0.947 z"
       inkscape:connector-curvature="0"
       style="fill:#0094d6" />
    <path
       id="path270"
       d="m 135.312,31.05 4.406,1.652 -1.718,5.436 4.816,1.807 1.719,-5.435 4.426,1.66 -4.91,15.532 -4.426,-1.66 1.986,-6.281 -4.816,-1.807 -1.986,6.281 -4.404,-1.652 z m -16.339,-8.087 13.131,5.779 -1.395,3.762 -4.408,-1.939 -4.254,11.468 -4.318,-1.902 4.252,-11.467 -4.404,-1.938 z m -14.481,3.24 1.943,0.335 c 0.207,0.036 0.623,0.034 1.248,-0.009 0.316,-0.015 0.59,-0.142 0.824,-0.38 0.23,-0.24 0.373,-0.536 0.424,-0.891 0.076,-0.525 -0.018,-0.952 -0.283,-1.284 -0.264,-0.336 -0.814,-0.574 -1.654,-0.719 l -2.021,-0.349 z m -6.025,8.854 2.359,-16.224 7.67,1.323 c 1.422,0.246 2.492,0.565 3.201,0.963 0.715,0.394 1.25,0.99 1.607,1.792 0.355,0.797 0.457,1.713 0.309,2.744 -0.131,0.902 -0.422,1.646 -0.867,2.24 a 4.275,4.275 0 0 1 -1.684,1.34 c -0.434,0.188 -1.002,0.311 -1.709,0.359 0.52,0.294 0.889,0.564 1.113,0.808 0.146,0.161 0.352,0.486 0.611,0.977 0.258,0.494 0.426,0.863 0.498,1.12 l 1.543,5.087 -5.203,-0.897 -1.736,-5.384 c -0.219,-0.692 -0.436,-1.159 -0.654,-1.395 a 1.893,1.893 0 0 0 -1.072,-0.568 l -0.406,-0.07 -0.957,6.584 z m -9.149,-5.615 -2.495,-5.548 -0.79,6.115 z m 1.474,3.344 -5.243,0.904 -0.333,2.803 -4.703,0.812 3.238,-17.19 5.018,-0.866 7.96,15.258 -4.817,0.831 z m -21.558,5.529 2.234,-0.885 c 0.756,-0.3 1.238,-0.654 1.448,-1.066 0.213,-0.414 0.237,-0.868 0.073,-1.36 -0.152,-0.457 -0.427,-0.763 -0.826,-0.918 -0.399,-0.154 -0.981,-0.083 -1.75,0.222 l -2.224,0.882 z m -2.026,-6.063 1.904,-0.755 c 0.683,-0.271 1.115,-0.588 1.3,-0.951 0.181,-0.364 0.189,-0.787 0.028,-1.269 -0.15,-0.449 -0.399,-0.749 -0.751,-0.895 -0.355,-0.148 -0.863,-0.089 -1.526,0.174 l -1.934,0.767 z m -6.44,-4.303 8.198,-3.25 c 1.366,-0.542 2.539,-0.587 3.514,-0.14 0.979,0.446 1.65,1.214 2.012,2.299 0.305,0.913 0.308,1.799 0.004,2.66 -0.206,0.574 -0.597,1.121 -1.183,1.637 1.104,-0.137 2.008,0.026 2.706,0.482 0.696,0.461 1.209,1.181 1.537,2.162 a 4.88,4.88 0 0 1 0.21,2.363 4.559,4.559 0 0 1 -0.895,2.072 c -0.29,0.375 -0.788,0.764 -1.495,1.163 -0.94,0.531 -1.569,0.862 -1.893,0.991 l -7.559,2.997 z m -6.518,14.172 -3.341,-4.993 0.198,6.171 z m 1.985,3.012 -5.02,1.883 0.12,2.822 -4.502,1.689 0.449,-17.541 4.804,-1.802 10.271,13.52 -4.611,1.73 z"
       inkscape:connector-curvature="0"
       style="fill:#ffffff" />
  </g>
</svg>
