<?xml version="1.0" encoding="utf-8"?>
<!-- Generator: Adobe Illustrator 19.0.0, SVG Export Plug-In . SVG Version: 6.00 Build 0)  -->
<svg version="1.1" id="Layer_1" xmlns="http://www.w3.org/2000/svg" xmlns:xlink="http://www.w3.org/1999/xlink" x="0px" y="0px"
	 viewBox="0 0 500 500" style="enable-background:new 0 0 500 500;" xml:space="preserve">
<style type="text/css">
	.st0{fill:#BE0030;}
	.st1{fill:#AAAAAA;}
	.st2{fill:#FFFFFF;}
</style>
<g id="XMLID_1_">
	<path id="XMLID_3_" class="st0" d="M250,340.4c-101.6,0-180.4-41.3-180.4-90.2c0-49.3,78.8-90.6,180.4-90.6
		c101.2,0,180.4,41.3,180.4,90.6C430.4,299.1,351.2,340.4,250,340.4z"/>
	<path id="XMLID_66_" class="st1" d="M67.5,250.2c0-51.4,81.3-92.7,182.5-92.7c101.2,0,182.5,41.3,182.5,92.7
		c0,51-81.3,92.3-182.5,92.3C148.8,342.5,67.5,301.2,67.5,250.2z M250,174.3c-103.3,0-165.6,42.1-165.6,75.9
		c0,33.3,62.4,75.4,165.6,75.4c103.3,0,165.6-42.1,165.6-75.4C415.6,216.5,353.3,174.3,250,174.3z M240.3,165.9
		c0-2.5-2.1-4.2-4.2-4.2c-2.5,0-4.2,2.1-4.2,4.6c0,2.1,2.1,3.8,4.2,3.8C238.6,170.1,240.3,168,240.3,165.9z M226.4,166.3
		c-0.4-2.1-2.1-3.8-4.6-3.8c-2.1,0.4-3.8,2.1-3.8,4.6c0,2.1,2.1,4.2,4.6,3.8C224.7,171,226.4,168.9,226.4,166.3z M212.5,167.6
		c-0.4-2.1-2.5-3.8-4.6-3.4c-2.5,0-4.2,2.1-3.8,4.6c0.4,2.1,2.5,3.8,4.6,3.4C211.2,172.2,212.9,170.1,212.5,167.6L212.5,167.6z
		 M198.6,169.3c-0.4-2.1-2.5-3.8-4.6-3.4c-2.5,0.4-3.8,2.5-3.8,5.1c0.4,2.1,2.5,3.8,5.1,3.4C197.3,173.9,199,171.8,198.6,169.3z
		 M185.1,171.8c-0.4-2.1-3-3.8-5.1-3.4c-2.5,0.8-3.8,3-3.4,5.1c0.4,2.5,3,3.8,5.1,3.4C183.8,176.5,185.5,173.9,185.1,171.8z
		 M171.2,174.8c-0.4-2.1-2.5-3.4-5.1-3c-2.1,0.8-3.4,3-3,5.1c0.8,2.5,3,3.8,5.1,3C170.8,179.4,172,177.3,171.2,174.8L171.2,174.8z
		 M158.1,178.6c-0.8-2.1-3.4-3.4-5.5-2.5c-2.1,0.4-3.4,3-2.5,5.1c0.4,2.5,3,3.4,5.1,3C157.7,183.2,158.5,180.7,158.1,178.6
		L158.1,178.6z M144.6,183.2c-0.8-2.1-3-3.4-5.1-2.5c-2.5,0.8-3.4,3.4-2.5,5.5c0.8,2.1,3.4,3.4,5.5,2.5
		C144.6,187.8,145.5,185.3,144.6,183.2z M132,188.3c-1.3-2.1-3.8-3-5.5-1.7c-2.1,0.8-3,3.4-2.1,5.5c0.8,2.1,3.4,3,5.5,2.1
		C132,192.9,132.8,190.4,132,188.3z M119.3,194.6c-0.8-2.1-3.8-2.5-5.5-1.3c-2.1,1.3-3,3.8-1.7,5.5c1.3,2.1,3.8,3,5.9,1.7
		C120.2,199.2,120.6,196.7,119.3,194.6z M107.5,202.2c-1.3-2.1-3.8-2.5-5.9-1.3c-1.7,1.7-2.1,4.2-0.8,5.9c1.7,2.1,4.2,2.5,5.9,1.3
		C108.8,206.4,109.2,203.8,107.5,202.2L107.5,202.2z M96.6,210.6c-1.7-1.7-4.2-1.7-5.9,0c-1.7,1.7-1.7,4.2,0,5.9
		c1.7,1.7,4.2,1.7,5.9,0C98.3,214.8,98.3,212.3,96.6,210.6z M87.3,220.7c-2.1-1.3-4.6-0.8-5.9,0.8c-1.3,2.1-0.8,4.6,0.8,5.9
		c2.1,1.3,4.6,0.8,5.9-0.8C89.4,224.5,89,222,87.3,220.7z M79.7,232.5c-2.1-0.8-4.6,0.4-5.5,2.5c-0.8,2.1,0.4,4.6,2.5,5.5
		c2.5,0.4,4.6-0.4,5.5-3C83.1,235.5,81.8,233.4,79.7,232.5L79.7,232.5z M254.2,334.1c0-2.1-2.1-4.2-4.2-4.2c-2.5,0-4.2,2.1-4.2,4.2
		c0,2.5,1.7,4.2,4.2,4.2C252.1,338.3,254.2,336.6,254.2,334.1z M240.3,334.1c0-2.1-1.7-4.2-4.2-4.2c-2.1,0-4.2,1.7-4.2,3.8
		c0,2.5,1.7,4.6,4.2,4.6C238.2,338.3,240.3,336.6,240.3,334.1z M226.4,333.7c0-2.5-1.7-4.6-3.8-4.6c-2.5,0-4.6,1.7-4.6,3.8
		c0,2.5,1.7,4.2,3.8,4.6C224.3,337.5,226,335.8,226.4,333.7z M212.5,332.4c0.4-2.5-1.3-4.6-3.8-4.6c-2.1-0.4-4.2,1.3-4.6,3.4
		c-0.4,2.5,1.3,4.6,3.8,5.1C210,336.2,212.1,334.5,212.5,332.4z M198.6,330.7c0.4-2.5-1.3-4.6-3.4-5.1c-2.5-0.4-4.6,1.3-4.6,3.4
		c-0.4,2.5,0.8,4.6,3.4,5.1C196.1,334.5,198.2,332.8,198.6,330.7z M185.1,328.2c0.4-2.1-1.3-4.6-3.4-5.1c-2.1-0.4-4.6,0.8-5.1,3.4
		c-0.4,2.1,0.8,4.6,3.4,5.1C182.1,332,184.7,330.3,185.1,328.2z M171.2,325.2c0.8-2.1-0.4-4.6-3-5.1c-2.1-0.8-4.2,0.4-5.1,3
		c-0.4,2.1,0.8,4.2,3,5.1C168.7,328.6,170.8,327.3,171.2,325.2L171.2,325.2z M158.1,321.4c0.4-2.1-0.4-4.6-3-5.5
		c-2.1-0.4-4.6,0.8-5.1,3c-0.8,2.1,0.4,4.6,2.5,5.1C154.7,324.8,157.3,323.5,158.1,321.4L158.1,321.4z M144.6,316.8
		c0.8-2.1,0-4.6-2.1-5.5c-2.1-0.8-4.6,0.4-5.5,2.5c-0.8,2.1,0,4.6,2.5,5.5C141.7,320.2,143.8,318.9,144.6,316.8z M132,311.7
		c0.8-2.1,0-4.6-2.1-5.9c-2.1-0.8-4.6,0-5.5,2.1c-0.8,2.1,0,4.6,2.1,5.5C128.2,314.7,130.7,313.9,132,311.7z M119.3,305.4
		c1.3-2.1,0.8-4.6-1.3-5.9c-2.1-1.3-4.6-0.4-5.9,1.7c-1.3,1.7-0.4,4.6,1.7,5.5C115.5,308,118.5,307.5,119.3,305.4L119.3,305.4z
		 M107.5,297.8c1.7-1.7,1.3-4.2-0.8-5.9c-1.7-1.3-4.2-0.8-5.9,1.3c-1.3,1.7-0.8,4.2,0.8,5.9C103.7,300.4,106.3,299.9,107.5,297.8
		L107.5,297.8z M96.6,289.4c1.7-1.7,1.7-4.2,0-5.9c-1.7-1.7-4.2-1.7-5.9,0c-1.7,1.7-1.7,4.2,0,5.9C92.4,291.1,94.9,291.1,96.6,289.4
		z M87.3,279.3c1.7-1.3,2.1-3.8,0.8-5.9c-1.3-1.7-3.8-2.1-5.9-0.8c-1.7,1.3-2.1,3.8-0.8,5.9C82.7,280.1,85.2,280.6,87.3,279.3z
		 M79.7,267.5c2.1-0.4,3.4-3,2.5-5.1c-0.8-2.5-3-3.4-5.5-3c-2.1,0.8-3.4,3.4-2.5,5.5C75.1,267.1,77.6,268.3,79.7,267.5z M75.9,254.4
		c2.5-0.4,4.2-2.1,4.2-4.6c0-2.1-2.1-4.2-4.6-3.8c-2.1,0-3.8,1.7-3.8,4.2C71.7,252.3,73.8,254.4,75.9,254.4z M424.1,246
		c-2.1-0.4-4.2,1.7-4.2,3.8c0,2.5,1.7,4.2,4.2,4.6c2.1,0,4.2-2.1,4.2-4.2C428.3,247.7,426.6,246,424.1,246z M422.8,259.5
		c-2.1-0.4-4.6,0.4-5.1,3c-0.8,2.1,0.4,4.6,2.5,5.1c2.1,0.8,4.6-0.4,5.5-2.5C426.2,262.9,425.3,260.3,422.8,259.5L422.8,259.5z
		 M417.7,272.5c-2.1-1.3-4.6-0.8-5.9,0.8c-1.7,2.1-0.8,4.6,0.8,5.9c2.1,1.3,4.6,0.8,5.9-0.8C419.9,276.3,419.4,273.8,417.7,272.5z
		 M409.3,283.5c-1.7-1.7-4.6-1.7-6.3,0c-1.3,1.7-1.3,4.2,0,5.9c1.7,1.7,4.6,1.7,6.3,0C410.6,287.7,410.6,285.2,409.3,283.5z
		 M398.8,293.2c-1.3-2.1-3.8-2.5-5.5-1.3c-2.1,1.7-2.5,4.2-1.3,5.9c1.7,2.1,4.2,2.5,5.9,1.3C400,297.4,400.5,294.9,398.8,293.2z
		 M387.4,301.2c-0.8-2.1-3.8-3-5.5-1.7c-2.1,1.3-3,3.8-1.7,5.9c1.3,2.1,3.8,2.5,5.9,1.3C388.2,305.8,388.7,302.9,387.4,301.2
		L387.4,301.2z M375.6,308c-1.3-2.1-3.8-3-5.9-2.1c-2.1,1.3-3,3.8-1.7,5.9c0.8,2.1,3.4,3,5.5,1.7C375.6,312.6,376.4,310.1,375.6,308
		L375.6,308z M363,313.9c-0.8-2.1-3.4-3.4-5.5-2.5c-2.1,0.8-3.4,3.4-2.5,5.5c0.8,2.1,3.4,3.4,5.5,2.5
		C362.5,318.5,363.8,316,363,313.9z M349.9,318.9c-0.8-2.1-3-3.4-5.5-3c-2.1,0.8-3.4,3.4-2.5,5.5c0.8,2.1,3,3.4,5.5,2.5
		C349.5,323.5,350.7,321,349.9,318.9z M336.8,323.1c-0.8-2.5-3-3.8-5.5-3c-2.1,0.4-3.4,3-3,5.1c0.8,2.1,3,3.4,5.1,3
		C336,327.3,337.2,325.2,336.8,323.1z M323.3,326.5c-0.8-2.5-3-3.8-5.1-3.4c-2.5,0.4-3.8,3-3.4,5.1c0.4,2.1,2.5,3.8,5.1,3.4
		C322.1,331.1,323.8,328.6,323.3,326.5z M309.4,329c-0.4-2.1-2.5-3.8-4.6-3.4c-2.5,0.4-3.8,2.5-3.8,5.1c0.4,2.1,2.5,3.8,5.1,3.4
		C308.2,333.7,309.9,331.6,309.4,329z M295.9,331.1c-0.4-2.1-2.5-3.8-5.1-3.4c-2.1,0-3.8,2.1-3.4,4.6c0,2.1,2.1,3.8,4.6,3.8
		C294.3,335.8,295.9,333.7,295.9,331.1L295.9,331.1z M282,332.8c-0.4-2.1-2.1-3.8-4.6-3.8c-2.1,0-4.2,2.1-3.8,4.6
		c0,2.1,2.1,3.8,4.6,3.8C280.3,337,282,335.3,282,332.8z M268.1,333.7c0-2.1-2.1-3.8-4.2-3.8c-2.5,0-4.2,2.1-4.2,4.2
		c0,2.5,2.1,4.2,4.2,4.2C266.4,338.3,268.1,336.2,268.1,333.7z M245.8,165.9c0,2.1,1.7,4.2,4.2,4.2c2.1,0,4.2-2.1,4.2-4.2
		c0-2.5-2.1-4.2-4.2-4.2C247.5,161.7,245.8,163.4,245.8,165.9z M259.7,165.9c0,2.1,1.7,4.2,4.2,4.2c2.1,0,4.2-1.7,4.2-3.8
		c0-2.5-1.7-4.6-4.2-4.6C261.8,161.7,259.7,163.4,259.7,165.9z M273.6,166.3c-0.4,2.5,1.7,4.6,3.8,4.6c2.5,0.4,4.2-1.7,4.6-3.8
		c0-2.5-1.7-4.2-3.8-4.6C275.7,162.5,273.6,164.2,273.6,166.3z M287.5,167.6c-0.4,2.5,1.3,4.6,3.4,4.6c2.5,0.4,4.6-1.3,5.1-3.4
		c0-2.5-1.7-4.6-3.8-4.6C289.6,163.8,287.5,165.5,287.5,167.6L287.5,167.6z M301,169.3c0,2.5,1.3,4.6,3.8,5.1
		c2.1,0.4,4.2-1.3,4.6-3.4c0.4-2.5-1.3-4.6-3.4-5.1C303.5,165.5,301.4,167.2,301,169.3L301,169.3z M314.9,171.8
		c-0.4,2.1,0.8,4.6,3.4,5.1c2.1,0.4,4.2-0.8,5.1-3.4c0.4-2.1-1.3-4.2-3.4-5.1C317.4,168,315.3,169.7,314.9,171.8z M328.4,174.8
		c-0.4,2.5,0.8,4.6,3,5.1c2.5,0.8,4.6-0.4,5.5-3c0.4-2.1-0.8-4.2-3.4-5.1C331.3,171.4,329.2,172.7,328.4,174.8z M341.9,178.6
		c-0.8,2.1,0.4,4.6,2.5,5.5c2.5,0.4,4.6-0.4,5.5-3c0.8-2.1-0.4-4.6-2.5-5.1C344.8,175.2,342.7,176.5,341.9,178.6z M354.9,183.2
		c-0.8,2.1,0.4,4.6,2.5,5.5c2.1,0.8,4.6-0.4,5.5-2.5c0.8-2.1-0.4-4.6-2.5-5.5C358.3,179.8,355.8,181.1,354.9,183.2z M368,188.3
		c-1.3,2.1-0.4,4.6,1.7,5.9c2.1,0.8,4.6,0,5.9-2.1c0.8-2.1,0-4.6-2.1-5.5C371.4,185.3,368.9,186.1,368,188.3z M380.2,194.6
		c-1.3,2.1-0.4,4.6,1.7,5.9c1.7,1.3,4.6,0.4,5.5-1.7c1.3-1.7,0.8-4.2-1.3-5.5C384,192,381.5,192.5,380.2,194.6z M392,202.2
		c-1.3,1.7-0.8,4.2,1.3,5.9c1.7,1.3,4.2,0.8,5.5-1.3c1.7-1.7,1.3-4.2-0.8-5.9C396.3,199.6,393.7,200.1,392,202.2z M403,210.6
		c-1.3,1.7-1.3,4.2,0,5.9c1.7,1.7,4.6,1.7,6.3,0c1.3-1.7,1.3-4.2,0-5.9C407.6,208.9,404.7,208.9,403,210.6z M412.7,220.7
		c-1.7,1.3-2.5,3.8-0.8,5.9c1.3,1.7,3.8,2.1,5.9,0.8c1.7-1.3,2.1-3.8,0.8-5.9C417.3,219.9,414.8,219.4,412.7,220.7z M420.3,232.5
		c-2.1,0.8-3.4,3-2.5,5.1c0.4,2.5,3,3.4,5.1,3c2.5-0.8,3.4-3.4,3-5.5C424.9,232.9,422.4,231.7,420.3,232.5L420.3,232.5z"/>
	<path id="XMLID_70_" d="M267.7,244.7l-4.2,17.3H258l5.5-25.7c0.4-0.8,2.1-0.8,2.5,0.4L267.7,244.7L267.7,244.7z M273.6,274.2H261
		l-2.1,9.7H247l-3.8-3.8l1.7-0.8h8.9l2.5-10.1h16L273.6,274.2L273.6,274.2z M277.4,283.9l-3.8-3.8l1.3-0.8h8.9L271.5,227l0.8-0.8
		l3.8,3.8l13.1,53.9H277.4L277.4,283.9z"/>
	<path id="XMLID_73_" d="M299.7,239.7h-8.4l-3.8-3.8l0.8-0.8h11.4V239.7z M302.3,284.4l-3.8-3.8l1.3-1.3h8.9V235h11v-8l1.3-0.8
		l3.8,3.8v9.7h-11.4v44.7L302.3,284.4L302.3,284.4z"/>
	<path id="XMLID_76_" d="M340.2,239.7h-8.4l-3.8-3.8l1.3-0.8h11V239.7z M342.7,284.4l-3.8-3.8l1.3-1.3h8.9V235h11v-8l1.3-0.8
		l3.8,3.8v9.7h-11v44.7L342.7,284.4L342.7,284.4z"/>
	<polygon id="XMLID_77_" points="373.5,283.9 369.7,280.1 371,279.3 379.8,279.3 379.8,227 380.7,226.2 384.5,230 384.5,283.9 	"/>
	<path id="XMLID_81_" d="M137.9,227.5c2.1,0.8,3.4,2.1,3.8,2.5c0.8,0.8,2.1,1.7,3.4,3c0.8,1.3,1.3,2.1,2.1,3.4
		c1.7,2.5,2.5,5.5,2.5,7.6c0,3.8-2.1,8.9-5.1,11.4l2.1,2.1c2.5,2.5,4.2,5.9,4.2,11c0,7.2-5.5,15.6-13.9,15.6h-19.4l-3.8-3.8l1.3-0.8
		h18.1c7.6,0,12.6-8,12.6-14.8c0-6.3-3-10.1-6.3-11.8l-1.7-0.8l1.7-1.3c3-1.7,5.1-6.7,5.1-10.1c0-4.2-2.1-9.7-7.2-12.2L137.9,227.5
		L137.9,227.5z M128.6,238.4v10.1H124v-15.2h5.1c3.4,0,5.9,2.1,6.7,5.9c-0.8-0.8-1.7-0.8-3-0.8H128.6z M128.6,259.9V273H124v-18.1
		h6.7c2.5,0,5.1,2.5,5.9,5.9c-0.4-0.8-1.3-0.8-2.1-0.8L128.6,259.9L128.6,259.9z"/>
	<path id="XMLID_84_" d="M167.4,227l1.3-0.8l3.8,3.8v38.8c0,0.8,0,2.1,0.4,2.5c-3.4-0.4-5.5-3-5.5-6.3V227L167.4,227z M177.9,285.2
		c-4.2,0-7.6-1.3-11.4-4.2c-2.5-2.1-5.1-5.5-5.5-6.3c-0.4,0-0.8-1.3-1.3-2.1l0.4-0.4c2.5,5.1,8,8.4,13.9,8.4
		c8.4,0,15.6-7.2,15.6-15.6V227l0.8-0.8l3.8,3.8v38.8C194.4,278,186.8,285.2,177.9,285.2L177.9,285.2z"/>
	<path id="XMLID_89_" d="M234.4,252.7l1.3-0.8l3.8,3.8v13.1c0,10.1-5.5,16.4-16.9,16.4c-3.8,0-7.2-1.3-11-4.2
		c-2.5-2.1-5.5-5.5-5.9-6.3c0-0.4-0.4-1.3-1.3-2.5h0.8c2.5,4.6,8,8.4,13.9,8.4c10.5,0,15.2-6.3,15.2-15.6V252.7L234.4,252.7z
		 M227.2,264.1h-3l-3.8-3.8l0.8-1.3h5.9L227.2,264.1L227.2,264.1z M226.8,239.7c-0.8-0.8-2.5-1.3-3.8-0.8c-3.4,0-5.9,3-5.9,6.3v23.6
		c0,1.3,0.4,2.5,1.3,3.4c-3.8-0.8-5.9-3.8-5.9-7.2v-23.6c0-3.8,2.5-7.2,6.7-7.6C223,233.4,226.4,235.9,226.8,239.7L226.8,239.7z
		 M239.5,246h-9.7l-3.8-3.8l1.3-0.8h7.2c0-6.3-2.1-11.4-7.2-13.9l0.8-0.8c0.8,0.4,1.7,1.3,2.5,1.7c1.3,1.3,2.5,2.1,4.2,3.8
		c1.3,1.7,2.1,2.5,3,4.2c1.3,3,1.7,5.5,1.7,8.9V246L239.5,246z"/>
	<path id="XMLID_93_" class="st2" d="M124.8,256.1v15.6h5.9c3.4,0,5.5-3.8,5.5-8c0-4.2-3-7.6-5.5-7.6L124.8,256.1L124.8,256.1z
		 M124.8,234.6v12.6h4.2c3.8,0,5.5-2.1,5.5-6.3c0-4.2-2.5-6.3-5.5-6.3H124.8z M140.4,251.9c3.8,1.7,6.7,5.9,6.7,12.6
		c0,7.2-5.5,15.6-13.9,15.6h-19.4v-53.9H132c9.7,0,13.9,8.4,13.9,14.3C145.9,243.9,143.8,249.8,140.4,251.9L140.4,251.9z"/>
	<path id="XMLID_94_" class="st2" d="M179.6,265v-38.8h11V265c0,9.3-7.6,16.4-16.4,16.4c-9.3,0-16.9-7.2-16.9-16.4v-38.8h11.4V265
		c0,3,2.1,5.5,5.5,5.5C177.5,270.4,179.6,267.9,179.6,265L179.6,265z"/>
	<path id="XMLID_95_" class="st2" d="M226,265v-4.6h-5.5v-8.4h15.2V265c0,10.1-5.1,16.4-16.4,16.4c-9.3,0-16.9-7.2-16.9-16.4v-23.6
		c0-9.3,7.6-16.4,16.9-16.4c11.4,0,16.4,6.3,16.4,16.4v0.8H226v-0.8c0-3.8-3-6.7-6.7-6.3c-3.4,0-5.9,3-5.9,6.3V265
		c0,3,2.5,5.9,5.9,6.3C223,271.3,226,268.8,226,265z"/>
	<path id="XMLID_98_" class="st2" d="M269.8,260.7l-5.1-24l-5.5,24H269.8z M243.3,280.1l13.9-53.9h15.2l12.6,53.9h-11.4l-2.1-9.7
		h-14.3l-2.1,9.7H243.3z"/>
	<polygon id="XMLID_99_" class="st2" points="309.4,280.6 298.5,280.6 298.5,235.9 287.5,235.9 287.5,226.2 320.8,226.2 
		320.8,235.9 309.4,235.9 	"/>
	<polygon id="XMLID_100_" class="st2" points="350.3,280.6 338.9,280.6 338.9,235.9 328,235.9 328,226.2 361.3,226.2 361.3,235.9 
		350.3,235.9 	"/>
	<rect id="XMLID_101_" x="369.7" y="226.2" class="st2" width="11" height="53.9"/>
	<path id="XMLID_105_" d="M262.2,211c2.5,0,4.2-2.1,4.2-4.6c0-2.1-1.7-4.2-4.2-4.2h-8.9v8.9H262.2z M262.2,195.8
		c2.1,0,3.8-1.7,3.8-3.8c0-2.1-1.7-3.8-3.8-3.8h-8.9v7.6H262.2z M240.7,202.2v2.1h-5.5v-2.1v-6.3v-2.1h5.5v2.1h5.5v-7.6h-13.1v2.5
		h-5.5v-2.5v-5.5h34.6c5.1,0,9.7,4.2,9.7,9.7c0,2.5-0.8,4.6-2.5,6.3c1.7,2.1,3,4.6,3,7.2c0,5.9-4.6,10.5-10.1,10.5h-34.6V211v-3h5.5
		v3h13.1v-8.9L240.7,202.2L240.7,202.2z"/>
</g>
</svg>
