<?xml version="1.0" encoding="utf-8"?>
<!-- Generator: Adobe Illustrator 19.0.0, SVG Export Plug-In . SVG Version: 6.00 Build 0)  -->
<svg version="1.1" id="Layer_1" xmlns="http://www.w3.org/2000/svg" xmlns:xlink="http://www.w3.org/1999/xlink" x="0px" y="0px"
	 viewBox="0 0 500 500" style="enable-background:new 0 0 500 500;" xml:space="preserve">
<style type="text/css">
	.st0{fill:#231F20;}
	.st1{fill:url(#XMLID_2_);}
	.st2{fill:url(#XMLID_3_);}
	.st3{fill:#656363;}
	.st4{fill:url(#XMLID_4_);}
	.st5{fill:url(#XMLID_13_);}
	.st6{fill:#FFFFFF;}
	.st7{fill:url(#XMLID_14_);}
	.st8{fill:url(#XMLID_15_);}
	.st9{fill:url(#XMLID_16_);}
	.st10{fill:url(#XMLID_17_);}
	.st11{fill:url(#XMLID_18_);}
	.st12{fill:url(#XMLID_19_);}
	.st13{fill:url(#XMLID_20_);}
	.st14{fill:url(#XMLID_21_);}
	.st15{fill:url(#XMLID_34_);}
	.st16{fill:#1C1B1A;}
	.st17{fill:url(#XMLID_35_);}
	.st18{fill:url(#XMLID_38_);}
	.st19{fill:url(#XMLID_39_);}
	.st20{fill:url(#XMLID_40_);}
	.st21{fill:url(#XMLID_41_);}
	.st22{fill:url(#XMLID_46_);}
	.st23{fill:url(#XMLID_47_);}
	.st24{fill:url(#XMLID_48_);}
	.st25{fill:url(#XMLID_49_);}
	.st26{fill:url(#XMLID_50_);}
	.st27{fill:#D2B887;}
	.st28{fill:url(#XMLID_51_);}
	.st29{fill:#A22A2E;}
	.st30{fill:url(#XMLID_52_);}
	.st31{fill:url(#XMLID_53_);}
	.st32{fill:url(#XMLID_54_);}
	.st33{fill:url(#XMLID_55_);}
	.st34{fill:url(#XMLID_56_);}
	.st35{fill:url(#XMLID_58_);}
	.st36{fill:url(#XMLID_61_);}
	.st37{fill:url(#XMLID_62_);}
	.st38{fill:url(#XMLID_65_);}
	.st39{fill:url(#XMLID_66_);}
	.st40{fill:url(#XMLID_70_);}
	.st41{fill:none;}
	.st42{fill:url(#XMLID_71_);}
</style>
<g>
	<path id="XMLID_22_" class="st0" d="M287.3,325.6L287.3,325.6L287.3,325.6L287.3,325.6z"/>
	<path class="st0" d="M287.5,317.1c1.8,1.8,1.6,4.9-0.5,6.9s-5.3,2.2-7.1,0.5c-1.8-1.8-1.6-4.9,0.5-6.9
		C282.5,315.5,285.7,315.3,287.5,317.1L287.5,317.1z"/>
	<path class="st0" d="M402.7,361.9c-23.7-2.3,10.5-37.1,25.6-32.7c3.1,3,0.3,7.2-5.8,12.1c-0.9,1.6-0.3,2.1,1.8,1.6
		c8.7-4.5,13.8-12,8.4-16.6c-20.3-9-43,20.4-55,32.1c-6.9,6.2-11.1,0.6-7.7-3.4l23.5-26.1c-18.8-5.9-37.5,2.9-53.3,21.2
		c-13.2,10.4-26.3,16.3-23,3.8c32.7-19.4,50.9-44.1,38.8-46.5c-9.8-0.9-42.9,30.2-46.1,47.6c-17.9,7.1-29.4,9-25.5-1.5
		c27.9-16.4,51.5-42.5,41.8-48.8c-12.4,0.4-43.9,30.6-48.3,49.2c-16.6,8.8-25.8,8.2-20.5-1.4l23.9-23.8l-8.4,0.1L250.6,349
		c-13.8,13.6-20.3,12.4-17.6,4.3c14.3-16.5,30.5-30.9,46.1-45.9h-9.5c-6.6,7.1-14,13.3-20.6,20.4c-13.3-1.9-30.3,3.1-45.8,23.5
		c-12.3,10.6-23.1,15.9-17.5,4.2l24.7-27.1c-15-4.7-33.2,2.2-52.1,20c-57.6,37.8-93.4,28.7-51.3-19.5c35.5,4.8,128.2-29.1,110.4-51
		c-19.3-13.9-73.5,12.6-116.6,46.1c-52.9-0.8-18.1-45.9,35.4-42.9l0.1-3c-83.7-0.6-89.4,51.2-40.2,50.7
		c-46.2,65.6,29.7,54.6,61.2,23.7c-5.8,12.5,4.6,17.4,21.5,4.1c-3.4,14.4,12.5,9.2,24-3.5c-7.9,13.2,5,18,23.9,0.9
		c-3.9,14.5,9.7,14.7,24-2.3c-6,15.7,8.9,18.3,27.5,5.3c0.2,10.5,9.9,11.5,30.9,1.1c2.7,9.1,17,11.1,30.9-4.9
		c-4.5,13,8.9,16.7,23.4,3.1c-0.6,10.8,11.3,12.4,24.4-4.1c-4.1,20.6,24.7,15.9,44,2.4c-0.5-1-1-1.9-1.5-2.9
		C421.7,357.2,412.5,360.9,402.7,361.9z M355.1,309.4c5.5,3.4-7.9,19.3-36.9,39.6C322.5,336.1,339.2,319.5,355.1,309.4z M322.2,309
		c5.5,3.4-7.9,19.3-36.9,39.6C289.6,335.6,306.3,319,322.2,309z M214.2,281.4c7.3,11.9-61.6,49.2-102.9,43.8
		C166.3,282.5,205.5,271,214.2,281.4z M168.7,360.3c-5.5,1.2-6.2-1.3-4.5-5.5c5.3-11.6,24.2-24.8,37-25
		C186.8,348.6,175.7,358.9,168.7,360.3z M211.8,360.5c-5.5,1.2-6.2-1.3-4.5-5.5c5.3-11.6,24.2-24.8,37-25
		C229.9,348.8,218.8,359.1,211.8,360.5z M350.8,360.7c-5.5,1.2-6.2-1.3-4.5-5.5c5.3-11.5,24.2-24.8,37-25
		C368.9,349,357.8,359.3,350.8,360.7z"/>
	<g id="XMLID_142_">
		
			<linearGradient id="XMLID_2_" gradientUnits="userSpaceOnUse" x1="161.3" y1="301.15" x2="209.3" y2="301.15" gradientTransform="matrix(1 0 0 -1 0 500)">
			<stop  offset="0" style="stop-color:#B0272D"/>
			<stop  offset="0.2504" style="stop-color:#AC262C"/>
			<stop  offset="0.486" style="stop-color:#A12328"/>
			<stop  offset="0.7156" style="stop-color:#8E1F22"/>
			<stop  offset="0.9404" style="stop-color:#731919"/>
			<stop  offset="1" style="stop-color:#6B1716"/>
		</linearGradient>
		<polygon id="XMLID_81_" class="st1" points="209.3,189.1 161.3,189.1 163.9,208.6 209.3,208.6 		"/>
		
			<linearGradient id="XMLID_3_" gradientUnits="userSpaceOnUse" x1="185.55" y1="372.752" x2="185.55" y2="250.2024" gradientTransform="matrix(1 0 0 -1 0 500)">
			<stop  offset="0" style="stop-color:#F7F8FA"/>
			<stop  offset="0.4629" style="stop-color:#F5F6F9"/>
			<stop  offset="0.6296" style="stop-color:#EEF0F3"/>
			<stop  offset="0.7485" style="stop-color:#E3E5E9"/>
			<stop  offset="0.8446" style="stop-color:#D2D6DB"/>
			<stop  offset="0.9259" style="stop-color:#BCC2C8"/>
			<stop  offset="0.9975" style="stop-color:#A1AAB2"/>
			<stop  offset="1" style="stop-color:#A0A9B1"/>
		</linearGradient>
		<path id="XMLID_213_" class="st2" d="M109,132.6c0,0,3.4,3,7.5,7.8h143.6v13.1H125.8c0.7,1.2,1.4,2.5,1.9,3.8
			c0,0.2,0.1,0.3,0.1,0.5h132.5v9.4h-131c0.2,1.4,0.5,2.9,0.7,4.5h130.1v12.5H132c0.3,1.6,0.5,3.3,0.8,5h76.6v19.5h-73.6
			c0.4,2.5,0.7,4.9,1.1,7.1c0.2,1.2,0.6,2.2,1,3.1h71.6v6.8h-63.1c4.2,1.7,10.3,3.4,18.9,5.6c20.5,4.1,96.8,20.7,96.8,20.7V132.6
			H109z"/>
		<g id="XMLID_141_">
			<path id="XMLID_137_" class="st0" d="M153.5,229.9c-14-3.9-17.5-7.1-17.8-10.5s-9.9-62.1-9.9-62.1s-6.9-11.5-14.7-20.4
				c-7.3-7.1-14.4-9.5-18.5-10.3c4.6,6.5,15.2,21.3,21.4,29.9c0,0,9.3,54.8,10.7,62.4c0.6,3.2,4,6.9,16.6,11.5l42.7,6.7
				C183.9,237.2,167.5,233.8,153.5,229.9z"/>
			<path id="XMLID_138_" class="st3" d="M183.9,237.5L183.9,237.5l-42.8-6.7H141c-10.9-4-16-7.7-16.8-11.8
				c-1.4-7.4-10.2-59.9-10.7-62.4c-6.6-9.3-18-25.2-21.3-29.8c-0.1-0.1-0.1-0.3,0-0.4s0.2-0.2,0.4-0.2c3.8,0.7,11.2,3.1,18.7,10.4
				c7.7,8.8,14.6,20.3,14.7,20.4v0.1c0.4,2.4,9.6,58.8,9.9,62.1c0.3,2.7,2.5,6,17.5,10.2c13.8,3.9,30.3,7.3,30.4,7.3
				c0.2,0,0.3,0.2,0.3,0.4C184.3,237.4,184.1,237.5,183.9,237.5z M141.3,230.1l30.8,4.8c-5.6-1.3-12.5-3-18.8-4.7l0,0
				c-12.4-3.5-17.6-6.6-18.1-10.8c-0.3-3.3-9.5-59.7-9.9-62c-0.5-0.9-7.2-11.9-14.6-20.3c-6.7-6.6-13.5-9.1-17.4-10
				c3.9,5.5,14.6,20.3,20.8,29.1c0,0,0.1,0.1,0.1,0.2c0.1,0.5,9.3,54.9,10.7,62.4C125.5,221.2,127.6,225,141.3,230.1z"/>
		</g>
		
			<linearGradient id="XMLID_4_" gradientUnits="userSpaceOnUse" x1="104.6175" y1="354.532" x2="111.2383" y2="359.3703" gradientTransform="matrix(1 0 0 -1 0 500)">
			<stop  offset="0" style="stop-color:#ACB7CD"/>
			<stop  offset="0.3701" style="stop-color:#A0ABBE"/>
			<stop  offset="1" style="stop-color:#848F9A"/>
		</linearGradient>
		<path id="XMLID_211_" class="st4" d="M95.7,130.9l6.4,5.2c0,0,4,0.5,7.2,4.1s11.4,14.6,11.4,14.6l-6.5,3.4c0,0,0-1.3-0.8-2.5
			C112.6,154.6,95.7,130.9,95.7,130.9z"/>
		
			<linearGradient id="XMLID_13_" gradientUnits="userSpaceOnUse" x1="118.0512" y1="310.2088" x2="130.6806" y2="312.218" gradientTransform="matrix(1 0 0 -1 0 500)">
			<stop  offset="0" style="stop-color:#E1E5ED"/>
			<stop  offset="0.1793" style="stop-color:#D8DCE5"/>
			<stop  offset="0.4715" style="stop-color:#BFC6CF"/>
			<stop  offset="0.8383" style="stop-color:#98A1AB"/>
			<stop  offset="1" style="stop-color:#848F9A"/>
		</linearGradient>
		<path id="XMLID_210_" class="st5" d="M114.1,157.2h9.6c0,0,8.4,47.7,8.8,50.6c0.4,2.9,3.9,12.7,0,12.9c-3.8,0.1-7.7-0.5-8.7-6.5
			L114.1,157.2z"/>
		<g id="XMLID_136_">
			<path id="XMLID_132_" class="st6" d="M258.3,251.1c-15.3-3.3-75.4-16.4-93.2-19.9c-21.3-5.6-26.7-7.4-28.4-15.5
				c-2.6-17.7-7.9-50.9-9-58.5c-6.2-13.5-18.8-24.7-18.8-24.7s-9.2-6.3-18.5-9c0.3,0.4,1.1,1.5,2.1,3c4.1,0.8,11.2,3.2,18.5,10.3
				c7.7,8.8,14.7,20.4,14.7,20.4s9.6,58.7,9.9,62.1c0.3,3.4,3.8,6.6,17.8,10.5s30.5,7.3,30.5,7.3S250.3,250.6,258.3,251.1
				L258.3,251.1z"/>
			<path id="XMLID_133_" class="st3" d="M258.3,251.5L258.3,251.5c-8-0.5-71.8-13.4-74.5-14c-0.2,0-16.6-3.4-30.5-7.3
				c-12.4-3.5-17.6-6.6-18.1-10.8c-0.3-3.3-9.5-59.7-9.9-62c-0.5-0.9-7.2-11.9-14.6-20.3c-7.3-7.2-14.6-9.4-18.3-10.2
				c-0.1,0-0.2-0.1-0.2-0.1l-2.1-3c-0.1-0.1-0.1-0.3,0-0.4s0.3-0.2,0.4-0.1c9.2,2.7,18.5,9,18.6,9c0.2,0.1,12.8,11.4,18.9,24.9v0.1
				c0.4,2.6,1.3,8.3,2.4,15.3c2.1,13.3,4.9,31.6,6.6,43.2c1.6,8,7.2,9.8,28.1,15.2c18.2,3.6,80.8,17.2,93.2,19.9
				c0.2,0,0.3,0.2,0.3,0.4C258.7,251.4,258.5,251.5,258.3,251.5z M92.8,126.2c3.8,0.8,11.2,3.1,18.6,10.4
				c7.7,8.8,14.6,20.3,14.7,20.4v0.1c0.4,2.4,9.6,58.8,9.9,62.1c0.3,2.7,2.5,6,17.5,10.2c13.8,3.9,30.3,7.3,30.4,7.3
				c0.5,0.1,40.7,8.2,62,12.1c-22.8-4.9-66.3-14.3-81-17.2c-20.9-5.5-27-7.4-28.7-15.8c-1.7-11.6-4.6-29.9-6.6-43.2
				c-1.1-7-2-12.6-2.4-15.2c-6.1-13.3-18.6-24.4-18.7-24.5c-0.1,0-8.6-5.8-17.3-8.6L92.8,126.2z"/>
		</g>
		<g id="XMLID_131_">
			
				<linearGradient id="XMLID_14_" gradientUnits="userSpaceOnUse" x1="286.6662" y1="239.2715" x2="199.356" y2="258.1852" gradientTransform="matrix(1 0 0 -1 0 500)">
				<stop  offset="0" style="stop-color:#E1E5ED"/>
				<stop  offset="1.410085e-002" style="stop-color:#DADFE7"/>
				<stop  offset="8.480458e-002" style="stop-color:#C0C6CF"/>
				<stop  offset="0.166" style="stop-color:#AAB2BB"/>
				<stop  offset="0.2609" style="stop-color:#99A2AC"/>
				<stop  offset="0.3783" style="stop-color:#8D97A1"/>
				<stop  offset="0.5429" style="stop-color:#86919B"/>
				<stop  offset="1" style="stop-color:#848F9A"/>
			</linearGradient>
			<path id="XMLID_127_" class="st7" d="M258.3,251.1L258.3,251.1c-8-0.5-74.4-14-74.4-14l-42.7-6.7c17.3,6.4,52,14.7,120.7,26.2
				v-4.7C261.9,251.9,260.6,251.6,258.3,251.1z"/>
			<path id="XMLID_128_" class="st3" d="M262.3,257.1l-0.4-0.1c-61.4-10.2-100.9-18.8-120.8-26.2l0.2-0.7l42.7,6.7
				c0.7,0.1,66.4,13.5,74.4,14h0.1l3.9,0.8v5.5H262.3z M145.1,231.4c20.8,7,59,15.2,116.4,24.7v-4l-3.3-0.7
				c-8.1-0.5-71.7-13.4-74.4-14L145.1,231.4z"/>
		</g>
		<g id="XMLID_126_">
			
				<linearGradient id="XMLID_15_" gradientUnits="userSpaceOnUse" x1="130" y1="322.05" x2="160.378" y2="322.05" gradientTransform="matrix(1 0 0 -1 0 500)">
				<stop  offset="0" style="stop-color:#CAD1E0"/>
				<stop  offset="2.633160e-002" style="stop-color:#C6CEDC"/>
				<stop  offset="0.6978" style="stop-color:#687686"/>
				<stop  offset="1" style="stop-color:#435363"/>
			</linearGradient>
			<path id="XMLID_122_" class="st8" d="M130,171.7c0.6,3.8,1.3,8.1,1.9,12.5h28.4c-0.7-3.6-1.5-9.6-1.8-12.5H130z"/>
			<path id="XMLID_123_" class="st3" d="M160.4,184.5H132c-0.2,0-0.3-0.1-0.4-0.3l-1.9-12.5c0-0.1,0-0.2,0.1-0.3s0.2-0.1,0.3-0.1
				h28.5c0.2,0,0.4,0.1,0.4,0.3c0.4,3.1,1.1,8.9,1.8,12.5c0,0.1,0,0.2-0.1,0.3S160.5,184.5,160.4,184.5z M132.3,183.8H160
				c-0.6-3.4-1.3-8.7-1.7-11.8h-27.8L132.3,183.8z"/>
		</g>
		<g id="XMLID_121_">
			
				<linearGradient id="XMLID_16_" gradientUnits="userSpaceOnUse" x1="132.7" y1="301.15" x2="163.8534" y2="301.15" gradientTransform="matrix(1 0 0 -1 0 500)">
				<stop  offset="0" style="stop-color:#CAD1E0"/>
				<stop  offset="2.633160e-002" style="stop-color:#C6CEDC"/>
				<stop  offset="0.6978" style="stop-color:#687686"/>
				<stop  offset="1" style="stop-color:#435363"/>
			</linearGradient>
			<path id="XMLID_117_" class="st9" d="M132.7,189.1c1,6.7,2.1,13.5,3,19.5h28.2l-2.6-19.5H132.7z"/>
			<path id="XMLID_118_" class="st3" d="M163.9,209h-28.2c-0.2,0-0.3-0.1-0.4-0.3c-0.9-6-2-12.8-3-19.5c0-0.1,0-0.2,0.1-0.3
				s0.2-0.1,0.3-0.1h28.6c0.2,0,0.3,0.1,0.4,0.3l2.6,19.5c0,0.1,0,0.2-0.1,0.3S164,209,163.9,209z M136,208.3h27.4l-2.5-18.8h-27.8
				C134.2,196,135.2,202.5,136,208.3z"/>
		</g>
		<g id="XMLID_116_">
			
				<linearGradient id="XMLID_17_" gradientUnits="userSpaceOnUse" x1="307.3797" y1="239.3148" x2="431.5616" y2="367.591" gradientTransform="matrix(1 0 0 -1 0 500)">
				<stop  offset="0" style="stop-color:#231F20"/>
				<stop  offset="0.3478" style="stop-color:#242123"/>
				<stop  offset="0.557" style="stop-color:#28282B"/>
				<stop  offset="0.7294" style="stop-color:#2F3339"/>
				<stop  offset="0.8811" style="stop-color:#38424D"/>
				<stop  offset="1" style="stop-color:#435363"/>
			</linearGradient>
			<path id="XMLID_112_" class="st10" d="M434,123.4l-18.9,9.2l-16.6,25.2c0,0-5.5,39.3-7.4,49.1c-1.9,9.9-4.2,17.5-10.6,20.1
				c-22.3,7.5-118.4,25-118.4,25s62.4-8.7,91.1-15.5c11-2.3,21.7-4.3,30.2-6c12.5-4.6,15.9-8.3,16.5-11.5
				c1.4-7.6,10.7-62.4,10.7-62.4C418.4,145.2,434,123.4,434,123.4L434,123.4z"/>
			<path id="XMLID_113_" class="st3" d="M261.9,252.3c-0.2,0-0.3-0.1-0.4-0.3c0-0.2,0.1-0.4,0.3-0.4c1-0.2,96.4-17.6,118.4-24.9
				c5.9-2.4,8.3-9,10.4-19.8c1.9-9.7,7.4-48.7,7.4-49.1c0-0.1,0-0.1,0.1-0.1l16.6-25.2c0-0.1,0.1-0.1,0.1-0.1l18.9-9.2
				c0.1,0,0.1,0,0.2,0l0,0c0.1,0,0.3,0.1,0.3,0.2c0.1,0.1,0.1,0.3,0,0.4c-0.2,0.2-15.7,21.8-23.6,33c-0.4,2.4-9.3,54.9-10.7,62.4
				c-0.8,4.1-5.9,7.8-16.7,11.8c-3.8,0.8-8.1,1.6-12.6,2.5c-5.7,1.1-11.5,2.3-17.6,3.5C324.7,243.5,262.6,252.2,261.9,252.3
				C262,252.3,261.9,252.3,261.9,252.3z M398.8,157.9c-0.3,2-5.5,39.5-7.4,49c-1.8,9.2-4,17.6-10.9,20.3c-16,5.4-70.5,16-99.7,21.5
				c20.8-3.1,53.6-8.3,72.2-12.7c6-1.2,11.9-2.4,17.6-3.5c4.5-0.9,8.8-1.7,12.6-2.5c13.6-5.1,15.7-8.8,16.2-11.2
				c1.4-7.6,10.6-61.9,10.7-62.4c0-0.1,0-0.1,0.1-0.2c6.9-9.7,19.5-27.2,22.8-31.9l-17.5,8.5L398.8,157.9z"/>
		</g>
		<g id="XMLID_111_">
			
				<linearGradient id="XMLID_18_" gradientUnits="userSpaceOnUse" x1="261.9" y1="256.5" x2="383.1" y2="256.5" gradientTransform="matrix(1 0 0 -1 0 500)">
				<stop  offset="0" style="stop-color:#848F9A"/>
				<stop  offset="0.4467" style="stop-color:#B5BCC5"/>
				<stop  offset="0.803" style="stop-color:#D5DAE2"/>
				<stop  offset="1" style="stop-color:#E1E5ED"/>
			</linearGradient>
			<path id="XMLID_107_" class="st11" d="M261.9,251.9v4.7c0.1,0,0.2,0,0.2,0c68.9-11.5,103.7-19.8,121-26.2
				c-8.4,1.7-19.2,3.8-30.2,6C324.3,243.2,261.9,251.9,261.9,251.9z"/>
			<path id="XMLID_108_" class="st3" d="M262.2,257l-0.6-0.1v-5.3h0.3c0.6-0.1,62.7-8.8,91.1-15.5c6-1.2,11.9-2.4,17.6-3.5
				c4.5-0.9,8.8-1.7,12.6-2.5l0.2,0.7C363.4,238.2,323.8,246.8,262.2,257L262.2,257z M262.3,252.2v4c56.6-9.4,94.6-17.4,115.7-24.4
				c-2.3,0.5-4.8,0.9-7.3,1.4c-5.7,1.1-11.5,2.3-17.6,3.5C325.8,243.2,267.2,251.6,262.3,252.2z"/>
		</g>
		
			<linearGradient id="XMLID_19_" gradientUnits="userSpaceOnUse" x1="261.9" y1="307.7" x2="430.259" y2="307.7" gradientTransform="matrix(1 0 0 -1 0 500)">
			<stop  offset="0" style="stop-color:#F5F6F9"/>
			<stop  offset="0.3302" style="stop-color:#F3F4F7"/>
			<stop  offset="0.4805" style="stop-color:#EBEEF1"/>
			<stop  offset="0.5944" style="stop-color:#DFE2E6"/>
			<stop  offset="0.69" style="stop-color:#CCD1D7"/>
			<stop  offset="0.774" style="stop-color:#B5BCC3"/>
			<stop  offset="0.85" style="stop-color:#98A1AB"/>
			<stop  offset="0.9199" style="stop-color:#75828E"/>
			<stop  offset="0.9832" style="stop-color:#4E5E6D"/>
			<stop  offset="1" style="stop-color:#435363"/>
		</linearGradient>
		<path id="XMLID_203_" class="st12" d="M261.9,132.6V252c0,0,96.1-17.5,118.4-25c6.4-2.6,8.7-10.2,10.6-20.1
			c1.9-9.9,7.4-49.1,7.4-49.1l16.6-25.2L261.9,132.6L261.9,132.6z"/>
		
			<linearGradient id="XMLID_20_" gradientUnits="userSpaceOnUse" x1="287.75" y1="321.2294" x2="287.75" y2="327.6294" gradientTransform="matrix(1 0 0 -1 0 500)">
			<stop  offset="0" style="stop-color:#0043A6"/>
			<stop  offset="0.3265" style="stop-color:#0141A3"/>
			<stop  offset="0.5555" style="stop-color:#063C9A"/>
			<stop  offset="0.7546" style="stop-color:#0D348A"/>
			<stop  offset="0.9356" style="stop-color:#172775"/>
			<stop  offset="1" style="stop-color:#1C226B"/>
		</linearGradient>
		<rect id="XMLID_202_" x="264.2" y="172.4" class="st13" width="47.1" height="6.4"/>
		
			<linearGradient id="XMLID_21_" gradientUnits="userSpaceOnUse" x1="264.2" y1="304.5" x2="363.4" y2="304.5" gradientTransform="matrix(1 0 0 -1 0 500)">
			<stop  offset="0" style="stop-color:#7E6528"/>
			<stop  offset="0.2173" style="stop-color:#957C2E"/>
			<stop  offset="0.4679" style="stop-color:#A88E33"/>
			<stop  offset="0.7258" style="stop-color:#B39936"/>
			<stop  offset="1" style="stop-color:#B79D37"/>
		</linearGradient>
		<path id="XMLID_201_" class="st14" d="M363.4,189.4h-99.2c0.1,2.8,0,8.5,0,12.2h97.3L363.4,189.4z"/>
		<g id="XMLID_106_">
			
				<linearGradient id="XMLID_34_" gradientUnits="userSpaceOnUse" x1="380.1092" y1="300.5911" x2="367.9825" y2="313.5454" gradientTransform="matrix(1 0 0 -1 0 500)">
				<stop  offset="0" style="stop-color:#FFFFFF"/>
				<stop  offset="0.1633" style="stop-color:#FCFCFC"/>
				<stop  offset="0.3002" style="stop-color:#F2F1F1"/>
				<stop  offset="0.4275" style="stop-color:#E0E0E0"/>
				<stop  offset="0.5491" style="stop-color:#C8C7C8"/>
				<stop  offset="0.6667" style="stop-color:#A9A8A8"/>
				<stop  offset="0.7811" style="stop-color:#838181"/>
				<stop  offset="0.8909" style="stop-color:#575455"/>
				<stop  offset="0.9983" style="stop-color:#242021"/>
				<stop  offset="1" style="stop-color:#231F20"/>
			</linearGradient>
			<polygon id="XMLID_102_" class="st15" points="391.4,189.4 363.4,189.4 361.5,201.6 389,201.6 			"/>
			<path id="XMLID_103_" class="st3" d="M389,201.9h-27.5c-0.1,0-0.2,0-0.3-0.1c-0.1-0.1-0.1-0.2-0.1-0.3l1.9-12.2
				c0-0.2,0.2-0.3,0.4-0.3h28c0.1,0,0.2,0,0.3,0.1c0.1,0.1,0.1,0.2,0.1,0.3l-2.4,12.2C389.3,201.8,389.2,201.9,389,201.9z
				 M361.9,201.2h26.8l2.3-11.4h-27.2L361.9,201.2z"/>
		</g>
		<path id="XMLID_199_" class="st16" d="M264.2,206.2v8.5l93,0.1c0.8-2.3,1.6-6.3,2-8.5L264.2,206.2z"/>
		<g id="XMLID_100_">
			
				<linearGradient id="XMLID_35_" gradientUnits="userSpaceOnUse" x1="381.4136" y1="284.9375" x2="360.1896" y2="295.6238" gradientTransform="matrix(1 0 0 -1 0 500)">
				<stop  offset="0" style="stop-color:#FFFFFF"/>
				<stop  offset="0.1726" style="stop-color:#FCFCFC"/>
				<stop  offset="0.3103" style="stop-color:#F2F2F2"/>
				<stop  offset="0.4361" style="stop-color:#E2E1E1"/>
				<stop  offset="0.5548" style="stop-color:#CAC9C9"/>
				<stop  offset="0.6685" style="stop-color:#ACABAB"/>
				<stop  offset="0.7784" style="stop-color:#878585"/>
				<stop  offset="0.8853" style="stop-color:#5B5859"/>
				<stop  offset="0.9872" style="stop-color:#2A2627"/>
				<stop  offset="1" style="stop-color:#231F20"/>
			</linearGradient>
			<path id="XMLID_96_" class="st17" d="M388.1,206.4h-28.9c-0.4,2.2-1.2,6.2-2,8.5h30L388.1,206.4z"/>
			<path id="XMLID_97_" class="st3" d="M387.2,215.2L387.2,215.2h-30c-0.1,0-0.2-0.1-0.3-0.2c-0.1-0.1-0.1-0.2,0-0.3
				c0.8-2.3,1.6-6.2,1.9-8.4c0-0.2,0.2-0.3,0.4-0.3l0,0h28.9c0.1,0,0.2,0,0.3,0.1c0.1,0.1,0.1,0.2,0.1,0.3l-0.9,8.5
				C387.6,215.1,387.4,215.2,387.2,215.2z M357.7,214.5h29.2l0.8-7.7h-28.2C359.1,208.8,358.4,212.2,357.7,214.5z"/>
		</g>
		
			<linearGradient id="XMLID_38_" gradientUnits="userSpaceOnUse" x1="369.0679" y1="274.6875" x2="268.7048" y2="255.0442" gradientTransform="matrix(1 0 0 -1 0 500)">
			<stop  offset="0" style="stop-color:#F7F8FA"/>
			<stop  offset="0.4629" style="stop-color:#F5F6F9"/>
			<stop  offset="0.6296" style="stop-color:#EEF0F3"/>
			<stop  offset="0.7485" style="stop-color:#E3E5E9"/>
			<stop  offset="0.8446" style="stop-color:#D2D6DB"/>
			<stop  offset="0.9259" style="stop-color:#BCC2C8"/>
			<stop  offset="0.9975" style="stop-color:#A1AAB2"/>
			<stop  offset="1" style="stop-color:#A0A9B1"/>
		</linearGradient>
		<path id="XMLID_197_" class="st18" d="M340.2,229.7c-8,2.1-66.1,11.9-76.1,13.6v6c0,0,88.5-16.8,99.2-19.8
			c3.1-0.9,5.9-1.7,8.5-2.5c-5.5-0.8-15.3-1.5-20-1.9C348.8,227,344.7,228.5,340.2,229.7z"/>
		<g id="XMLID_95_">
			
				<linearGradient id="XMLID_39_" gradientUnits="userSpaceOnUse" x1="369.7184" y1="271.4807" x2="366.6578" y2="282.7979" gradientTransform="matrix(1 0 0 -1 0 500)">
				<stop  offset="0" style="stop-color:#FFFFFF"/>
				<stop  offset="0.1432" style="stop-color:#FBFBFB"/>
				<stop  offset="0.278" style="stop-color:#F0F0F0"/>
				<stop  offset="0.4095" style="stop-color:#DDDDDD"/>
				<stop  offset="0.539" style="stop-color:#C3C2C2"/>
				<stop  offset="0.6669" style="stop-color:#A1A0A0"/>
				<stop  offset="0.7939" style="stop-color:#787576"/>
				<stop  offset="0.9175" style="stop-color:#474445"/>
				<stop  offset="1" style="stop-color:#231F20"/>
			</linearGradient>
			<path id="XMLID_91_" class="st19" d="M384.2,219.5H357c-0.7,2.3-2.5,4.1-5.1,5.7c4.7,0.3,14.5,1.1,20,1.9
				C378.1,225,382.6,222.9,384.2,219.5z"/>
			<path id="XMLID_92_" class="st3" d="M371.9,227.4C371.8,227.4,371.8,227.4,371.9,227.4c-5.7-0.8-15.9-1.6-20-1.9
				c-0.2,0-0.3-0.1-0.3-0.3s0-0.3,0.2-0.4c2.7-1.6,4.3-3.4,4.9-5.5c0-0.2,0.2-0.3,0.4-0.3h27.2c0.1,0,0.2,0.1,0.3,0.2
				c0.1,0.1,0.1,0.2,0,0.4c-1.8,3.8-7.1,6-12.5,7.7C371.9,227.4,371.9,227.4,371.9,227.4z M353,224.9c4.6,0.4,13.6,1.1,18.8,1.8
				c5-1.6,9.8-3.5,11.7-6.8h-26.3C356.6,221.7,355.2,223.4,353,224.9z"/>
		</g>
		<g id="XMLID_90_">
			
				<linearGradient id="XMLID_40_" gradientUnits="userSpaceOnUse" x1="90.3" y1="372" x2="261.9" y2="372" gradientTransform="matrix(1 0 0 -1 0 500)">
				<stop  offset="0" style="stop-color:#E7E6E7"/>
				<stop  offset="0.2994" style="stop-color:#DCDBDC"/>
				<stop  offset="0.8255" style="stop-color:#BFBEBE"/>
				<stop  offset="1" style="stop-color:#B4B3B3"/>
			</linearGradient>
			<path id="XMLID_86_" class="st20" d="M261.9,132.6v-9.2H90.3c0,0,0.1,0.1,0.2,0.2c9.2,2.7,18.5,9,18.5,9H261.9z"/>
			<path id="XMLID_87_" class="st3" d="M261.9,132.9H109c-0.1,0-0.2,0-0.2-0.1c-0.1-0.1-9.3-6.3-18.4-8.9c-0.1,0-0.2-0.1-0.2-0.1
				l-0.2-0.2c-0.1-0.1-0.1-0.3,0-0.4s0.2-0.2,0.3-0.2h171.6c0.2,0,0.4,0.2,0.4,0.4v9.2C262.3,132.8,262.1,132.9,261.9,132.9z
				 M109.1,132.2h152.5v-8.5H92.2C100.3,126.4,108.1,131.5,109.1,132.2z"/>
		</g>
		
			<linearGradient id="XMLID_41_" gradientUnits="userSpaceOnUse" x1="147.7" y1="353.15" x2="260.1" y2="353.15" gradientTransform="matrix(1 0 0 -1 0 500)">
			<stop  offset="0" style="stop-color:#B79D37"/>
			<stop  offset="0.2742" style="stop-color:#B39936"/>
			<stop  offset="0.5321" style="stop-color:#A88E33"/>
			<stop  offset="0.7827" style="stop-color:#957C2E"/>
			<stop  offset="1" style="stop-color:#7E6528"/>
		</linearGradient>
		<polygon id="XMLID_194_" class="st21" points="260.1,140.3 147.7,140.3 157.8,153.4 260.1,153.4 		"/>
		<g id="XMLID_85_">
			
				<linearGradient id="XMLID_46_" gradientUnits="userSpaceOnUse" x1="116.5" y1="353.15" x2="157.7999" y2="353.15" gradientTransform="matrix(1 0 0 -1 0 500)">
				<stop  offset="0" style="stop-color:#CAD1E0"/>
				<stop  offset="0.1413" style="stop-color:#BFC7D5"/>
				<stop  offset="0.3904" style="stop-color:#A2ACBA"/>
				<stop  offset="0.7155" style="stop-color:#727F8F"/>
				<stop  offset="1" style="stop-color:#435363"/>
			</linearGradient>
			<path id="XMLID_77_" class="st22" d="M116.5,140.3c3.1,3.6,6.5,8.1,9.4,13.1H157l-10-13.1H116.5z"/>
			<path id="XMLID_82_" class="st3" d="M157.6,153.8h-32l-0.1-0.2c-2.4-4.3-5.5-8.6-9.3-13l-0.5-0.6h31.4L157.6,153.8z M126,153.1
				h30.1l-9.4-12.4h-29.4C120.8,144.9,123.8,149,126,153.1z"/>
		</g>
		
			<linearGradient id="XMLID_47_" gradientUnits="userSpaceOnUse" x1="153.5987" y1="354.0692" x2="150.2206" y2="351.5824" gradientTransform="matrix(1 0 0 -1 0 500)">
			<stop  offset="0" style="stop-color:#435363"/>
			<stop  offset="0.2248" style="stop-color:#40505E"/>
			<stop  offset="0.4891" style="stop-color:#3A4550"/>
			<stop  offset="0.7723" style="stop-color:#2F3239"/>
			<stop  offset="1" style="stop-color:#231F20"/>
		</linearGradient>
		<polygon id="XMLID_172_" class="st23" points="147.7,140.3 146.9,140.3 156.9,153.4 157.8,153.4 		"/>
		<path id="XMLID_78_" class="st3" d="M183.9,237.5L183.9,237.5l-42.8-6.7H141c-10.9-4-16-7.7-16.8-11.8
			c-1.4-7.4-10.2-59.9-10.7-62.4c-6.6-9.3-18-25.2-21.3-29.8c-0.1-0.1-0.1-0.3,0-0.4s0.2-0.2,0.4-0.2c3.8,0.7,11.2,3.1,18.7,10.4
			c7.7,8.8,14.6,20.3,14.7,20.4v0.1c0.4,2.4,9.6,58.8,9.9,62.1c0.3,2.7,2.5,6,17.5,10.2c13.8,3.9,30.3,7.3,30.4,7.3
			c0.2,0,0.3,0.2,0.3,0.4C184.3,237.4,184.1,237.5,183.9,237.5z M141.3,230.1l30.8,4.8c-5.6-1.3-12.5-3-18.8-4.7l0,0
			c-12.4-3.5-17.6-6.6-18.1-10.8c-0.3-3.3-9.5-59.7-9.9-62c-0.5-0.9-7.2-11.9-14.6-20.3c-6.7-6.6-13.5-9.1-17.4-10
			c3.9,5.5,14.6,20.3,20.8,29.1c0,0,0.1,0.1,0.1,0.2c0.1,0.5,9.3,54.9,10.7,62.4C125.5,221.2,127.6,225,141.3,230.1z"/>
		
			<linearGradient id="XMLID_48_" gradientUnits="userSpaceOnUse" x1="156.2019" y1="336.7443" x2="161.2109" y2="338.1472" gradientTransform="matrix(1 0 0 -1 0 500)">
			<stop  offset="0" style="stop-color:#435363"/>
			<stop  offset="0.1009" style="stop-color:#3F4E5C"/>
			<stop  offset="1" style="stop-color:#231F20"/>
		</linearGradient>
		<polygon id="XMLID_170_" class="st24" points="156.1,157.8 158.7,167.2 160,167.2 161.7,167.2 159,157.8 		"/>
		<g id="XMLID_76_">
			
				<linearGradient id="XMLID_49_" gradientUnits="userSpaceOnUse" x1="127.8481" y1="337.5" x2="158.7481" y2="337.5" gradientTransform="matrix(1 0 0 -1 0 500)">
				<stop  offset="0" style="stop-color:#CAD1E0"/>
				<stop  offset="2.485777e-002" style="stop-color:#C6CEDC"/>
				<stop  offset="0.6588" style="stop-color:#687686"/>
				<stop  offset="0.944" style="stop-color:#435363"/>
			</linearGradient>
			<path id="XMLID_69_" class="st25" d="M127.8,157.8c0.3,2,0.8,5.3,1.5,9.4h29.4l-2.6-9.4H127.8z"/>
			<path id="XMLID_73_" class="st3" d="M158.7,167.5h-29.4c-0.2,0-0.3-0.1-0.4-0.3c-0.6-4.1-1.1-7.4-1.5-9.4c0-0.1,0-0.2,0.1-0.3
				s0.2-0.1,0.3-0.1H156c0.2,0,0.3,0.1,0.4,0.3l2.6,9.4c0,0.1,0,0.2-0.1,0.3C158.9,167.5,158.8,167.5,158.7,167.5z M129.6,166.8
				h28.6l-2.4-8.6h-27.5C128.6,160.1,129,163.1,129.6,166.8z"/>
		</g>
		<polygon id="XMLID_168_" class="st16" points="260.4,157.8 159.3,157.8 159,157.8 161.7,167.2 260.4,167.2 		"/>
		
			<linearGradient id="XMLID_50_" gradientUnits="userSpaceOnUse" x1="158.5" y1="322.05" x2="260.1" y2="322.05" gradientTransform="matrix(1 0 0 -1 0 500)">
			<stop  offset="0" style="stop-color:#B79D37"/>
			<stop  offset="0.2742" style="stop-color:#B39936"/>
			<stop  offset="0.5321" style="stop-color:#A88E33"/>
			<stop  offset="0.7827" style="stop-color:#957C2E"/>
			<stop  offset="1" style="stop-color:#7E6528"/>
		</linearGradient>
		<path id="XMLID_167_" class="st26" d="M260.1,171.7H158.5c0.4,2.9,1.1,8.9,1.8,12.5H260v-12.5H260.1z"/>
		<path id="XMLID_101_" class="st27" d="M269.9,242.3c1-0.2,2-0.3,3.1-0.5h-3.1V242.3z"/>
		
			<linearGradient id="XMLID_51_" gradientUnits="userSpaceOnUse" x1="264.3" y1="268.3" x2="356.9665" y2="268.3" gradientTransform="matrix(1 0 0 -1 0 500)">
			<stop  offset="0" style="stop-color:#7E6528"/>
			<stop  offset="0.2173" style="stop-color:#957C2E"/>
			<stop  offset="0.4679" style="stop-color:#A88E33"/>
			<stop  offset="0.7258" style="stop-color:#B39936"/>
			<stop  offset="1" style="stop-color:#B79D37"/>
		</linearGradient>
		<path id="XMLID_7_" class="st28" d="M352.2,220h-0.7h-7.9h-1.1h-8.1h-0.7h-6.8h-0.4h-6.2h-1.1h-7.1h-0.7h-7.6h-0.4h-7.6h-1.1H287
			h-0.7H280h-0.4h-9.7h-0.7h-4.9c0.1,5,0,15.8,0,23.5c1.1-0.2,2.8-0.6,4.9-0.9c0.2,0,0.8-0.2,0.8-0.2V242h3c1.4-1,2.9-0.6,4.4-0.9
			c0.7-0.1,1.4-0.3,2.2-0.4c0.1,0,0.2-0.1,0.4-0.1c2-0.3,4.2-0.7,6.4-1.1c0.2,0,0.5-0.1,0.7-0.1c2.5-0.4,5.1-0.9,7.7-1.3
			c0.4-0.1,0.7-0.1,1.1-0.2c1.8-0.3,3.6-0.4,5.4-0.8c2.2-0.4,4.3-1,6.4-1l3.3-1c0.8,0,0.7-0.1,0.9-0.1c2.4-0.4,4.9-0.9,7.2-1.3
			c0.4-0.1,0.8-0.1,1.1-0.2c2.2-0.4,4.3-0.8,6.2-1.1c0.1,0,0.3,0,0.4-0.1c2.5-0.5,4.8-0.9,6.8-1.3c0.2,0,0.5-0.1,0.7-0.1
			c0.8-0.2,1.5-0.3,2.1-0.4c1.4-0.3,2.6-0.6,3.4-0.8c0.1,0,0.2-0.1,0.3-0.1c0.8-0.2,1.5-0.4,2.3-0.7c0.4-0.1,0.7-0.2,1.1-0.3
			c3-0.9,5.7-2,7.9-3.3c0.2-0.1,0.5-0.3,0.7-0.4l0.1-0.1c0.2-0.1,0.5-0.1,0.7-0.2c1.9-1.4,3.3-3.7,3.9-4.7h-4.6V220z"/>
		<g id="XMLID_72_">
			<rect id="XMLID_45_" x="264.2" y="140.6" class="st29" width="47.1" height="19.5"/>
			<path id="XMLID_68_" class="st3" d="M311.2,160.5h-47.1c-0.2,0-0.4-0.2-0.4-0.4v-19.5c0-0.2,0.2-0.4,0.4-0.4h47.1
				c0.2,0,0.4,0.2,0.4,0.4v19.5C311.6,160.3,311.4,160.5,311.2,160.5z M264.5,159.7h46.3V141h-46.3V159.7z"/>
		</g>
		
			<linearGradient id="XMLID_52_" gradientUnits="userSpaceOnUse" x1="316.1" y1="326.4" x2="367.6" y2="326.4" gradientTransform="matrix(1 0 0 -1 0 500)">
			<stop  offset="0" style="stop-color:#6B1716"/>
			<stop  offset="5.963504e-002" style="stop-color:#731919"/>
			<stop  offset="0.2844" style="stop-color:#8E1F22"/>
			<stop  offset="0.514" style="stop-color:#A12328"/>
			<stop  offset="0.7496" style="stop-color:#AC262C"/>
			<stop  offset="1" style="stop-color:#B0272D"/>
		</linearGradient>
		<polygon id="XMLID_57_" class="st30" points="367.6,163 316.1,163.3 316.1,184.2 363.8,184.2 		"/>
		<g id="XMLID_67_">
			
				<linearGradient id="XMLID_53_" gradientUnits="userSpaceOnUse" x1="137.7702" y1="277.7" x2="175.4025" y2="277.7" gradientTransform="matrix(1 0 0 -1 0 500)">
				<stop  offset="0" style="stop-color:#CAD1E0"/>
				<stop  offset="2.633160e-002" style="stop-color:#C6CEDC"/>
				<stop  offset="0.6978" style="stop-color:#687686"/>
				<stop  offset="1" style="stop-color:#435363"/>
			</linearGradient>
			<path id="XMLID_32_" class="st31" d="M168,218.9h-30.3c1.3,2.9,3.8,4.9,8.5,6.8h29.2C171.3,223.5,169.1,220.8,168,218.9z"/>
			<path id="XMLID_64_" class="st3" d="M175.4,226h-29.2h-0.1c-4.8-1.9-7.3-3.9-8.7-7c-0.1-0.1,0-0.2,0-0.4c0.1-0.1,0.2-0.2,0.3-0.2
				H168c0.1,0,0.3,0.1,0.3,0.2c1,1.9,3.1,4.6,7.2,6.6c0.2,0.1,0.2,0.2,0.2,0.4C175.7,225.9,175.6,226,175.4,226z M146.3,225.3H174
				c-3.3-2-5.1-4.3-6.1-6h-29.5C139.7,221.8,142.1,223.5,146.3,225.3z"/>
		</g>
		
			<linearGradient id="XMLID_54_" gradientUnits="userSpaceOnUse" x1="188.65" y1="274.3654" x2="188.65" y2="281.1328" gradientTransform="matrix(1 0 0 -1 0 500)">
			<stop  offset="0" style="stop-color:#0043A6"/>
			<stop  offset="0.3265" style="stop-color:#0141A3"/>
			<stop  offset="0.5555" style="stop-color:#063C9A"/>
			<stop  offset="0.7546" style="stop-color:#0D348A"/>
			<stop  offset="0.9356" style="stop-color:#172775"/>
			<stop  offset="1" style="stop-color:#1C226B"/>
		</linearGradient>
		<path id="XMLID_44_" class="st32" d="M209.3,218.9H168c1.1,1.9,3.2,4.7,7.4,6.8h33.9L209.3,218.9L209.3,218.9z"/>
		
			<linearGradient id="XMLID_55_" gradientUnits="userSpaceOnUse" x1="236.2" y1="297.3353" x2="236.2" y2="304.5185" gradientTransform="matrix(1 0 0 -1 0 500)">
			<stop  offset="0" style="stop-color:#0043A6"/>
			<stop  offset="0.3265" style="stop-color:#0141A3"/>
			<stop  offset="0.5555" style="stop-color:#063C9A"/>
			<stop  offset="0.7546" style="stop-color:#0D348A"/>
			<stop  offset="0.9356" style="stop-color:#172775"/>
			<stop  offset="1" style="stop-color:#1C226B"/>
		</linearGradient>
		<rect id="XMLID_43_" x="212.5" y="195.5" class="st33" width="47.4" height="7.2"/>
		
			<linearGradient id="XMLID_56_" gradientUnits="userSpaceOnUse" x1="212.4" y1="272.25" x2="260" y2="272.25" gradientTransform="matrix(1 0 0 -1 0 500)">
			<stop  offset="0" style="stop-color:#B0272D"/>
			<stop  offset="0.2504" style="stop-color:#AC262C"/>
			<stop  offset="0.486" style="stop-color:#A12328"/>
			<stop  offset="0.7156" style="stop-color:#8E1F22"/>
			<stop  offset="0.9404" style="stop-color:#731919"/>
			<stop  offset="1" style="stop-color:#6B1716"/>
		</linearGradient>
		<polygon id="XMLID_42_" class="st34" points="212.4,212.2 212.4,234.4 260,243.3 260,212.2 		"/>
		
			<linearGradient id="XMLID_58_" gradientUnits="userSpaceOnUse" x1="344.2" y1="347.4315" x2="344.2" y2="354.4315" gradientTransform="matrix(1 0 0 -1 0 500)">
			<stop  offset="0" style="stop-color:#0043A6"/>
			<stop  offset="0.3265" style="stop-color:#0141A3"/>
			<stop  offset="0.5555" style="stop-color:#063C9A"/>
			<stop  offset="0.7546" style="stop-color:#0D348A"/>
			<stop  offset="0.9356" style="stop-color:#172775"/>
			<stop  offset="1" style="stop-color:#1C226B"/>
		</linearGradient>
		<path id="XMLID_33_" class="st35" d="M316.1,145.6v7h51.4c1.7-2.1,3.5-4.9,4.8-7H316.1z"/>
		<g id="XMLID_63_">
			
				<linearGradient id="XMLID_61_" gradientUnits="userSpaceOnUse" x1="386.2594" y1="346.7177" x2="383.8452" y2="357.2425" gradientTransform="matrix(1 0 0 -1 0 500)">
				<stop  offset="0" style="stop-color:#FFFFFF"/>
				<stop  offset="0.131" style="stop-color:#FBFBFB"/>
				<stop  offset="0.2646" style="stop-color:#EFEFEF"/>
				<stop  offset="0.3996" style="stop-color:#DBDADA"/>
				<stop  offset="0.5355" style="stop-color:#BFBEBE"/>
				<stop  offset="0.6721" style="stop-color:#9A9999"/>
				<stop  offset="0.8094" style="stop-color:#6E6B6C"/>
				<stop  offset="0.9446" style="stop-color:#3A3738"/>
				<stop  offset="1" style="stop-color:#231F20"/>
			</linearGradient>
			<path id="XMLID_31_" class="st36" d="M396.2,145.6h-23.9c-1.3,2.1-3.1,4.9-4.8,7h28.7h2.5l4.4-7
				C403.1,145.6,399.6,145.3,396.2,145.6z"/>
			<path id="XMLID_60_" class="st3" d="M398.7,152.9h-31.2c-0.1,0-0.3-0.1-0.3-0.2c-0.1-0.1,0-0.3,0-0.4c1.7-2.1,3.5-4.9,4.8-7
				c0.1-0.1,0.2-0.2,0.3-0.2h23.9c3.4-0.3,6.9,0,7,0s0.2,0.1,0.3,0.2c0.1,0.1,0.1,0.3,0,0.4l-4.4,7
				C399,152.9,398.8,152.9,398.7,152.9z M368.3,152.2h30.2l4-6.3c-1.2-0.1-3.7-0.2-6.2,0l0,0h-23.7
				C371.4,147.8,369.8,150.2,368.3,152.2z"/>
		</g>
		<g id="XMLID_59_">
			
				<linearGradient id="XMLID_62_" gradientUnits="userSpaceOnUse" x1="384.273" y1="311.1061" x2="375.5603" y2="339.5037" gradientTransform="matrix(1 0 0 -1 0 500)">
				<stop  offset="0" style="stop-color:#FFFFFF"/>
				<stop  offset="0.1996" style="stop-color:#FCFCFC"/>
				<stop  offset="0.3396" style="stop-color:#F3F3F3"/>
				<stop  offset="0.4614" style="stop-color:#E4E3E4"/>
				<stop  offset="0.5729" style="stop-color:#CECECE"/>
				<stop  offset="0.6772" style="stop-color:#B2B1B1"/>
				<stop  offset="0.7763" style="stop-color:#908E8F"/>
				<stop  offset="0.8714" style="stop-color:#686565"/>
				<stop  offset="0.9608" style="stop-color:#3A3637"/>
				<stop  offset="1" style="stop-color:#231F20"/>
			</linearGradient>
			<polygon id="XMLID_8_" class="st37" points="395.3,162.8 367.6,163 363.8,184.2 392.2,184.2 			"/>
			<path id="XMLID_30_" class="st3" d="M392.2,184.6h-28.4c-0.1,0-0.2,0-0.3-0.1c-0.1-0.1-0.1-0.2-0.1-0.3l3.8-21.2
				c0-0.2,0.2-0.3,0.4-0.3l27.7-0.2c0.1,0,0.2,0,0.3,0.1c0.1,0.1,0.1,0.2,0.1,0.3l-3.1,21.4C392.5,184.5,392.4,184.6,392.2,184.6z
				 M364.3,183.9h27.6l3-20.7l-27,0.2L364.3,183.9z"/>
		</g>
		<path id="XMLID_27_" class="st3" d="M264.1,243.4v-24h0.3v0.1c0,3.4,0,9,0,14.3c0,3.2,0,6.6,0,9.5v0.1L264.1,243.4z"/>
		
			<linearGradient id="XMLID_65_" gradientUnits="userSpaceOnUse" x1="392.7383" y1="310.5408" x2="405.7827" y2="310.5408" gradientTransform="matrix(1 0 0 -1 0 500)">
			<stop  offset="0" style="stop-color:#E1E5ED"/>
			<stop  offset="6.361490e-002" style="stop-color:#D1D7DF"/>
			<stop  offset="0.2058" style="stop-color:#B6BDC6"/>
			<stop  offset="0.3593" style="stop-color:#A0A9B2"/>
			<stop  offset="0.5274" style="stop-color:#909AA4"/>
			<stop  offset="0.7213" style="stop-color:#87929C"/>
			<stop  offset="1" style="stop-color:#848F9A"/>
		</linearGradient>
		<path id="XMLID_29_" class="st38" d="M410.2,157.1h-9.9c0,0-6.3,45.5-11.5,58.7c-2.6,6-0.4,6.1,3.2,6c3.5-0.1,7.9-4,7.9-4
			l10.8-60.7"/>
		
			<linearGradient id="XMLID_66_" gradientUnits="userSpaceOnUse" x1="409.6395" y1="355.9" x2="420.6744" y2="355.9" gradientTransform="matrix(1 0 0 -1 0 500)">
			<stop  offset="0" style="stop-color:#ACB7CD"/>
			<stop  offset="2.121884e-002" style="stop-color:#A8B3C9"/>
			<stop  offset="0.1942" style="stop-color:#8996A9"/>
			<stop  offset="0.3744" style="stop-color:#728091"/>
			<stop  offset="0.5624" style="stop-color:#616F7F"/>
			<stop  offset="0.7634" style="stop-color:#576675"/>
			<stop  offset="1" style="stop-color:#546371"/>
		</linearGradient>
		<path id="XMLID_28_" class="st39" d="M427.8,132l-8.2,7.4c0,0-5.2,1.5-7.4,4.4c-2.2,2.8-8,11.7-8,11.7l6.4,0.7L427.8,132z"/>
		<path id="XMLID_26_" class="st3" d="M264.2,243.6c-0.1,0-0.2,0-0.2-0.1c-0.1-0.1-0.1-0.2-0.1-0.3v-23.8c0-0.2,0.2-0.4,0.4-0.4
			h92.8c0.1,0,0.2,0,0.3,0.1c0.1,0.1,0.1,0.2,0.1,0.3c-0.2,7.1-17.4,10.6-27.7,12.7c-1,0.2-1.9,0.4-2.7,0.5
			C318.1,234.6,264.8,243.5,264.2,243.6L264.2,243.6z M264.5,219.9v23c5.2-0.9,53.9-9.1,62.3-10.8c0.8-0.2,1.7-0.3,2.7-0.5
			c9.2-1.9,26.3-5.3,27.1-11.6L264.5,219.9L264.5,219.9z"/>
		<path id="XMLID_25_" class="st3" d="M361.5,201.9h-97.3c-0.2,0-0.4-0.2-0.4-0.4c0-1.6,0-3.5,0-5.5c0-2.5,0-5.1,0-6.6
			c0-0.1,0-0.2,0.1-0.3s0.2-0.1,0.3-0.1h99.2c0.1,0,0.2,0,0.3,0.1c0.1,0.1,0.1,0.2,0.1,0.3l-1.9,12.2
			C361.8,201.8,361.6,201.9,361.5,201.9z M264.5,201.2h96.6l1.8-11.4h-98.4c0,1.6,0,4,0,6.3C264.5,197.9,264.5,199.7,264.5,201.2z"
			/>
		<path id="XMLID_23_" class="st3" d="M363.8,184.6h-47.7c-0.2,0-0.4-0.2-0.4-0.4v-20.9c0-0.2,0.2-0.4,0.4-0.4l51.5-0.3
			c0.1,0,0.2,0,0.3,0.1c0.1,0.1,0.1,0.2,0.1,0.3l-3.8,21.2C364.1,184.5,364,184.6,363.8,184.6z M316.5,183.9h47l3.7-20.5l-50.6,0.3
			v20.2H316.5z"/>
		
			<linearGradient id="XMLID_70_" gradientUnits="userSpaceOnUse" x1="264.2" y1="349.65" x2="311.3" y2="349.65" gradientTransform="matrix(1 0 0 -1 0 500)">
			<stop  offset="0" style="stop-color:#6B1716"/>
			<stop  offset="5.963504e-002" style="stop-color:#731919"/>
			<stop  offset="0.2844" style="stop-color:#8E1F22"/>
			<stop  offset="0.514" style="stop-color:#A12328"/>
			<stop  offset="0.7496" style="stop-color:#AC262C"/>
			<stop  offset="1" style="stop-color:#B0272D"/>
		</linearGradient>
		<rect id="XMLID_24_" x="264.2" y="140.6" class="st40" width="47.1" height="19.5"/>
		<path id="XMLID_12_" class="st3" d="M260.1,153.8H157.8c-0.1,0-0.2-0.1-0.3-0.1l-10.1-13.1c-0.1-0.1-0.1-0.3,0-0.4
			c0.1-0.1,0.2-0.2,0.3-0.2h112.4c0.2,0,0.4,0.2,0.4,0.4v13.1C260.5,153.7,260.3,153.8,260.1,153.8z M158,153.1h101.8v-12.4H148.4
			L158,153.1z"/>
		<path id="XMLID_11_" class="st3" d="M260.1,184.5h-99.7c-0.2,0-0.3-0.1-0.4-0.3c-0.7-3.5-1.4-9.4-1.8-12.5c0-0.1,0-0.2,0.1-0.3
			s0.2-0.1,0.3-0.1h101.5c0.2,0,0.4,0.2,0.4,0.4v12.5C260.5,184.4,260.3,184.5,260.1,184.5z M160.7,183.8h99V172H159
			C159.4,175.2,160.1,180.4,160.7,183.8z"/>
		<path id="XMLID_9_" class="st3" d="M260,243.7L260,243.7l-47.7-8.9c-0.2,0-0.3-0.2-0.3-0.4v-22.2c0-0.2,0.2-0.4,0.4-0.4H260
			c0.2,0,0.4,0.2,0.4,0.4v31.1c0,0.1-0.1,0.2-0.1,0.3C260.2,243.6,260.1,243.7,260,243.7z M212.8,234.1l46.9,8.7v-30.3h-46.9
			L212.8,234.1L212.8,234.1z"/>
		<polygon id="XMLID_10_" class="st41" points="209.3,189.1 161.3,189.1 163.9,208.6 209.3,208.6 		"/>
		<path id="XMLID_37_" class="st3" d="M209.3,209h-45.4c-0.2,0-0.3-0.1-0.4-0.3l-2.6-19.5c0-0.1,0-0.2,0.1-0.3s0.2-0.1,0.3-0.1h48
			c0.2,0,0.4,0.2,0.4,0.4v19.5C209.7,208.8,209.5,209,209.3,209z M164.2,208.3h44.7v-18.8h-47.2L164.2,208.3z"/>
		<g id="XMLID_36_">
			
				<linearGradient id="XMLID_71_" gradientUnits="userSpaceOnUse" x1="347.95" y1="365.3503" x2="347.95" y2="381.4423" gradientTransform="matrix(1 0 0 -1 0 500)">
				<stop  offset="0" style="stop-color:#E7E6E7"/>
				<stop  offset="0.3923" style="stop-color:#E4E4E4"/>
				<stop  offset="0.6151" style="stop-color:#DCDCDC"/>
				<stop  offset="0.7955" style="stop-color:#CFCECE"/>
				<stop  offset="0.9522" style="stop-color:#BBBABB"/>
				<stop  offset="1" style="stop-color:#B4B3B3"/>
			</linearGradient>
			<polygon id="XMLID_5_" class="st42" points="262.2,123.4 261.9,123.4 261.9,132.6 415.1,132.6 434,123.4 			"/>
			<path id="XMLID_6_" class="st3" d="M415.1,132.9H261.9c-0.2,0-0.4-0.2-0.4-0.4v-9.2c0-0.2,0.2-0.4,0.4-0.4H434
				c0.2,0,0.3,0.1,0.4,0.3c0,0.2,0,0.3-0.2,0.4l-18.9,9.2C415.2,132.9,415.1,132.9,415.1,132.9z M262.3,132.2H415l17.4-8.5H262.3
				V132.2z"/>
		</g>
	</g>
</g>
</svg>
