<?xml version="1.0" encoding="utf-8"?>
<!-- Generator: Adobe Illustrator 19.0.0, SVG Export Plug-In . SVG Version: 6.00 Build 0)  -->
<svg version="1.1" id="Layer_1" xmlns="http://www.w3.org/2000/svg" xmlns:xlink="http://www.w3.org/1999/xlink" x="0px" y="0px"
	 viewBox="0 0 500 500" style="enable-background:new 0 0 500 500;" xml:space="preserve">
<style type="text/css">
	.st0{fill:url(#XMLID_74_);}
	.st1{fill:url(#XMLID_75_);}
	.st2{fill:url(#XMLID_79_);}
	.st3{fill:url(#XMLID_80_);}
	.st4{fill:url(#XMLID_81_);}
	.st5{fill:url(#XMLID_82_);}
	.st6{fill:#0E2B58;}
	.st7{fill:url(#XMLID_83_);}
	.st8{fill:#BDBCBC;}
	.st9{fill:url(#XMLID_84_);}
	.st10{fill:url(#XMLID_85_);}
	.st11{fill:url(#XMLID_86_);}
	.st12{fill:#FFFFFF;}
	.st13{fill:url(#XMLID_87_);}
	.st14{fill:url(#XMLID_88_);}
	.st15{fill:url(#XMLID_90_);}
	.st16{fill:url(#XMLID_91_);}
	.st17{fill:url(#XMLID_92_);}
	.st18{fill:url(#XMLID_96_);}
	.st19{fill:#4F4C4D;}
</style>
<g id="XMLID_1_">
	
		<linearGradient id="XMLID_74_" gradientUnits="userSpaceOnUse" x1="0.1902" y1="9.503603e-004" x2="0.8101" y2="9.503603e-004" gradientTransform="matrix(0 510.652 -510.652 0 250.4805 -5.403)">
		<stop  offset="0" style="stop-color:#FFFFFF"/>
		<stop  offset="0.6533" style="stop-color:#828384"/>
		<stop  offset="1" style="stop-color:#2A282C"/>
	</linearGradient>
	<path id="XMLID_5_" class="st0" d="M85.6,96.5c-2.6,0.3-5,0.5-7.1,0.8c-1,0.1-2.2,0.3-2.8,0.5c-4,1-6.3,5-5.9,8.8
		c0,0.2,1,5.8,1.3,7.5c2.4,13.1,5,26.2,7.8,39.2c2.8,12.9,5.9,25.8,9.1,38.6c2,7.8,4,15.5,6.2,23.3c1.5,5.7,6.4,22.6,9.3,32.2
		c3.2,10.8,6.6,21.4,10,32.1c3.8,11.6,15.7,45.6,17.8,51c9.7,24.7,20.1,43.8,38.1,58c17.5,13.8,36.1,19.7,80.4,19.7
		c44.4,0,62.9-5.9,80.4-19.7c18.1-14.3,28.4-33.3,38.1-58c2.2-5.4,14-39.3,17.8-51c3.5-10.7,6.8-21.3,10.1-32.1
		c2.9-9.6,7.7-26.5,9.3-32.2c2.1-7.8,4.2-15.5,6.2-23.3c3.3-12.8,6.3-25.7,9.1-38.6c2.8-13,5.5-26.1,7.8-39.2
		c0.3-1.8,1.3-7.3,1.3-7.5c0.5-3.8-1.9-7.7-5.8-8.8c-0.6-0.2-1.8-0.3-2.8-0.5c-2.1-0.3-4.5-0.6-7.1-0.8
		c-24.1-2.1-100.5-4.8-164.4-4.8C186.1,91.7,109.7,94.4,85.6,96.5 M332.3,257.6c-2.2,6.7-15.5,39.3-17.8,44.6
		c-5,11.8-10.3,23-18.6,30.5c-6,5.5-14.6,10.5-34.5,11.3c-3.8,0.2-8.7,0.2-11.4,0.2c-2.7,0-7.6,0-11.4-0.2
		c-19.8-0.8-28.4-5.8-34.5-11.3c-8.3-7.5-13.6-18.7-18.6-30.5c-2.3-5.3-15.6-37.9-17.8-44.6C194.9,259,225,260,250,260
		S305.2,259,332.3,257.6"/>
	
		<linearGradient id="XMLID_75_" gradientUnits="userSpaceOnUse" x1="0.2058" y1="-1.595462e-003" x2="0.8256" y2="-1.595462e-003" gradientTransform="matrix(0 -361.6539 361.6539 0 250.5511 446.1584)">
		<stop  offset="0" style="stop-color:#FCFCFC"/>
		<stop  offset="0.4917" style="stop-color:#4B4A4D"/>
		<stop  offset="0.4917" style="stop-color:#4B4A4D"/>
		<stop  offset="0.7893" style="stop-color:#2A282C"/>
		<stop  offset="1" style="stop-color:#2A282C"/>
	</linearGradient>
	<path id="XMLID_6_" class="st1" d="M95.2,132.1c0.8,2.8,1.5,5.3,2.2,7.9c4,14.6,8.4,29.5,12.9,44.3c8.8,28.8,17.8,58.2,29,87.4
		c5.9,15.5,11.4,29.2,16.9,41.8c4.8,11.2,10.9,24,19.8,34.5c9.1,10.7,19.1,17.5,31.6,21.5c10.8,3.5,23.5,5,42.6,5s31.7-1.5,42.6-5
		c12.5-4,22.5-10.8,31.5-21.5c8.9-10.5,15-23.3,19.8-34.5c5.5-12.6,11-26.3,16.9-41.8c11.2-29.3,20.2-58.6,29-87.4
		c4.5-14.8,8.8-29.7,12.9-44.3c0.6-2.3,1.3-4.5,1.9-6.8c3.2-11.3,6.5-22.9,8.5-34c-3,10.5-15,50.6-29.2,83.4
		c-16.9,39.1-44.1,70.5-50.9,75.9l-0.3,0.3l-1.1,0.8c-0.3,1-0.7,2-0.8,2.3c-0.7,1.7-1.3,3.3-1.9,5c-1.3,3.5-2.7,6.9-4,10.3
		c-2.8,6.9-5.5,13.8-8.4,20.6c-2.9,6.8-5.7,13.5-9.3,20c-3.3,6-7.3,11.7-12.5,16c-5.3,4.5-11.8,7.2-18.6,8.6
		c-7.1,1.5-14.5,1.7-21.8,1.8c-1.5,0-2.9,0-4.4,0c-1.5,0-2.9,0-4.4,0c-7.3,0-14.6-0.3-21.8-1.8c-6.8-1.4-13.2-4.2-18.5-8.6
		c-5.3-4.4-9.2-10.1-12.5-16c-3.5-6.5-6.4-13.3-9.3-20c-2.9-6.8-5.7-13.7-8.4-20.6c-1.4-3.4-2.7-6.9-4-10.3c-0.6-1.6-1.3-3.3-1.9-5
		c-0.1-0.3-0.5-1.3-0.8-2.3l-1.1-0.8l-0.3-0.3c-6.8-5.4-34.5-38.2-51.4-77.4c-14.3-33.1-25.9-72.5-28.7-82.3
		C88.7,109.4,92,120.9,95.2,132.1"/>
	
		<linearGradient id="XMLID_79_" gradientUnits="userSpaceOnUse" x1="0.1892" y1="1.499182e-002" x2="0.8091" y2="1.499182e-002" gradientTransform="matrix(540.2397 0 0 540.2397 -19.655 228.6805)">
		<stop  offset="0" style="stop-color:#FFFFFF"/>
		<stop  offset="1" style="stop-color:#FFFFFF"/>
	</linearGradient>
	<path id="XMLID_7_" class="st2" d="M404.5,133.2c-0.6,2.3-1.3,4.5-1.9,6.8c-4,14.6-8.4,29.5-12.9,44.3
		c-8.8,28.8-18.8,58.1-29.9,87.1c-5.9,15.3-11.3,28.9-16.8,41.4c-4.8,11-10.8,23.8-19.6,34.2c-9,10.6-18.9,17.4-31.3,21.3
		c-10.7,3.5-23.4,4.9-42.2,4.9c-18.8,0-31.5-1.5-42.2-4.9c-12.3-4-22.3-10.8-31.3-21.3c-8.8-10.4-14.9-23.1-19.6-34.2
		c-5.4-12.5-10.9-26.1-16.8-41.4c-11.1-29-21.1-58.3-29.9-87.1c-4.5-14.8-8.8-29.7-12.9-44.3c-0.7-2.6-1.5-5.2-2.2-7.9
		c-3.5-12.1-7-24.6-8.7-35.7l-0.9,0.1c-1,0.1-2,0.2-3,0.3c2.2,14,7.1,30,11,44.3c4.1,14.8,8.5,29.6,12.9,44.3
		c9,29.5,19,58.6,30,87.4c5.3,14,10.9,27.8,16.8,41.6c5.4,12.5,11.5,24.8,20.3,35.1c19.7,23.2,42.9,27.6,76.4,27.6
		c33.5,0,56.7-4.4,76.4-27.6c8.8-10.4,14.9-22.7,20.3-35.1c5.9-13.7,11.5-27.6,16.8-41.6c11-28.8,21-57.9,30-87.4
		c4.5-14.8,8.8-29.5,12.9-44.3c3.9-14.3,8.6-29.8,11.1-44.3c-1-0.1-2-0.2-3-0.3l-0.8-0.1C411.6,108.3,408,121,404.5,133.2"/>
	
		<linearGradient id="XMLID_80_" gradientUnits="userSpaceOnUse" x1="0.4032" y1="-5.494169e-003" x2="1.0231" y2="-5.494169e-003" gradientTransform="matrix(0 -135.4147 135.4147 0 250.7605 394.1952)">
		<stop  offset="0" style="stop-color:#4F4C4C"/>
		<stop  offset="1" style="stop-color:#231F20"/>
	</linearGradient>
	<path id="XMLID_10_" class="st3" d="M332.2,255.4c-30.3,1.5-59.5,2.3-82.2,2.3c-22.7,0-51.9-0.8-82.2-2.3l-3.3-0.2l1,3.2
		c2.3,6.8,15.5,39.3,17.9,44.7c4.9,11.5,10.4,23.4,19.2,31.3c6,5.4,14.9,11,35.9,11.8l11.5,0.2l11.5-0.2c21-0.8,30-6.4,35.9-11.9
		c8.8-7.9,14.3-19.8,19.2-31.3c2.3-5.4,15.6-37.9,17.9-44.7l1-3.2L332.2,255.4 M329,260.1c-3.9,10.4-14.6,36.6-16.6,41.2
		c-4.7,11-9.9,22.4-18.1,29.7c-5.6,5.1-13.5,10-33,10.7l-11.3,0.1l-11.3-0.1c-19.5-0.8-27.7-5.8-33-10.7c-8.1-7.3-13.4-18.7-18-29.7
		c-2-4.6-12.7-30.8-16.6-41.2c29.1,1.4,57.1,2.2,79,2.2S299.9,261.5,329,260.1"/>
	
		<linearGradient id="XMLID_81_" gradientUnits="userSpaceOnUse" x1="2.239075e-002" y1="-1.497842e-003" x2="0.6422" y2="-1.497842e-003" gradientTransform="matrix(0 -271.3978 271.3978 0 250.4229 266.0318)">
		<stop  offset="0" style="stop-color:#343437"/>
		<stop  offset="4.135000e-003" style="stop-color:#343437"/>
		<stop  offset="0.157" style="stop-color:#FFFFFF"/>
		<stop  offset="0.3708" style="stop-color:#C4C6C7"/>
		<stop  offset="1" style="stop-color:#8A8D90"/>
	</linearGradient>
	<path id="XMLID_11_" class="st4" d="M87.3,96.4c0,0,7.8,35.7,20.5,70l0,0h0c2,5.3,4.1,10.6,6.3,15.8c16.6,38.4,46,69.1,53.5,75.5
		c2,0.1,4.9,0.3,6.8,0.3c5.3,0.3,10.5,0.5,15.8,0.7c10.4,0.4,20.7,0.8,31.1,1c9.5,0.2,19.1,0.3,28.6,0.3c9.5,0,19.1-0.1,28.6-0.3
		c10.4-0.2,20.7-0.5,31.1-1c5.2-0.2,10.5-0.5,15.8-0.7c2-0.1,4.9-0.3,6.8-0.3c7.5-6.4,36.9-37.1,53.5-75.5
		c8.8-20.5,16-43.8,20.6-60.9l0,0l0-0.1c4-14.7,6.2-24.9,6.2-24.9c-54.2-3.3-108.4-4.6-162.7-4.6C195.7,91.8,141.5,93.1,87.3,96.4"
		/>
	
		<radialGradient id="XMLID_82_" cx="0.2981" cy="0.3221" r="0.6199" gradientTransform="matrix(336.4073 0 0 336.4073 -14.1084 -34.6893)" gradientUnits="userSpaceOnUse">
		<stop  offset="0" style="stop-color:#FFFFFF"/>
		<stop  offset="0.9238" style="stop-color:#CFD1D2"/>
		<stop  offset="0.9238" style="stop-color:#CFD1D2"/>
		<stop  offset="1" style="stop-color:#CFD1D2"/>
	</radialGradient>
	<path id="XMLID_12_" class="st5" d="M87.3,96.3L87.3,96.3c0,0,7.8,35.7,20.5,70l0,0h0c0.7,1.8,1.4,3.6,2.1,5.4
		c24.2,1.1,49.5,1,75.5-0.4c88.7-4.9,167.6-24.6,221.4-51.8c3.8-13.8,5.8-23.3,5.8-23.3c-25.8-2.1-100.2-4.6-162.7-4.6
		C187.6,91.7,113.2,94.2,87.3,96.3"/>
	<path id="XMLID_21_" class="st6" d="M211.9,144.9c-2.4,0-4.7,0.4-6.7,0.9c-2,0.5-3.5,1.3-4.5,2.3c-0.4,0.4-1.6,2.3-4.9,9l-7.3,15.6
		c0,0-3.8,8.7-4.5,10.2h12c0.3-0.7,3.2-6.9,3.2-6.9h25.4c0,0,3,6.3,3.4,6.9h11.8c-0.7-1.6-4.6-10.2-4.6-10.2
		c-3-6.6-5.3-11.9-7.2-15.7c-3.4-7-4.5-8.6-4.9-8.9c-1-1-2.5-1.8-4.5-2.3C216.6,145.3,214.3,144.9,211.9,144.9z M339,144.9
		c-2.4,0-4.7,0.4-6.7,0.9c-2,0.5-3.6,1.3-4.6,2.3c-0.4,0.4-1.5,2.3-4.7,9l-7.4,15.6c0,0-3.8,8.7-4.5,10.2h12
		c0.3-0.7,3.4-6.9,3.4-6.9h25.2c0,0,3,6.3,3.4,6.9h11.9c-0.7-1.6-4.6-10.2-4.6-10.2c-3-6.6-5.5-11.9-7.3-15.7
		c-3.4-7-4.5-8.6-4.9-8.9c-1-1-2.5-1.8-4.5-2.3C343.5,145.3,341.3,144.9,339,144.9z M134.1,145.2V183H162c6.4,0,11.5-1.9,15.2-5.8
		c3.3-3.4,5-7.7,5-12.7c0-5.2-1.7-9.7-5.1-13.3c-3.7-4-8.8-6-15.1-6H134.1z M261.4,145.2c-6.3,0-11.3,2-15.1,6
		c-3.3,3.6-5.1,8.1-5.1,13.3c0,5.1,1.7,9.3,5,12.7c3.7,3.9,8.8,5.8,15.2,5.8h23v-7.2h-21c-3.2,0-5.8-1.3-7.6-3.8
		c-1.7-2.3-2.5-5.1-2.5-8.3c0-3.1,0.8-5.7,2.4-7.9c1.9-2.4,4.5-3.7,7.8-3.7h21v-6.9H261.4z M292.9,145.2V183h11.2v-37.9H292.9z
		 M145.3,152.1h14.8c3.3,0,5.8,1.3,7.6,3.7c1.6,2.1,2.5,4.7,2.5,7.9c0,3.2-0.9,6.1-2.5,8.3c-1.9,2.6-4.5,3.8-7.6,3.8h-14.8V152.1z
		 M211.9,152.5c1.1,0,1.5,0.5,1.6,0.8l8.2,17h-19.7l8.1-17.1C210.5,152.6,211.1,152.5,211.9,152.5z M339,152.5
		c1.1,0,1.4,0.5,1.5,0.8l8.3,17h-19.7l8.1-17.1C337.5,152.6,338.1,152.5,339,152.5z"/>
	
		<linearGradient id="XMLID_83_" gradientUnits="userSpaceOnUse" x1="1.5209" y1="5.452137e-003" x2="2.1407" y2="5.452137e-003" gradientTransform="matrix(6.3537 47.1994 -47.1994 6.3537 225.0681 61.3302)">
		<stop  offset="0" style="stop-color:#5A6898"/>
		<stop  offset="1" style="stop-color:#1B3564"/>
	</linearGradient>
	<path id="XMLID_27_" class="st7" d="M332.2,145.8c-2,0.5-3.5,1.3-4.5,2.3c-0.1,0.1-0.4,0.5-0.8,1.2c5-1.4,10-2.8,14.9-4.3
		c-0.9-0.1-1.8-0.2-2.8-0.2C336.5,145,334.3,145.2,332.2,145.8 M205.2,145.8c-2,0.5-3.5,1.3-4.5,2.3c-0.4,0.4-1.5,2.3-4.8,9l-6.5,14
		c4.3-0.3,8.5-0.5,12.8-0.9l8.1-17.1c0.3-0.5,0.9-0.8,1.7-0.8c1.1,0,1.5,0.5,1.6,0.8l7.4,15.3c4-0.4,7.9-0.8,11.8-1.3
		c-1.8-4.1-3.5-7.5-4.8-10.2c-3.4-7-4.5-8.6-4.8-9c-1-1-2.5-1.8-4.5-2.3c-2-0.6-4.3-0.9-6.7-0.9C209.5,145,207.2,145.2,205.2,145.8
		 M292.9,145.2v12.3c3.8-0.8,7.5-1.6,11.1-2.5v-9.9L292.9,145.2 M261.4,145.2c-6.2,0-11.3,2-15,6c-3.3,3.6-5,8.1-5,13.3
		c0,0.6,0,1.2,0.1,1.8c4-0.5,8-1.1,11.9-1.7l0-0.8c0-3.1,0.9-5.8,2.5-7.9c1.9-2.5,4.5-3.7,7.7-3.7h21v-7L261.4,145.2 M134.1,145.2
		v27.3c3.7,0,7.4,0,11.1,0v-20.4H160c3.3,0,5.9,1.2,7.7,3.7c1.6,2.1,2.5,4.8,2.5,7.9c0,3.3-0.8,6-2.5,8.3l-0.1,0.2
		c4.4-0.2,8.9-0.3,13.3-0.6c0.9-2.2,1.3-4.5,1.3-7.1c0-5.2-1.7-9.7-5-13.3c-3.7-4-8.8-6-15.1-6L134.1,145.2"/>
	<path id="XMLID_28_" class="st8" d="M146.6,153.4H160c2.6,0,4.6,0.9,6.2,2.6l0.9-0.9c-1.8-2-4.2-3-7.1-3h-14.8v23.7l1.3-1.3"/>
	
		<linearGradient id="XMLID_84_" gradientUnits="userSpaceOnUse" x1="-8.7704" y1="3.1626" x2="-8.1505" y2="3.1626" gradientTransform="matrix(-3.8263 -7.221 7.221 -3.8263 100.6358 115.4075)">
		<stop  offset="0" style="stop-color:#FFFFFF"/>
		<stop  offset="1" style="stop-color:#BDBCBC"/>
	</linearGradient>
	<path id="XMLID_29_" class="st9" d="M166.2,156l0.5,0.5c1.5,1.9,2.2,4.3,2.2,7.1c0,3-0.8,5.5-2.3,7.5c-1.7,2.3-3.8,3.3-6.6,3.3
		h-13.4l-1.3,1.3H160c3.2,0,5.8-1.3,7.7-3.9c1.7-2.3,2.5-5,2.5-8.3c0-3.1-0.8-5.8-2.4-7.9l-0.6-0.7L166.2,156"/>
	
		<linearGradient id="XMLID_85_" gradientUnits="userSpaceOnUse" x1="2.7773" y1="0.9765" x2="3.3971" y2="0.9765" gradientTransform="matrix(24.5404 9.9984 -9.9984 24.5404 94.9973 113.7733)">
		<stop  offset="0" style="stop-color:#FFFFFF"/>
		<stop  offset="1" style="stop-color:#BDBCBC"/>
	</linearGradient>
	<path id="XMLID_30_" class="st10" d="M132.8,143.8v40.6l1.3-1.3v-37.9h27.9c6.3,0,11.3,2,15.1,6c0.5,0.5,0.8,1,1.2,1.4l0.9-0.9
		c-0.3-0.5-0.7-0.9-1.1-1.4c-4-4.3-9.4-6.5-16.1-6.5L132.8,143.8"/>
	<path id="XMLID_31_" class="st8" d="M178.2,178.2c3.5-3.7,5.3-8.3,5.3-13.7c0-4.9-1.4-9.2-4.2-12.8l-0.9,0.9
		c2.6,3.3,3.8,7.3,3.8,11.8c0,5.1-1.6,9.4-4.9,12.8c-3.7,3.9-8.8,5.8-15.2,5.8h-28l-1.3,1.3h29.3
		C168.9,184.4,174.3,182.3,178.2,178.2"/>
	
		<linearGradient id="XMLID_86_" gradientUnits="userSpaceOnUse" x1="2.1015" y1="2.2899" x2="2.7213" y2="2.2899" gradientTransform="matrix(18.1223 4.974 -4.974 18.1223 179.4006 114.0481)">
		<stop  offset="0" style="stop-color:#FFFFFF"/>
		<stop  offset="1" style="stop-color:#BDBCBC"/>
	</linearGradient>
	<path id="XMLID_32_" class="st11" d="M204.9,144.5c-2.2,0.6-4,1.5-5.1,2.7c-0.5,0.5-1.5,2-5,9.4l-7.4,15.7l-5.3,12.1l2-1.3
		c0.7-1.5,4.5-10.2,4.5-10.2l7.4-15.8c3.2-6.7,4.4-8.6,4.8-9c1-1,2.6-1.8,4.5-2.3c2-0.6,4.3-0.9,6.8-0.9h0c2.4,0,4.6,0.3,6.6,0.9
		c2,0.5,3.5,1.3,4.5,2.3c0.3,0.3,1.5,1.9,4.8,9c1.8,3.8,4.3,9.1,7.3,15.7c0,0,3.9,8.7,4.6,10.2H228l-0.8,1.3h14.7l-5.4-12.1
		c-3-6.6-5.5-11.9-7.3-15.8c-3.6-7.4-4.6-8.9-5.1-9.3c-1.1-1.2-2.8-2-5-2.7c-2.2-0.6-4.5-0.9-7-0.9h0
		C209.4,143.7,207,144,204.9,144.5"/>
	<path id="XMLID_33_" class="st12" d="M236.5,172.3c-3-6.6-5.5-11.9-7.3-15.8c-3.6-7.4-4.6-8.9-5.1-9.3c-1.1-1.2-2.8-2.1-5.1-2.7
		c-2.2-0.6-4.5-0.9-7-0.9v1.3c2.4,0,4.6,0.3,6.6,0.8c2,0.5,3.5,1.3,4.5,2.3c0.4,0.3,1.5,1.9,4.8,9c1.8,3.8,4.3,9.1,7.3,15.7
		c0,0,3.9,8.7,4.6,10.2H228l-0.8,1.3h14.7"/>
	<path id="XMLID_34_" class="st12" d="M199.3,176.1c0,0-3,6.3-3.3,6.9h-12l-2,1.3l1,0h13.9c0,0,3-6.3,3.3-7h23.6l0.8-1.3"/>
	<path id="XMLID_35_" class="st8" d="M211.3,154l0.5-0.3v-1.3c-0.7,0-1.3,0.3-1.6,0.8l-8.2,17.2l2.1-1.3
		C205,167.4,211.3,154,211.3,154"/>
	
		<linearGradient id="XMLID_87_" gradientUnits="userSpaceOnUse" x1="-5.3249" y1="-5.632846e-002" x2="-4.705" y2="-5.632846e-002" gradientTransform="matrix(-4.7658 -9.8348 9.8348 -4.7658 183.7771 110.7667)">
		<stop  offset="0" style="stop-color:#FFFFFF"/>
		<stop  offset="1" style="stop-color:#BDBCBC"/>
	</linearGradient>
	<path id="XMLID_38_" class="st13" d="M211.9,152.4v1.3h0.1l0.5,0.3c0,0,6.5,13.3,7.3,15h-15.5l-2.1,1.3h19.8l-8.3-17
		c-0.1-0.4-0.5-0.9-1.5-0.9L211.9,152.4 M213.5,153.2L213.5,153.2L213.5,153.2L213.5,153.2"/>
	<path id="XMLID_39_" class="st12" d="M224.6,176.1l-0.8,1.3c0.3,0.7,3.4,7,3.4,7l0.8-1.3C227.7,182.4,224.6,176.1,224.6,176.1"/>
	
		<linearGradient id="XMLID_88_" gradientUnits="userSpaceOnUse" x1="-2.0516" y1="-0.5315" x2="-1.4318" y2="-0.5315" gradientTransform="matrix(0 -23.6289 23.6289 0 282.1021 122.7184)">
		<stop  offset="0" style="stop-color:#FFFFFF"/>
		<stop  offset="1" style="stop-color:#BDBCBC"/>
	</linearGradient>
	<path id="XMLID_40_" class="st14" d="M284.5,145.1v7h-21c-3.3,0-5.8,1.2-7.7,3.7c-1.7,2.1-2.5,4.8-2.5,7.9v0.8
		c0.1,2.9,1,5.4,2.5,7.5c1.9,2.6,4.5,3.9,7.6,3.9h21l1.3-1.3h-22.4c-2.8,0-4.9-1.1-6.6-3.3c-1.5-2-2.3-4.6-2.3-7.5l0-0.3
		c0-2.7,0.8-5,2.2-6.8c1.6-2.1,3.8-3.2,6.6-3.2h22.4v-9.6L284.5,145.1"/>
	
		<linearGradient id="XMLID_90_" gradientUnits="userSpaceOnUse" x1="2.0972" y1="0.3224" x2="2.717" y2="0.3224" gradientTransform="matrix(0 26.4747 -26.4747 0 271.4299 104.2815)">
		<stop  offset="0" style="stop-color:#FFFFFF"/>
		<stop  offset="1" style="stop-color:#BDBCBC"/>
	</linearGradient>
	<path id="XMLID_41_" class="st15" d="M261.4,143.8c-6.7,0-12.1,2.2-16,6.5c-3.6,3.9-5.4,8.6-5.4,14.1c0,3.5,0.8,6.7,2.3,9.5
		c0.8,1.5,1.8,2.9,3,4.2c3.9,4.1,9.3,6.2,16.1,6.2h24.4v-9.8l-1.3,1.3v7.2h-23.1c-6.4,0-11.5-1.9-15.1-5.8c-1.2-1.3-2.3-2.8-3-4.3
		c-1.3-2.5-1.9-5.4-1.9-8.5c0-5.2,1.7-9.6,5-13.3c3.7-4,8.8-6,15.1-6h23.1l1.3-1.3L261.4,143.8"/>
	<polyline id="XMLID_42_" class="st12" points="292.9,145.1 304.1,145.1 305.4,143.8 291.6,143.8 291.6,184.4 292.9,183.1 	"/>
	<polyline id="XMLID_43_" class="st8" points="305.4,143.8 304.1,145.1 304.1,183.1 292.9,183.1 291.6,184.4 305.4,184.4 	"/>
	
		<linearGradient id="XMLID_91_" gradientUnits="userSpaceOnUse" x1="-1.8677" y1="3.463" x2="-1.2478" y2="3.463" gradientTransform="matrix(17.5686 5.1819 -5.1819 17.5686 383.5669 114.8703)">
		<stop  offset="0" style="stop-color:#FFFFFF"/>
		<stop  offset="1" style="stop-color:#BDBCBC"/>
	</linearGradient>
	<path id="XMLID_44_" class="st16" d="M331.9,144.5c-2.2,0.6-4,1.5-5.2,2.7c-0.4,0.5-1.4,2-5,9.4l-7.4,15.7l-5.3,12.1l2-1.3
		c0.7-1.5,4.5-10.2,4.5-10.2l7.3-15.8c3.3-6.7,4.4-8.6,4.8-9c1-1,2.5-1.8,4.5-2.3c2-0.6,4.3-0.9,6.7-0.9h0c2.4,0,4.6,0.3,6.7,0.9
		c2,0.5,3.5,1.3,4.5,2.3c0.4,0.3,1.5,1.9,4.8,9c1.9,3.8,4.3,9.1,7.3,15.7c0,0,3.9,8.7,4.6,10.2H355l-0.8,1.3h14.7l-5.4-12.1
		c-3-6.6-5.5-11.9-7.3-15.8c-3.6-7.4-4.6-8.9-5.1-9.3c-1.1-1.2-2.8-2-5.1-2.7c-2.1-0.6-4.5-0.9-7-0.9h0
		C336.4,143.7,334,144,331.9,144.5"/>
	<path id="XMLID_45_" class="st12" d="M326.3,176.1c0,0-3,6.3-3.3,6.9h-12l-2,1.3l1,0h13.9c0,0,3-6.3,3.3-7h23.6l0.8-1.3"/>
	
		<linearGradient id="XMLID_92_" gradientUnits="userSpaceOnUse" x1="-2.2638" y1="-6.4543" x2="-1.644" y2="-6.4543" gradientTransform="matrix(-4.7088 -9.8714 9.8714 -4.7088 388.6468 110.5801)">
		<stop  offset="0" style="stop-color:#FFFFFF"/>
		<stop  offset="1" style="stop-color:#BDBCBC"/>
	</linearGradient>
	<path id="XMLID_48_" class="st17" d="M338.8,152.4v1.3h0.1l0.5,0.3c0,0,6.5,13.3,7.3,15h-15.5l-2.1,1.3h19.7l-8.3-17
		c-0.1-0.4-0.5-0.9-1.5-0.9L338.8,152.4 M340.5,153.2L340.5,153.2L340.5,153.2L340.5,153.2"/>
	<path id="XMLID_49_" class="st8" d="M338.3,154l0.5-0.3v-1.3c-0.7,0-1.3,0.3-1.6,0.8l-8.2,17.2l2.1-1.3
		C332,167.4,338.3,154,338.3,154"/>
	<path id="XMLID_50_" class="st12" d="M363.5,172.3c-3-6.6-5.4-11.9-7.3-15.8c-3.6-7.4-4.6-8.9-5.1-9.3c-1.1-1.2-2.8-2.1-5.1-2.7
		c-2.2-0.6-4.5-0.9-7-0.9v1.3c2.4,0,4.6,0.3,6.7,0.8c2,0.5,3.5,1.3,4.5,2.3c0.4,0.3,1.5,1.9,4.8,9c1.8,3.8,4.3,9.1,7.3,15.7
		c0,0,3.9,8.7,4.6,10.2H355l-0.8,1.3h14.7"/>
	<path id="XMLID_51_" class="st12" d="M351.6,176.1l-0.8,1.3c0.3,0.7,3.4,7,3.4,7l0.8-1.3C354.7,182.4,351.6,176.1,351.6,176.1"/>
	
		<linearGradient id="XMLID_96_" gradientUnits="userSpaceOnUse" x1="0.3565" y1="2.579795e-003" x2="0.9764" y2="2.579795e-003" gradientTransform="matrix(0 273.7059 -273.7059 0 250.7433 -6.1909)">
		<stop  offset="0" style="stop-color:#4F4C4C"/>
		<stop  offset="4.014600e-002" style="stop-color:#494546"/>
		<stop  offset="0.5401" style="stop-color:#231F20"/>
		<stop  offset="1" style="stop-color:#322F30"/>
	</linearGradient>
	<path id="XMLID_54_" class="st18" d="M86.1,96.4L86.1,96.4c0.5,2,10.8,48.9,26.9,86.2c16.3,37.7,45.4,69.4,53.6,76.1l0.3,0.3
		c0,0,1.2,0.9,1.7,1.2c0,0-0.6-1.8-0.9-2.5c-6.6-5.6-36.5-36.6-53.3-75.6c-16.3-37.6-26.7-85.2-26.8-85.7
		C87,96.4,86.5,96.4,86.1,96.4 M385.6,182.1c-16.8,39-46.8,70.1-53.3,75.6l0,0.1c-0.2,0.6-0.9,2.5-0.9,2.5l1.6-1.2l0.3-0.3
		c8.3-6.7,37.4-38.5,53.7-76.2c16.1-37.2,26.6-84.2,27-86.2v0c-0.5,0-1-0.1-1.5-0.1C412.4,96.9,401.9,144.5,385.6,182.1"/>
	<path id="XMLID_59_" class="st19" d="M424.9,95.6 M424.9,95.6l-0.1,0L424.9,95.6 M171,386.8c-18-14.2-27.9-33.1-37.4-57.1
		c-2.1-5.4-14.1-39.6-17.7-50.9l-10.1-32l-9.3-32.2l-6.2-23.3c-3.3-13-6.4-26-9.1-38.6c-2.8-12.9-5.4-26-7.8-39.1l-1.3-7.5
		c-0.3-2.8,1.5-5.5,4.2-6.2l2.5-0.4l7-0.8C110.5,96.6,187.6,94,250,94c62.4,0,139.5,2.5,164.2,4.7l7,0.8l2.5,0.4
		c2.7,0.7,4.5,3.4,4.2,6.3l-1.3,7.4c-2.4,13-5,26.2-7.8,39.1c-2.8,12.7-5.8,25.7-9.1,38.6l-6.2,23.3l-9.3,32.2l-10.1,32
		c-3.7,11.3-15.6,45.5-17.7,50.9c-9.5,24-19.5,42.9-37.4,57.1c-16.1,12.7-32.8,19.2-79,19.2C204,406,186.8,399.2,171,386.8
		 M85.4,94.2L78.1,95l-3,0.5c-4.9,1.3-8.1,6.1-7.5,11.2l1.4,7.7c2.4,13.1,5,26.4,7.8,39.3c2.8,12.6,5.8,25.7,9.1,38.7l6.2,23.3
		l9.3,32.3l10.1,32.1c3.8,11.6,15.6,45.5,17.8,51.1c9.7,24.7,20.1,44.2,38.8,59c19.1,15.1,39.8,20.2,81.9,20.2
		c42.1,0,62.7-5.1,81.8-20.2c18.8-14.8,29.1-34.3,38.8-59c2.2-5.5,14-39.5,17.8-51.1l10.1-32.1l9.3-32.3l6.2-23.3
		c3.3-12.9,6.4-26,9.1-38.7c2.8-13,5.5-26.2,7.8-39.3l1.4-7.7l0.1-1.2c0-4.6-3.1-8.8-7.6-10l-3-0.5l-7.3-0.8
		C389.8,92,312.5,89.5,250,89.5C187.5,89.5,110.2,92,85.4,94.2"/>
</g>
</svg>
