<?xml version="1.0" encoding="utf-8"?>
<!-- Generator: Adobe Illustrator 19.0.0, SVG Export Plug-In . SVG Version: 6.00 Build 0)  -->
<svg version="1.1" id="Layer_1" xmlns="http://www.w3.org/2000/svg" xmlns:xlink="http://www.w3.org/1999/xlink" x="0px" y="0px"
	 viewBox="-393 31 500 500" style="enable-background:new -393 31 500 500;" xml:space="preserve">
<style type="text/css">
	.st0{fill:#FFFFFF;}
	.st1{fill:#33A457;}
	.st2{fill:#CC2131;}
	.st3{fill:#FFF22D;}
</style>
<g>
	<polygon class="st0" points="-8.1,129.4 -8.1,136.4 -143,112.7 -277.9,136.4 -277.9,129.4 -143,105.6 	"/>
	<polygon class="st1" points="-8.1,122.3 -8.1,129.4 -143,105.6 -277.9,129.4 -277.9,122.3 -143,98.5 	"/>
	<path class="st2" d="M-8.1,136.4L-143,112.7l-134.9,23.6l0,24l1.2-0.7c0.5-0.3,48.4-26.8,134-26.8c85.7,0,133,26.6,133.5,26.8
		l1.2,0.7L-8.1,136.4z"/>
	<path class="st3" d="M-142.7,137.5c77.4,0,122.7,21.8,130,25.6v69.1c0,37.7-8.9,75.2-26.4,111.5c-38.3,79.4-95.9,110.6-103.9,114.6
		c-8.1-4.1-65.7-35.2-103.9-114.6c-17.5-36.4-26.4-73.9-26.4-111.5v-69.1C-265.9,159.3-220.1,137.5-142.7,137.5L-142.7,137.5z"/>
	<path d="M-276.8,159.7l-1.2,0.7v71.8c0,38.4,9,76.6,26.8,113.5c41.8,86.7,106.5,117,107.2,117.3l1,0.4l1-0.4
		c0.7-0.3,65.3-30.6,107.1-117.3c17.8-37,26.8-75.2,26.8-113.5v-71.8l-1.2-0.7c-0.5-0.3-47.8-26.8-133.5-26.8
		C-228.4,132.9-276.3,159.4-276.8,159.7L-276.8,159.7z M-142.7,137.5c77.4,0,122.7,21.8,130,25.6v69.1c0,37.7-8.9,75.2-26.4,111.5
		c-38.3,79.4-95.9,110.6-103.9,114.6c-8.1-4.1-65.7-35.2-103.9-114.6c-17.5-36.4-26.4-73.9-26.4-111.5v-69.1
		C-265.9,159.3-220.1,137.5-142.7,137.5L-142.7,137.5z"/>
	<path d="M-122.5,391.4c2.2,1.6,0.6,4.3-1,4.7c-1.7,0.5-3.2-1.5-4.1,0.7c-0.5,1.1,0.8,9.7,9.6,9.7c8.2,0,12.1-10.5,12.9-12.1
		c0.8-1.6,1.3-3.6,0.5-3.6c-3.6,0-4.6,2.1-4.6,2.1s-0.3-2.1,1.5-3.6c1.5-1.3,3.4-1,4.1-1c1.5,0,1.2-1.1,2.1-3.2
		c2-5.1,3.4-5.3,4.7-7.6c1.1-1.9-1-2.6-5-3c-4.1-0.4-6.2-0.2-8,0c-1.8,0.3-3.6,1-4.8,3.8c-0.6,1.5,0.5,3,2.6,2.6
		c2.1-0.4,4.2-2,4.2-2s-1,3.8-4.1,4.6c-2.9,0.7-6.4-1.1-5.9-4c0.6-3.9,3.3-6.7,8.1-7.6c4.9-1,9.7-0.2,14.1,0.8
		c4.3,1.1,7.5,0.4,11.5,0.2c8.7-0.5,14-2.5,14-2.5s-3.9,3.2-9.3,4.6c-5.4,1.5-10.2,0.9-11.8,1.5c-1.3,0.5-3,3-4.5,5.9
		c-1.3,2.6-2.8,5.7-2.2,5.7c5,0.2,6.9-0.9,6.9-0.9s-1,2.2-3.4,3.2c-1.7,0.7-4.5,0.7-4.5,0.7s-1.3,3.2-2.7,6.1
		c-1.4,2.9-3.8,7.4-8,9.7c-4.3,2.2-12.4,5-17.5-2.4C-132.6,396.6-127.7,387.8-122.5,391.4L-122.5,391.4z M-185.5,392.4
		c1,2.6-1.1,3.9-2.4,3.9c-1.2,0-2.8-0.9-3.1,0.6c-0.3,1.5,3.3,9.5,11.6,9.5c8.3,0,12.2-4.8,11.6-9.2c-0.7-4.8-8.3-6.7-14.4-10
		c-3-1.6-9.8-2.6-9.8-9c0-13.5,20.6-4.9,20.6-4.9s0-1.7,1-1.8c0.5,0,1.4-0.2,1.7,1.3c0.3,1.5,1.7,9.7,1.7,9.7s-3-6.2-11.3-8.9
		c-1.5-0.5-7.9-1.7-7.9,3.3c0.1,3,3.8,4.4,10.1,6.8c8.4,3.3,12.7,6.3,10.7,15.2c-1.9,8.5-10.2,9.9-14.2,9.9c-4,0-13.2-2.8-13.2-12.1
		C-192.7,390.3-186.2,390.5-185.5,392.4L-185.5,392.4z M-141.5,341.6l3.4,1.6c1.9,0.8,3.2,0.4,3.6,0.2c0.5-0.2,2.3-2.1,2.6-3.7
		c0.2-0.7,0.1-1.2-0.3-1.7c-1.3-1.6-3.6-8.7-4.5-12.6c-0.3-1.4,0.1-5.4,0.4-8.6c0.3-2.7,0.4-4.4,0.3-4.9c-0.2-0.7-1.2-1.3-2.4-2.1
		l-1.8-1.3c-1-0.8-1-1.9-1.1-3.1l-0.2-1.8c-0.4-1.7-9.1-10.5-10.4-10.6c-1.9-0.1-2.4,2-2.6,3.3c-0.1,0.7,0.8,4.1,1.6,7.1l0.9,3.6
		c0.9,5.6,6.9,15.5,9.4,19.8l1.2,2.1c0.5,1.2,0.3,2.1-0.6,2.7c-0.9,0.5-8.7-0.3-12.4-1.1c-1.6-0.4-3.6-1.2-5.5-1.9
		c-2.2-0.9-4.3-1.7-5.5-1.8c-1.4-0.1-2.1,0.2-2.6,0.5l-0.8,0.2l-0.8-0.3c-1-0.5-3-1.3-8.2-1.8c-7.7-0.7-8.2,0.8-8.5,1.7
		c-0.4,1.1,4.3,6,5.1,6.7c1.1,0.9,4.5,2.2,6.6,1.8c2.4-0.4,6.3-0.9,6.8-0.8l0.8,0.5l0.7,0.5c0.7,0.3,4.9,0.5,6.2,0.6
		c1.5,0.1,5.4,0.9,8.3,1.5l3.2,0.6C-147.3,338.7-144.1,340.3-141.5,341.6z"/>
	<path d="M-62.2,242.2c-0.2-0.2-0.3-0.2-0.4-0.2c-0.1,0-0.2,0.1-0.2,0.4c-0.1,1.1-1.5,3.8-2.5,4.2c-2.2,0.8-3.3,3.4-4.1,5.2
		c-0.4,0.9-0.8,1.9-1.1,1.9c-0.1,0-0.3-0.1-0.5-0.4c-1.3-2.3-0.6-5.8,0-8.6l0.1-0.7c0.5-2.4,3.3-5.7,4.9-7.7l0.7-0.9
		c1.1-1.4,1.4-6.2,1.2-6.6l-0.1,0.1l-0.1,0.1l0,0v0c-0.1,0.1-0.1,0.1-0.2,0.3c-0.3,1.5-3,4.5-7.7,8.6c-1,0.8-2,2.3-2.9,3.5
		c-0.6,0.8-1.3,1.7-1.4,1.7c-1.2-6.2,0.9-9.7,1.9-11.4l0.5-0.9c2-5.4,7.1-9.4,7.1-9.5c0.1-0.2,0.1-0.3-0.1-0.4
		c-0.2-0.1-0.6-0.1-1.1,0.2l-0.3,0.2c-1.8,0.9-7.1,3.5-10.4,9.7c-2.4,4.5-3.3,9.6-3.3,13.4c0,1.9,0.2,3.6,0.6,4.6
		c1.2,3.1,3.2,10.7,3.8,13.7c0.4,1.9,0.4,8.2,0.4,12.2c0,2,0,3.3,0,3.4l-1,3.2c0,0-0.5,2.6-4.6,6.8c-4.2,4.3-8.8,5.6-8.9,5.6
		c-1.9,0.1-3.6,0.1-3.6-0.2c0-4.9-8.3-16.2-12.6-19.9c-4.4-3.8-7.8-6.5-13.7-10.1c-6-3.7-12.7-19-12.8-19.2l-0.6-2.1
		c0,0-0.3-4.1-0.4-5.2c0.2,0.1,0.5,0.3,0.5,0.3l2.1,1.2l2.4,0.9l3.1,0.6l1.7,0.9l1.6,1l2.5,1.8l2.5,1.3l3.1,0.2l0.1-0.2l-3.5-1.6
		l-1.3-2.2c-0.5-0.7-1-1.4-1.5-2.1l-1.8-1.1c-0.7-0.1-1.5-0.2-2.2-0.3c0,0-0.4-0.4-0.7-0.6c0.2-0.1,0.6-0.3,0.6-0.3l2.4,0.3l2.1,1.5
		l2.3,1.8l2.2,0.9l0.3,0.1l-0.9-2.5c-0.6-0.6-1.2-1.1-1.8-1.7l-2.6-2.2l-2.1-1.1l-2.2-0.7l-2.3-1.5c0,0,0-0.2,0-0.3
		c0.3,0.1,3.2,1.3,3.2,1.3l2.8,0.8l2.3,0.9l3.3,1.6l2.8,0.6l3.4-0.6l3.3-2.3l0.6-1.4l0.1-0.3l-1,0.4l-2.9,1.5l-2,0.5l-2.3-0.5h0
		l-1.8-1.7l-2.6-2.5l-2.4-1.2l-2.8-0.5l-1.7-0.9l0-0.1c0-0.2-0.1-0.6-0.1-0.9l3.5,0.3l3.8-0.3l2.1,0.4l2.2,0.9l2.2,0.3l0.4,0.1
		l-2.5-2.4l-2.5-1.8l-2.1-0.8l-3.5-0.3l0-0.1c0-0.2,0-0.5-0.1-0.7l1.6-0.3l2.6,0.6l2.4,1.5l2.6,0.9l3.9-0.6l0.2,0l-1.2-1.5l-2-0.6
		l-1.6-1.2l-2.3-1.6l-1.8-0.6l-2.8-0.5l-1.4-1.3c0,0,0.1-0.4,0.2-0.6l1.5,0.4l1.9,0.9l2.7,0.8l-0.6-1.2l-1-1.1l-0.9-1.2l0.4-0.1
		l2.8,1.5l2.2,0.8l1.7,1.6l3.2,1.8l0.3,0.2l-0.6-1.6l-1.8-2.3l-1.5-2.5l-2.6-2.7l-3.4-1.8l-1.3-1.5c-0.8-0.8-1.6-1.6-2.3-2.4
		c0,0-0.2-0.8-0.4-1.3c0.4,0.1,2.3,0.7,2.3,0.7l2.6,0.7l1.9,1.2l1.6,1.9l2.5,1.1l6.3,0.8l0.4,0l-1.7-1.8l-3.4-1.5l-2-1.5l-1.1-2
		l-1.2-2.1l-1.9-1.8l-2.4-1.4l-2.3-1.9c0,0-0.6-1.2-0.9-1.9l1.6,1.5l3.1,2.7l2.4,1.1l2,1.6l2.3,2.4l3.7,0.6l0.5,0.1l-3.7-3.2
		l-0.8-2.6c-0.6-0.6-1.3-1.2-1.9-1.8l-1-1.2l-1-3.1c-0.7-0.7-1.4-1.4-2.1-2.1l-3.3-3.1v0c0,0-0.1-0.5-0.2-0.8
		c0.3,0.1,0.6,0.3,0.6,0.3l3.1,1.8l3.7,1.1l3.8,0.9l4.4,0.7l-1-2.1l-2.3-1l-2-1.2l-2.5-1.1l-2.2-0.9c0,0-1.4-1.8-2.2-2.9
		c0.8,0.5,1.9,1.3,1.9,1.3l2,0.2l6,0l2.4,1.3l2.1,2.2l0.3,0.3l-0.3-2.5l-1.3-1.7l-3.5-2l-2.8-1.1l-4.2-0.7v0l-0.8-1l-3.1-2.8
		c-0.5-0.3-1-0.5-1.5-0.8c0,0-0.5-0.5-0.8-0.8h1.6l2.4,1.5l3.2,1.1l4.1,0.6h0l1.5,1.8l2.2,1.4c0.8,0.2,1.7,0.3,2.5,0.5l0.4,0.1
		l-5.2-6.4l-2.5-1.4l-2.9-0.9l-2.6-2.9l-3.2-2c-0.8-0.2-1.6-0.4-2.3-0.6c0.1-0.2,0.6-1,0.6-1l2.6-1.1l3.8-0.7c0.1-0.1,0.4-1,0.4-1
		c0-0.2-1.7-1.2-1.7-1.2c-0.6-0.2-1.3-0.4-1.9-0.6c-0.1,0-1.1,0.6-1.1,0.6l-3.1,0.1l-3.8-0.9l-3.9-3.3c-0.6-0.3-1.2-0.6-1.8-0.9
		l-6.5-0.8l-1.5-2.3l-2.1-2.3l-2.6-2.4l-0.1,0.2l-0.9,1.9l-0.9,1.3v0c0,0.2,0.1,1.5,0.1,1.5l0.9,1l-0.3,1.4c0-0.1-3.5,0-3.5,0
		l-2.9-1.3l-2.2-0.8l-5.2,0.1c-0.1,0.1-1,1.4-1,1.4l-0.1,0.2l2.2,0.3c0,0,0.3,0.2,0.5,0.3l-0.6,0.5l-3.1-0.2l-2.3,0.9l-0.2,0.1
		l1.1,0.7l4.7,0.2l3.5,0.9v0l0.7,1c0,0,0.5,0.7,0.6,0.9l-1.5,0.8l-4.2,1.8l-8.8,4.9l-5.8,0.9l-2.3,1.2l-1.8,2.5l-1,3.1
		c-0.1,5.2,0.1,5.3,0.2,5.4c0.2,0.1,1.7,1,2.8,0.3c1.3-0.7,4.1-1.4,5.6-1.7c0.7-0.1,1.1,0.1,1.1,0.4c0.1,0.3-0.1,0.7-0.7,0.8
		l-0.3,0.1c-2.5,0.7-5.1,1.5-5.1,2.5l0.4,0.7c1.1,0.8,4.1,0.4,5.7,0.1l1.6-0.5c1.4-0.4,3-0.9,4.4-0.8c0.8,0.1,1.5,0.4,2.3,0.8
		c1.1,0.5,2.4,1.2,4.3,1.3c3.2,0.2,5.3,0.9,5.5,1c0.4,0.9,0.2,2.1-0.1,3.2l-0.2,0.9c-0.9,8.1-9.9,17.2-14.2,21.5
		c-1.2,1.2-1.9,2-2.1,2.3l-0.5,1.2c-0.4,1.1-0.8,2-2.1,2.5c-0.8,0.3-2.7,1.7-4.8,3.3c-3.1,2.3-7,5.2-8,5.1
		c-1.8-0.2-10.1-5.9-10.4-6.3c-8.1-7.8-11.5-6.2-13.5-5.3l-0.3,0.1c-2.4,1.1-4.9,7.9-5.2,9.4l-1,4.2l-0.7,3.1
		c-0.2,1-1.2,3.6-2.2,6.1l-1.9,5.4c-0.3,1.3-1.1,3-1.7,4.4l-0.9,2.1c-0.6,2.5-0.6,16,0.4,17.2l0,0l0.2,0.1c1-0.1,3.3-2.4,4.4-3.5
		l0.2-0.3c0.9-0.9,1.9-3.4,1.9-4.4c0-1-0.5-3.1-0.7-3.7c-1.5-4.5-0.9-8.7-0.6-10.8l0.1-0.9c0.1-0.9,1-2,1.9-3l1.2-1.3
		c0.6-0.9,1.3-1.1,2-1.4l1-0.6l0.2-0.2c0.7-0.7,1.8-1.9,2.4-3.4l1-4.3l0.2-1.1c0-0.2,0.2-0.4,0.4-0.4c0.4-0.1,1,0.2,1.2,0.6l7.1,8.3
		c1.8,1.6,3.7,3.4,3.7,3.8l0,0l0,0c-1,0.1-6-1-6.9-1.2c-6.8-2-10-1.7-12.4,1.4c-2.7,3.5-1.9,14-1.3,15.2c0.5,1.1,3,13.9,3.1,15.7
		c0.1,1.7,0.8,4.7,1.4,5.4l0.2,0.2c0.8,0.8,3.1,3.1,3.5,5.3c0.4,2.4,5.5,8.8,7.5,9.4c0.3,0.1,0.6,0,0.9-0.2c1.5-1.1,2.2-6.2,2.2-8.4
		c0.1-2.7-0.9-4-1.9-5.4l-0.4-0.5c-0.8-1-2.1-1.4-3-1.7c-0.4-0.1-0.9-0.2-0.9-0.3c0,0-0.1-4-1.4-4.8c-1-0.6-2-4.4-2.1-5.9
		c-0.1-1.4-0.7-4.9-1.4-6.5c-0.8-1.5-1.4-4.4-1.1-6.6c0.1-0.9,0.8-1.2,1.3-1.3c0.9-0.1,2,0.3,2.2,0.6c0.4,0.8,7.6,5.1,10,6
		c1.5,0.6,3.6,2.3,5.4,3.8c1.3,1.1,2.4,2,3.1,2.3c0.9,0.4,3.6,0.5,5.7,0.5c1.1,0,2.3,0,2.4,0.1c-0.9,0.3-0.8,1.9-0.8,2.3
		c0.9,6.2,23.6,23.4,25.3,24.3c2,1.1,9.3,8.7,10,9.7c0.7,1,1.3,2.1,1.2,3c-0.2,1.3,0.3,2.7,1.3,3.9c1,1.1,2.2,1.8,3.4,1.8
		c1,0,1.7-0.9,2.2-1.6l0.1-0.1c1.4-1.8,3.4-4.4,3.6-8.5c0.3-4.2,2.2-5.9,2.8-6c0.3-0.1,0.5,0,0.6,0.2c0.1,0.2,0,0.5-0.4,0.8
		c-0.8,0.6-1.3,2.4-1.9,4.4l-0.2,2c0,1.5-0.1,3.2-1.6,4.9c-2.3,2.4-4.8,8.1-5.5,15.2c-0.4,4.3,1.5,10.4,5.7,18.3l0.3,0.6l1.1,1.9
		c1.1,1.8,3.1,4.9,3,5.6c-0.1,1-0.2,1.8-2,4c-1.9,2.4-8.9,10.6-9.6,10.7c-1.4,0-1.6,0.2-2.8,1l-1.2,0.9c-1.3,0.9-1.5,1.6-1.7,2.2
		c-0.2,0.5-0.3,0.9-0.9,1.3l-0.5,0.3c-0.1,0.1-0.3,0.4-3.2,3.3c-3.2,3.2-4.7,6.8-4.2,10.4c0.2,1.1,1.1,1.5,4,1.6
		c2.9,0.1,9.4-4.5,9.7-6l0.1-0.6c0.3-1.3,0.7-3.6,1.4-4c0.9-0.4,2.4-2.2,3.6-3.5l0.2-0.2c0.6-0.7,0.7-1.4,0.9-2
		c0.1-0.5,0.2-1,0.6-1.5c0.3-0.3,0.7-0.5,1.1-0.7c0.9-0.4,2-0.9,2.8-2.9c0.8-1.9,5.5-5.3,8.9-7.8c1.8-1.2,3.1-2.2,3.5-2.7
		c0.5-0.6,0.7-1.7,0.7-2.9c0-1.4-0.4-2.9-1.3-3.8c-1.3-1.2-2.5-4.8-2.9-5.9v0c0-0.5,0-1.3-0.1-2.9l0-0.2c0-4.2,6.3-8.3,9-10.1
		l1.2-0.9c9.8-8.6,11.7-15.2,12.1-17l0.2-2.2c0.1-1.5,0.1-2.9,1-3.1c0.4-0.1,0.9,0.2,1.3,0.6c0.2,0.2,0.5,0.7,0.3,1.3
		c-0.4,1.2-0.6,13.4-0.6,13.9l1.1,1.3l0.2,0.2l0.1-0.3c0-0.1,0.6-3.5,0.6-4.6c0-1.3,2.1-6.9,2.6-7l0,0.1c0.2,0.8,0.6,2.7,0.6,4.7
		c0,2-0.3,4.1-1.3,5.3c-1.5,1.8-2.6,4.7-3.4,6.6l-0.7,1.6c-0.1,0.2-0.1,0.5-0.1,0.7c0,1.5,0.8,4.8,1.3,5.5c0.1,0.1,0.2,0.1,0.3,0.1
		c0.2-0.1,0.3-0.3,0.3-1.6c0-4.9,4.1-8.5,4.2-8.5c3.7-2.9,4.4-8.3,4.4-12.4c0-3.1-0.5-5.5-0.5-5.5c-0.6-0.9-1.2-1.7-1.8-2.6
		c0.1,0,0.6-0.3,0.7-0.5c0.2,0.2,1.8,2.4,1.8,2.4c0.3,0.4,1,1.5,1,2c0,2.5,0.4,4.3,0.7,5.5l0.1,0.3c0.3,1.3,2.1,5.7,2.2,5.8l0.2,0.5
		l0.1-0.5c0,0,0.3-2.3,0-4.2c-0.2-1.1,0-2.4,0.3-3.8l0.3-3.3c0-2.7-0.4-4.4-1.3-5.9l-0.5-0.7c-0.2-0.3-0.4-0.6-0.4-0.7l0.4-0.2
		c7.7-2.6,11.3-8.3,12.8-11.4c1.5-3.3,1.6-8.5,1.6-9.4c0-1.3-0.1-8-1.2-11.4c-0.7-2-0.4-4.2-0.2-6.5l0.2-4c0-2.7,1.4-4.8,2.8-6.7
		l1.7-2.6C-61.2,244.7-61.8,242.8-62.2,242.2L-62.2,242.2z"/>
	<path d="M-148.6,156.4c0.1,0,1.8-0.8,1.8-0.8c0.1-0.1-0.3-1.7-0.3-1.7c-1.2-1.4-2.4-2.8-3.6-4.2l-0.2-0.2l-0.1,0.3l-0.4,1.7
		l-1.1,2.7l-0.1,0.1l2.4,1.2L-148.6,156.4z"/>
	<path class="st0" d="M-147.8,167.1c0.4,0.1,0.9,0.1,1.5-0.2c0.8-0.4,1.3-1.1,1.1-1.5l-0.4-0.3c-0.4-0.1-0.9-0.1-1.5,0.2
		c-0.7,0.3-1.2,0.8-1.2,1.3l0,0.2L-147.8,167.1z M-133.6,161.2l0.7,0.4c0.1,0.2,0.3,0.4,0.6,0.5c0.3,0.1,0.6,0,0.8-0.2
		c0.2-0.1,0.2-0.4,0.1-0.7c-0.2-0.6-0.8-1.2-1.4-1.2c-0.8,0-1.6,0.1-1.6,0.7C-134.3,161-134,161.1-133.6,161.2z M-132.8,163.7
		c-0.3,0.2-0.5,0.5-0.4,0.9l0.1,0.3c0.1,0.3,0.1,0.4,0.4,0.4l0.5,0.1c0.7,0.2,1.7-0.2,2-0.8c0.1-0.2,0.1-0.5-0.3-0.8
		C-131.3,163.2-132.2,163.3-132.8,163.7z M-130.6,172.9c-0.2-0.1-0.1-0.4,0-0.8c0.1-0.4,0.2-0.7,0-0.9c-0.2-0.2-0.5-0.1-0.9,0
		c-1.8,0.6-2,2.4-2.2,3.7l-0.1,0.4c-0.1,0.6,0.2,0.8,0.4,0.9c0.6,0.2,1.7-0.3,2-0.8c0.3-0.5,1.8-0.9,2.9-1.2l0.4-0.1
		c0.5-0.1,0.8-0.3,0.8-0.6c0.1-0.4-0.3-0.7-0.7-0.9c-0.3-0.2-0.8-0.1-1.3,0.1C-129.8,172.9-130.3,173-130.6,172.9L-130.6,172.9z
		 M-149.3,173.6c0.4,0,0.7-0.2,0.9-0.5c0.6-0.8,0.6-2,0-3.1c-0.5-1-1.4-1.7-2.4-1.7l0,0l-0.2,0l-1.7,0.1c-0.9,0.2-1.7,0.9-1.9,1.5
		c-0.1,0.3,0,0.6,0.2,0.9C-153,172.2-150.6,173.7-149.3,173.6L-149.3,173.6z M-166,172.2c0.2,0.5,1.1,0.6,2.5,0.1l0.3-0.1l2.5-1
		l3.6-2.3c0.1-0.1,1-0.8,0.8-1.2c-0.1-0.3-0.6-0.2-0.9-0.2c-1,0.2-1.9,0.7-3,1.1l-1.4,0.7l-0.6,0.3
		C-164.6,170.6-166.4,171.4-166,172.2z M-173.5,174.8c-0.7,0-1.1,0.4-1.3,0.8l-0.3,0.4c-0.6,0.5-0.7,1.7-0.7,2.6
		c0,0.4,0.1,1.1,0.5,1.3c0.7,0.4,1,0.1,1.8-0.6l0.6-0.5c0.7-0.6,1.5-1.3,1.6-2.3c0-0.4-0.1-0.8-0.3-1.1
		C-172.1,174.9-172.9,174.8-173.5,174.8L-173.5,174.8z M-169.4,175.1c-0.2,0-0.3,0-0.4,0.1c-0.2,0.2-0.1,0.7-0.1,1l0,0.3l0,0.2
		c0,0.1-0.1,0.3,0,0.4c0.1,0.1,0.3,0.2,0.7,0.2c0.5,0,0.5,0,0.7-0.5l0.1-0.3c0.1-0.3,0.1-0.6,0-0.8
		C-168.6,175.3-169,175.2-169.4,175.1L-169.4,175.1z M-165.5,181.5c0.5,0,1-0.5,0.9-1c0-0.5-0.4-0.9-0.9-0.9c-0.5,0-1,0.4-1,1l0,0
		C-166.4,181.1-166,181.5-165.5,181.5z M-147.7,179.2c-0.3-0.1-0.6,0.1-0.7,0.3c-0.3,0.3-1.9,1.4-3,2.2l-1.5,1.1l-0.1,0.1
		c-0.2,0.2-0.3,0.3-0.2,0.7l0.2,0.3l0.4-0.1l0.6-0.2l0.8-0.1c0.8-0.1,1.8-0.2,2.2-0.7l0.6-0.9l0.8-1.3c0.4-0.4,0.4-0.7,0.4-0.9
		C-147.3,179.3-147.5,179.2-147.7,179.2z M-145.9,184.6c0,0.5,0.2,0.7,0.4,0.8c0.4,0.2,0.9,0,1.2-0.4l1.1-0.9
		c0.6-0.4,1.2-0.9,1.8-1.6c0.5-0.7,0.3-1.1,0.1-1.3c-0.4-0.4-1.1-0.4-1.4-0.2l-0.3,0.2c-0.7,0.5-2.4,1.6-2.8,2.9
		C-145.8,184.1-145.9,184.3-145.9,184.6z M-138.8,184.1c-0.2-0.3-0.6-0.5-0.9-0.3l-0.8,0.6c-0.5,0.4-1.2,1-1.8,1.2
		c-1.4,0.4-3.3,1-3.5,2l0,0.1c0,0.3,0.1,0.4,0.2,0.5c0.5,0.4,1.8,0.2,2.8-0.2c1.4-0.5,2.3-1.2,3.5-2.2
		C-138.5,185.1-138.6,184.4-138.8,184.1L-138.8,184.1z M-144.3,195.2l-0.5-0.1c-1.2,0.3-3.2,3.8-4.7,6.4l-0.3,0.5l-4.3,8l-1.3,2.6
		c-0.1,0.2-0.1,0.6,0.1,0.8c0.2,0.2,0.6,0.3,1,0c0.7-0.5,3.3-3.1,4.5-5.1l1.6-2.2c1-1.3,2.2-2.9,2.9-4.7l0.2-0.6
		C-143.3,196.7-143,196.1-144.3,195.2L-144.3,195.2z M-128.2,179.8c-0.5,0-0.9,0.4-0.9,0.9l0,0c0,0.5,0.4,0.9,0.9,0.9
		c0.5,0,0.9-0.4,0.9-0.9C-127.3,180.2-127.7,179.8-128.2,179.8L-128.2,179.8z M-128.7,183.6c0,0.5,0.4,0.9,0.9,0.9
		c0.5,0,0.9-0.4,0.9-0.9l0,0c0-0.5-0.4-0.9-0.9-0.9C-128.2,182.7-128.6,183.1-128.7,183.6z M-127.8,185.6c-0.6,0-1.1,0.4-1.1,0.9
		c0,0.5,0.5,0.9,1.1,0.9c0.6,0,1.1-0.4,1.1-0.9C-126.7,186-127.2,185.6-127.8,185.6z M-127.8,188.1c-0.7,0-1.2,0.4-1.2,1
		c0,0.5,0.5,1,1.2,1c0.7,0,1.2-0.4,1.2-1C-126.6,188.5-127.2,188.1-127.8,188.1z M-127.8,191.3c-0.7,0-1.4,0.4-1.4,1
		c0,0.6,0.6,1,1.4,1c0.8,0,1.4-0.4,1.4-1C-126.4,191.8-127,191.3-127.8,191.3z M-128.3,196.7c0.9-0.1,1.5-0.5,1.4-1.1l-0.3-0.5
		c-0.3-0.2-0.8-0.4-1.3-0.3c-0.8,0.1-1.4,0.5-1.4,1l0,0.1l0.3,0.5C-129.3,196.6-128.8,196.7-128.3,196.7z M-130.1,199.3
		L-130.1,199.3L-130.1,199.3z M-128.3,200c1-0.1,1.6-0.7,1.5-1.2l-0.3-0.4c-0.3-0.3-0.9-0.4-1.5-0.3c-0.9,0.1-1.6,0.7-1.5,1.2
		l0.3,0.4C-129.5,200-128.9,200.1-128.3,200z M-129.9,201.6c0,0.6,0.7,1.1,1.7,1.1c0.9,0,1.6-0.5,1.6-1.1s-0.7-1.1-1.6-1.1
		C-129.2,200.6-129.9,201.1-129.9,201.6z M-127,205.1c0-0.6-0.9-1.1-1.9-1.1c-1.1,0-1.9,0.5-1.9,1.1c0,0.6,0.9,1.1,1.9,1.1
		C-127.8,206.2-127,205.7-127,205.1z M-128.2,208c0-0.6-0.6-1.1-1.4-1.1c-0.8,0-1.4,0.5-1.4,1.1s0.6,1.1,1.4,1.1
		C-128.9,209.1-128.2,208.6-128.2,208z M-128.9,211.6c0-0.7-0.7-1.2-1.5-1.2c-0.8,0-1.5,0.6-1.5,1.2c0,0.7,0.7,1.2,1.5,1.2
		C-129.6,212.9-128.9,212.3-128.9,211.6z M-130.1,215.1c0-0.6-0.6-1.1-1.2-1.1c-0.7,0-1.2,0.5-1.2,1.1c0,0.6,0.6,1.1,1.2,1.1
		C-130.7,216.2-130.1,215.7-130.1,215.1z M-132.2,217.2c-0.6,0-1.2,0.5-1.2,1.1c0,0.6,0.5,1.1,1.2,1.1c0.6,0,1.2-0.5,1.2-1.1
		C-131.1,217.7-131.6,217.2-132.2,217.2z M-133.2,222.5c0.7,0,1.2-0.4,1.2-1s-0.6-1-1.2-1c-0.7,0-1.2,0.4-1.2,1
		C-134.5,222.1-133.9,222.5-133.2,222.5z M-134.4,224.9c0.6,0,1.1-0.4,1.1-0.8c0-0.5-0.5-0.8-1.1-0.8c-0.6,0-1.1,0.4-1.1,0.8
		S-135,224.9-134.4,224.9z M-135.5,227.1c0.6,0,1.1-0.4,1.1-0.8c0-0.4-0.5-0.8-1.1-0.8c-0.6,0-1.1,0.4-1.1,0.8
		C-136.5,226.7-136.1,227.1-135.5,227.1z M-167.5,225.1l0.2,0l1.5-0.3c1.3-0.3,3.3-0.7,5.7-0.8c1.8,0,3.7,0.6,5.1,1
		c1.3,0.4,1.9,0.6,2.1,0.3c0.2-0.2,0.1-0.4,0-0.6c-0.4-0.8-2.1-3.5-7.5-3.7c-3.5-0.1-6.4,2.3-7.1,3.4
		C-167.6,224.8-167.6,224.9-167.5,225.1L-167.5,225.1L-167.5,225.1z M-147.2,235.4c0.3-0.2,0.5-0.6,0.5-1.2
		c-0.1-2.2-0.7-2.5-1.9-2.5c-1.2,0-2.1,1.2-2.1,1.9c0,0.6,0.4,1.1,1.3,1.6C-149,235.4-147.8,235.8-147.2,235.4L-147.2,235.4z
		 M-130.4,262.4c1.8,0.8,2.4,1.1,2.6,1.2l0,0l0,0c0.1,0,0.2,0,0.2,0l-0.1-0.1l0-0.1l-0.1-0.1c-1.2-1.5-8.2-11.4-9.7-18
		c-0.2-1.1-0.5-2.1-1.2-2.5c-0.4-0.2-0.9-0.2-1.5,0h0c-0.1,0-0.2,0.2-0.3,0.3c-0.1,0.2-0.1,0.4-0.1,0.6c0,2.3,2.5,8.8,3.3,10.1
		C-132.7,261.1-130.5,262.3-130.4,262.4z M-73.1,265.2l-0.3,0.1c0,0,0.1,2,0.1,4.5c0,3.7-0.1,8.6-0.8,10.8c-0.5,1.8-2.9,5.2-4.8,7.9
		l-2.2,3.3c-0.1,0.1-0.1,0.2-0.1,0.4c0,0.3,0.2,0.6,0.5,0.8c0.2,0.2,1,0.5,2.1-0.8l1.4-1.5c1.9-1.9,4.2-4.2,5.9-9.4
		C-69.4,275.7-73,265.3-73.1,265.2z M-132.1,283.7c0.2,0.2,0.4,0.2,0.7,0.1c0.5-0.2,0.8-0.6,0.8-1c0.1-0.7,0.6-1.7,1.3-2.5
		c0.8-0.9,0.7-2.3-0.1-3.1l-0.9-0.4c-0.6,0-1.1,0.5-1.1,0.5c-0.3,1.5-0.6,3-0.9,4.5v0C-132.5,282.1-132.6,283.3-132.1,283.7
		L-132.1,283.7z M-101.6,300.4L-101.6,300.4L-101.6,300.4c-0.1,0-0.9,0.4-1.1,1.2c-0.2,0.5,0.1,1,0.4,1.3l0.3,0.5l0.1,1l0.2,1.5
		c0.1,0.3,0.4,0.5,0.7,0.5c0.4,0,0.8-0.3,0.9-0.9c0.2-0.8,0.3-1.8,0.3-3.2C-99.9,301-101.5,300.5-101.6,300.4z M-149,288.6
		c-0.1-0.1-11.3-12.3-13.7-15.5c-2.5-3.3-3.6-3.5-4.9-2.8c-0.2,0.1-0.3,0.3-0.3,0.5c-0.2,1.3,2.6,4.5,5.1,6.9
		c3.4,3.3,13.6,11.1,13.7,11.1L-149,288.6L-149,288.6z M-193,252.7c-2.3-1.4-6.2-2.2-6.2-2.2l-0.1,0.2l4.4,3.3
		c0.7,0.6,3.9,2.6,4.9,1.8c0.1-0.1,0.2-0.3,0.2-0.4C-189.9,254.8-191,254-193,252.7L-193,252.7z M-194.1,234.1l0.3-0.1
		c0.4-0.4-0.5-1.7-1.6-2.7c-1-0.9-2-1.5-2.5-1.5l-0.3,0.1c-0.1,0.1-0.1,0.2-0.1,0.3c0,0.6,0.8,1.6,1.7,2.4
		C-195.6,233.5-194.6,234.1-194.1,234.1z M-182.4,232.5l-0.4,0c-0.8,0.4-2.2,2.5-3.3,5.2c-0.8,1.9-1.3,4-1.3,5.3
		c0,0.6,0.1,1,0.4,1.1l0.4,0c0.8-0.4,2.2-2.5,3.3-5.2c0.8-1.9,1.3-4,1.3-5.3C-182,233-182.1,232.6-182.4,232.5L-182.4,232.5z
		 M-203.4,219.2c-1.1,0-2,0.5-2,1.2c0,0.7,0.9,1.2,2,1.2c1.1,0,2-0.5,2-1.2C-201.4,219.7-202.3,219.2-203.4,219.2z M-210.4,233.7
		l0.3,0c0.6-0.3,1.5-1.9,2.2-3.9c0.7-2.1,1.1-4.4,0.4-4.7l-0.3,0c-0.6,0.3-1.5,1.9-2.2,3.9C-210.7,231.2-211,233.5-210.4,233.7
		L-210.4,233.7z M-208.5,244.8c0.6-0.8,0.7-1.7,0.3-2l-0.5-0.1c-0.4,0.1-0.9,0.4-1.3,0.9c-0.6,0.8-0.7,1.7-0.3,2l0.5,0.1
		C-209.4,245.7-208.9,245.3-208.5,244.8L-208.5,244.8z M-209.2,256.9L-209.2,256.9l-0.3-0.1c-0.8,0.2-0.2,3.6,0.2,5.4
		c0.6,2.5,1.4,4.5,1.9,4.9l0,0l0.2,0c0.8-0.2,0.2-3.6-0.2-5.4C-207.9,259.3-208.7,257.2-209.2,256.9L-209.2,256.9z M-217.1,261.5
		c-0.6,0-1.1,0.5-1.1,1.1c0,0.6,0.5,1,1.1,1c0.6,0,1.2-0.5,1.2-1C-216,262-216.5,261.5-217.1,261.5z M-197.7,286.3
		c-0.7,0-1.3,0.6-1.3,1.3c0,0.7,0.6,1.3,1.3,1.3c0.7,0,1.3-0.6,1.3-1.3C-196.4,286.9-197,286.3-197.7,286.3z M-132,320.9
		c0,0.1,0.2,0.3,0.3,0.3l0.1,0l0.1-0.2l1.2-3.7l0.9-2.4l0.8-1.9c0.2-0.6,0.2-1,0-1.3c-0.4-0.4-1.2-0.1-1.3,0l-2.3,3.7
		c-0.4,0.7-0.6,1.5-0.6,2.5C-132.6,319.1-132.3,320.4-132,320.9L-132,320.9z M-126.5,339.2l0-0.4c0-0.2,0.7-5.3-0.9-7.3
		c-0.3-0.4-0.8-0.7-1.4-0.8c-0.5,0-0.8,0.1-1,0.4c-1,1.6,2.8,7.5,3,7.7L-126.5,339.2L-126.5,339.2z M-117.7,348.9
		c-0.8,0-1.4,0.6-1.4,1.3l0,0c0,0.8,0.6,1.3,1.4,1.3c0.7,0,1.3-0.6,1.3-1.3C-116.4,349.5-117,348.9-117.7,348.9L-117.7,348.9z
		 M-138.4,332.5c-0.6,0-1.2,0.5-1.2,1.1c0,0.6,0.6,1.1,1.2,1.1c0.7,0,1.2-0.5,1.2-1.1C-137.2,333-137.8,332.5-138.4,332.5z
		 M-123.3,352.4l-0.1,0c-0.7,0-3.4,2.4-5.7,4.7c-0.2,0.2-5.2,5.3-4.5,6l0,0l0.2,0c0.7,0,3.4-2.4,5.7-4.7
		C-127.6,358.3-122.6,353.1-123.3,352.4L-123.3,352.4z M-138.4,366.3c-0.4,0-1.1,0.4-1.7,1c-0.7,0.7-1.2,1.7-0.8,2.1l0,0l0,0
		l0.4,0.1c0.4,0,1.1-0.4,1.7-1c0.7-0.7,1.2-1.7,0.8-2.1L-138.4,366.3z M-144.9,375.8c-0.5,0-1.2,0.4-1.9,1.1c-0.7,0.7-1,1.4-1,1.9
		c0,0.2,0.1,0.4,0.2,0.5l0.5,0.2c0.5,0,1.3-0.4,1.9-1.1c0.9-0.9,1.3-1.9,0.9-2.4L-144.9,375.8z M-179.4,327.9c-1,0-1.8,0.6-1.8,1.3
		c0,0.7,0.8,1.3,1.8,1.3c1,0,1.8-0.5,1.8-1.3C-177.6,328.5-178.4,327.9-179.4,327.9z M-164.8,329c-0.7,0-1.2,0.4-1.2,0.9
		c0,0.5,0.5,0.9,1.2,0.9c0.7,0,1.2-0.4,1.2-0.9C-163.6,329.3-164.1,329-164.8,329z M-147,334.9l0.1-0.2c0.2-0.8-4-2.1-6.2-2.7
		c-2.7-0.7-5.9-1.2-6.6-0.8l0,0l-0.1,0.2c-0.2,0.8,4,2.1,6.2,2.7C-151,334.8-147.8,335.4-147,334.9L-147,334.9z"/>
</g>
</svg>
