<?xml version="1.0" encoding="UTF-8" standalone="no"?>
<svg
   xmlns:dc="http://purl.org/dc/elements/1.1/"
   xmlns:cc="http://creativecommons.org/ns#"
   xmlns:rdf="http://www.w3.org/1999/02/22-rdf-syntax-ns#"
   xmlns:svg="http://www.w3.org/2000/svg"
   xmlns="http://www.w3.org/2000/svg"
   xmlns:xlink="http://www.w3.org/1999/xlink"
   xmlns:sodipodi="http://sodipodi.sourceforge.net/DTD/sodipodi-0.dtd"
   xmlns:inkscape="http://www.inkscape.org/namespaces/inkscape"
   id="mb-stern_x5F_10"
   viewBox="0 0 64 64"
   width="2500"
   height="2500"
   version="1.1"
   sodipodi:docname="fiat.svg"
   inkscape:version="0.92.4 5da689c313, 2019-01-14">
  <metadata
     id="metadata239">
    <rdf:RDF>
      <cc:Work
         rdf:about="">
        <dc:format>image/svg+xml</dc:format>
        <dc:type
           rdf:resource="http://purl.org/dc/dcmitype/StillImage" />
        <dc:title></dc:title>
      </cc:Work>
    </rdf:RDF>
  </metadata>
  <defs
     id="defs237">
    <path
       d="M250,373.8c-68.3,0-123.8-55.5-123.8-123.8c0-68.3,55.5-123.8,123.8-123.8       c68.3,0,123.8,55.5,123.8,123.8C373.8,318.3,318.3,373.8,250,373.8z"
       id="XMLID_42_" />
    <path
       d="M0 0h158.48v98.561H0z"
       id="a" />
    <path
       d="M45.156 10.91l1.213 1.251-1.213 1.177V10.91z"
       id="c" />
    <path
       d="M46.608 12.44l1.561 2.071-2.353 1.774-.66-.873v-1.875l1.452-1.097z"
       id="e" />
    <path
       d="M48.372 14.818l1.297 2.246-2.551 1.474-1.297-2.247 2.551-1.473z"
       id="g" />
    <path
       d="M49.833 17.393l1.014 2.388-2.712 1.151-1.014-2.388 2.712-1.151z"
       id="i" />
    <path
       d="M50.97 20.127l.715 2.494-2.832.812-.715-2.494 2.832-.812z"
       id="k" />
    <path
       d="M51.765 22.979l.405 2.563-2.91.461-.406-2.563 2.911-.461z"
       id="m" />
    <path
       d="M52.206 25.908l.09 2.592-2.944.103-.091-2.592 2.945-.103z"
       id="o" />
    <path
       d="M52.287 28.868l-.226 2.584-2.936-.257.227-2.584 2.935.257z"
       id="q" />
    <path
       d="M52.007 31.815l-.54 2.538-2.882-.613.54-2.537 2.882.612z"
       id="s" />
    <path
       d="M51.369 34.707l-.844 2.453-2.786-.959.844-2.453 2.786.959z"
       id="u" />
    <path
       d="M79.37 10.91l1.213 1.251-1.213 1.177V10.91z"
       id="w" />
    <path
       d="M80.821 12.44l1.562 2.071-2.353 1.774-.66-.873v-1.875l1.451-1.097z"
       id="y" />
    <path
       d="M82.586 14.818l1.297 2.246-2.552 1.474-1.297-2.247 2.552-1.473z"
       id="A" />
    <path
       d="M84.047 17.393l1.015 2.388-2.713 1.151-1.014-2.388 2.712-1.151z"
       id="C" />
    <path
       d="M85.184 20.127l.716 2.494-2.834.812-.714-2.494 2.832-.812z"
       id="E" />
    <path
       d="M85.979 22.979l.405 2.563-2.91.461-.406-2.563 2.911-.461z"
       id="G" />
    <path
       d="M86.419 25.908l.092 2.592-2.946.103-.089-2.592 2.943-.103z"
       id="I" />
    <path
       d="M86.501 28.868l-.226 2.584-2.936-.257.226-2.584 2.936.257z"
       id="K" />
    <path
       d="M86.221 31.815l-.54 2.538-2.881-.613.539-2.537 2.882.612z"
       id="M" />
    <path
       d="M85.583 34.707l-.845 2.453-2.786-.959.846-2.453 2.785.959z"
       id="O" />
    <path
       d="M113.584 10.91l1.213 1.273-1.213 1.178V10.91z"
       id="Q" />
    <path
       d="M115.037 12.462l1.56 2.072-2.352 1.773-.661-.895v-1.853l1.453-1.097z"
       id="S" />
    <path
       d="M116.8 14.84l1.297 2.246-2.551 1.474-1.296-2.247 2.55-1.473z"
       id="U" />
    <path
       d="M118.261 17.416l1.014 2.387-2.711 1.152-1.014-2.388 2.711-1.151z"
       id="W" />
    <path
       d="M119.398 20.149l.715 2.494-2.832.813-.715-2.495 2.832-.812z"
       id="Y" />
    <path
       d="M120.193 23.002l.406 2.562-2.91.461-.406-2.562 2.91-.461z"
       id="aa" />
    <path
       d="M120.634 25.93l.09 2.592-2.943.103-.092-2.592 2.945-.103z"
       id="ac" />
    <path
       d="M120.715 28.89l-.225 2.584-2.936-.257.227-2.584 2.934.257z"
       id="ae" />
    <path
       d="M120.435 31.838l-.539 2.537-2.883-.612.54-2.538 2.882.613z"
       id="ag" />
    <path
       d="M119.797 34.729l-.844 2.453-2.786-.959.844-2.453 2.786.959z"
       id="ai" />
    <path
       d="M34.694 26.561h3.369v2.977h-3.369v-2.977z"
       id="ak" />
    <path
       d="M34.718 29.932l3.344-.411.362 2.955-3.343.41-.363-2.954z"
       id="am" />
    <path
       d="M35.152 33.275l3.269-.815.72 2.888-3.268.815-.721-2.888z"
       id="ao" />
    <path
       d="M35.991 36.54l3.145-1.207 1.067 2.779-3.145 1.207-1.067-2.779z"
       id="aq" />
    <path
       d="M37.221 39.679l2.975-1.582 1.398 2.628-2.975 1.582-1.398-2.628z"
       id="as" />
    <path
       d="M38.825 42.644l2.76-1.933 1.707 2.439-2.759 1.932-1.708-2.438z"
       id="au" />
    <path
       d="M40.996 45.188l2.286-2.051 1.874 2.051h-4.16z"
       id="aw" />
    <path
       d="M35.081 23.212l3.343.411-.362 2.954-3.344-.41.363-2.955z"
       id="ay" />
    <path
       d="M35.873 19.935l3.268.815-.72 2.888-3.269-.815.721-2.888z"
       id="aA" />
    <path
       d="M37.058 16.779l3.145 1.208-1.067 2.779-3.145-1.207 1.067-2.78z"
       id="aC" />
    <path
       d="M68.908 26.561h3.368v2.977h-3.368v-2.977z"
       id="aE" />
    <path
       d="M68.932 29.932l3.343-.411.363 2.955-3.344.41-.362-2.954z"
       id="aG" />
    <path
       d="M69.366 33.275l3.269-.815.72 2.888-3.269.815-.72-2.888z"
       id="aI" />
    <path
       d="M70.205 36.54l3.146-1.207 1.066 2.779-3.145 1.207-1.067-2.779z"
       id="aK" />
    <path
       d="M71.436 39.679l2.974-1.582 1.398 2.628-2.975 1.582-1.397-2.628z"
       id="aM" />
    <path
       d="M73.039 42.644l2.76-1.933 1.708 2.439-2.76 1.932-1.708-2.438z"
       id="aO" />
    <path
       d="M75.21 45.188l2.286-2.051 1.874 2.051h-4.16z"
       id="aQ" />
    <path
       d="M69.294 23.212l3.344.411-.363 2.954-3.343-.41.362-2.955z"
       id="aS" />
    <path
       d="M70.086 19.935l3.269.815-.72 2.888-3.269-.815.72-2.888z"
       id="aU" />
    <path
       d="M71.272 16.779l3.145 1.208-1.066 2.779-3.146-1.207 1.067-2.78z"
       id="aW" />
    <path
       d="M103.123 26.561h3.369v2.977h-3.369v-2.977z"
       id="aY" />
    <path
       d="M103.146 29.932l3.344-.411.363 2.955-3.344.41-.363-2.954z"
       id="ba" />
    <path
       d="M103.581 33.275l3.268-.815.721 2.888-3.27.815-.719-2.888z"
       id="bc" />
    <path
       d="M104.419 36.54l3.145-1.207 1.067 2.779-3.145 1.207-1.067-2.779z"
       id="be" />
    <path
       d="M105.65 39.679l2.975-1.582 1.397 2.628-2.975 1.582-1.397-2.628z"
       id="bg" />
    <path
       d="M107.253 42.644l2.76-1.933 1.707 2.439-2.76 1.932-1.707-2.438z"
       id="bi" />
    <path
       d="M109.425 45.188l2.285-2.051 1.874 2.051h-4.159z"
       id="bk" />
    <path
       d="M103.509 23.212l3.344.411-.363 2.954-3.344-.41.363-2.955z"
       id="bm" />
    <path
       d="M104.3 19.935l3.27.815-.721 2.888-3.268-.815.719-2.888z"
       id="bo" />
    <path
       d="M105.486 16.779l3.145 1.208-1.067 2.779-3.145-1.207 1.067-2.78z"
       id="bq" />
    <path
       d="M149.827 42.891a24.424 24.424 0 0 0 2.444-3.851l2.861 1.816a24.552 24.552 0 0 1-1.145 1.977c-.477.75-.856 1.285-1.299 1.874l-2.861-1.816z"
       id="bs" />
    <path
       d="M152.268 39.042a24.321 24.321 0 0 0 1.679-4.241l3.152 1.248a24.828 24.828 0 0 1-.754 2.156 27.135 27.135 0 0 1-.926 2.084l-3.151-1.247z"
       id="bu" />
    <path
       d="M153.945 34.806c.414-1.411.729-3.06.855-4.48l3.329.635a24.22 24.22 0 0 1-.337 2.259 26.51 26.51 0 0 1-.518 2.221l-3.329-.635z"
       id="bw" />
    <path
       d="M154.798 30.33a24.298 24.298 0 0 0 0-4.561h3.391c.062.711.092 1.391.092 2.283 0 .889-.035 1.543-.092 2.278h-3.391z"
       id="by" />
    <path
       d="M154.798 25.773a24.434 24.434 0 0 0-.855-4.48l3.33-.635c.195.687.352 1.35.519 2.225.167.874.255 1.523.337 2.255l-3.331.635z"
       id="bA" />
    <path
       d="M147.208 10.294l1.803 1.867-2.119 2.046-1.803-1.866 2.119-2.047z"
       id="bC" />
    <path
       d="M149.25 12.44l1.562 2.071-2.354 1.774-1.561-2.072 2.353-1.773z"
       id="bE" />
    <path
       d="M151.014 14.818l1.298 2.246-2.553 1.474-1.297-2.247 2.552-1.473z"
       id="bG" />
    <path
       d="M152.475 17.393l1.015 2.388-2.713 1.151-1.014-2.388 2.712-1.151z"
       id="bI" />
    <path
       d="M153.612 20.127l.716 2.494-2.833.812-.715-2.494 2.832-.812z"
       id="bK" />
    <path
       d="M154.407 22.979l.405 2.563-2.91.461-.405-2.563 2.91-.461z"
       id="bM" />
    <path
       d="M154.848 25.908l.091 2.592-2.945.103-.09-2.592 2.944-.103z"
       id="bO" />
    <path
       d="M154.929 28.868l-.226 2.584-2.936-.257.227-2.584 2.935.257z"
       id="bQ" />
    <path
       d="M154.649 31.815l-.54 2.538-2.881-.613.539-2.537 2.882.612z"
       id="bS" />
    <path
       d="M154.011 34.707l-.844 2.453-2.787-.959.846-2.453 2.785.959z"
       id="bU" />
    <path
       d="M129.416.459h2.55v3.374h-2.55V.459z"
       id="bW" />
    <path
       d="M126.54.744l2.536-.266.353 3.355-2.537.267-.352-3.356z"
       id="bY" />
    <path
       d="M123.708 1.328l2.495-.531.701 3.301-2.494.53-.702-3.3z"
       id="ca" />
    <path
       d="M120.954 2.204l2.425-.788 1.042 3.209-2.425.788-1.042-3.209z"
       id="cc" />
    <path
       d="M118.306 3.364l2.329-1.038 1.372 3.082-2.33 1.037-1.371-3.081z"
       id="ce" />
    <path
       d="M115.792 4.793l2.209-1.275 1.688 2.922-2.209 1.275-1.688-2.922z"
       id="cg" />
    <path
       d="M132.306.478l2.537.266-.352 3.356-2.536-.267.351-3.355z"
       id="ci" />
    <path
       d="M135.179.797l2.496.531-.702 3.3-2.495-.53.701-3.301z"
       id="ck" />
    <path
       d="M138.003 1.416l2.426.788-1.043 3.209-2.425-.788 1.042-3.209z"
       id="cm" />
    <path
       d="M140.748 2.326l2.33 1.038-1.373 3.081-2.33-1.037 1.373-3.082z"
       id="co" />
    <path
       d="M116.689 8.285l.923-.623 1.647 2.443-.923.623-1.647-2.443z"
       id="cq" />
    <path
       d="M117.743 7.579l.954-.573 1.517 2.525-.954.573-1.517-2.525z"
       id="cs" />
    <path
       d="M118.832 6.929l.982-.522 1.384 2.601-.984.523-1.382-2.602z"
       id="cu" />
    <path
       d="M119.953 6.338l1.009-.471 1.246 2.67-1.009.471-1.246-2.67z"
       id="cw" />
    <path
       d="M121.105 5.806l1.031-.417 1.104 2.731-1.032.417-1.103-2.731z"
       id="cy" />
    <path
       d="M115.613 42.891a24.274 24.274 0 0 0 2.443-3.851l2.863 1.816a24.89 24.89 0 0 1-1.146 1.977c-.477.75-.856 1.285-1.299 1.874l-2.861-1.816z"
       id="cA" />
    <path
       d="M118.054 39.042a24.405 24.405 0 0 0 1.68-4.241l3.151 1.248a24.861 24.861 0 0 1-.755 2.156 27.168 27.168 0 0 1-.924 2.084l-3.152-1.247z"
       id="cC" />
    <path
       d="M119.732 34.806a24.33 24.33 0 0 0 .854-4.48l3.33.635c-.072.71-.17 1.384-.337 2.259-.167.874-.323 1.51-.518 2.221l-3.329-.635z"
       id="cE" />
    <path
       d="M120.585 30.33a24.468 24.468 0 0 0 0-4.561h3.389c.062.711.093 1.391.093 2.283 0 .889-.034 1.543-.093 2.278h-3.389z"
       id="cG" />
    <path
       d="M120.583 25.773a24.266 24.266 0 0 0-.854-4.48l3.329-.635c.194.687.352 1.35.519 2.225.166.874.256 1.523.336 2.255l-3.33.635z"
       id="cI" />
    <path
       d="M138.203 51.07l1.192-.422 1.124 3.176-1.191.422-1.125-3.176z"
       id="cK" />
    <path
       d="M139.398 50.647l1.169-.484 1.289 3.112-1.168.484-1.29-3.112z"
       id="cM" />
    <path
       d="M140.57 50.161l1.141-.544 1.451 3.04-1.141.545-1.451-3.041z"
       id="cO" />
    <path
       d="M141.714 49.615l1.112-.604 1.608 2.961-1.111.604-1.609-2.961z"
       id="cQ" />
    <path
       d="M142.83 49.01l1.078-.661 1.76 2.872-1.079.661-1.759-2.872z"
       id="cS" />
    <path
       d="M130.133 49.332l1.859-.033.052 2.946-1.859.032-.052-2.945z"
       id="cU" />
    <path
       d="M131.99 49.299l1.849-.194.309 2.93-1.85.194-.308-2.93z"
       id="cW" />
    <path
       d="M133.837 49.105l1.826-.355.562 2.893-1.825.355-.563-2.893z"
       id="cY" />
    <path
       d="M135.661 48.751l1.787-.512.812 2.832-1.788.512-.811-2.832z"
       id="da" />
    <path
       d="M137.447 48.239l1.735-.666 1.056 2.751-1.737.666-1.054-2.751z"
       id="dc" />
    <path
       d="M128.281 49.202l1.854.13-.206 2.939-1.854-.13.206-2.939z"
       id="de" />
    <path
       d="M126.446 48.912l1.837.29-.461 2.91-1.837-.29.461-2.91z"
       id="dg" />
    <path
       d="M124.644 48.462l1.804.45-.713 2.859-1.804-.45.713-2.859z"
       id="di" />
    <path
       d="M122.887 47.857l1.759.606-.959 2.786-1.759-.606.959-2.786z"
       id="dk" />
    <path
       d="M121.191 47.102l1.699.756-1.199 2.692-1.699-.756 1.199-2.692z"
       id="dm" />
    <path
       d="M106.985 23.036l2.876.404-.464 3.298-2.876-.404.464-3.298z"
       id="do" />
    <path
       d="M106.493 26.806l2.903-.051.059 3.33-2.905.051-.057-3.33z"
       id="dq" />
    <path
       d="M106.596 30.606l2.86-.503.579 3.279-2.861.505-.578-3.281z"
       id="ds" />
    <path
       d="M108.061 19.389l2.777.849-.973 3.185-2.778-.849.974-3.185z"
       id="du" />
    <path
       d="M109.695 15.956l2.609 1.272-1.459 2.994-2.611-1.273 1.461-2.993z"
       id="dw" />
    <path
       d="M95.203.459h2.55v3.374h-2.55V.459z"
       id="dy" />
    <path
       d="M92.326.744l2.537-.266.351 3.355-2.536.267-.352-3.356z"
       id="dA" />
    <path
       d="M89.494 1.328L91.99.797l.701 3.301-2.496.53-.701-3.3z"
       id="dC" />
    <path
       d="M86.74 2.204l2.426-.788 1.042 3.209-2.425.788-1.043-3.209z"
       id="dE" />
    <path
       d="M84.091 3.364l2.33-1.038 1.373 3.082-2.331 1.038-1.372-3.082z"
       id="dG" />
    <path
       d="M81.579 4.793l2.209-1.275 1.686 2.922-2.209 1.275-1.686-2.922z"
       id="dI" />
    <path
       d="M98.093.478l2.536.266-.352 3.356-2.537-.267.353-3.355z"
       id="dK" />
    <path
       d="M100.966.797l2.494.531-.701 3.3-2.494-.53.701-3.301z"
       id="dM" />
    <path
       d="M103.79 1.416l2.426.788-1.043 3.209-2.425-.788 1.042-3.209z"
       id="dO" />
    <path
       d="M106.534 2.326l2.329 1.038-1.371 3.082-2.33-1.038 1.372-3.082z"
       id="dQ" />
    <path
       d="M82.475 8.285l.922-.623 1.648 2.443-.923.623-1.647-2.443z"
       id="dS" />
    <path
       d="M83.528 7.579l.954-.573L86 9.531l-.954.573-1.518-2.525z"
       id="dU" />
    <path
       d="M84.617 6.929l.984-.522 1.383 2.601-.983.523-1.384-2.602z"
       id="dW" />
    <path
       d="M85.74 6.338l1.009-.471 1.245 2.67-1.01.471-1.244-2.67z"
       id="dY" />
    <path
       d="M86.89 5.806l1.032-.417 1.105 2.731-1.033.417-1.104-2.731z"
       id="ea" />
    <path
       d="M81.398 42.891a24.424 24.424 0 0 0 2.444-3.851l2.862 1.816a24.552 24.552 0 0 1-1.145 1.977c-.477.75-.858 1.285-1.299 1.874l-2.862-1.816z"
       id="ec" />
    <path
       d="M83.84 39.042a24.321 24.321 0 0 0 1.679-4.241l3.152 1.248a24.828 24.828 0 0 1-.754 2.156 27.135 27.135 0 0 1-.926 2.084l-3.151-1.247z"
       id="ee" />
    <path
       d="M85.517 34.806c.414-1.411.729-3.06.855-4.48l3.33.635c-.072.71-.17 1.384-.338 2.259a26.51 26.51 0 0 1-.518 2.221l-3.329-.635z"
       id="eg" />
    <path
       d="M86.371 30.33a24.298 24.298 0 0 0 0-4.561h3.39c.062.711.093 1.391.093 2.283 0 .889-.035 1.543-.093 2.278h-3.39z"
       id="ei" />
    <path
       d="M86.371 25.773a24.434 24.434 0 0 0-.855-4.48l3.33-.635c.194.687.352 1.35.519 2.225.167.874.255 1.523.337 2.255l-3.331.635z"
       id="ek" />
    <path
       d="M72.771 23.036l2.875.404-.463 3.298-2.875-.404.463-3.298z"
       id="em" />
    <path
       d="M72.278 26.806l2.904-.051.057 3.33-2.903.051-.058-3.33z"
       id="eo" />
    <path
       d="M72.382 30.606l2.859-.503.578 3.279-2.859.505-.578-3.281z"
       id="eq" />
    <path
       d="M73.847 19.389l2.777.849-.975 3.185-2.776-.849.974-3.185z"
       id="es" />
    <path
       d="M75.479 15.956l2.612 1.272-1.461 2.994-2.609-1.273 1.458-2.993z"
       id="eu" />
    <path
       d="M69.752 51.09l1.192-.423 1.124 3.176-1.192.423-1.124-3.176z"
       id="ew" />
    <path
       d="M70.947 50.666l1.169-.484 1.289 3.113-1.168.484-1.29-3.113z"
       id="ey" />
    <path
       d="M72.119 50.181l1.142-.545 1.45 3.041-1.142.544-1.45-3.04z"
       id="eA" />
    <path
       d="M73.264 49.634l1.112-.603 1.607 2.96-1.111.604-1.608-2.961z"
       id="eC" />
    <path
       d="M74.378 49.029l1.079-.661 1.761 2.873-1.078.66-1.762-2.872z"
       id="eE" />
    <path
       d="M61.705 49.332l1.859-.033.052 2.946-1.86.032-.051-2.945z"
       id="eG" />
    <path
       d="M63.562 49.299l1.849-.194.308 2.93-1.849.194-.308-2.93z"
       id="eI" />
    <path
       d="M65.409 49.105l1.825-.355.562 2.893-1.825.355-.562-2.893z"
       id="eK" />
    <path
       d="M67.232 48.751l1.788-.512.812 2.832-1.788.512-.812-2.832z"
       id="eM" />
    <path
       d="M69.018 48.239l1.736-.666 1.056 2.751-1.736.666-1.056-2.751z"
       id="eO" />
    <path
       d="M59.852 49.202l1.855.13-.206 2.939-1.855-.13.206-2.939z"
       id="eQ" />
    <path
       d="M58.018 48.912l1.836.29-.461 2.91-1.836-.29.461-2.91z"
       id="eS" />
    <path
       d="M56.215 48.462l1.805.45-.713 2.859-1.805-.45.713-2.859z"
       id="eU" />
    <path
       d="M54.459 47.857l1.758.606-.959 2.786-1.758-.606.959-2.786z"
       id="eW" />
    <path
       d="M52.762 47.102l1.699.756-1.198 2.692-1.699-.756 1.198-2.692z"
       id="eY" />
    <path
       d="M47.185 42.891a24.424 24.424 0 0 0 2.444-3.851l2.862 1.816a24.856 24.856 0 0 1-1.145 1.977c-.477.75-.857 1.285-1.299 1.874l-2.862-1.816z"
       id="fa" />
    <path
       d="M49.626 39.042a24.321 24.321 0 0 0 1.679-4.241l3.152 1.248a24.828 24.828 0 0 1-.754 2.156 27.152 27.152 0 0 1-.925 2.084l-3.152-1.247z"
       id="fc" />
    <path
       d="M51.303 34.806a24.33 24.33 0 0 0 .854-4.48l3.33.635c-.072.71-.17 1.384-.337 2.259-.167.874-.323 1.51-.518 2.221l-3.329-.635z"
       id="fe" />
    <path
       d="M52.157 30.33a24.298 24.298 0 0 0 0-4.561h3.39c.062.711.092 1.391.092 2.283 0 .889-.035 1.543-.092 2.278h-3.39z"
       id="fg" />
    <path
       d="M52.156 25.773a24.35 24.35 0 0 0-.855-4.48l3.33-.635c.194.687.352 1.35.519 2.225.167.874.255 1.523.336 2.255l-3.33.635z"
       id="fi" />
    <path
       d="M38.557 23.036l2.875.404-.463 3.298-2.876-.404.464-3.298z"
       id="fk" />
    <path
       d="M38.064 26.806l2.904-.051.058 3.33-2.903.051-.059-3.33z"
       id="fm" />
    <path
       d="M38.168 30.606l2.86-.503.578 3.279-2.86.505-.578-3.281z"
       id="fo" />
    <path
       d="M39.633 19.389l2.777.849-.974 3.185-2.777-.849.974-3.185z"
       id="fq" />
    <path
       d="M41.266 15.956l2.61 1.272-1.46 2.994-2.61-1.273 1.46-2.993z"
       id="fs" />
    <path
       d="M35.538 51.09l1.192-.423 1.124 3.176-1.191.423-1.125-3.176z"
       id="fu" />
    <path
       d="M36.733 50.666l1.169-.484 1.289 3.113-1.169.484-1.289-3.113z"
       id="fw" />
    <path
       d="M37.905 50.181l1.142-.545 1.45 3.041-1.141.544-1.451-3.04z"
       id="fy" />
    <path
       d="M39.05 49.634l1.112-.603 1.607 2.96-1.111.604-1.608-2.961z"
       id="fA" />
    <path
       d="M40.165 49.029l1.078-.661 1.76 2.873-1.078.66-1.76-2.872z"
       id="fC" />
    <path
       d="M27.491 49.332l1.859-.033.051 2.946-1.859.032-.051-2.945z"
       id="fE" />
    <path
       d="M29.348 49.299l1.849-.194.308 2.93-1.849.194-.308-2.93z"
       id="fG" />
    <path
       d="M31.195 49.105l1.826-.355.562 2.893-1.826.355-.562-2.893z"
       id="fI" />
    <path
       d="M33.019 48.751l1.787-.512.812 2.832-1.787.512-.812-2.832z"
       id="fK" />
    <path
       d="M34.804 48.239l1.736-.666 1.056 2.751-1.736.666-1.056-2.751z"
       id="fM" />
    <path
       d="M25.638 49.202l1.855.13-.205 2.939-1.855-.13.205-2.939z"
       id="fO" />
    <path
       d="M23.804 48.912l1.836.29-.461 2.91-1.836-.29.461-2.91z"
       id="fQ" />
    <path
       d="M22.001 48.462l1.805.45-.713 2.859-1.804-.45.712-2.859z"
       id="fS" />
    <path
       d="M20.245 47.857l1.758.606-.959 2.786-1.758-.606.959-2.786z"
       id="fU" />
    <path
       d="M18.548 47.102l1.699.756-1.198 2.692-1.699-.756 1.198-2.692z"
       id="fW" />
    <path
       d="M.48 26.561h3.369v2.977H.48v-2.977z"
       id="fY" />
    <path
       d="M.504 29.932l3.344-.411.362 2.955-3.343.41-.363-2.954z"
       id="ga" />
    <path
       d="M.938 33.275l3.27-.815.72 2.888-3.269.815-.721-2.888z"
       id="gc" />
    <path
       d="M1.777 36.54l3.145-1.207 1.067 2.779-3.145 1.207-1.067-2.779z"
       id="ge" />
    <path
       d="M3.008 39.679l2.974-1.582 1.398 2.628-2.975 1.582-1.397-2.628z"
       id="gg" />
    <path
       d="M4.611 42.644l2.76-1.933 1.708 2.439-2.76 1.932-1.708-2.438z"
       id="gi" />
    <path
       d="M6.564 45.392l2.504-2.255 1.992 2.213-2.503 2.254-1.993-2.212z"
       id="gk" />
    <path
       d="M.867 23.212l3.343.411-.362 2.954-3.344-.41.363-2.955z"
       id="gm" />
    <path
       d="M1.659 19.935l3.269.815-.72 2.888-3.27-.815.721-2.888z"
       id="go" />
    <path
       d="M2.844 16.779l3.145 1.208-1.067 2.779-3.145-1.207 1.067-2.78z"
       id="gq" />
    <path
       d="M4.343 23.036l2.875.404-.463 3.298-2.876-.404.464-3.298z"
       id="gs" />
    <path
       d="M3.851 26.806l2.903-.051.058 3.33-2.903.051-.058-3.33z"
       id="gu" />
    <path
       d="M3.954 30.606l2.859-.503.579 3.279-2.86.505-.578-3.281z"
       id="gw" />
    <path
       d="M5.419 19.389l2.777.849-.974 3.185-2.777-.849.974-3.185z"
       id="gy" />
    <path
       d="M7.052 15.956l2.61 1.272-1.46 2.994-2.61-1.273 1.46-2.993z"
       id="gA" />
    <path
       d="M14.047 8.285l.923-.623 1.647 2.443-.923.623-1.647-2.443z"
       id="gC" />
    <path
       d="M15.101 7.579l.954-.573 1.517 2.525-.954.573-1.517-2.525z"
       id="gE" />
    <path
       d="M16.189 6.929l.983-.522 1.384 2.601-.983.523-1.384-2.602z"
       id="gG" />
    <path
       d="M17.311 6.338l1.009-.471 1.245 2.67-1.009.471-1.245-2.67z"
       id="gI" />
    <path
       d="M18.462 5.806l1.032-.417 1.104 2.731-1.032.417-1.104-2.731z"
       id="gK" />
    <path
       d="M26.774.459h2.551v3.374h-2.551V.459z"
       id="gM" />
    <path
       d="M23.897.744l2.537-.266.353 3.355-2.537.267-.353-3.356z"
       id="gO" />
    <path
       d="M21.066 1.328l2.495-.531.701 3.301-2.495.53-.701-3.3z"
       id="gQ" />
    <path
       d="M18.311 2.204l2.426-.788 1.042 3.209-2.425.788-1.043-3.209z"
       id="gS" />
    <path
       d="M15.663 3.364l2.331-1.038 1.371 3.082-2.33 1.038-1.372-3.082z"
       id="gU" />
    <path
       d="M13.151 4.793l2.209-1.275 1.686 2.922-2.209 1.275-1.686-2.922z"
       id="gW" />
    <path
       d="M29.665.478l2.536.266-.352 3.356-2.537-.267.353-3.355z"
       id="gY" />
    <path
       d="M32.538.797l2.495.531-.702 3.3-2.495-.53.702-3.301z"
       id="ha" />
    <path
       d="M35.361 1.416l2.426.788-1.042 3.209-2.426-.788 1.042-3.209z"
       id="hc" />
    <path
       d="M38.105 2.326l2.331 1.038-1.373 3.082-2.33-1.038 1.372-3.082z"
       id="he" />
    <path
       d="M48.261 8.285l.923-.623 1.647 2.443-.923.623-1.647-2.443z"
       id="hg" />
    <path
       d="M49.314 7.579l.955-.573 1.517 2.525-.954.573-1.518-2.525z"
       id="hi" />
    <path
       d="M50.403 6.929l.983-.522 1.384 2.601-.983.523-1.384-2.602z"
       id="hk" />
    <path
       d="M51.525 6.338l1.009-.471 1.245 2.67-1.009.471-1.245-2.67z"
       id="hm" />
    <path
       d="M52.676 5.806l1.032-.417 1.104 2.731-1.032.417-1.104-2.731z"
       id="ho" />
    <path
       d="M60.988.459h2.551v3.374h-2.551V.459z"
       id="hq" />
    <path
       d="M58.111.744l2.536-.266L61 3.833l-2.536.267-.353-3.356z"
       id="hs" />
    <path
       d="M55.28 1.328l2.495-.531.701 3.301-2.495.53-.701-3.3z"
       id="hu" />
    <path
       d="M52.525 2.204l2.426-.788 1.042 3.209-2.426.788-1.042-3.209z"
       id="hw" />
    <path
       d="M49.877 3.364l2.33-1.038 1.372 3.082-2.33 1.038-1.372-3.082z"
       id="hy" />
    <path
       d="M47.365 4.793l2.209-1.275L51.26 6.44l-2.209 1.275-1.686-2.922z"
       id="hA" />
    <path
       d="M63.878.478l2.537.266-.353 3.356-2.536-.267.352-3.355z"
       id="hC" />
    <path
       d="M66.751.797l2.496.531-.702 3.3-2.495-.53.701-3.301z"
       id="hE" />
    <path
       d="M69.575 1.416l2.426.788-1.043 3.209-2.425-.788 1.042-3.209z"
       id="hG" />
    <path
       d="M72.319 2.326l2.33 1.038-1.372 3.082-2.33-1.038 1.372-3.082z"
       id="hI" />
    <path
       d="M95.919 49.332l1.86-.033.051 2.946-1.86.032-.051-2.945z"
       id="hK" />
    <path
       d="M97.777 49.299l1.848-.194.308 2.93-1.85.194-.306-2.93z"
       id="hM" />
    <path
       d="M99.624 49.105l1.825-.355.562 2.893-1.826.355-.561-2.893z"
       id="hO" />
    <path
       d="M101.447 48.751l1.787-.512.812 2.832-1.787.512-.812-2.832z"
       id="hQ" />
    <path
       d="M103.232 48.239l1.736-.666 1.056 2.751-1.735.666-1.057-2.751z"
       id="hS" />
    <path
       d="M94.066 49.202l1.855.13-.205 2.939-1.855-.13.205-2.939z"
       id="hU" />
    <path
       d="M92.232 48.912l1.836.29-.461 2.91-1.836-.29.461-2.91z"
       id="hW" />
    <path
       d="M90.429 48.462l1.805.45-.713 2.859-1.805-.45.713-2.859z"
       id="hY" />
    <path
       d="M88.673 47.857l1.758.606-.959 2.786-1.758-.606.959-2.786z"
       id="ia" />
    <path
       d="M86.977 47.102l1.698.756-1.198 2.692-1.698-.756 1.198-2.692z"
       id="ic" />
    <path
       d="M103.978 51.09l1.191-.423 1.125 3.176-1.192.423-1.124-3.176z"
       id="ie" />
    <path
       d="M105.173 50.666l1.168-.484 1.289 3.113-1.168.484-1.289-3.113z"
       id="ig" />
    <path
       d="M106.345 50.181l1.141-.545 1.451 3.041-1.142.544-1.45-3.04z"
       id="ii" />
    <path
       d="M107.49 49.634l1.111-.603 1.607 2.96-1.111.604-1.607-2.961z"
       id="ik" />
    <path
       d="M108.605 49.029l1.078-.661 1.76 2.873-1.078.66-1.76-2.872z"
       id="im" />
    <linearGradient
       id="a-4"
       gradientUnits="userSpaceOnUse"
       x1="-1120.126"
       y1="2189.824"
       x2="-44.679001"
       y2="1150.587"
       gradientTransform="matrix(0.06045876,0,0,-0.06045876,64.862782,130.44667)">
      <stop
         offset="0"
         stop-color="#dff4ff"
         id="stop2" />
      <stop
         offset=".098"
         stop-color="#d6eaf5"
         id="stop4-8" />
      <stop
         offset=".268"
         stop-color="#bfd0d9"
         id="stop6-1" />
      <stop
         offset=".488"
         stop-color="#98a5ac"
         id="stop8-2" />
      <stop
         offset=".747"
         stop-color="#646b6e"
         id="stop10-9" />
      <stop
         offset="1"
         stop-color="#2b2b2b"
         id="stop12-3" />
    </linearGradient>
    <radialGradient
       id="b"
       cx="-1052.2469"
       cy="2101.6521"
       r="720.10797"
       gradientTransform="matrix(0.06045876,0,0,-0.06045876,64.862782,130.44667)"
       gradientUnits="userSpaceOnUse">
      <stop
         offset="0"
         stop-color="#fff"
         id="stop19" />
      <stop
         offset=".306"
         stop-color="#a8a8a8"
         id="stop21" />
      <stop
         offset=".646"
         stop-color="#4f4f4f"
         id="stop23" />
      <stop
         offset=".885"
         stop-color="#161616"
         id="stop25" />
      <stop
         offset="1"
         id="stop27" />
    </radialGradient>
    <linearGradient
       id="c-9"
       gradientUnits="userSpaceOnUse"
       x1="-818.02899"
       y1="1409.9771"
       x2="-133.08099"
       y2="748.09198"
       gradientTransform="matrix(-0.06045876,0,0,0.06045876,5.1885347,-31.624895)">
      <stop
         offset="0"
         stop-color="#dff4ff"
         id="stop32-0" />
      <stop
         offset=".086"
         stop-color="#d6eaf5"
         id="stop34-8" />
      <stop
         offset=".233"
         stop-color="#bed0d9"
         id="stop36-8" />
      <stop
         offset=".424"
         stop-color="#96a4ac"
         id="stop38-5" />
      <stop
         offset=".652"
         stop-color="#5f686d"
         id="stop40-0" />
      <stop
         offset=".907"
         stop-color="#1a1d1e"
         id="stop42-9" />
      <stop
         offset="1"
         id="stop44-6" />
    </linearGradient>
    <radialGradient
       id="d"
       cx="-1181.576"
       cy="2174.9851"
       r="1730.313"
       gradientTransform="matrix(0.06045876,0,0,-0.06045876,64.862782,130.44667)"
       gradientUnits="userSpaceOnUse">
      <stop
         offset="0"
         stop-color="#fff"
         id="stop53-3" />
      <stop
         offset=".31"
         stop-color="#fdfdfd"
         id="stop55-8" />
      <stop
         offset=".451"
         stop-color="#f6f6f6"
         id="stop57-5" />
      <stop
         offset=".557"
         stop-color="#e9e9e9"
         id="stop59-6" />
      <stop
         offset=".646"
         stop-color="#d7d7d7"
         id="stop61-1" />
      <stop
         offset=".724"
         stop-color="#bfbfbf"
         id="stop63-1" />
      <stop
         offset=".794"
         stop-color="#a2a2a2"
         id="stop65" />
      <stop
         offset=".859"
         stop-color="gray"
         id="stop67" />
      <stop
         offset=".92"
         stop-color="#575757"
         id="stop69" />
      <stop
         offset=".975"
         stop-color="#2b2b2b"
         id="stop71" />
      <stop
         offset="1"
         stop-color="#141414"
         id="stop73" />
    </radialGradient>
    <radialGradient
       id="e-5"
       cx="-1181.653"
       cy="2174.9851"
       r="1730.4611"
       gradientTransform="matrix(0.06045876,0,0,-0.06045876,64.862782,130.44667)"
       gradientUnits="userSpaceOnUse">
      <stop
         offset="0"
         stop-color="#fff"
         id="stop78-9" />
      <stop
         offset=".31"
         stop-color="#fdfdfd"
         id="stop80-8" />
      <stop
         offset=".451"
         stop-color="#f6f6f6"
         id="stop82-4" />
      <stop
         offset=".557"
         stop-color="#e9e9e9"
         id="stop84" />
      <stop
         offset=".646"
         stop-color="#d7d7d7"
         id="stop86" />
      <stop
         offset=".724"
         stop-color="#bfbfbf"
         id="stop88" />
      <stop
         offset=".794"
         stop-color="#a2a2a2"
         id="stop90" />
      <stop
         offset=".859"
         stop-color="gray"
         id="stop92" />
      <stop
         offset=".92"
         stop-color="#575757"
         id="stop94" />
      <stop
         offset=".975"
         stop-color="#2b2b2b"
         id="stop96" />
      <stop
         offset="1"
         stop-color="#141414"
         id="stop98" />
    </radialGradient>
    <radialGradient
       id="f"
       cx="-1181.748"
       cy="2175.4929"
       r="1731.785"
       gradientTransform="matrix(0.06045876,0,0,-0.06045876,64.862782,130.44667)"
       gradientUnits="userSpaceOnUse">
      <stop
         offset="0"
         stop-color="#fff"
         id="stop103" />
      <stop
         offset=".31"
         stop-color="#fdfdfd"
         id="stop105" />
      <stop
         offset=".451"
         stop-color="#f6f6f6"
         id="stop107" />
      <stop
         offset=".557"
         stop-color="#e9e9e9"
         id="stop109" />
      <stop
         offset=".646"
         stop-color="#d7d7d7"
         id="stop111" />
      <stop
         offset=".724"
         stop-color="#bfbfbf"
         id="stop113" />
      <stop
         offset=".794"
         stop-color="#a2a2a2"
         id="stop115-8" />
      <stop
         offset=".859"
         stop-color="gray"
         id="stop117-1" />
      <stop
         offset=".92"
         stop-color="#575757"
         id="stop119" />
      <stop
         offset=".975"
         stop-color="#2b2b2b"
         id="stop121" />
      <stop
         offset="1"
         stop-color="#141414"
         id="stop123" />
    </radialGradient>
    <radialGradient
       id="g-0"
       cx="-871.677"
       cy="1935.101"
       r="466.71799"
       gradientTransform="matrix(0.06045876,0,0,-0.06045876,64.862782,130.44667)"
       gradientUnits="userSpaceOnUse">
      <stop
         offset="0"
         stop-color="#e6e6e6"
         id="stop128" />
      <stop
         offset=".104"
         stop-color="#d6d6d6"
         id="stop130" />
      <stop
         offset=".307"
         stop-color="#adadad"
         id="stop132" />
      <stop
         offset=".588"
         stop-color="#6c6c6c"
         id="stop134" />
      <stop
         offset=".933"
         stop-color="#121212"
         id="stop136" />
      <stop
         offset="1"
         id="stop138" />
    </radialGradient>
    <radialGradient
       id="h"
       cx="-744.02399"
       cy="1872.327"
       r="678.742"
       gradientTransform="matrix(0.06045876,0,0,-0.06045876,64.862782,130.44667)"
       gradientUnits="userSpaceOnUse">
      <stop
         offset="0"
         stop-color="#fff"
         id="stop143" />
      <stop
         offset=".344"
         stop-color="#fdfdfd"
         id="stop145" />
      <stop
         offset=".481"
         stop-color="#f6f6f6"
         id="stop147-3" />
      <stop
         offset=".582"
         stop-color="#eaeaea"
         id="stop149-0" />
      <stop
         offset=".665"
         stop-color="#d8d8d8"
         id="stop151-4" />
      <stop
         offset=".737"
         stop-color="#c2c2c2"
         id="stop153" />
      <stop
         offset=".802"
         stop-color="#a6a6a6"
         id="stop155" />
      <stop
         offset=".86"
         stop-color="#848484"
         id="stop157" />
      <stop
         offset=".913"
         stop-color="#5f5f5f"
         id="stop159" />
      <stop
         offset=".949"
         stop-color="#404040"
         id="stop161" />
      <stop
         offset=".957"
         stop-color="#404040"
         id="stop163-4" />
      <stop
         offset="1"
         stop-color="#404040"
         id="stop165-4" />
      <stop
         offset="1"
         id="stop167-4" />
    </radialGradient>
    <radialGradient
       id="i-7"
       cx="-943.31201"
       cy="2129.614"
       r="1202.0601"
       gradientTransform="matrix(0.06045876,0,0,-0.06045876,64.862782,130.44667)"
       gradientUnits="userSpaceOnUse">
      <stop
         offset=".169"
         stop-color="#fff"
         id="stop172" />
      <stop
         offset=".196"
         stop-color="#e0eff7"
         id="stop174" />
      <stop
         offset=".241"
         stop-color="#b2d9ec"
         id="stop176" />
      <stop
         offset=".287"
         stop-color="#8bc5e2"
         id="stop178" />
      <stop
         offset=".335"
         stop-color="#6bb5da"
         id="stop180" />
      <stop
         offset=".384"
         stop-color="#52a9d4"
         id="stop182" />
      <stop
         offset=".436"
         stop-color="#41a0cf"
         id="stop184" />
      <stop
         offset=".491"
         stop-color="#369bcd"
         id="stop186-6" />
      <stop
         offset=".556"
         stop-color="#39c"
         id="stop188-3" />
      <stop
         offset=".606"
         stop-color="#3396c8"
         id="stop190-1" />
      <stop
         offset=".655"
         stop-color="#328ebc"
         id="stop192-7" />
      <stop
         offset=".705"
         stop-color="#3180a8"
         id="stop194-5" />
      <stop
         offset=".754"
         stop-color="#2f6d8c"
         id="stop196-9" />
      <stop
         offset=".803"
         stop-color="#2d5468"
         id="stop198-6" />
      <stop
         offset=".851"
         stop-color="#2a373d"
         id="stop200-2" />
      <stop
         offset=".871"
         stop-color="#292929"
         id="stop202-1" />
    </radialGradient>
    <radialGradient
       id="j"
       cx="-943.31201"
       cy="2129.623"
       r="1202.037"
       gradientTransform="matrix(0.06045876,0,0,-0.06045876,64.862782,130.44667)"
       gradientUnits="userSpaceOnUse">
      <stop
         offset=".169"
         stop-color="#fff"
         id="stop207" />
      <stop
         offset=".196"
         stop-color="#e0eff7"
         id="stop209-7" />
      <stop
         offset=".241"
         stop-color="#b2d9ec"
         id="stop211-8" />
      <stop
         offset=".287"
         stop-color="#8bc5e2"
         id="stop213-5" />
      <stop
         offset=".335"
         stop-color="#6bb5da"
         id="stop215-7" />
      <stop
         offset=".384"
         stop-color="#52a9d4"
         id="stop217-4" />
      <stop
         offset=".436"
         stop-color="#41a0cf"
         id="stop219-1" />
      <stop
         offset=".491"
         stop-color="#369bcd"
         id="stop221-8" />
      <stop
         offset=".556"
         stop-color="#39c"
         id="stop223-5" />
      <stop
         offset=".606"
         stop-color="#3396c8"
         id="stop225-9" />
      <stop
         offset=".655"
         stop-color="#328ebc"
         id="stop227" />
      <stop
         offset=".705"
         stop-color="#3180a8"
         id="stop229" />
      <stop
         offset=".754"
         stop-color="#2f6d8c"
         id="stop231" />
      <stop
         offset=".803"
         stop-color="#2d5468"
         id="stop233" />
      <stop
         offset=".851"
         stop-color="#2a373d"
         id="stop235" />
      <stop
         offset=".871"
         stop-color="#292929"
         id="stop237" />
    </radialGradient>
    <radialGradient
       id="k-7"
       cx="-865.30298"
       cy="1929.222"
       r="457.77301"
       gradientTransform="matrix(0.06045876,0,0,-0.06045876,64.862782,130.44667)"
       gradientUnits="userSpaceOnUse">
      <stop
         offset="0"
         stop-color="#e6e6e6"
         id="stop242" />
      <stop
         offset=".104"
         stop-color="#d6d6d6"
         id="stop244" />
      <stop
         offset=".307"
         stop-color="#adadad"
         id="stop246" />
      <stop
         offset=".588"
         stop-color="#6c6c6c"
         id="stop248" />
      <stop
         offset=".933"
         stop-color="#121212"
         id="stop250" />
      <stop
         offset="1"
         id="stop252" />
    </radialGradient>
    <linearGradient
       id="l"
       gradientUnits="userSpaceOnUse"
       x1="-599.09601"
       y1="2043.521"
       x2="-152.677"
       y2="1612.1331"
       gradientTransform="matrix(0.06045876,0,0,-0.06045876,64.862782,130.44667)">
      <stop
         offset="0"
         stop-color="#f0f4ff"
         id="stop257" />
      <stop
         offset=".109"
         stop-color="#ebeff9"
         id="stop259" />
      <stop
         offset=".247"
         stop-color="#dce0ea"
         id="stop261" />
      <stop
         offset=".403"
         stop-color="#c4c7cf"
         id="stop263" />
      <stop
         offset=".57"
         stop-color="#a2a4ab"
         id="stop265" />
      <stop
         offset=".747"
         stop-color="#76777c"
         id="stop267" />
      <stop
         offset=".929"
         stop-color="#414243"
         id="stop269" />
      <stop
         offset="1"
         stop-color="#2b2b2b"
         id="stop271" />
    </linearGradient>
    <linearGradient
       id="m-5"
       gradientUnits="userSpaceOnUse"
       x1="-961.44"
       y1="1679.306"
       x2="-515.01501"
       y2="1247.911"
       gradientTransform="matrix(0.06045876,0,0,-0.06045876,64.862782,130.44667)">
      <stop
         offset="0"
         stop-color="#f0f4ff"
         id="stop278" />
      <stop
         offset=".109"
         stop-color="#ebeff9"
         id="stop280" />
      <stop
         offset=".247"
         stop-color="#dce0ea"
         id="stop282" />
      <stop
         offset=".403"
         stop-color="#c4c7cf"
         id="stop284" />
      <stop
         offset=".57"
         stop-color="#a2a4ab"
         id="stop286" />
      <stop
         offset=".747"
         stop-color="#76777c"
         id="stop288" />
      <stop
         offset=".929"
         stop-color="#414243"
         id="stop290" />
      <stop
         offset="1"
         stop-color="#2b2b2b"
         id="stop292" />
    </linearGradient>
    <linearGradient
       id="n"
       gradientUnits="userSpaceOnUse"
       x1="-745.47101"
       y1="1833.135"
       x2="-513.98199"
       y2="1609.4399"
       gradientTransform="matrix(0.06045876,0,0,-0.06045876,64.862782,130.44667)">
      <stop
         offset="0"
         stop-color="#c2d7e8"
         id="stop299" />
      <stop
         offset=".134"
         stop-color="#bacfe1"
         id="stop301" />
      <stop
         offset=".343"
         stop-color="#a4bacd"
         id="stop303" />
      <stop
         offset=".6"
         stop-color="#8098ac"
         id="stop305" />
      <stop
         offset=".894"
         stop-color="#4e697f"
         id="stop307" />
      <stop
         offset="1"
         stop-color="#3a566d"
         id="stop309" />
    </linearGradient>
    <linearGradient
       id="o-3"
       gradientUnits="userSpaceOnUse"
       x1="-861.40399"
       y1="1778.3199"
       x2="-419.47299"
       y2="1351.2679"
       gradientTransform="matrix(0.06045876,0,0,-0.06045876,64.862782,130.44667)">
      <stop
         offset="0"
         stop-color="#f0f4ff"
         id="stop314" />
      <stop
         offset=".097"
         stop-color="#e8ebf6"
         id="stop316" />
      <stop
         offset=".257"
         stop-color="#d1d4dd"
         id="stop318" />
      <stop
         offset=".459"
         stop-color="#abaeb5"
         id="stop320" />
      <stop
         offset=".695"
         stop-color="#78797d"
         id="stop322" />
      <stop
         offset=".958"
         stop-color="#363637"
         id="stop324" />
      <stop
         offset="1"
         stop-color="#2b2b2b"
         id="stop326" />
    </linearGradient>
    <linearGradient
       id="p"
       gradientUnits="userSpaceOnUse"
       x1="-535.67401"
       y1="1619.907"
       x2="-380.65601"
       y2="1470.109"
       gradientTransform="matrix(0.06045876,0,0,-0.06045876,64.862782,130.44667)">
      <stop
         offset="0"
         stop-color="#d9def0"
         id="stop331" />
      <stop
         offset=".123"
         stop-color="#d4daec"
         id="stop333" />
      <stop
         offset=".263"
         stop-color="#c7cfe2"
         id="stop335" />
      <stop
         offset=".411"
         stop-color="#b0bcd1"
         id="stop337" />
      <stop
         offset=".566"
         stop-color="#90a1b8"
         id="stop339" />
      <stop
         offset=".725"
         stop-color="#677f99"
         id="stop341" />
      <stop
         offset=".885"
         stop-color="#355674"
         id="stop343" />
      <stop
         offset=".972"
         stop-color="#173d5d"
         id="stop345" />
    </linearGradient>
    <linearGradient
       id="q-8"
       gradientUnits="userSpaceOnUse"
       x1="-694.25098"
       y1="1940.3979"
       x2="-252.797"
       y2="1513.809"
       gradientTransform="matrix(0.06045876,0,0,-0.06045876,64.862782,130.44667)">
      <stop
         offset="0"
         stop-color="#f0f4ff"
         id="stop350" />
      <stop
         offset=".109"
         stop-color="#ebeff9"
         id="stop352" />
      <stop
         offset=".247"
         stop-color="#dce0ea"
         id="stop354" />
      <stop
         offset=".403"
         stop-color="#c4c7cf"
         id="stop356" />
      <stop
         offset=".57"
         stop-color="#a2a4ab"
         id="stop358" />
      <stop
         offset=".747"
         stop-color="#76777c"
         id="stop360" />
      <stop
         offset=".929"
         stop-color="#414243"
         id="stop362" />
      <stop
         offset="1"
         stop-color="#2b2b2b"
         id="stop364" />
    </linearGradient>
    <clipPath
       id="b-3">
      <use
         height="100%"
         width="100%"
         y="0"
         x="0"
         style="overflow:visible"
         xlink:href="#a-0"
         overflow="visible"
         id="use11" />
    </clipPath>
    <linearGradient
       id="c-8"
       gradientUnits="userSpaceOnUse"
       x1="-2310.491"
       y1="-610.65302"
       x2="-1743.5031"
       y2="-68.653999"
       gradientTransform="matrix(0.4949,0,0,0.4949,1691.245,655.838)">
      <stop
         offset="0"
         stop-color="#8c8c8c"
         id="stop14-6" />
      <stop
         offset=".5"
         stop-color="#464646"
         id="stop16-0" />
      <stop
         offset=".75"
         stop-color="#fff"
         id="stop18-4" />
      <stop
         offset="1"
         stop-color="#fff"
         id="stop20-8" />
    </linearGradient>
    <radialGradient
       id="d-8"
       cx="-2079.394"
       cy="525.41302"
       r="98"
       gradientTransform="matrix(0.20775639,0,0,-0.22207081,464.54999,149.93117)"
       gradientUnits="userSpaceOnUse">
      <stop
         offset="0"
         stop-color="#e60a47"
         id="stop29" />
      <stop
         offset="1"
         stop-color="#7c0626"
         id="stop31" />
    </radialGradient>
    <radialGradient
       id="e-8"
       cx="-1672.399"
       cy="327.422"
       r="55"
       gradientTransform="matrix(1.3933,0,0,-1.0181,2385.16,367.197)"
       gradientUnits="userSpaceOnUse">
      <stop
         offset="0"
         stop-color="#d3d1d2"
         id="stop50" />
      <stop
         offset=".5"
         stop-color="#c9c7c8"
         id="stop52" />
      <stop
         offset="1"
         stop-color="#8d8b8c"
         id="stop54" />
    </radialGradient>
    <radialGradient
       id="f-9"
       cx="-1672.399"
       cy="327.422"
       r="55"
       gradientTransform="matrix(1.3933,0,0,-1.0181,2385.16,367.197)"
       gradientUnits="userSpaceOnUse">
      <stop
         offset="0"
         stop-color="#d3d1d2"
         id="stop59-7" />
      <stop
         offset=".5"
         stop-color="#c9c7c8"
         id="stop61-7" />
      <stop
         offset="1"
         stop-color="#8d8b8c"
         id="stop63-6" />
    </radialGradient>
    <radialGradient
       id="g-4"
       cx="-1672.399"
       cy="327.422"
       r="55"
       gradientTransform="matrix(1.3933,0,0,-1.0181,2385.16,367.197)"
       gradientUnits="userSpaceOnUse">
      <stop
         offset="0"
         stop-color="#d3d1d2"
         id="stop68" />
      <stop
         offset=".5"
         stop-color="#c9c7c8"
         id="stop70-3" />
      <stop
         offset="1"
         stop-color="#8d8b8c"
         id="stop72-0" />
    </radialGradient>
    <radialGradient
       id="h-3"
       cx="-1672.399"
       cy="327.423"
       r="54.998001"
       gradientTransform="matrix(1.3933,0,0,-1.0181,2385.16,367.197)"
       gradientUnits="userSpaceOnUse">
      <stop
         offset="0"
         stop-color="#d3d1d2"
         id="stop77" />
      <stop
         offset=".5"
         stop-color="#c9c7c8"
         id="stop79" />
      <stop
         offset="1"
         stop-color="#8d8b8c"
         id="stop81" />
    </radialGradient>
    <path
       inkscape:connector-curvature="0"
       id="a-0"
       d="m 1094.29,667.165 c 0.101,-1.012 0.221,-1.966 0.332,-2.984 3.268,-32.552 4.767,-23.841 -0.332,2.984 z M 607.449,803.749 c 0,0 25.906,23.892 44.403,41.494 10e-4,0 -24.667,-13.828 -44.403,-41.494 z m -6.894,-317.058 c 14.668,-29.588 29.101,-48.843 29.101,-48.843 0,0 -13.754,20.747 -29.101,48.843 z m 480.497,284.368 -4.821,14.047 43.051,-15.304 -41.651,21.347 42.3,25.102 -46.488,-19.06 7.44,46.485 -15.093,-44.904 -10.939,3.09 c -22.941,34.107 -54.46,51.176 -94.119,70.2 -73.72,35.372 -171.977,25.992 -171.977,25.992 0,0 115.999,-1.476 204.73,-54.071 18.327,-10.862 33.605,-25.925 46.287,-42.948 l -19.15,-1.056 21.949,-2.8 a 219.328,219.328 0 0 0 5.991,-8.89 l -25.481,-14.72 27.49,11.541 a 264.99,264.99 0 0 0 8.052,-13.976 l -10.87,-34.028 12.847,30.285 c 19.042,-36.827 29.072,-75.95 33.69,-100.226 -5.329,50.816 -14.629,87.039 -27.771,114.21 l 0.961,2.256 c 0,0 48.099,-62.868 39.471,-165.977 -8.632,-103.109 -33.3,-139.574 -57.972,-164.722 l -1.228,12.577 c 0,0 -35.763,-106.886 -213.364,-104.366 -177.604,2.518 -191.17,60.35 -191.17,60.35 l -9.866,5.04 c 0,0 -41.931,32.682 -67.832,119.449 -25.903,86.761 -1.235,157.176 -1.235,157.176 0,0 -13.565,-57.84 -3.698,-116.937 5.112,-30.626 23.46,-69.325 39.968,-99.529 -12.117,24.431 -24.402,55.908 -28.867,89.47 -9.872,74.188 -7.403,124.483 4.929,162.202 12.332,37.719 19.735,54.071 19.735,54.071 0,0 -51.798,-60.36 -53.032,-188.613 -1.234,-128.259 107.297,-216.274 155.396,-235.137 48.101,-18.86 199.801,-44.004 291.065,20.117 91.271,64.129 85.101,80.471 114.7,139.578 29.61,59.097 17.272,178.55 -23.428,242.679 z m -21.601,23.52 c -0.099,0.164 -0.189,0.328 -0.29,0.484 l 0.922,-0.116 z m 4.239,-7.57 c -0.519,0.983 -1.038,1.987 -1.569,2.948 l 2.899,1.22 z m -434.034,5.425 c 7.396,12.575 45.629,35.208 45.629,35.208 0,0 -20.969,-12.579 -44.398,-40.241 -23.438,-27.66 8.634,2.516 51.802,31.439 43.164,28.917 103.597,26.401 103.597,26.401 0,0 -19.729,15.091 -94.965,-8.803 l 72.767,31.437 c 0,0 -110.997,-23.891 -143.066,-69.156 -32.073,-45.265 1.229,-18.86 8.634,-6.285 z m 371.255,3.976 c 13.608,-14.132 23.409,-26.608 23.409,-26.608 0,0 -4.01,12.711 -23.409,26.608 z M 579.086,611.364 c 13.566,-133.285 70.302,-189.872 70.302,-189.872 0,0 43.164,-42.749 177.598,-49.034 134.429,-6.286 177.604,46.522 181.306,55.324 3.698,8.802 -17.275,-5.026 -23.44,-2.51 -6.165,2.51 19.738,49.038 19.738,49.038 -13.569,-50.297 7.4,7.543 20.962,1.253 13.569,-6.281 -27.133,-22.631 -13.562,-35.206 13.562,-12.575 41.92,76.702 60.431,116.941 18.499,40.235 12.33,81.73 11.101,108.137 -1.229,26.407 -7.4,37.723 -7.4,37.723 l -3.7,-62.876 c 0,0 2.471,-8.796 -17.27,35.216 l -16.03,42.749 c -11.099,-196.159 -55.507,-270.351 -55.507,-270.351 0,0 -16.03,-49.032 -145.531,-50.293 -129.496,-1.249 -148,32.7 -148,32.7 -41.93,55.324 -66.598,173.52 -60.426,251.475 6.164,77.961 0,99.342 55.496,123.232 55.5,23.887 139.364,26.407 139.364,26.407 100.733,2.832 151.375,-17.074 176.395,-35.005 a 314.522,314.522 0 0 1 -9.895,9.851 c -18.499,17.601 -189.934,54.071 -279.964,18.864 -90.032,-35.208 -96.199,-69.156 -90.032,-172.266 6.169,-103.109 38.235,-188.609 60.434,-221.305 22.199,-32.692 101.134,-42.753 101.134,-42.753 -107.302,2.518 -119.634,59.093 -125.802,69.163 -6.168,10.059 -24.668,30.18 -28.367,13.828 -3.698,-16.344 -36.859,83.609 -30.691,88.641 6.164,5.03 44.257,-50.923 44.257,-50.923 0,0 -13.566,27.668 -27.132,105.625 -13.567,77.957 7.397,116.937 -6.169,119.453 -13.566,2.516 16.871,-115.034 -21.984,-120.262 -11.071,-1.492 -1.884,103.965 3.055,125.34 4.93,21.38 10.301,27.619 10.301,27.619 0,0 -34.537,-22.639 -20.972,-155.923" />
  </defs>
  <sodipodi:namedview
     pagecolor="#ffffff"
     bordercolor="#666666"
     borderopacity="1"
     objecttolerance="10"
     gridtolerance="10"
     guidetolerance="10"
     inkscape:pageopacity="0"
     inkscape:pageshadow="2"
     inkscape:window-width="1920"
     inkscape:window-height="1052"
     id="namedview235"
     showgrid="false"
     inkscape:zoom="0.0944"
     inkscape:cx="1250"
     inkscape:cy="1250"
     inkscape:window-x="0"
     inkscape:window-y="0"
     inkscape:window-maximized="1"
     inkscape:current-layer="mb-stern_x5F_10" />
  <style
     id="style2">.st0{fill:url(#outer_1_)}.st1{fill:url(#SVGID_1_)}.st2{opacity:.4;fill:url(#SVGID_2_);enable-background:new}.st3{fill:#fff}.st4{opacity:.4;fill:url(#SVGID_3_);enable-background:new}.st5{fill:#565f64}.st6{fill:url(#SVGID_4_)}.st7{fill:#a4aaae;fill-opacity:.6}.st8{fill:#333e46}.st9{fill:url(#SVGID_5_)}.st10{fill:url(#SVGID_6_);fill-opacity:.8}.st11{opacity:.8;fill:url(#SVGID_7_);enable-background:new}.st12{fill:url(#SVGID_8_)}.st13{fill:url(#SVGID_9_)}.st14{fill:url(#SVGID_10_)}.st15{fill:url(#SVGID_11_)}.st16{fill:url(#SVGID_12_)}.st17{fill:url(#SVGID_13_)}.st18{fill:url(#SVGID_14_)}.st19{fill:#fbfbfb}.st20{fill:#333f47}</style>
  <linearGradient
     id="outer_1_"
     gradientUnits="userSpaceOnUse"
     x1="7.998"
     y1="54.102"
     x2="56.002"
     y2="13.898"
     gradientTransform="matrix(1 0 0 -1 0 66)">
    <stop
       offset="0"
       stop-color="#fff"
       id="stop4" />
    <stop
       offset=".1"
       stop-color="#e7e8e6"
       id="stop6" />
    <stop
       offset=".1"
       stop-color="#cdd0d0"
       id="stop8" />
    <stop
       offset=".2"
       stop-color="#b5bbbd"
       id="stop10" />
    <stop
       offset=".2"
       stop-color="#a5acaf"
       id="stop12" />
    <stop
       offset=".3"
       stop-color="#9ba3a7"
       id="stop14" />
    <stop
       offset=".3"
       stop-color="#98a0a4"
       id="stop16" />
    <stop
       offset=".4"
       stop-color="#828a8f"
       id="stop18" />
    <stop
       offset=".5"
       stop-color="#667075"
       id="stop20" />
    <stop
       offset=".6"
       stop-color="#535c63"
       id="stop22" />
    <stop
       offset=".7"
       stop-color="#475158"
       id="stop24" />
    <stop
       offset=".8"
       stop-color="#434d54"
       id="stop26" />
    <stop
       offset="1"
       stop-color="#475157"
       id="stop28" />
  </linearGradient>
  <linearGradient
     id="SVGID_1_"
     gradientUnits="userSpaceOnUse"
     x1="9.471"
     y1="52.941"
     x2="54.471"
     y2="15.141"
     gradientTransform="matrix(1 0 0 -1 0 66)">
    <stop
       offset="0"
       stop-color="#0b1f2a"
       id="stop32" />
    <stop
       offset=".2"
       stop-color="#333f47"
       id="stop34" />
    <stop
       offset=".5"
       stop-color="#777f84"
       id="stop36" />
    <stop
       offset=".5"
       stop-color="#81898d"
       id="stop38" />
    <stop
       offset=".7"
       stop-color="#b3b8b8"
       id="stop40" />
    <stop
       offset=".8"
       stop-color="#d2d5d3"
       id="stop42" />
    <stop
       offset=".8"
       stop-color="#dee0dd"
       id="stop44" />
    <stop
       offset="1"
       stop-color="#fbfbfb"
       id="stop46" />
  </linearGradient>
  <linearGradient
     id="SVGID_2_"
     gradientUnits="userSpaceOnUse"
     x1="1648.736"
     y1="-160.944"
     x2="1670.636"
     y2="-221.143"
     gradientTransform="matrix(-1 0 0 1 1691.673 223.007)">
    <stop
       offset="0"
       stop-color="#e1e3e1"
       id="stop51" />
    <stop
       offset=".1"
       stop-color="#c1c5c4"
       id="stop53" />
    <stop
       offset=".3"
       stop-color="#9ba1a2"
       id="stop55" />
    <stop
       offset=".5"
       stop-color="#7d8487"
       id="stop57" />
    <stop
       offset=".7"
       stop-color="#687074"
       stop-opacity="0"
       id="stop59" />
    <stop
       offset=".8"
       stop-color="#5b6469"
       stop-opacity="0"
       id="stop61" />
    <stop
       offset="1"
       stop-color="#576065"
       stop-opacity="0"
       id="stop63" />
  </linearGradient>
  <linearGradient
     id="SVGID_3_"
     gradientUnits="userSpaceOnUse"
     x1="18.201"
     y1="57.899"
     x2="45.799"
     y2="10.101"
     gradientTransform="matrix(1 0 0 -1 0 66)">
    <stop
       offset="0"
       stop-color="#e1e3e1"
       id="stop70" />
    <stop
       offset=".1"
       stop-color="#c1c5c4"
       id="stop72" />
    <stop
       offset=".3"
       stop-color="#9ba1a2"
       id="stop74" />
    <stop
       offset=".5"
       stop-color="#7d8487"
       id="stop76" />
    <stop
       offset=".7"
       stop-color="#687074"
       stop-opacity="0"
       id="stop78" />
    <stop
       offset=".8"
       stop-color="#5b6469"
       stop-opacity="0"
       id="stop80" />
    <stop
       offset="1"
       stop-color="#576065"
       stop-opacity="0"
       id="stop82" />
  </linearGradient>
  <linearGradient
     id="SVGID_4_"
     gradientUnits="userSpaceOnUse"
     x1="44.488"
     y1="26.607"
     x2="42.788"
     y2="23.807"
     gradientTransform="matrix(1 0 0 -1 0 66)">
    <stop
       offset="0"
       stop-color="#27343c"
       id="stop91" />
    <stop
       offset="1"
       stop-color="#00111e"
       stop-opacity="0"
       id="stop93" />
  </linearGradient>
  <linearGradient
     id="SVGID_5_"
     gradientUnits="userSpaceOnUse"
     x1="39.58"
     y1="36.888"
     x2="36.78"
     y2="41.388"
     gradientTransform="matrix(1 0 0 -1 0 66)">
    <stop
       offset=".1"
       stop-color="#02131f"
       id="stop108" />
    <stop
       offset=".9"
       stop-color="#02131f"
       stop-opacity="0"
       id="stop110" />
  </linearGradient>
  <linearGradient
     id="SVGID_6_"
     gradientUnits="userSpaceOnUse"
     x1="31.982"
     y1="29.664"
     x2="27.782"
     y2="28.464"
     gradientTransform="matrix(1 0 0 -1 0 66)">
    <stop
       offset=".2"
       stop-color="#02131f"
       id="stop115" />
    <stop
       offset=".9"
       stop-color="#02131f"
       stop-opacity="0"
       id="stop117" />
  </linearGradient>
  <linearGradient
     id="SVGID_7_"
     gradientUnits="userSpaceOnUse"
     x1="20.791"
     y1="24.096"
     x2="20.191"
     y2="25.596"
     gradientTransform="matrix(1 0 0 -1 0 66)">
    <stop
       offset="0"
       stop-color="#02131f"
       id="stop122" />
    <stop
       offset=".1"
       stop-color="#02131f"
       id="stop124" />
    <stop
       offset="1"
       stop-color="#02131f"
       stop-opacity="0"
       id="stop126" />
  </linearGradient>
  <linearGradient
     id="SVGID_8_"
     gradientUnits="userSpaceOnUse"
     x1="35.602"
     y1="48.786"
     x2="32.202"
     y2="48.386"
     gradientTransform="matrix(1 0 0 -1 0 66)">
    <stop
       offset=".3"
       stop-color="#02131f"
       id="stop131" />
    <stop
       offset=".3"
       stop-color="#02131f"
       id="stop133" />
    <stop
       offset=".8"
       stop-color="#02131f"
       stop-opacity="0"
       id="stop135" />
  </linearGradient>
  <linearGradient
     id="SVGID_9_"
     gradientUnits="userSpaceOnUse"
     x1="35.708"
     y1="48.843"
     x2="33.407"
     y2="48.543"
     gradientTransform="matrix(1 0 0 -1 0 66)">
    <stop
       offset=".4"
       stop-color="#27343c"
       id="stop140" />
    <stop
       offset="1"
       stop-color="#3b474e"
       stop-opacity="0"
       id="stop142" />
  </linearGradient>
  <linearGradient
     id="SVGID_10_"
     gradientUnits="userSpaceOnUse"
     x1="-.36"
     y1="33.169"
     x2="27.54"
     y2="17.069"
     gradientTransform="matrix(1 0 0 -1 0 66)">
    <stop
       offset="0"
       stop-color="#24303a"
       stop-opacity="0"
       id="stop147" />
    <stop
       offset="0"
       stop-color="#25323b"
       stop-opacity="0"
       id="stop149" />
    <stop
       offset=".1"
       stop-color="#27343c"
       id="stop151" />
  </linearGradient>
  <linearGradient
     id="SVGID_11_"
     gradientUnits="userSpaceOnUse"
     x1="31.95"
     y1="28.6"
     x2="31.95"
     y2="33.4"
     gradientTransform="matrix(1 0 0 -1 0 66)">
    <stop
       offset=".3"
       stop-color="#a5abaf"
       id="stop156" />
    <stop
       offset="1"
       stop-color="#a5abaf"
       stop-opacity="0"
       id="stop158" />
  </linearGradient>
  <linearGradient
     id="SVGID_12_"
     gradientUnits="userSpaceOnUse"
     x1="47.65"
     y1="63.7"
     x2="47.65"
     y2="2.7"
     gradientTransform="matrix(1 0 0 -1 0 66)">
    <stop
       offset="0"
       stop-color="#dee0dd"
       id="stop163" />
    <stop
       offset="0"
       stop-color="#c5c9c7"
       id="stop165" />
    <stop
       offset="0"
       stop-color="#9ea4a5"
       id="stop167" />
    <stop
       offset="0"
       stop-color="#82898c"
       id="stop169" />
    <stop
       offset="0"
       stop-color="#71797d"
       id="stop171" />
    <stop
       offset="0"
       stop-color="#6b7378"
       id="stop173" />
    <stop
       offset=".2"
       stop-color="#333f47"
       id="stop175" />
    <stop
       offset=".5"
       stop-color="#27343c"
       id="stop177" />
    <stop
       offset=".8"
       stop-color="#333f47"
       id="stop179" />
    <stop
       offset="1"
       stop-color="#434d54"
       id="stop181" />
  </linearGradient>
  <linearGradient
     id="SVGID_13_"
     gradientUnits="userSpaceOnUse"
     x1="32"
     y1="65.3"
     x2="32.3"
     y2="65.3"
     gradientTransform="matrix(1 0 0 -1 0 66)">
    <stop
       offset="0"
       stop-color="#dee0dd"
       id="stop186" />
    <stop
       offset="0"
       stop-color="#c5c9c7"
       id="stop188" />
    <stop
       offset="0"
       stop-color="#9ea4a5"
       id="stop190" />
    <stop
       offset="0"
       stop-color="#82898c"
       id="stop192" />
    <stop
       offset="0"
       stop-color="#71797d"
       id="stop194" />
    <stop
       offset="0"
       stop-color="#6b7378"
       id="stop196" />
    <stop
       offset=".2"
       stop-color="#333f47"
       id="stop198" />
    <stop
       offset=".5"
       stop-color="#27343c"
       id="stop200" />
    <stop
       offset=".8"
       stop-color="#333f47"
       id="stop202" />
    <stop
       offset="1"
       stop-color="#434d54"
       id="stop204" />
  </linearGradient>
  <linearGradient
     id="SVGID_14_"
     gradientUnits="userSpaceOnUse"
     x1="57.289"
     y1="57.907"
     x2="43.789"
     y2="38.107"
     gradientTransform="matrix(1 0 0 -1 0 66)">
    <stop
       offset=".7"
       stop-color="#27343c"
       id="stop209" />
    <stop
       offset=".7"
       stop-color="#2b373f"
       id="stop211" />
    <stop
       offset=".7"
       stop-color="#36424a"
       id="stop213" />
    <stop
       offset=".7"
       stop-color="#49545b"
       id="stop215" />
    <stop
       offset=".8"
       stop-color="#646d73"
       stop-opacity="0"
       id="stop217" />
    <stop
       offset=".8"
       stop-color="#868d92"
       stop-opacity="0"
       id="stop219" />
    <stop
       offset=".8"
       stop-color="#b0b5b8"
       stop-opacity="0"
       id="stop221" />
    <stop
       offset=".8"
       stop-color="#e1e3e4"
       stop-opacity="0"
       id="stop223" />
    <stop
       offset=".8"
       stop-color="#fff"
       stop-opacity="0"
       id="stop225" />
  </linearGradient>
  <style
     id="style380"
     type="text/css">
	.st0{fill:#ECECEC;}
	.st1{fill:#C2C2C2;}
	.st2{clip-path:url(#XMLID_5422_);}
	.st3{fill:none;}
	.st4{fill:#FFFFFF;}
	.st5{fill:#666666;}
	.st6{fill:#B3B3B3;}
	.st7{fill:#4D4D4D;}
	.st8{fill:#FAF18E;}
	.st9{opacity:0.2;}
	.st10{fill:url(#XMLID_5423_);}
	.st11{fill:url(#path3824_4_);}
	.st12{opacity:0.56;fill:url(#path3824_5_);}
	.st13{fill:url(#XMLID_5424_);}
	.st14{opacity:0.56;}
	.st15{fill:#999999;}
</style>
  <style
     id="style32556"
     type="text/css">
	.st0{fill:url(#XMLID_74_);}
	.st1{fill:url(#XMLID_75_);}
	.st2{fill:url(#XMLID_79_);}
	.st3{fill:url(#XMLID_80_);}
	.st4{fill:url(#XMLID_81_);}
	.st5{fill:url(#XMLID_82_);}
	.st6{fill:#0E2B58;}
	.st7{fill:url(#XMLID_83_);}
	.st8{fill:#BDBCBC;}
	.st9{fill:url(#XMLID_84_);}
	.st10{fill:url(#XMLID_85_);}
	.st11{fill:url(#XMLID_86_);}
	.st12{fill:#FFFFFF;}
	.st13{fill:url(#XMLID_87_);}
	.st14{fill:url(#XMLID_88_);}
	.st15{fill:url(#XMLID_90_);}
	.st16{fill:url(#XMLID_91_);}
	.st17{fill:url(#XMLID_92_);}
	.st18{fill:url(#XMLID_96_);}
	.st19{fill:#4F4C4D;}
</style>
  <style
     id="style32950"
     type="text/css">
	.st0{fill:#FFFFFF;}
	.st1{fill:#33A457;}
	.st2{fill:#CC2131;}
	.st3{fill:#FFF22D;}
</style>
  <path
     inkscape:connector-curvature="0"
     style="fill:#231f20;stroke-width:0.20775639"
     d="m 63.186439,32.541959 c 0,16.924874 -13.720023,30.644482 -30.644067,30.644482 -16.924251,0 -30.6440674,-13.719608 -30.6440674,-30.644482 0,-16.923629 13.7198164,-30.6436539 30.6440674,-30.6436539 16.924044,0 30.644067,13.7200249 30.644067,30.6436539"
     id="path2" />
  <path
     inkscape:connector-curvature="0"
     style="fill:#bdbcbc;stroke-width:0.20775639"
     d="m 62.111093,32.541959 c 0,16.331312 -13.238446,29.569344 -29.56893,29.569344 -16.330689,0 -29.5693423,-13.238032 -29.5693423,-29.569344 0,-16.330069 13.2388613,-29.5685145 29.5695513,-29.5685145 16.330483,0 29.568721,13.2384455 29.568721,29.5685145"
     id="path4" />
  <path
     inkscape:connector-curvature="0"
     style="fill:#231f20;stroke-width:0.20775639"
     d="m 8.7609143,17.649149 c 0,0.02451 -3.2806811,0.523546 -3.2773573,0.539129 0.015992,0.08143 -0.1699443,16.876465 2.8261101,16.031315 1.9726469,-0.928256 0.9112195,-11.871825 0.9112195,-10.399871 0,2.051595 0.1992378,5.416625 0.9864284,10.701739 0.887119,5.953052 0.513157,6.694949 0.9268,7.977013 C 10.171788,41.563988 8.6746953,41.14349 8.6746953,41.14349 l 2.1228557,7.175281 1.563365,-0.01599 c 0,0 0.02244,-0.481997 0.043,-0.50485 0.04217,-4.18e-4 1.544253,0.111148 2.576178,1.999864 5.97175,10.929439 21.693923,6.726736 17.578268,6.963786 l 6.47847,-0.779916 C 20.06286,59.22765 16.503578,50.479235 15.549561,48.73263 c -0.597715,-0.875905 -2.316068,-1.793564 -3.396402,-1.271056 0,0 2.636845,0.105335 2.519671,-0.593767 0.823961,0.800275 -2.048894,-1.295153 -2.048894,-1.295153 l 0.144599,0.454363 c 0.445637,0.04508 0.244945,-0.436082 0.714266,-0.514614 l -0.58255,-0.266762 c -0.07458,-0.09141 0.323684,-0.566967 -1.098825,-10.113373 -0.781578,-5.245228 -0.62389,-9.328679 -0.62389,-11.360743 0,-1.968701 -0.128601,-2.107896 -0.124862,-2.122441 L 9.8965101,20.893889 9.6748345,20.849023 C 9.356136,20.784193 9.0403471,20.682191 8.9034351,20.606359 c 0.071055,-0.105751 0.111981,-0.246607 0.111981,-0.479087 0,-0.224999 -0.024103,-0.518145 -0.055475,-0.896676 C 8.9186,18.724085 8.9389592,16.90954 8.8689468,17.515774 5.1848031,49.48948 10.284598,13.936962 9.6582138,14.620066 l 0.3583792,-0.405957 c 1.735389,-2.003188 7.79772,-6.6814461 23.440114,-7.047098 16.541774,-0.3876732 16.616772,5.654507 16.673489,5.742802 l 4.284978,2.12244 C 54.358875,14.941457 48.792869,5.7039867 31.994103,6.0972696 16.16369,6.4679066 11.464448,11.890558 9.6954025,13.932387 l -0.3498622,0.397231 c -0.7271468,0.793214 -1.5619122,0.800485 -1.5619122,1.969115 0,0.6241 -0.6995159,1.455333 -0.6569256,1.9714 2.0422457,3.58733 1.3373272,1.814128 1.6342118,-0.620984 z M 53.996544,16.11113 c -0.361082,0.154985 -0.306441,0.740443 -0.231234,1.550277 0.05526,0.603531 0.119043,1.287674 0,1.765306 l 0.413022,0.104088 c 0.136702,-0.54827 0.06899,-1.271055 0.01034,-1.909075 -0.03718,-0.405539 -0.09474,-1.019252 -0.0083,-1.128117 0.01034,0.01393 0.129639,4.569187 1.06849,5.65513 1.492731,1.728117 0.748339,0.733795 0.748339,3.745223 0,1.484419 1.110458,3.214615 1.066206,3.820433 -0.553046,-0.700347 -0.71032,-2.501804 -0.851178,-4.117732 -0.164751,-1.88165 -0.305608,-3.506097 -0.974586,-4.045848 0.824585,-0.7232 -2.041206,-4.512468 -1.845498,-1.946469 0.134625,0.897507 -0.304365,-2.015237 -0.941761,-3.006859 -1.952029,-3.038438 -5.996838,-6.58858 -20.051558,-7.0766 C 19.514812,9.073588 13.12942,14.36182 11.488146,15.975048 l 0.213156,-0.367936 -2.0935603,-1.079087 -0.5923126,6.26801 0.8960525,-1.414198 c 0,0 1.4463994,-2.622924 1.4729934,-2.68442 0.22583,-0.266136 6.330752,-7.2577627 20.999184,-6.7483443 15.635745,0.5426593 18.490318,4.9842853 19.70985,6.8808933 0.587117,0.914543 0.741275,1.936498 0.878185,2.83816 0.178673,1.187535 0.349448,2.308796 1.682828,2.129503 0.122576,-0.016 0.223129,0.01143 0.316827,0.08726 0.528326,0.425693 0.674377,2.115168 0.817314,3.748549 0.186981,2.16129 0.366067,4.202288 1.358935,4.702567 l 0.27673,0.139611 0.02971,-0.310597 c 0.0374,-0.396604 0.893561,-9.738996 -1.751801,-12.801948 -1.041692,-1.206026 -1.425418,-1.372854 -1.705681,-1.251939 z m 5.65513,7.74391 a 17.555207,17.555207 0 0 0 -1.198755,-3.607066 c 0.300415,0.692453 0.780539,1.926732 1.198755,3.607066 z m -1.198549,-3.607066 a 13.640246,13.640246 0 0 0 -0.18698,-0.417176 c 0.06877,0.139613 0.124238,0.277771 0.18698,0.417176 z m -1.33234,-3.093078 c 3.4955,3.37064 2.868284,12.067945 2.868284,12.067945 L 58.28879,27.247288 v 8.427013 l -1.177147,2.369671 C 55.018291,49.23643 50.048549,59.112132 30.559544,58.585262 11.071165,58.058599 8.0632686,47.656445 6.2318957,37.78095 4.4007307,27.905666 7.0165918,17.108359 7.0165918,17.108359 1.2613236,34.225616 8.0632686,47.129573 8.0632686,47.129573 c 0,0 3.2694624,12.113861 23.4122744,11.982559 C 51.617319,58.980622 54.757139,47.78816 54.757139,47.78816 l 0.366067,2.825071 c 0,0 4.678676,-4.279988 6.116972,-13.233872 0.729017,-4.53283 -2.087952,-18.265942 -4.119393,-20.224463 z m 1.145151,2.675902 c -0.06774,-0.142312 -0.10907,-0.220636 -0.10907,-0.220636 0.03823,0.07396 0.07313,0.147506 0.10907,0.220636"
     id="path6" />
  <g
     transform="matrix(0.10280825,0,0,-0.10280825,-52.93027,96.532586)"
     id="g27">
    <defs
       id="defs9">
      <path
         inkscape:connector-curvature="0"
         id="path33288"
         d="m 1094.29,667.165 c 0.101,-1.012 0.221,-1.966 0.332,-2.984 3.268,-32.552 4.767,-23.841 -0.332,2.984 z M 607.449,803.749 c 0,0 25.906,23.892 44.403,41.494 10e-4,0 -24.667,-13.828 -44.403,-41.494 z m -6.894,-317.058 c 14.668,-29.588 29.101,-48.843 29.101,-48.843 0,0 -13.754,20.747 -29.101,48.843 z m 480.497,284.368 -4.821,14.047 43.051,-15.304 -41.651,21.347 42.3,25.102 -46.488,-19.06 7.44,46.485 -15.093,-44.904 -10.939,3.09 c -22.941,34.107 -54.46,51.176 -94.119,70.2 -73.72,35.372 -171.977,25.992 -171.977,25.992 0,0 115.999,-1.476 204.73,-54.071 18.327,-10.862 33.605,-25.925 46.287,-42.948 l -19.15,-1.056 21.949,-2.8 a 219.328,219.328 0 0 0 5.991,-8.89 l -25.481,-14.72 27.49,11.541 a 264.99,264.99 0 0 0 8.052,-13.976 l -10.87,-34.028 12.847,30.285 c 19.042,-36.827 29.072,-75.95 33.69,-100.226 -5.329,50.816 -14.629,87.039 -27.771,114.21 l 0.961,2.256 c 0,0 48.099,-62.868 39.471,-165.977 -8.632,-103.109 -33.3,-139.574 -57.972,-164.722 l -1.228,12.577 c 0,0 -35.763,-106.886 -213.364,-104.366 -177.604,2.518 -191.17,60.35 -191.17,60.35 l -9.866,5.04 c 0,0 -41.931,32.682 -67.832,119.449 -25.903,86.761 -1.235,157.176 -1.235,157.176 0,0 -13.565,-57.84 -3.698,-116.937 5.112,-30.626 23.46,-69.325 39.968,-99.529 -12.117,24.431 -24.402,55.908 -28.867,89.47 -9.872,74.188 -7.403,124.483 4.929,162.202 12.332,37.719 19.735,54.071 19.735,54.071 0,0 -51.798,-60.36 -53.032,-188.613 -1.234,-128.259 107.297,-216.274 155.396,-235.137 48.101,-18.86 199.801,-44.004 291.065,20.117 91.271,64.129 85.101,80.471 114.7,139.578 29.61,59.097 17.272,178.55 -23.428,242.679 z m -21.601,23.52 c -0.099,0.164 -0.189,0.328 -0.29,0.484 l 0.922,-0.116 z m 4.239,-7.57 c -0.519,0.983 -1.038,1.987 -1.569,2.948 l 2.899,1.22 z m -434.034,5.425 c 7.396,12.575 45.629,35.208 45.629,35.208 0,0 -20.969,-12.579 -44.398,-40.241 -23.438,-27.66 8.634,2.516 51.802,31.439 43.164,28.917 103.597,26.401 103.597,26.401 0,0 -19.729,15.091 -94.965,-8.803 l 72.767,31.437 c 0,0 -110.997,-23.891 -143.066,-69.156 -32.073,-45.265 1.229,-18.86 8.634,-6.285 z m 371.255,3.976 c 13.608,-14.132 23.409,-26.608 23.409,-26.608 0,0 -4.01,12.711 -23.409,26.608 z M 579.086,611.364 c 13.566,-133.285 70.302,-189.872 70.302,-189.872 0,0 43.164,-42.749 177.598,-49.034 134.429,-6.286 177.604,46.522 181.306,55.324 3.698,8.802 -17.275,-5.026 -23.44,-2.51 -6.165,2.51 19.738,49.038 19.738,49.038 -13.569,-50.297 7.4,7.543 20.962,1.253 13.569,-6.281 -27.133,-22.631 -13.562,-35.206 13.562,-12.575 41.92,76.702 60.431,116.941 18.499,40.235 12.33,81.73 11.101,108.137 -1.229,26.407 -7.4,37.723 -7.4,37.723 l -3.7,-62.876 c 0,0 2.471,-8.796 -17.27,35.216 l -16.03,42.749 c -11.099,-196.159 -55.507,-270.351 -55.507,-270.351 0,0 -16.03,-49.032 -145.531,-50.293 -129.496,-1.249 -148,32.7 -148,32.7 -41.93,55.324 -66.598,173.52 -60.426,251.475 6.164,77.961 0,99.342 55.496,123.232 55.5,23.887 139.364,26.407 139.364,26.407 100.733,2.832 151.375,-17.074 176.395,-35.005 a 314.522,314.522 0 0 1 -9.895,9.851 c -18.499,17.601 -189.934,54.071 -279.964,18.864 -90.032,-35.208 -96.199,-69.156 -90.032,-172.266 6.169,-103.109 38.235,-188.609 60.434,-221.305 22.199,-32.692 101.134,-42.753 101.134,-42.753 -107.302,2.518 -119.634,59.093 -125.802,69.163 -6.168,10.059 -24.668,30.18 -28.367,13.828 -3.698,-16.344 -36.859,83.609 -30.691,88.641 6.164,5.03 44.257,-50.923 44.257,-50.923 0,0 -13.566,27.668 -27.132,105.625 -13.567,77.957 7.397,116.937 -6.169,119.453 -13.566,2.516 16.871,-115.034 -21.984,-120.262 -11.071,-1.492 -1.884,103.965 3.055,125.34 4.93,21.38 10.301,27.619 10.301,27.619 0,0 -34.537,-22.639 -20.972,-155.923" />
    </defs>
    <clipPath
       id="clipPath139">
      <use
         height="100%"
         width="100%"
         y="0"
         x="0"
         style="overflow:visible"
         xlink:href="#a-0"
         overflow="visible"
         id="use137" />
    </clipPath>
    <g
       clip-path="url(#b-3)"
       id="g25">
      <linearGradient
         id="linearGradient149"
         gradientUnits="userSpaceOnUse"
         x1="-2310.491"
         y1="-610.65302"
         x2="-1743.5031"
         y2="-68.653999"
         gradientTransform="matrix(0.4949,0,0,0.4949,1691.245,655.838)">
        <stop
           offset="0"
           stop-color="#8c8c8c"
           id="stop141" />
        <stop
           offset=".5"
           stop-color="#464646"
           id="stop143-9" />
        <stop
           offset=".75"
           stop-color="#fff"
           id="stop145-2" />
        <stop
           offset="1"
           stop-color="#fff"
           id="stop147-5" />
      </linearGradient>
      <path
         style="fill:url(#c-8)"
         inkscape:connector-curvature="0"
         d="m 1094.29,667.165 c 0.229,-0.334 0,0 0,0 z M 607.449,803.749 c 0,0 25.906,23.892 44.403,41.494 10e-4,0 -24.667,-13.828 -44.403,-41.494 z m -6.894,-317.058 c 14.668,-29.588 29.101,-48.843 29.101,-48.843 0,0 -13.754,20.747 -29.101,48.843 z m 480.497,284.368 -4.821,14.047 43.051,-15.304 -41.651,21.347 42.3,25.102 -46.488,-19.06 7.44,46.485 -15.093,-44.904 -10.939,3.09 c -22.941,34.107 -54.46,51.176 -94.119,70.2 -73.72,35.372 -171.977,25.992 -171.977,25.992 0,0 115.999,-1.476 204.73,-54.071 18.327,-10.862 33.605,-25.925 46.287,-42.948 l -19.15,-1.056 21.949,-2.8 a 219.328,219.328 0 0 0 5.991,-8.89 l -25.481,-14.72 27.49,11.541 a 264.99,264.99 0 0 0 8.052,-13.976 l -10.87,-34.028 12.847,30.285 c 19.042,-36.827 29.072,-75.95 33.69,-100.226 -5.329,50.816 -14.629,87.039 -27.771,114.21 l 0.961,2.256 c 0,0 48.099,-62.868 39.471,-165.977 -8.632,-103.109 -33.3,-139.574 -57.972,-164.722 l -1.228,12.577 c 0,0 -35.763,-106.886 -213.364,-104.366 -177.604,2.518 -191.17,60.35 -191.17,60.35 l -9.866,5.04 c 0,0 -41.931,32.682 -67.832,119.449 -25.903,86.761 -1.235,157.176 -1.235,157.176 0,0 -13.565,-57.84 -3.698,-116.937 5.112,-30.626 23.46,-69.325 39.968,-99.529 -12.117,24.431 -24.402,55.908 -28.867,89.47 -9.872,74.188 -7.403,124.483 4.929,162.202 12.332,37.719 19.735,54.071 19.735,54.071 0,0 -51.798,-60.36 -53.032,-188.613 -1.234,-128.259 107.297,-216.274 155.396,-235.137 48.101,-18.86 199.801,-44.004 291.065,20.117 91.271,64.129 85.101,80.471 114.7,139.578 29.61,59.097 17.272,178.55 -23.428,242.679 z m -21.601,23.52 c -0.099,0.164 -0.189,0.328 -0.29,0.484 l 0.922,-0.116 z m 4.239,-7.57 c -0.519,0.983 -1.038,1.987 -1.569,2.948 l 2.899,1.22 z m -434.034,5.425 c 7.396,12.575 45.629,35.208 45.629,35.208 0,0 -20.969,-12.579 -44.398,-40.241 -23.438,-27.66 8.634,2.516 51.802,31.439 43.164,28.917 103.597,26.401 103.597,26.401 0,0 -19.729,15.091 -94.965,-8.803 l 72.767,31.437 c 0,0 -110.997,-23.891 -143.066,-69.156 -32.073,-45.265 1.229,-18.86 8.634,-6.285 z m 371.255,3.976 c 13.608,-14.132 23.409,-26.608 23.409,-26.608 0,0 -4.01,12.711 -23.409,26.608 z M 579.086,611.364 c 13.566,-133.285 70.302,-189.872 70.302,-189.872 0,0 43.164,-42.749 177.598,-49.034 134.429,-6.286 177.604,46.522 181.306,55.324 3.698,8.802 -17.275,-5.026 -23.44,-2.51 -6.165,2.51 19.738,49.038 19.738,49.038 -13.569,-50.297 7.4,7.543 20.962,1.253 13.569,-6.281 -27.133,-22.631 -13.562,-35.206 13.562,-12.575 41.92,76.702 60.431,116.941 18.499,40.235 12.33,81.73 11.101,108.137 -1.229,26.407 -7.4,37.723 -7.4,37.723 l -3.7,-62.876 c 0,0 2.471,-8.796 -17.27,35.216 l -16.03,42.749 c -11.099,-196.159 -55.507,-270.351 -55.507,-270.351 0,0 -16.03,-49.032 -145.531,-50.293 -129.496,-1.249 -148,32.7 -148,32.7 -41.93,55.324 -66.598,173.52 -60.426,251.475 6.164,77.961 0,99.342 55.496,123.232 55.5,23.887 139.364,26.407 139.364,26.407 100.733,2.832 151.375,-17.074 176.395,-35.005 a 314.522,314.522 0 0 1 -9.895,9.851 c -18.499,17.601 -189.934,54.071 -279.964,18.864 -90.032,-35.208 -96.199,-69.156 -90.032,-172.266 6.169,-103.109 38.235,-188.609 60.434,-221.305 22.199,-32.692 101.134,-42.753 101.134,-42.753 -107.302,2.518 -119.634,59.093 -125.802,69.163 -6.168,10.059 -24.668,30.18 -28.367,13.828 -3.698,-16.344 -36.859,83.609 -30.691,88.641 6.164,5.03 44.257,-50.923 44.257,-50.923 0,0 -13.566,27.668 -27.132,105.625 -13.567,77.957 7.395,116.937 -6.172,119.453 -13.567,2.516 16.874,-115.034 -21.981,-120.262 -11.071,-1.492 -1.884,103.965 3.055,125.34 4.93,21.38 10.301,27.619 10.301,27.619 0,0 -34.537,-22.639 -20.972,-155.923"
         id="path23" />
    </g>
  </g>
  <path
     inkscape:connector-curvature="0"
     style="fill:url(#d-8);stroke:#6d0115;stroke-width:0.41551277"
     d="m 34.42485,54.804926 c 0.02161,-0.001 3.177636,-0.155818 5.930409,-0.776177 2.392107,-0.538505 4.508938,-1.567732 4.530129,-1.57791 l 0.0077,-0.0042 0.0085,-0.004 c 0.01184,-0.005 1.191276,-0.514197 1.916761,-1.20748 0.735458,-0.703255 1.069737,-1.623202 1.073062,-1.632341 0.01496,-0.03989 1.302632,-3.471818 2.276386,-7.13768 0.896263,-3.373341 1.511012,-7.102776 1.517453,-7.139963 0.0096,-0.04903 0.752078,-3.817316 0.960666,-7.82556 0.175345,-3.36877 -0.172855,-7.193565 -0.177011,-7.232001 -0.0021,-0.02887 -0.18137,-2.293838 -1.090303,-3.774934 -0.816899,-1.330679 -2.393978,-1.984281 -2.409975,-1.990929 l -0.01371,-0.0054 -0.01331,-0.007 c -0.01827,-0.0091 -1.849441,-0.926694 -5.323337,-1.682512 -2.770638,-0.6027 -6.621612,-1.032964 -9.810465,-1.095084 -3.645499,-0.07168 -7.559216,0.182619 -10.467804,0.679779 -3.488438,0.596261 -5.754853,1.482135 -5.777707,1.491068 l -0.0189,0.007 -0.01953,0.0053 c -0.02265,0.0061 -2.283035,0.625762 -3.471194,2.134488 -1.207271,1.532618 -1.40277,4.050419 -1.40464,4.075766 l -0.0014,0.01537 c -0.0035,0.02575 -0.25658,2.197233 -0.25658,4.858592 0,0.477008 0.0079,0.969807 0.02743,1.469046 0.136081,3.544739 0.755818,7.473411 0.761843,7.512677 0.0073,0.03886 0.846816,4.651045 1.804364,8.538167 0.709281,2.881579 1.632965,5.43096 1.642314,5.456097 l 0.0061,0.01828 0.0048,0.0187 c 0.0035,0.01288 0.318283,1.306371 0.830195,2.209071 0.445844,0.785319 1.102147,1.247162 1.109003,1.251109 l 0.0108,0.0075 0.01055,0.0087 c 0.0048,0.0035 0.451455,0.364196 1.137052,0.740028 0.789474,0.432133 1.84737,0.895846 1.892244,0.914544 0.07458,0.0293 2.406651,0.922023 5.48103,1.32777 3.210667,0.423823 7.27625,0.35464 7.317178,0.354017 z"
     id="path34" />
  <path
     inkscape:connector-curvature="0"
     style="fill:#6d0115;stroke-width:0.20775639"
     d="m 20.491877,52.334909 c -0.139196,-0.06378 -0.215027,-0.100544 -0.215027,-0.100544 -0.0079,-0.0035 -0.04758,-0.02077 -0.111773,-0.05028 l -0.02327,-0.138159 C 19.591254,49.010185 18.75088,43.463711 18.476018,36.700411 18.136128,28.74708 18.149217,18.999566 18.18142,14.278093 v -0.34155 c 0.09287,-0.03116 0.189058,-0.06274 0.288364,-0.09453 l 0.0014,0.342175 c -0.03262,4.681167 -0.0482,14.502642 0.293768,22.504381 0.279432,6.881304 1.145361,12.497169 1.692799,15.48076 z"
     id="path36" />
  <path
     inkscape:connector-curvature="0"
     style="fill:#6d0115;stroke-width:0.20775639"
     d="m 21.400812,52.724246 c -0.111357,-0.04508 -0.216066,-0.0885 -0.313296,-0.129226 l -0.027,-0.21295 C 20.659537,49.523135 19.95005,43.694739 19.61286,36.238983 19.254688,28.313078 19.319301,18.350535 19.375396,13.821446 l 6.22e-4,-0.254502 c 0.09412,-0.02701 0.190512,-0.05402 0.288781,-0.08123 l 6.22e-4,0.280887 c -0.05609,4.497926 -0.122576,14.506175 0.236428,22.45992 0.344875,7.624451 1.079502,13.542186 1.473615,16.315734 z m 6.798412,-40.384727 c 0.07271,8.779785 0.28255,34.106536 0.343837,41.443247 l 0.0057,0.619734 c -0.09391,-0.01003 -0.190098,-0.02077 -0.287326,-0.03199 l -0.0073,-0.588782 c -0.06115,-7.331311 -0.270769,-32.59241 -0.343692,-41.403775 l -0.0073,-0.256786 c 0.09723,-0.0083 0.194668,-0.01642 0.291898,-0.02389 z m 3.763923,-0.114059 0.137119,41.766098 0.0021,0.585873 c -0.101381,0.0013 -0.198614,0.0021 -0.291275,0.0024 V 53.915072 C 31.781961,45.198653 31.698235,19.683882 31.67351,12.130483 l -0.0014,-0.196538 0.282547,-0.0033 z m 1.445152,0.03823 -0.207131,41.728496 -4.18e-4,0.565098 c -0.100342,0.0026 -0.197366,0.005 -0.293765,0.007 l 0.0042,-0.45831 c 0.03639,-7.412152 0.165205,-33.367781 0.207795,-41.898882 l -0.0069,-0.275486 c 0.100757,10e-4 0.201108,0.0021 0.301244,0.0038 z m 3.906653,41.578496 c 0.207341,-3.433798 0.599376,-10.713375 0.760387,-18.950501 0.164128,-8.39502 0.09141,-17.948905 0.04031,-22.435821 l -0.01642,-0.288781 c 0.117176,0.01045 0.233309,0.02077 0.34903,0.03159 l 0.01599,0.369806 c 0.05007,4.536569 0.120915,14.002369 -0.04155,22.329657 -0.159972,8.168566 -0.5464,15.396827 -0.755196,18.871138 l -0.03055,0.49633 c -0.121539,0.01455 -0.226871,0.02846 -0.350485,0.04155 z m 9.872999,-3.403464 a 4.1476486,4.1476486 0 0 1 -0.454986,0.520012 l 0.138782,-0.736703 C 47.4759,47.092387 48.257067,42.251248 48.647023,36.566617 49.11032,29.808716 49.16974,20.568336 49.160182,15.31771 l 0.0062,-0.502979 c 0.112603,0.06232 0.226869,0.128393 0.340721,0.199445 l 8.32e-4,0.670431 c 0.0066,5.311084 -0.06087,14.292809 -0.513989,20.905486 -0.382897,5.580545 -1.142038,10.352501 -1.742867,13.497934 z m 3.339683,-11.336645 a 113.54054,113.54054 0 0 0 0.640306,-6.543079 c 0.349447,-5.153812 0.35838,-10.992391 0.31392,-14.708322 l -0.0075,-0.620153 a 7.816211,7.816211 0 0 1 0.357758,0.978532 l 0.0069,0.576317 c 0.03116,3.720502 -0.0023,9.048413 -0.324101,13.796685 a 107.43956,107.43956 0 0 1 -0.238089,2.922302 l -0.106167,1.044392 a 165.8536,165.8536 0 0 1 -0.816275,3.860115 z"
     id="path38" />
  <path
     inkscape:connector-curvature="0"
     style="fill:#6d0115;stroke-width:0.20775639"
     d="m 45.958034,51.568705 c -0.110111,0.07479 -0.241621,0.159971 -0.390169,0.249515 l 0.105537,-0.592728 c 0.579018,-3.188024 1.480474,-8.974247 1.834906,-15.698075 0.388502,-7.386363 0.389959,-16.166356 0.357342,-20.661373 l -0.01351,-0.636357 c 0.09909,0.0349 0.216068,0.07791 0.345499,0.12964 l 0.0162,0.592937 c 0.03178,4.524934 0.02805,13.246962 -0.358793,20.592814 -0.344461,6.538924 -1.205611,12.194677 -1.787123,15.447518 l -0.11011,0.575901 z m -4.264411,1.461773 c 0.273825,-2.970502 0.775973,-9.119466 1.017178,-16.537615 0.270705,-8.327707 0.271745,-18.196345 0.251802,-22.963316 l -0.01034,-0.678117 c 0.120708,0.02492 0.23996,0.04987 0.356925,0.07521 l 0.0013,0.656302 c 0.01994,4.790448 0.01765,14.620024 -0.252215,22.921141 C 42.81875,43.8732 42.321797,49.992666 42.04652,52.993706 l -0.03532,0.364613 c -0.114682,0.03387 -0.22957,0.06877 -0.357342,0.10429 z m -1.19979,0.280471 c 0.300624,-2.522577 0.793213,-7.412125 0.996606,-13.771546 0.296263,-9.252847 0.259696,-20.921694 0.221055,-26.321698 l -0.0069,-0.600624 c 0.115096,0.01953 0.22874,0.03926 0.34072,0.05983 l 0.01309,0.627839 c 0.03864,5.440726 0.07355,17.038105 -0.221677,26.245866 -0.200277,6.26157 -0.680402,11.102295 -0.983517,13.669749 l -0.05609,0.464957 c -0.115305,0.02805 -0.238712,0.05921 -0.360457,0.08726 z M 39.5207,53.515383 c 0.235388,-2.666971 0.641138,-7.949801 0.831859,-14.376743 0.266344,-8.981933 0.197576,-20.355557 0.133377,-26.28534 l -0.0069,-0.423823 c 0.118421,0.01579 0.235387,0.03241 0.350484,0.04924 l 0.0062,0.566967 c 0.06315,5.98463 0.127562,17.213656 -0.13608,26.10272 -0.187605,6.327638 -0.583796,11.548138 -0.82043,14.261853 l -0.0432,0.492175 c -0.11967,0.02472 -0.232273,0.0478 -0.356097,0.07147 l 0.04072,-0.458311 z m -1.128947,0.226868 c 0.199446,-3.115513 0.576318,-9.62473 0.740858,-16.6068 0.219183,-9.281308 0.229571,-19.63464 0.220015,-24.481183 l -0.0098,-0.364818 c 0.11759,0.01331 0.234349,0.02638 0.350693,0.03988 l 0.007,0.411357 c 0.0094,4.884146 -0.0023,15.173073 -0.220219,24.402652 -0.162883,6.89876 -0.532274,13.336505 -0.733797,16.50022 l -0.02992,0.46683 c -0.12403,0.02076 -0.223961,0.03823 -0.35173,0.05754 l 0.02681,-0.425902 z m -1.194184,-41.25024 c -0.01496,4.959978 -0.06462,16.21248 -0.225208,25.810616 A 666.08155,666.08155 0 0 1 36.52631,53.766144 l -0.02681,0.614544 c -0.09785,0.0083 -0.196539,0.01662 -0.294601,0.02452 l 0.02867,-0.546193 c 0.121536,-2.978809 0.336565,-8.84211 0.449376,-15.56116 0.162051,-9.645299 0.211496,-20.961998 0.226247,-25.881669 l 0.0021,-0.340512 c 0.09723,0.0069 0.194873,0.01331 0.291689,0.02036 z M 35.76779,12.263688 c 0.04031,4.377427 0.100129,12.943847 0.04675,21.016636 -0.05817,8.738649 -0.247232,17.082146 -0.336984,20.674671 l -0.01079,0.502771 c -0.09848,0.0062 -0.196536,0.01246 -0.29439,0.01787 l 0.0133,-0.426525 c 0.08934,-3.533935 0.281093,-11.950979 0.339474,-20.771276 0.0534,-8.025214 -0.0054,-16.539902 -0.04572,-20.938312 l -0.0028,-0.34446 c 0.0964,0.0044 0.192801,0.0087 0.288783,0.01351 z m -1.13539,-0.01911 c 0.05921,5.020434 0.141899,14.006105 0.101797,22.480488 -0.0374,7.884356 -0.206304,15.435677 -0.307894,19.380972 l -0.0087,0.40824 -0.29148,0.01248 0.01205,-0.477838 c 0.101796,-3.95797 0.268835,-11.476465 0.306234,-19.325085 0.0403,-8.432209 -0.04114,-17.370098 -0.100971,-22.403204 l -0.0066,-0.366482 0.291484,0.0083 0.0042,0.282341 z M 24.408294,53.717737 c -0.100757,-0.02492 -0.200693,-0.0507 -0.300001,-0.07749 l -0.01725,-0.187812 C 23.847975,50.83117 23.359332,44.936083 23.157392,38.016132 22.899151,29.188771 22.984954,18.156074 23.048321,12.96071 l -0.0023,-0.227494 c 0.0966,-0.01662 0.193422,-0.03324 0.29169,-0.04945 l 6.24e-4,0.230403 c -0.06315,5.171263 -0.150417,16.242811 0.10824,25.094064 0.204848,7.009078 0.703879,12.96483 0.942799,15.525636 l 0.0187,0.183864 z M 22.44749,53.12189 c -0.104292,-0.0374 -0.206304,-0.07416 -0.30561,-0.110732 L 22.1182,52.794259 C 21.675671,49.104507 20.820338,41.133726 20.549216,32.677624 20.319645,25.523323 20.518053,17.538414 20.651641,13.5229 l 0.0053,-0.294392 c 0.09598,-0.02327 0.193214,-0.04674 0.29169,-0.06981 l -0.0038,0.253672 c -0.133379,3.971263 -0.33802,12.037405 -0.106369,19.256732 0.274861,8.575352 1.151593,16.651053 1.586842,20.257702 l 0.02244,0.195083 z M 14.212857,38.415024 C 13.859671,36.694802 13.653161,35.43829 13.649421,35.416267 l -0.04966,-0.753532 C 13.396159,32.088634 13.21292,29.204976 13.17033,26.746179 13.11984,23.838835 13.14124,20.931907 13.17473,18.757738 L 13.16268,18.48059 a 8.8146881,8.8146881 0 0 1 0.322438,-1.011981 l -0.02492,1.545708 c -0.03116,2.141968 -0.04903,4.934213 0,7.727497 0.05381,3.110738 0.33324,6.903746 0.594598,9.885465 z m 2.515099,9.180132 C 16.527471,47.007205 16.2979,46.313921 16.059812,45.556442 L 15.883426,44.539266 C 15.432596,41.873544 15.032456,39.042031 14.919228,36.86724 14.329409,29.637316 14.299492,21.291742 14.33668,16.849287 l 0.0073,-0.817313 c 0.09162,-0.100342 0.186566,-0.195291 0.283173,-0.284004 l 0.0016,0.773062 c -0.04134,4.343147 -0.02492,12.921201 0.579018,20.327093 0.131924,2.535875 0.655678,5.96822 1.193975,8.986086 z m 1.421884,1.520983 C 17.555448,46.18553 16.82207,41.862948 16.442498,36.920841 15.853509,29.251513 15.87387,20.22699 15.931833,15.762305 l 0.0069,-0.92223 c -0.08434,0.04342 -0.185111,0.09785 -0.296884,0.163297 l 4.15e-4,0.768698 c -0.05776,4.474865 -0.07729,13.498765 0.511703,21.170377 0.378117,4.922994 1.106512,9.233525 1.700693,12.17307 l 0.369808,1.744115 c 0.06398,0.07209 0.131717,0.143351 0.2036,0.21191 0.05194,0.04945 0.106787,0.09868 0.163088,0.146678 z m 5.23463,4.157207 C 23.115425,50.85589 22.640079,45.959905 22.443334,40.050898 22.119234,30.329145 22.096173,18.194925 22.102614,13.154754 l -0.0026,-0.245776 c -0.09868,0.01933 -0.196329,0.03947 -0.292521,0.05942 l 0.0059,0.213989 c -0.0064,5.059284 0.01725,17.170236 0.340722,26.878068 0.192797,5.777707 0.651107,10.589345 0.923683,13.068915 l 0.02265,0.213367 c 0.09889,0.03221 0.199445,0.06378 0.301245,0.09452 l -0.01704,-0.164125 z"
     id="path40" />
  <path
     inkscape:connector-curvature="0"
     style="fill:#6d0115;stroke-width:0.20775639"
     d="m 17.235296,14.275394 c -0.106786,0.04092 -0.205056,0.07957 -0.294805,0.115719 l -0.0054,0.434626 c -0.09702,4.5374 -0.224168,13.609085 0.136288,19.57003 0.511497,8.453194 1.571054,14.445094 2.094599,17.018574 l 0.04883,0.253461 c 0.111151,0.06981 0.237467,0.144391 0.34176,0.203394 l -0.06501,-0.311013 c -0.504875,-2.43989 -1.6064,-8.511154 -2.130985,-17.181452 -0.362949,-6.000628 -0.230609,-15.163724 -0.133795,-19.65791 l 0.0085,-0.456648 m 7.347928,-1.771748 -0.29252,0.04196 0.0048,0.243075 c -0.05007,4.725627 -0.114266,14.071757 0.03843,22.254243 0.14543,7.780477 0.622854,14.875355 0.891898,18.388311 l 0.03429,0.488434 c 0.09868,0.01994 0.197369,0.03968 0.296262,0.05859 l -0.03159,-0.431094 C 25.258027,50.077217 24.77063,42.90339 24.623123,35.026305 24.4698,26.834472 24.53462,17.475462 24.584895,12.758352 Z m 1.228463,-0.159349 c -0.09888,0.01185 -0.197367,0.02367 -0.295428,0.03594 l -8.32e-4,0.236843 c -0.07479,3.853258 -0.185943,11.825494 -0.02368,19.763451 0.175347,9.027015 0.647784,17.54939 0.876108,21.293161 l 0.02597,0.452909 c 0.09971,0.01599 0.198406,0.032 0.297093,0.04695 L 26.65808,53.667253 C 26.430392,49.937816 25.9565,41.404014 25.781154,32.363495 25.619103,24.413489 25.730664,16.42858 25.805457,12.587163 Z m 1.183588,-0.1286 c -0.09619,0.009 -0.192797,0.01933 -0.288988,0.02908 l -0.0021,0.239751 c -0.03221,4.135392 -0.07687,12.829371 0.02244,21.264489 0.0964,8.179784 0.343214,16.266702 0.467036,19.970168 l 0.01746,0.53082 c 0.09785,0.01351 0.195291,0.0268 0.290858,0.03947 l -0.01911,-0.571955 C 27.359233,50.0072 27.112002,41.916957 27.015812,33.734263 26.915876,25.260712 26.961582,16.525179 26.99379,12.415549 Z m 2.510102,-0.195501 c -0.100767,0.0059 -0.201524,0.01143 -0.302076,0.01765 l 0.0073,0.161427 c 0.05007,7.580822 0.221676,33.427171 0.276939,41.804117 l 0.0048,0.501317 c 0.102426,0.0089 0.199655,0.01704 0.291068,0.02409 l -0.0062,-0.50651 c -0.0557,-8.360932 -0.227104,-34.276674 -0.277381,-41.842124 z m 1.218285,-0.05422 c -0.09806,0.0032 -0.196537,0.0069 -0.295222,0.01024 l 0.0073,0.279432 0.07562,41.632303 -0.0046,0.690375 c 0.07521,0.0048 0.129847,0.0075 0.161219,0.009 0.01663,0 0.0615,0.0014 0.132341,0.0016 l 6.13e-4,-0.719876 c -0.01453,-7.784568 -0.06105,-33.595807 -0.07601,-41.613542 z m 11.951815,40.681818 c 0.418213,-3.518353 1.177563,-10.791073 1.498546,-19.511441 0.239544,-6.491972 0.04945,-15.200912 -0.07562,-19.555901 l -0.02222,-0.468701 c 0.121536,0.02867 0.239543,0.05755 0.355054,0.08621 l 0.01745,0.481996 c 0.125071,4.394048 0.310389,13.021546 0.07251,19.468852 -0.320982,8.709565 -1.078255,15.977921 -1.497716,19.513311 l -0.05007,0.403047 a 17.353891,17.353891 0 0 1 -0.365027,0.1205 l 0.0671,-0.537673 z"
     id="path42" />
  <path
     inkscape:connector-curvature="0"
     style="fill:#6d0115;stroke-width:0.20775639"
     d="m 44.126246,52.13401 c 0.338228,-3.06316 0.931786,-9.117805 1.289127,-16.669751 0.343632,-7.251528 0.325761,-16.613862 0.284211,-21.577578 L 45.692284,13.5256 C 45.580303,13.49319 45.463544,13.46016 45.3418,13.4263 l 0.01034,0.428186 c 0.04176,4.950628 0.06025,14.333113 -0.28317,21.593785 -0.361912,7.643358 -0.965446,13.749941 -1.300763,16.768018 l -0.06462,0.547229 c 0.103875,-0.04758 0.226661,-0.103875 0.360874,-0.166411 z m 1.064126,-0.672092 c 0.409283,-2.741346 0.966068,-7.224315 1.282482,-12.950289 0.470154,-8.517179 0.554917,-19.382631 0.56842,-24.240392 l -0.0069,-0.322438 c -0.09806,-0.03428 -0.212743,-0.07271 -0.343835,-0.116342 l 0.004,0.326177 c -0.01248,4.797095 -0.09495,15.758323 -0.568423,24.333884 -0.328671,5.959075 -0.918907,10.566488 -1.33068,13.259428 l -0.08018,0.529363 a 17.847729,17.847729 0 0 0 0.379779,-0.195291 z m 3.038855,-3.553049 c 0,0 0.311633,-0.858866 0.696191,-2.087329 l 0.145844,-0.954641 c 0.473686,-3.168286 0.973548,-7.119811 1.304713,-11.401671 0.441065,-5.700005 0.344457,-12.642808 0.22209,-16.822036 l -0.0268,-0.788851 a 4.8147545,4.8147545 0 0 0 -0.363158,-0.335734 l 0.02804,0.641967 c 0.128185,4.100905 0.25097,11.363236 -0.206925,17.278891 -0.384351,4.972236 -0.996815,9.497585 -1.530958,12.86386 z"
     id="path44" />
  <g
     transform="matrix(0.20775639,0,0,0.20775639,1.3789145,1.3789141)"
     id="g88">
    <g
       style="fill:#1a1a1a"
       id="g48">
      <path
         inkscape:connector-curvature="0"
         d="M 107.446,163.987 V 149.51 H 95.03 l 0.046,-36.44 h 16.21 L 111.199,98.438 H 77.5 l 3.046,111.991 h 14.808 l -0.324,-46.44 z m 9.607,-65.55 1.873,111.991 h 15.29 l 0.31,-111.991 z m 98.207,111.991 3.14,-97.882 h 11.98 l -0.092,-14.109 h -41.553 v 14.126 h 12.078 l -0.348,97.865 z m -57.673,-60.16 0.168,-38.04 h 8.537 c 3.87,8.472 6.357,19.676 8.307,38.04 z m -13.643,60.157 H 158.1 l 0.158,-46.309 h 16.961 c 1.334,8.173 1.66,33.406 1.74,46.31 h 13.731 c 1.296,-57.175 -2.73,-89.493 -13.849,-111.99 h -34.192 l 1.295,111.99 z"
         id="path46" />
    </g>
    <g
       transform="matrix(1.3933,0,0,1.65445,79.237,96.43)"
       id="g86">
      <radialGradient
         id="radialGradient168"
         cx="-1672.399"
         cy="327.422"
         r="55"
         gradientTransform="matrix(1.3933,0,0,-1.0181,2385.16,367.197)"
         gradientUnits="userSpaceOnUse">
        <stop
           offset="0"
           stop-color="#d3d1d2"
           id="stop162" />
        <stop
           offset=".5"
           stop-color="#c9c7c8"
           id="stop164" />
        <stop
           offset="1"
           stop-color="#8d8b8c"
           id="stop166" />
      </radialGradient>
      <path
         style="fill:url(#e-8)"
         inkscape:connector-curvature="0"
         d="M 21.547,30.871 H 12.613 L 12.646,8.845 H 24.31 L 24.247,0 H 0 l 2.192,67.691 h 10.654 l -0.233,-28.07 h 8.934 z"
         id="path57" />
      <radialGradient
         id="radialGradient177"
         cx="-1672.399"
         cy="327.422"
         r="55"
         gradientTransform="matrix(1.3933,0,0,-1.0181,2385.16,367.197)"
         gradientUnits="userSpaceOnUse">
        <stop
           offset="0"
           stop-color="#d3d1d2"
           id="stop171-4" />
        <stop
           offset=".5"
           stop-color="#c9c7c8"
           id="stop173-0" />
        <stop
           offset="1"
           stop-color="#8d8b8c"
           id="stop175-5" />
      </radialGradient>
      <path
         style="fill:url(#f-9)"
         inkscape:connector-curvature="0"
         d="M 41.032,0 H 28.459 l 1.348,67.691 h 11.002 z"
         id="path66" />
      <radialGradient
         id="radialGradient186"
         cx="-1672.399"
         cy="327.422"
         r="55"
         gradientTransform="matrix(1.3933,0,0,-1.0181,2385.16,367.197)"
         gradientUnits="userSpaceOnUse">
        <stop
           offset="0"
           stop-color="#d3d1d2"
           id="stop180-9" />
        <stop
           offset=".5"
           stop-color="#c9c7c8"
           id="stop182-4" />
        <stop
           offset="1"
           stop-color="#8d8b8c"
           id="stop184-6" />
      </radialGradient>
      <path
         style="fill:url(#g-4)"
         inkscape:connector-curvature="0"
         d="m 88.476,67.691 h 10.645 l 2.26,-59.163 H 110 L 109.934,0 H 80.035 v 8.538 h 8.691 z"
         id="path75" />
      <radialGradient
         id="radialGradient195"
         cx="-1672.399"
         cy="327.423"
         r="54.998001"
         gradientTransform="matrix(1.3933,0,0,-1.0181,2385.16,367.197)"
         gradientUnits="userSpaceOnUse">
        <stop
           offset="0"
           stop-color="#d3d1d2"
           id="stop189" />
        <stop
           offset=".5"
           stop-color="#c9c7c8"
           id="stop191" />
        <stop
           offset="1"
           stop-color="#8d8b8c"
           id="stop193" />
      </radialGradient>
      <path
         style="fill:url(#h-3)"
         inkscape:connector-curvature="0"
         d="m 57.624,31.329 0.12,-22.993 h 6.143 c 2.785,5.121 4.574,11.893 5.977,22.993 z M 47.808,67.69 h 10.186 l 0.114,-27.991 h 12.204 c 0.959,4.941 1.194,20.191 1.252,27.991 h 9.88 C 82.375,33.132 79.479,13.598 71.477,0 H 46.876 Z"
         id="path84" />
    </g>
  </g>
</svg>
