<?xml version="1.0" encoding="utf-8"?>
<!-- Generator: Adobe Illustrator 19.0.0, SVG Export Plug-In . SVG Version: 6.00 Build 0)  -->
<svg version="1.1" id="Layer_1" xmlns="http://www.w3.org/2000/svg" xmlns:xlink="http://www.w3.org/1999/xlink" x="0px" y="0px"
	 viewBox="0 0 500 500" style="enable-background:new 0 0 500 500;" xml:space="preserve">
<style type="text/css">
	.st0{fill:#231F20;}
</style>
<g id="XMLID_5_">
	<path id="XMLID_9_" class="st0" d="M417.3,248.2h-26.8c0.3-3.4,2.7-6.7,7-6.7h31.6v-6.4h-33c-13.2,0-18.5,10-18.5,19.6h36.8
		c1.2,0,4.2,0.3,4.2,3.3c0,3-2.6,3.3-7,3.4h-38.4v-26.3h-11.3v26.3h-21.6c-6.5,0-7.2-4.8-7.2-7.4v-18.9h-20.6l-16.8,11.2l-15.1-11.2
		h-44.1c-13.2,0-21,9.1-22.2,17.1h9.1c-3.6,2.5-6.2,5.8-7.6,9.2l-25.7,0c-6.5,0-7.2-4.8-7.2-7.4v-18.9h-11.3v18
		c0,12.4,8.7,14.8,12.9,14.8h90.4l16.9-11.3l15.3,11.3h17.8l-23.7-17.5l19.5-13.1v17.3c0,11.2,10.9,13.3,13.9,13.3h82.5
		c4.1,0,15.3-0.5,15.3-9.5C432.5,249.4,424.2,248.2,417.3,248.2 M273,261.4h-42.5c0.3-3.4,4-6.7,8.3-6.7h25.1v-6.4h-34.3
		c0.3-3.4,4-6.7,8.3-6.7h28.7v-3.7l19.9,14.7L273,261.4z"/>
	<path id="XMLID_10_" class="st0" d="M112.4,282.2c14.9,0,28-5.2,36.2-13.2l-7.4,0c-7,5.9-17.1,9.5-28.6,9.5
		c-21.5,0-38.3-12.8-38.3-28.6c0-18.2,16.8-28.6,38.3-28.6c1.4,0,2.5,0.6,1.6,1.8c-4.5,5.4-17.2,22.7-19.5,26.4
		c-4.6,7.4-4.5,16.5,6.7,17.1h47.1c2.4,0,3-1.1,3.9-2.3c3.2-4.3,4.8-9.3,4.8-14.5c0-13.6-9.6-23.8-23.6-28.8l-2.2,3.3
		c11.7,4.3,19.4,13,19.4,25.5c0,2.2-0.3,4.3-0.9,6.3c-0.5,1.8-1.5,3.3-3.5,3.3h-37.6c-4.8,0-3-5-1.2-7.4c2.6-4.6,16.8-24,20.2-27.6
		c0.9-1.3,3.3-4.1-0.1-5.1c-4.8-1.1-10-1.7-15.4-1.7c-24.8,0-44.8,12.7-44.9,32.2C67.5,269.7,87.6,282.2,112.4,282.2"/>
</g>
</svg>
