<?xml version="1.0" encoding="utf-8"?>
<!-- Generator: Adobe Illustrator 19.0.0, SVG Export Plug-In . SVG Version: 6.00 Build 0)  -->
<svg version="1.1" id="Ñëîé_1" xmlns="http://www.w3.org/2000/svg" xmlns:xlink="http://www.w3.org/1999/xlink" x="0px" y="0px"
	 viewBox="0 0 500 500" style="enable-background:new 0 0 500 500;" xml:space="preserve">
<style type="text/css">
	.st0{fill:#D24A43;}
	.st1{fill:#FFFFFF;}
	.st2{fill:#201600;}
	.st3{clip-path:url(#XMLID_186_);fill:#C8C7C7;}
	.st4{clip-path:url(#XMLID_186_);fill:#C7C6C6;}
	.st5{clip-path:url(#XMLID_186_);fill:#C6C5C5;}
	.st6{clip-path:url(#XMLID_186_);fill:#C5C4C4;}
	.st7{clip-path:url(#XMLID_186_);fill:#C4C3C3;}
	.st8{clip-path:url(#XMLID_186_);fill:#C3C2C2;}
	.st9{clip-path:url(#XMLID_186_);fill:#C2C1C1;}
	.st10{clip-path:url(#XMLID_186_);fill:#C1C0C0;}
	.st11{clip-path:url(#XMLID_186_);fill:#C0BFBE;}
	.st12{clip-path:url(#XMLID_186_);fill:#BFBEBD;}
	.st13{clip-path:url(#XMLID_186_);fill:#BEBDBC;}
	.st14{clip-path:url(#XMLID_186_);fill:#BDBCBB;}
	.st15{clip-path:url(#XMLID_186_);fill:#BBBABA;}
	.st16{clip-path:url(#XMLID_186_);fill:#BAB9B9;}
	.st17{clip-path:url(#XMLID_186_);fill:#B9B8B8;}
	.st18{clip-path:url(#XMLID_186_);fill:#B8B7B7;}
	.st19{clip-path:url(#XMLID_186_);fill:#B7B6B6;}
	.st20{clip-path:url(#XMLID_186_);fill:#B6B5B5;}
	.st21{clip-path:url(#XMLID_186_);fill:#B5B4B4;}
	.st22{clip-path:url(#XMLID_186_);fill:#B4B3B3;}
	.st23{clip-path:url(#XMLID_186_);fill:#B3B2B2;}
	.st24{clip-path:url(#XMLID_186_);fill:#B2B1B1;}
	.st25{clip-path:url(#XMLID_186_);fill:#B1B0B0;}
	.st26{clip-path:url(#XMLID_186_);fill:#B0AFAF;}
	.st27{clip-path:url(#XMLID_186_);fill:#AFAEAE;}
	.st28{clip-path:url(#XMLID_186_);fill:#AEADAD;}
	.st29{clip-path:url(#XMLID_186_);fill:#ADACAC;}
	.st30{clip-path:url(#XMLID_186_);fill:#ACABAB;}
	.st31{clip-path:url(#XMLID_186_);fill:#ABAAAA;}
	.st32{clip-path:url(#XMLID_186_);fill:#AAA9A9;}
	.st33{clip-path:url(#XMLID_186_);fill:#A9A8A8;}
	.st34{clip-path:url(#XMLID_186_);fill:#A8A7A6;}
	.st35{clip-path:url(#XMLID_186_);fill:#A7A6A5;}
	.st36{clip-path:url(#XMLID_186_);fill:#A6A5A4;}
	.st37{clip-path:url(#XMLID_186_);fill:#A5A4A3;}
	.st38{clip-path:url(#XMLID_186_);fill:#A4A3A2;}
	.st39{clip-path:url(#XMLID_186_);fill:#A3A2A1;}
	.st40{clip-path:url(#XMLID_186_);fill:#A2A1A0;}
	.st41{clip-path:url(#XMLID_186_);fill:#A1A09F;}
	.st42{clip-path:url(#XMLID_186_);fill:#A09F9E;}
	.st43{clip-path:url(#XMLID_186_);fill:#9F9E9D;}
	.st44{clip-path:url(#XMLID_186_);fill:#9E9D9C;}
	.st45{clip-path:url(#XMLID_186_);fill:#9D9C9B;}
	.st46{clip-path:url(#XMLID_186_);fill:#9C9B9A;}
	.st47{clip-path:url(#XMLID_186_);fill:#9B9A9A;}
	.st48{clip-path:url(#XMLID_186_);fill:#9A9999;}
	.st49{clip-path:url(#XMLID_186_);fill:#9A9998;}
	.st50{clip-path:url(#XMLID_186_);fill:#999897;}
	.st51{clip-path:url(#XMLID_186_);fill:#989796;}
	.st52{clip-path:url(#XMLID_186_);fill:#979695;}
	.st53{clip-path:url(#XMLID_186_);fill:#969594;}
	.st54{clip-path:url(#XMLID_186_);fill:#959493;}
	.st55{clip-path:url(#XMLID_186_);fill:#949392;}
	.st56{clip-path:url(#XMLID_186_);fill:#939291;}
	.st57{clip-path:url(#XMLID_186_);fill:#939290;}
	.st58{clip-path:url(#XMLID_186_);fill:#929190;}
	.st59{clip-path:url(#XMLID_186_);fill:#91908F;}
	.st60{clip-path:url(#XMLID_186_);fill:#908F8E;}
	.st61{clip-path:url(#XMLID_186_);fill:#8F8E8D;}
	.st62{clip-path:url(#XMLID_186_);fill:#8F8D8C;}
	.st63{clip-path:url(#XMLID_186_);fill:#8E8C8B;}
	.st64{clip-path:url(#XMLID_186_);fill:#8D8C8A;}
	.st65{clip-path:url(#XMLID_186_);fill:#8C8B89;}
	.st66{clip-path:url(#XMLID_186_);fill:#8B8A88;}
	.st67{clip-path:url(#XMLID_186_);fill:#8A8987;}
	.st68{clip-path:url(#XMLID_186_);fill:#898886;}
	.st69{clip-path:url(#XMLID_186_);fill:#888785;}
	.st70{clip-path:url(#XMLID_186_);fill:#878684;}
	.st71{clip-path:url(#XMLID_186_);fill:#868583;}
	.st72{clip-path:url(#XMLID_186_);fill:#858482;}
	.st73{clip-path:url(#XMLID_186_);fill:#848381;}
	.st74{clip-path:url(#XMLID_186_);fill:#838280;}
	.st75{clip-path:url(#XMLID_186_);fill:#82817F;}
	.st76{clip-path:url(#XMLID_186_);fill:#81807E;}
	.st77{clip-path:url(#XMLID_186_);fill:#807F7D;}
	.st78{clip-path:url(#XMLID_186_);fill:#7F7E7C;}
	.st79{clip-path:url(#XMLID_186_);fill:#7E7D7B;}
	.st80{clip-path:url(#XMLID_186_);fill:#7D7C7A;}
	.st81{clip-path:url(#XMLID_186_);fill:#7C7B79;}
	.st82{clip-path:url(#XMLID_186_);fill:#7B7A78;}
	.st83{clip-path:url(#XMLID_186_);fill:#7A7977;}
	.st84{clip-path:url(#XMLID_186_);fill:#797876;}
	.st85{clip-path:url(#XMLID_186_);fill:#787775;}
	.st86{clip-path:url(#XMLID_186_);fill:#777674;}
	.st87{clip-path:url(#XMLID_186_);fill:#767572;}
	.st88{clip-path:url(#XMLID_186_);fill:#757471;}
	.st89{clip-path:url(#XMLID_186_);fill:#747370;}
	.st90{clip-path:url(#XMLID_186_);fill:#73716F;}
	.st91{clip-path:url(#XMLID_186_);fill:#72706E;}
	.st92{clip-path:url(#XMLID_186_);fill:#716F6D;}
	.st93{clip-path:url(#XMLID_186_);fill:#706E6C;}
	.st94{clip-path:url(#XMLID_186_);fill:#6F6D6B;}
	.st95{clip-path:url(#XMLID_186_);fill:#6E6C69;}
	.st96{clip-path:url(#XMLID_186_);fill:#6D6B68;}
	.st97{clip-path:url(#XMLID_186_);fill:#6C6A67;}
	.st98{clip-path:url(#XMLID_186_);fill:#6B6966;}
	.st99{clip-path:url(#XMLID_186_);fill:#696865;}
	.st100{clip-path:url(#XMLID_186_);fill:#686664;}
	.st101{clip-path:url(#XMLID_186_);fill:#676563;}
	.st102{clip-path:url(#XMLID_186_);fill:#666461;}
	.st103{clip-path:url(#XMLID_186_);fill:#656360;}
	.st104{clip-path:url(#XMLID_186_);fill:#64625F;}
	.st105{fill:url(#XMLID_187_);}
	.st106{fill:url(#XMLID_191_);}
	.st107{fill:url(#XMLID_192_);}
	.st108{fill:url(#XMLID_193_);}
	.st109{fill:url(#XMLID_194_);}
	.st110{fill:url(#XMLID_195_);}
	.st111{fill:#969594;}
	.st112{filter:url(#Adobe_OpacityMaskFilter);}
	.st113{filter:url(#Adobe_OpacityMaskFilter_1_);}
	.st114{mask:url(#XMLID_196_);fill:url(#XMLID_197_);}
	.st115{fill:url(#XMLID_198_);}
	.st116{fill:#7F7D7C;}
	.st117{fill:url(#XMLID_199_);}
	.st118{fill:url(#XMLID_200_);}
	.st119{fill:url(#XMLID_202_);}
	.st120{fill:url(#XMLID_203_);}
	.st121{fill:url(#XMLID_204_);}
	.st122{fill:url(#XMLID_208_);}
	.st123{fill:url(#XMLID_209_);}
	.st124{fill:url(#XMLID_210_);}
	.st125{fill:url(#XMLID_211_);}
	.st126{opacity:0.1;fill:url(#XMLID_216_);}
	.st127{fill:#6B6966;}
	.st128{fill:#312A20;}
</style>
<g id="XMLID_1_">
	<g id="XMLID_2_">
		<g id="XMLID_69_">
			<g id="XMLID_70_">
				<g id="XMLID_71_">
					<path id="XMLID_72_" class="st0" d="M328.6,356.1v16h-51v-4.5c0-6.9,1.1-11.6,9.3-11.6H328.6z M283.7,346.2
						c-13.4,0-19.6,7.1-19.6,18.5v32.2h13.4v-14.8h51v14.8H342v-50.7H283.7z M358.5,346.2v9.9H390v40.8h13.4v-40.8H435v-9.9H358.5z
						 M178.1,377.4c0,7.1,1.4,9.6,9.3,9.6h56v9.9h-59.1c-13.4,0-19.7-6-19.7-17.4v-33.3h78.8v9.9h-65.3v10h62.6v9.7h-62.6V377.4z
						 M82.2,363.8c-4.1-0.3-4.9-1.8-4.9-4.3c0-2.3,1.2-3.6,4.4-3.6h61.8v-9.8H80.2c-9,0-15.2,3.5-15.2,13.6
						c0,10.2,4.6,13.6,14.9,14.4l50.1,4.2c3.9,0.3,4.9,1.6,4.9,4.4c0,2.6-1.2,4.3-4.6,4.3H67.5v9.9h64c11,0,15.9-4.4,15.9-14.8
						c0-9.5-4.4-13.2-15.1-14.1L82.2,363.8z"/>
				</g>
			</g>
		</g>
		<g id="XMLID_3_">
			<g id="XMLID_64_">
				<g id="XMLID_67_">
					<path id="XMLID_68_" class="st1" d="M357.9,214.4L142.2,176c0,0,0.6-24.2,1-36.9c0.4-12.8,3.1-20.6,8.4-25.3
						c7.3-6.5,15.8-8,36.1-9.1c47-2.6,94.8-2.2,154.8,2c6.2,0.4,8.6,1.6,9.8,2.5c2.7,1.8,3,3.9,3.7,14.5c0.6,8.6,2,37.3,2,37.3
						s-70.8-2.6-105.6-2.6c-9.8,0-17.7,0.1-24.1,0.2c-4.3,0.1-6.3,0.5-8,1.3l137.7,23.4V214.4z"/>
				</g>
				<g id="XMLID_65_">
					<path id="XMLID_66_" class="st1" d="M142.1,184.2l215.7,38.3c0,0-0.6,24.2-1,36.9c-0.4,12.8-3.1,20.6-8.4,25.3
						c-7.3,6.5-15.8,8-36,9.1c-47,2.6-94.8,2.2-154.8-2c-6.2-0.4-8.6-1.6-9.8-2.4c-2.7-1.8-3-3.9-3.7-14.5
						c-0.6-8.6-1.9-37.3-1.9-37.3s70.8,2.6,105.6,2.6c9.8,0,17.7-0.1,24.1-0.2c4.3-0.1,6.3-0.5,8-1.3l-137.7-23.4V184.2z"/>
				</g>
			</g>
			<g id="did_2_">
				<g id="XMLID_5_">
					<path id="XMLID_56_" class="st2" d="M357.9,214.4L142.2,176c0,0,0.6-24.2,1-36.9c0.4-12.8,3.1-20.6,8.4-25.3
						c7.3-6.5,15.8-8,36.1-9.1c47-2.6,94.8-2.2,154.8,2c6.2,0.4,8.6,1.6,9.8,2.5c2.7,1.8,3,3.9,3.7,14.5c0.6,8.6,2,37.3,2,37.3
						s-70.8-2.6-105.6-2.6c-9.8,0-17.7,0.1-24.1,0.2c-4.3,0.1-6.3,0.5-8,1.3l137.7,23.4V214.4z M142.1,184.2l215.7,38.3
						c0,0-0.6,24.2-1,36.9c-0.4,12.8-3.1,20.6-8.4,25.3c-7.3,6.5-15.8,8-36,9.1c-47,2.6-94.8,2.2-154.8-2c-6.2-0.4-8.6-1.6-9.8-2.4
						c-2.7-1.8-3-3.9-3.7-14.5c-0.6-8.6-1.9-37.3-1.9-37.3s70.8,2.6,105.6,2.6c9.8,0,17.7-0.1,24.1-0.2c4.3-0.1,6.3-0.5,8-1.3
						l-137.7-23.4V184.2z M144.3,186.9v26.4l140.3,23.9c0,0-1.9,2.6-3.9,3.5c-2,0.9-4.5,1.4-8.9,1.5c-6.5,0.1-14.4,0.2-24.2,0.2
						c-30.8,0-90.3-2-103.2-2.5c0.3,7.2,1.4,27.8,1.8,34.8c0.7,10.6,1.1,11.6,2.7,12.8c0.6,0.4,2.4,1.6,8.7,2.1
						c34.6,2.4,65.8,3.6,95.3,3.6c19.9,0,39.3-0.5,59.2-1.6c19.7-1.1,27.9-2.5,34.7-8.5c4.8-4.3,7.2-11.8,7.6-23.6
						c0.4-10.5,0.8-29,1-35L144.3,186.9z M355.6,211.7v-26.4l-140.3-23.9c0,0,2-2.6,3.9-3.5c2-0.9,4.5-1.4,8.9-1.5
						c6.5-0.1,14.4-0.2,24.2-0.2c30.8,0,90.3,2,103.2,2.5c-0.3-7.2-1.4-27.8-1.8-34.8c-0.7-10.6-1.1-11.6-2.7-12.8
						c-0.6-0.4-2.4-1.6-8.7-2.1c-34.6-2.4-65.8-3.6-95.3-3.6c-19.9,0-39.3,0.5-59.2,1.6c-19.7,1.1-27.9,2.5-34.7,8.5
						c-4.8,4.3-7.2,11.8-7.6,23.6c-0.4,10.5-0.8,29-1,35L355.6,211.7z"/>
					<path id="XMLID_55_" class="st1" d="M255.6,251.5c-1.2,0-7.5,0-8.9,0c-28.6,0-59.3-0.2-96.8-2.3l-5.5-9.3l1.4,0.1l6.2,7.2
						c32.4,1.8,62.1,2.2,94.6,2.2c1.4,0,7.5,0,8.9,0c4.6,0,10,0,14.7-0.2c16.4-0.5,21.4-2.2,32.7-13.6l4.1-0.4l-1.7,1.7
						c-12.1,12.5-17.1,13.8-35,14.4C265.6,251.5,260.3,251.5,255.6,251.5L255.6,251.5z"/>
					<polygon id="XMLID_54_" class="st1" points="355.5,224.5 144.3,186.9 144.3,188.3 148,190.2 148.1,207.5 144.3,211.6 
						144.3,213.4 150.1,208.6 150.1,189.3 352.4,225.3 					"/>
					<g id="XMLID_6_">
						<g id="XMLID_7_">
							<defs>
								<path id="XMLID_8_" d="M350.2,224.9c-0.1,3.5-0.3,8-0.4,12c-0.1,3.4-0.2,6.4-0.3,9.2c-0.2,3.7-0.3,7.5-0.5,12.7
									c-0.5,13.1-3.5,17.3-9.2,20.8c-5.4,3.3-11.8,3.8-31.2,4.7c-19.6,1-40.6,1.5-62.3,1.7c-1.7,0-3.3,0-4.9,0
									c-25.5,0-48.7-1.4-78-3.7c-5-0.4-8.1-0.8-9.6-1.7c-1.5-1-2-1.3-2.4-7.5c-0.1-0.9-0.1-1.8-0.2-2.6c-0.2-2.4-0.4-4.5-0.5-7.7
									c-0.1-3.3-0.3-6.4-0.8-13.4L148,246c0.4,7.5,0.7,13.9,0.8,17.2c0.1,3,0.2,5,0.3,7.4l0,0.3c0,0.7,0.1,1.5,0.1,2.3
									c0.4,6.3,0.9,7.6,3.3,9.2c1.8,1.2,5.1,1.7,10.6,2.1c29.3,2.3,52.6,3.7,78.1,3.7c1.6,0,3.3,0,5,0c21.8-0.2,42.8-0.7,62.4-1.7
									c19.8-1,26.3-1.5,32.1-5c6.3-3.9,9.7-8.4,10.2-22.5c0.2-5,0.4-8.8,0.5-12.5l0-0.2c0.2-5.9,0.5-12.2,0.8-20.9L350.2,224.9z"
									/>
							</defs>
							<clipPath id="XMLID_186_">
								<use xlink:href="#XMLID_8_"  style="overflow:visible;"/>
							</clipPath>
							<rect id="XMLID_9_" x="148" y="224.9" class="st3" width="204.4" height="63.2"/>
							<path id="XMLID_10_" class="st3" d="M348.1,289.1H224.5H147v-45.4h-3.6c2.6-3.9,5.8-7.5,9.6-10.7
								c7.5-6.5,17.2-11.5,28.4-14.8v5.8h79.8v-4.6c29.1,8.1,53.3,22.8,69.1,40.1c7.9,8.6,13.6,17.9,16.7,27.3
								c0.8,2.4,1.4,4.7,1.9,7.1v-4.7H348.1z"/>
							<path id="XMLID_11_" class="st4" d="M347.7,289.1H224.5H147v-45.3h-3.2c2.6-3.9,5.8-7.5,9.5-10.7
								c7.5-6.4,17.1-11.4,28.3-14.8v5.5h79.5v-4.3c29,8,53.1,22.7,68.8,39.9c7.8,8.6,13.5,17.9,16.6,27.2c0.8,2.3,1.4,4.7,1.8,7
								v-4.6H347.7z"/>
							<path id="XMLID_12_" class="st5" d="M347.3,289.1H224.6H147V244h-2.8c2.6-3.9,5.8-7.5,9.5-10.7c7.5-6.4,17.1-11.4,28.2-14.7
								v5.3h79.2v-4.1c28.8,8,52.9,22.6,68.5,39.7c7.8,8.6,13.5,17.8,16.6,27.1c0.8,2.3,1.4,4.7,1.8,7v-4.6H347.3z"/>
							<path id="XMLID_13_" class="st6" d="M346.9,289.1H224.7H147v-44.9h-2.4c2.6-3.9,5.8-7.4,9.5-10.6c7.4-6.4,17-11.3,28.1-14.7
								v5H261v-3.8c28.7,8,52.7,22.5,68.2,39.6c7.8,8.5,13.4,17.7,16.5,27c0.8,2.3,1.4,4.7,1.8,7v-4.6H346.9z"/>
							<path id="XMLID_14_" class="st7" d="M346.4,289.1H224.8H147v-44.8h-2c2.6-3.9,5.7-7.4,9.4-10.6c7.4-6.4,16.9-11.3,28-14.6
								v4.7h78.6v-3.5c28.6,7.9,52.5,22.4,68,39.4c7.7,8.5,13.4,17.6,16.5,26.9c0.8,2.3,1.4,4.6,1.8,7v-4.5H346.4z"/>
							<path id="XMLID_15_" class="st8" d="M346,289.1H224.8H147v-44.6h-1.6c2.5-3.9,5.7-7.4,9.4-10.5c7.4-6.3,16.9-11.2,27.8-14.5
								v4.5h78.2v-3.3c28.5,7.9,52.3,22.3,67.7,39.3c7.7,8.5,13.3,17.6,16.4,26.8c0.8,2.3,1.4,4.6,1.8,6.9v-4.5H346z"/>
							<path id="XMLID_16_" class="st9" d="M345.6,289.1H224.9H147v-32h-6.9c5-17.9,20.9-30.9,42.8-37.4v4.2h77.9v-3
								c28.4,7.9,52.1,22.2,67.4,39.1c7.7,8.4,13.3,17.5,16.3,26.7c0.8,2.3,1.4,4.6,1.8,6.9v-4.5H345.6z"/>
							<path id="XMLID_17_" class="st10" d="M345.2,289.1H225h-78v-31.9h-6.5c4.9-17.8,20.9-30.8,42.6-37.3v3.9h77.6v-2.7
								c28.3,7.8,51.8,22.1,67.1,38.9c7.6,8.4,13.2,17.4,16.3,26.6c0.8,2.3,1.4,4.6,1.8,6.9v-4.4H345.2z"/>
							<path id="XMLID_18_" class="st11" d="M344.8,289.1H225H147v-31.7h-6.1c4.9-17.7,20.8-30.6,42.4-37.1v3.7h77.3v-2.5
								c28.1,7.8,51.6,22.1,66.9,38.8c7.6,8.4,13.2,17.4,16.2,26.5c0.8,2.3,1.4,4.6,1.8,6.9v-4.4H344.8z"/>
							<path id="XMLID_78_" class="st12" d="M344.4,289.1H225.1H147v-31.6h-5.6c4.9-17.7,20.7-30.5,42.3-37v3.4h77v-2.2
								c28,7.8,51.4,22,66.6,38.6c7.6,8.3,13.1,17.3,16.1,26.4c0.8,2.3,1.4,4.5,1.8,6.8v-4.4H344.4z"/>
							<path id="XMLID_79_" class="st13" d="M343.9,289.1H225.2H147v-31.5h-5.2c4.9-17.6,20.6-30.4,42.1-36.8v3.1h76.7v-2
								c27.9,7.7,51.2,21.9,66.3,38.5c7.5,8.3,13.1,17.2,16.1,26.3c0.8,2.3,1.3,4.5,1.8,6.8v-4.3H343.9z"/>
							<path id="XMLID_80_" class="st14" d="M343.5,289.1H225.3H147v-31.4h-4.8c4.9-17.5,20.5-30.2,41.9-36.7v2.8h76.3v-1.7
								c27.8,7.7,51,21.8,66,38.3c7.5,8.3,13,17.1,16,26.1c0.7,2.3,1.3,4.5,1.8,6.8v-4.3H343.5z"/>
							<path id="XMLID_81_" class="st15" d="M343.1,289.1H225.3H147v-31.3h-4.4c4.8-17.4,20.4-30.1,41.7-36.5v2.6h76v-1.4
								c27.7,7.7,50.8,21.7,65.8,38.2c7.5,8.2,12.9,17.1,15.9,26c0.7,2.2,1.3,4.5,1.8,6.7v-4.3H343.1z"/>
							<path id="XMLID_82_" class="st16" d="M342.7,289.1H225.4H147v-31.2h-4c4.8-17.4,20.3-30,41.6-36.4v2.3h75.7v-1.2
								c27.6,7.6,50.6,21.6,65.5,38c7.5,8.2,12.9,17,15.9,25.9c0.7,2.2,1.3,4.5,1.8,6.7v-4.2H342.7z"/>
							<path id="XMLID_83_" class="st17" d="M342.3,289.1H225.5h-78.3v2.1c-1-2.2-1.9-4.4-2.7-6.6h2.5V258h-3.6
								c4.8-17.3,20.3-29.9,41.4-36.2v2h75.4V223c27.5,7.6,50.4,21.5,65.2,37.8c7.4,8.2,12.8,16.9,15.8,25.8
								c0.7,2.2,1.3,4.5,1.7,6.7v-4.2H342.3z"/>
							<path id="XMLID_84_" class="st18" d="M341.9,289.1H225.6h-78v2.1c-1-2.2-1.9-4.4-2.7-6.6h2.1v-26.4h-3.1
								c4.8-17.2,20.2-29.7,41.2-36.1v1.8h75.1v-0.6c27.3,7.6,50.2,21.4,64.9,37.7c7.4,8.1,12.8,16.9,15.7,25.7
								c0.7,2.2,1.3,4.4,1.7,6.7v-4.2H341.9z"/>
							<path id="XMLID_85_" class="st19" d="M341.4,289.1H225.6h-77.7v2.1c-1-2.2-1.9-4.4-2.6-6.6h1.7v-26.3h-2.7
								c4.8-17.2,20.1-29.6,41.1-35.9v1.5h74.8v-0.4c27.2,7.5,49.9,21.3,64.7,37.5c7.4,8.1,12.7,16.8,15.7,25.6
								c0.7,2.2,1.3,4.4,1.7,6.6v-4.1H341.4z"/>
							<path id="XMLID_86_" class="st20" d="M341,289.1H225.7h-77.4v2.1c-1-2.2-1.9-4.4-2.6-6.6h1.3v-26.2h-2.3
								c4.7-17.1,20-29.5,40.9-35.8v1.2H260v-0.1c27.1,7.5,49.7,21.2,64.4,37.4c7.3,8.1,12.7,16.7,15.6,25.5
								c0.7,2.2,1.3,4.4,1.7,6.6v-4.1H341z"/>
							<path id="XMLID_87_" class="st21" d="M340.6,289.1H225.8h-77v2.1c-1-2.2-1.9-4.3-2.6-6.5h0.9v-26.1h-1.9
								c4.7-17,19.9-29.4,40.7-35.6v1h34.7v-5.6c12.6,0.1,25.9,2,39.4,5.7c27,7.5,49.5,21.2,64.1,37.2c7.3,8,12.6,16.6,15.5,25.4
								c0.7,2.2,1.3,4.4,1.7,6.6v-4.1H340.6z"/>
							<path id="XMLID_88_" class="st22" d="M340.2,289.1H225.8h-76.7v2c-1-2.2-1.9-4.3-2.6-6.5h0.4v-26h-1.5
								c4.7-16.9,19.8-29.2,40.5-35.5v0.7h34.6v-5.3c12.5,0.1,25.8,2,39.2,5.7c26.9,7.5,49.3,21.1,63.9,37
								c7.3,8,12.6,16.6,15.5,25.3c0.7,2.2,1.3,4.4,1.7,6.5v-4.1H340.2z"/>
							<path id="XMLID_89_" class="st23" d="M339.8,289.1H225.9h-76.4v2c-1-2.1-1.9-4.3-2.6-6.5h0v-25.9h-1.1
								c4.7-16.9,19.8-29.1,40.4-35.3c20.6-6.2,46.7-6.3,73.5,1.1c26.8,7.4,49.1,21,63.6,36.9c7.2,8,12.5,16.5,15.4,25.2
								c0.7,2.2,1.3,4.3,1.7,6.5v-4H339.8z"/>
							<path id="XMLID_90_" class="st24" d="M339.4,289.1H226h-76v2c-1-2.1-1.9-4.3-2.6-6.4c-2.9-8.6-3.4-17.4-1-25.8
								c4.7-16.8,19.7-29,40.2-35.2c20.5-6.2,46.5-6.3,73.2,1.1c26.6,7.4,48.9,20.9,63.3,36.7c7.2,7.9,12.5,16.4,15.3,25.1
								c0.7,2.2,1.3,4.3,1.7,6.5v-4H339.4z"/>
							<path id="XMLID_91_" class="st25" d="M338.9,289.1H226.1h-75.7v2c-1-2.1-1.9-4.3-2.6-6.4c-2.9-8.6-3.3-17.3-1-25.7
								c4.6-16.7,19.6-28.9,40-35s46.3-6.3,72.9,1.1c26.5,7.4,48.7,20.8,63,36.6c7.2,7.9,12.4,16.4,15.3,25c0.7,2.1,1.3,4.3,1.7,6.5
								v-4H338.9z"/>
							<path id="XMLID_92_" class="st26" d="M338.5,289.1H226.1h-75.4v1.9c-1-2.1-1.9-4.2-2.6-6.4c-2.8-8.6-3.3-17.2-1-25.5
								c4.6-16.6,19.5-28.7,39.8-34.9c20.3-6.1,46.1-6.2,72.5,1.1c26.4,7.3,48.5,20.7,62.8,36.4c7.1,7.9,12.4,16.3,15.2,24.8
								c0.7,2.1,1.3,4.3,1.7,6.4v-3.9H338.5z"/>
							<path id="XMLID_93_" class="st27" d="M338.1,289.1H226.2h-75.1v1.9c-1-2.1-1.8-4.2-2.6-6.4c-2.8-8.5-3.3-17.1-1-25.4
								c4.6-16.6,19.4-28.6,39.7-34.7c20.2-6.1,45.9-6.2,72.2,1.1c26.3,7.3,48.3,20.6,62.5,36.2c7.1,7.8,12.3,16.2,15.1,24.7
								c0.7,2.1,1.3,4.3,1.7,6.4v-3.9H338.1z"/>
							<path id="XMLID_94_" class="st28" d="M337.7,289.1H226.3h-74.7v1.9c-1-2.1-1.8-4.2-2.5-6.3c-2.8-8.5-3.3-17.1-1-25.3
								c4.6-16.5,19.3-28.5,39.5-34.6c20.2-6.1,45.7-6.2,71.9,1.1c26.2,7.3,48,20.5,62.2,36.1c7.1,7.8,12.2,16.1,15.1,24.6
								c0.7,2.1,1.3,4.2,1.7,6.4v-3.9H337.7z"/>
							<path id="XMLID_95_" class="st29" d="M337.3,289.1H226.4H152v1.9c-1-2.1-1.8-4.2-2.5-6.3c-2.8-8.4-3.3-17-1-25.2
								c4.6-16.4,19.2-28.4,39.3-34.4c20.1-6,45.5-6.1,71.6,1.1c26.1,7.2,47.8,20.4,61.9,35.9c7.1,7.8,12.2,16.1,15,24.5
								c0.7,2.1,1.3,4.2,1.7,6.3v-3.8H337.3z"/>
							<path id="XMLID_96_" class="st30" d="M336.9,289.1H226.4h-74.1v1.8c-1-2.1-1.8-4.2-2.5-6.3c-2.8-8.4-3.3-16.9-1-25.1
								c4.5-16.4,19.2-28.2,39.1-34.2s45.3-6.1,71.3,1.1c26,7.2,47.6,20.3,61.7,35.8c7,7.7,12.1,16,14.9,24.4
								c0.7,2.1,1.3,4.2,1.7,6.3v-3.8H336.9z"/>
							<path id="XMLID_97_" class="st31" d="M336.4,289.1H226.5h-73.7v1.8c-1-2.1-1.8-4.2-2.5-6.2c-2.8-8.4-3.2-16.8-1-25
								c4.5-16.3,19.1-28.1,39-34.1c19.9-6,45.1-6.1,71,1.1c25.8,7.2,47.4,20.2,61.4,35.6c7,7.7,12.1,15.9,14.9,24.3
								c0.7,2.1,1.2,4.2,1.6,6.3v-3.8H336.4z"/>
							<path id="XMLID_98_" class="st32" d="M336,289.1H226.6h-73.4v1.8c-1-2.1-1.8-4.1-2.5-6.2c-2.8-8.3-3.2-16.8-1-24.9
								c4.5-16.2,19-28,38.8-33.9c19.8-5.9,44.9-6.1,70.6,1.1c25.7,7.1,47.2,20.2,61.1,35.5c7,7.6,12,15.9,14.8,24.2
								c0.7,2.1,1.2,4.2,1.6,6.3v-3.7H336z"/>
							<path id="XMLID_99_" class="st33" d="M335.6,289.1h-109h-73.1v1.8c-1-2.1-1.8-4.1-2.5-6.2c-2.8-8.3-3.2-16.7-1-24.8
								c4.5-16.1,18.9-27.9,38.6-33.8c19.7-5.9,44.7-6,70.3,1.1c25.6,7.1,47,20.1,60.8,35.3c6.9,7.6,12,15.8,14.7,24.1
								c0.7,2.1,1.2,4.2,1.6,6.2v-3.7H335.6z"/>
							<path id="XMLID_100_" class="st34" d="M335.2,289.1H226.7H154v1.7c-1-2-1.8-4.1-2.5-6.2c-2.7-8.3-3.2-16.6-1-24.7
								c4.5-16.1,18.8-27.7,38.4-33.6s44.5-6,70,1.1c25.5,7.1,46.8,20,60.6,35.1c6.9,7.6,11.9,15.7,14.7,24c0.7,2.1,1.2,4.1,1.6,6.2
								v-3.7H335.2z"/>
							<path id="XMLID_101_" class="st35" d="M334.8,289.1h-108h-72.4v1.7c-1-2-1.8-4.1-2.5-6.1c-2.7-8.2-3.2-16.5-1-24.5
								c4.4-16,18.7-27.6,38.3-33.5c19.5-5.9,44.3-6,69.7,1.1c25.4,7,46.6,19.9,60.3,35c6.9,7.5,11.9,15.7,14.6,23.9
								c0.7,2.1,1.2,4.1,1.6,6.2v-3.6H334.8z"/>
							<path id="XMLID_102_" class="st36" d="M334.4,289.1H226.9h-72.1v1.7c-1-2-1.8-4.1-2.5-6.1c-2.7-8.2-3.2-16.5-1-24.4
								c4.4-15.9,18.6-27.5,38.1-33.3c19.5-5.8,44.1-6,69.4,1c25.3,7,46.4,19.8,60,34.8c6.8,7.5,11.8,15.6,14.5,23.8
								c0.7,2,1.2,4.1,1.6,6.1v-3.6H334.4z"/>
							<path id="XMLID_103_" class="st37" d="M333.9,289.1h-107h-71.8v1.7c-1-2-1.8-4-2.4-6.1c-2.7-8.1-3.2-16.4-1-24.3
								c4.4-15.8,18.6-27.4,37.9-33.2c19.4-5.8,43.9-5.9,69.1,1c25.2,7,46.1,19.7,59.7,34.7c6.8,7.5,11.8,15.5,14.5,23.7
								c0.7,2,1.2,4.1,1.6,6.1v-3.6H333.9z"/>
							<path id="XMLID_104_" class="st38" d="M333.5,289.1H227h-71.4v1.6c-0.9-2-1.8-4-2.4-6.1c-2.7-8.1-3.1-16.3-1-24.2
								c4.4-15.8,18.5-27.2,37.8-33c19.3-5.8,43.7-5.9,68.8,1c25,6.9,45.9,19.6,59.5,34.5c6.8,7.4,11.7,15.4,14.4,23.5
								c0.7,2,1.2,4.1,1.6,6.1v-3.5H333.5z"/>
							<path id="XMLID_105_" class="st39" d="M333.1,289.1h-106H156v1.6c-0.9-2-1.8-4-2.4-6c-2.7-8.1-3.1-16.2-1-24.1
								c4.4-15.7,18.4-27.1,37.6-32.9c19.2-5.8,43.5-5.9,68.4,1c24.9,6.9,45.7,19.5,59.2,34.3c6.7,7.4,11.7,15.4,14.3,23.4
								c0.7,2,1.2,4,1.6,6.1v-3.5H333.1z"/>
							<path id="XMLID_106_" class="st40" d="M332.7,289.1H227.2h-70.8v1.6c-0.9-2-1.7-4-2.4-6c-2.7-8-3.1-16.2-1-24
								c4.3-15.6,18.3-27,37.4-32.7c19.1-5.7,43.3-5.8,68.1,1c24.8,6.9,45.5,19.4,58.9,34.2c6.7,7.4,11.6,15.3,14.3,23.3
								c0.7,2,1.2,4,1.6,6v-3.5H332.7z"/>
							<path id="XMLID_107_" class="st41" d="M332.3,289.1h-105h-70.5v1.6c-0.9-2-1.7-4-2.4-6c-2.7-8-3.1-16.1-0.9-23.9
								c4.3-15.6,18.2-26.9,37.2-32.6c19-5.7,43.1-5.8,67.8,1c24.7,6.8,45.3,19.3,58.7,34c6.7,7.3,11.5,15.2,14.2,23.2
								c0.7,2,1.2,4,1.6,6v-3.4H332.3z"/>
							<path id="XMLID_108_" class="st42" d="M331.8,289.1H227.3h-70.1v1.6c-0.9-2-1.7-4-2.4-5.9c-2.6-8-3.1-16-0.9-23.8
								c4.3-15.5,18.1-26.7,37.1-32.4c18.9-5.7,42.9-5.8,67.5,1c24.6,6.8,45.1,19.3,58.4,33.9c6.6,7.3,11.5,15.2,14.1,23.1
								c0.7,2,1.2,4,1.6,6v-3.4H331.8z"/>
							<path id="XMLID_109_" class="st43" d="M331.4,289.1H227.4h-69.8v1.5c-0.9-2-1.7-3.9-2.4-5.9c-2.6-7.9-3.1-15.9-0.9-23.7
								c4.3-15.4,18.1-26.6,36.9-32.3c18.8-5.7,42.7-5.8,67.2,1c24.5,6.8,44.9,19.2,58.1,33.7c6.6,7.3,11.4,15.1,14.1,23
								c0.7,2,1.2,4,1.6,6v-3.4H331.4z"/>
							<path id="XMLID_110_" class="st44" d="M331,289.1H227.5H158v1.5c-0.9-2-1.7-3.9-2.4-5.9c-2.6-7.9-3.1-15.9-0.9-23.5
								c4.3-15.3,18-26.5,36.7-32.1s42.5-5.7,66.9,1c24.3,6.7,44.7,19.1,57.8,33.6c6.6,7.2,11.4,15,14,22.9c0.7,2,1.2,3.9,1.6,5.9
								v-3.3H331z"/>
							<path id="XMLID_111_" class="st45" d="M330.6,289.1H227.5h-69.1v1.5c-0.9-1.9-1.7-3.9-2.4-5.9c-2.6-7.8-3-15.8-0.9-23.4
								c8.5-30.5,54.6-44.4,103.1-31c24.2,6.7,44.5,19,57.6,33.4c6.6,7.2,11.3,14.9,13.9,22.8c0.7,2,1.2,3.9,1.5,5.9v-3.3H330.6z"/>
							<path id="XMLID_112_" class="st46" d="M330.2,289.1H227.6h-68.8v1.5c-0.9-1.9-1.7-3.9-2.3-5.8c-2.6-7.8-3-15.7-0.9-23.3
								c8.4-30.4,54.4-44.2,102.6-30.8c24.1,6.7,44.2,18.9,57.3,33.2c6.5,7.2,11.3,14.9,13.9,22.7c0.6,2,1.2,3.9,1.5,5.9v-3.3H330.2
								z"/>
							<path id="XMLID_113_" class="st47" d="M329.8,289.1H227.7h-68.5v1.4c-0.9-1.9-1.7-3.9-2.3-5.8c-2.6-7.8-3-15.6-0.9-23.2
								c8.4-30.2,54.1-44,102.1-30.7c24,6.7,44,18.8,57,33.1c6.5,7.1,11.2,14.8,13.8,22.6c0.6,1.9,1.2,3.9,1.5,5.8v-3.2H329.8z"/>
							<path id="XMLID_114_" class="st48" d="M329.3,289.1H227.7h-68.2v1.4c-0.9-1.9-1.7-3.8-2.3-5.8c-2.6-7.7-3-15.6-0.9-23.1
								c8.3-30.1,53.8-43.8,101.6-30.5c23.9,6.6,43.8,18.7,56.7,32.9c6.5,7.1,11.2,14.7,13.7,22.5c0.6,1.9,1.2,3.9,1.5,5.8v-3.2
								H329.3z"/>
							<path id="XMLID_115_" class="st49" d="M328.9,289.1H227.8H160v1.4c-0.9-1.9-1.7-3.8-2.3-5.7c-2.6-7.7-3-15.5-0.9-23
								c8.3-30,53.6-43.6,101.1-30.4c23.8,6.6,43.6,18.6,56.5,32.8c6.4,7.1,11.1,14.7,13.7,22.4c0.6,1.9,1.1,3.9,1.5,5.8v-3.2H328.9
								z"/>
							<path id="XMLID_116_" class="st50" d="M328.5,289.1H227.9h-67.5v1.4c-0.9-1.9-1.7-3.8-2.3-5.7c-2.5-7.7-3-15.4-0.9-22.9
								c8.3-29.8,53.3-43.3,100.6-30.2c23.7,6.6,43.4,18.5,56.2,32.6c6.4,7,11.1,14.6,13.6,22.2c0.6,1.9,1.1,3.8,1.5,5.8v-3.1H328.5
								z"/>
							<path id="XMLID_117_" class="st51" d="M328.1,289.1H228h-64.1v7c-2.3-3.7-4.1-7.5-5.3-11.3c-2.5-7.6-3-15.3-0.9-22.8
								c8.2-29.7,53.1-43.1,100.1-30.1c23.5,6.5,43.2,18.4,55.9,32.4c6.4,7,11,14.5,13.5,22.1c0.6,1.9,1.1,3.8,1.5,5.7v-3.1H328.1z"
								/>
							<path id="XMLID_118_" class="st52" d="M327.7,289.1H228h-63.8v6.9c-2.3-3.7-4-7.5-5.3-11.2c-2.5-7.6-2.9-15.3-0.9-22.7
								c8.2-29.5,52.8-42.9,99.6-29.9c23.4,6.5,43,18.4,55.6,32.3c6.3,7,11,14.4,13.5,22c0.6,1.9,1.1,3.8,1.5,5.7v-3.1H327.7z"/>
							<path id="XMLID_119_" class="st53" d="M327.3,289.1h-99.2h-63.5v6.9c-2.2-3.7-4-7.4-5.3-11.2c-2.5-7.5-2.9-15.2-0.9-22.5
								c8.1-29.4,52.5-42.7,99.2-29.8c23.3,6.5,42.8,18.3,55.4,32.1c6.3,6.9,10.9,14.4,13.4,21.9c0.6,1.9,1.1,3.8,1.5,5.7v-3.1
								H327.3z"/>
							<path id="XMLID_120_" class="st53" d="M326.8,289.1h-98.7H165v6.8c-2.2-3.7-4-7.4-5.3-11.1c-2.5-7.5-2.9-15.1-0.9-22.4
								c8.1-29.2,52.3-42.5,98.7-29.6c23.2,6.4,42.6,18.2,55.1,32c6.3,6.9,10.8,14.3,13.3,21.8c0.6,1.9,1.1,3.8,1.5,5.6v-3H326.8z"
								/>
							<path id="XMLID_121_" class="st54" d="M325.9,289.1h-97.6h-62.5v6.7c-2.2-3.6-4-7.3-5.2-11c-2.5-7.4-2.9-15-0.9-22.2
								c8-28.9,51.7-42,97.6-29.3c22.9,6.4,42.1,18,54.5,31.6c6.2,6.8,10.7,14.1,13.2,21.6c0.6,1.9,1.1,3.7,1.5,5.6v-2.9H325.9z"/>
							<path id="XMLID_122_" class="st54" d="M325,289.1h-96.5h-61.8v6.6c-2.2-3.6-3.9-7.2-5.1-10.9c-2.4-7.3-2.9-14.8-0.9-21.9
								c7.9-28.6,51.1-41.6,96.5-29c22.7,6.3,41.6,17.8,53.9,31.3c6.1,6.7,10.6,14,13,21.3c0.6,1.8,1.1,3.7,1.4,5.5v-2.9H325z"/>
							<path id="XMLID_123_" class="st55" d="M324.1,289.1h-95.4h-61.1v6.5c-2.2-3.5-3.9-7.1-5.1-10.8c-2.4-7.3-2.8-14.6-0.9-21.7
								c7.8-28.3,50.5-41.1,95.4-28.7c22.4,6.2,41.1,17.6,53.3,30.9c6.1,6.7,10.5,13.8,12.9,21.1c0.6,1.8,1.1,3.6,1.4,5.5v-2.8
								H324.1z"/>
							<path id="XMLID_124_" class="st56" d="M323.1,289.1h-94.3h-60.4v6.3c-2.1-3.5-3.8-7.1-5-10.6c-2.4-7.2-2.8-14.5-0.9-21.4
								c7.7-27.9,50-40.6,94.3-28.3c22.2,6.1,40.7,17.4,52.7,30.5c6,6.6,10.4,13.7,12.7,20.8c0.6,1.8,1.1,3.6,1.4,5.4v-2.7H323.1z"
								/>
							<path id="XMLID_125_" class="st57" d="M322.2,289.1H229h-59.7v6.2c-2.1-3.5-3.8-7-5-10.5c-2.4-7.1-2.8-14.3-0.8-21.2
								c7.7-27.6,49.4-40.1,93.2-28c21.9,6.1,40.2,17.2,52,30.2c5.9,6.5,10.2,13.5,12.6,20.6c0.6,1.8,1.1,3.6,1.4,5.3v-2.7H322.2z"
								/>
							<path id="XMLID_126_" class="st58" d="M321.3,289.1h-92.1h-59v6.1c-2.1-3.4-3.7-6.9-4.9-10.4c-2.3-7-2.7-14.1-0.8-20.9
								c7.6-27.3,48.8-39.7,92.1-27.7c21.7,6,39.7,17,51.4,29.8c5.9,6.4,10.1,13.4,12.5,20.4c0.6,1.8,1,3.5,1.4,5.3v-2.6H321.3z"/>
							<path id="XMLID_127_" class="st59" d="M320.3,289.1h-91H171v6c-2.1-3.4-3.7-6.8-4.8-10.3c-2.3-6.9-2.7-14-0.8-20.7
								c7.5-27,48.2-39.2,91-27.3c21.4,5.9,39.3,16.8,50.8,29.5c5.8,6.4,10,13.2,12.3,20.1c0.6,1.7,1,3.5,1.4,5.2v-2.5H320.3z"/>
							<path id="XMLID_128_" class="st60" d="M319.4,289.1h-89.9h-57.6v5.9c-2-3.3-3.7-6.7-4.8-10.2c-2.3-6.8-2.7-13.8-0.8-20.4
								c7.4-26.6,47.6-38.7,89.9-27c21.1,5.9,38.8,16.6,50.2,29.1c5.7,6.3,9.9,13,12.2,19.9c0.6,1.7,1,3.4,1.3,5.1v-2.4H319.4z"/>
							<path id="XMLID_129_" class="st61" d="M318.5,289.1h-88.8h-56.9v5.8c-2-3.3-3.6-6.6-4.7-10c-2.2-6.8-2.6-13.6-0.8-20.2
								c7.3-26.3,47.1-38.3,88.8-26.7c20.9,5.8,38.3,16.4,49.6,28.8c5.6,6.2,9.8,12.9,12,19.6c0.6,1.7,1,3.4,1.3,5.1v-2.4H318.5z"/>
							<path id="XMLID_130_" class="st62" d="M317.6,289.1h-87.7h-56.2v5.7c-2-3.2-3.6-6.6-4.7-9.9c-2.2-6.7-2.6-13.4-0.8-19.9
								c7.2-26,46.5-37.8,87.7-26.4c20.6,5.7,37.8,16.2,49,28.4c5.6,6.1,9.6,12.7,11.9,19.4c0.6,1.7,1,3.3,1.3,5v-2.3H317.6z"/>
							<path id="XMLID_131_" class="st63" d="M316.6,289.1H230h-55.5v5.5c-2-3.2-3.5-6.5-4.6-9.8c-2.2-6.6-2.6-13.3-0.8-19.7
								c7.1-25.7,45.9-37.3,86.7-26c20.4,5.6,37.4,16,48.4,28.1c5.5,6.1,9.5,12.6,11.7,19.2c0.5,1.6,1,3.3,1.3,5v-2.2H316.6z"/>
							<path id="XMLID_132_" class="st64" d="M315.7,289.1h-85.6h-54.8v5.4c-1.9-3.2-3.5-6.4-4.6-9.7c-2.2-6.5-2.5-13.1-0.8-19.5
								c7-25.3,45.3-36.9,85.6-25.7c20.1,5.6,36.9,15.8,47.8,27.7c5.4,6,9.4,12.4,11.6,18.9c0.5,1.6,1,3.3,1.3,4.9v-2.2H315.7z"/>
							<path id="XMLID_133_" class="st65" d="M314.8,289.1h-84.5h-54.1v5.3c-1.9-3.1-3.4-6.3-4.5-9.5c-2.1-6.4-2.5-12.9-0.8-19.2
								c6.9-25,44.8-36.4,84.5-25.4c19.9,5.5,36.4,15.6,47.2,27.4c5.4,5.9,9.3,12.2,11.4,18.7c1.1,3.2,1.7,6.5,1.8,9.7v-6.9H314.8z"
								/>
							<path id="XMLID_134_" class="st66" d="M313.8,289.1h-83.4h-53.4v5.2c-1.9-3.1-3.4-6.2-4.4-9.4c-2.1-6.3-2.5-12.8-0.8-19
								c6.8-24.7,44.2-35.9,83.4-25c19.6,5.4,36,15.4,46.6,27c5.3,5.8,9.2,12.1,11.3,18.4c1.1,3.2,1.7,6.4,1.8,9.5v-6.8H313.8z"/>
							<path id="XMLID_135_" class="st67" d="M312.9,289.1h-82.3h-52.7v5.1c-1.9-3-3.3-6.2-4.4-9.3c-2.1-6.3-2.4-12.6-0.7-18.7
								c6.8-24.4,43.6-35.4,82.3-24.7c19.3,5.4,35.5,15.2,46,26.7c5.2,5.8,9,11.9,11.1,18.2c1,3.1,1.6,6.3,1.8,9.4v-6.6H312.9z"/>
							<path id="XMLID_136_" class="st68" d="M312,289.1h-81.2h-52v5c-1.8-3-3.3-6.1-4.3-9.2c-2.1-6.2-2.4-12.4-0.7-18.5
								c6.7-24.1,43-35,81.2-24.4c19.1,5.3,35,15,45.3,26.3c5.2,5.7,8.9,11.8,11,18c1,3.1,1.6,6.2,1.8,9.3v-6.5H312z"/>
							<path id="XMLID_137_" class="st69" d="M311,289.1h-80.1h-51.3v4.9c-1.8-3-3.3-6-4.3-9c-2-6.1-2.4-12.3-0.7-18.2
								c6.6-23.7,42.4-34.5,80.1-24.1c18.8,5.2,34.5,14.8,44.7,26c5.1,5.6,8.8,11.6,10.8,17.7c1,3,1.6,6.1,1.7,9.2v-6.4H311z"/>
							<path id="XMLID_138_" class="st70" d="M310.1,289.1h-79h-50.6v4.8c-1.8-2.9-3.2-5.9-4.2-8.9c-2-6-2.3-12.1-0.7-18
								c6.5-23.4,41.9-34,79-23.7c18.6,5.1,34.1,14.6,44.1,25.6c5,5.5,8.7,11.5,10.7,17.5c1,3,1.6,6,1.7,9v-6.2H310.1z"/>
							<path id="XMLID_139_" class="st71" d="M309.2,289.1h-77.9h-49.9v4.6c-1.8-2.9-3.2-5.8-4.1-8.8c-2-5.9-2.3-11.9-0.7-17.7
								c6.4-23.1,41.3-33.6,77.9-23.4c18.3,5.1,33.6,14.4,43.5,25.2c5,5.4,8.6,11.3,10.5,17.2c1,3,1.6,6,1.7,8.9v-6.1H309.2z"/>
							<path id="XMLID_140_" class="st72" d="M308.3,289.1h-76.8h-49.2v4.5c-1.7-2.8-3.1-5.7-4.1-8.7c-1.9-5.8-2.3-11.8-0.7-17.5
								c6.3-22.8,40.7-33.1,76.8-23.1c18.1,5,33.1,14.2,42.9,24.9c4.9,5.4,8.4,11.1,10.4,17c1,2.9,1.5,5.9,1.7,8.8v-6H308.3z"/>
							<path id="XMLID_141_" class="st73" d="M307.3,289.1h-75.7h-48.5v4.4c-1.7-2.8-3.1-5.7-4-8.5c-1.9-5.8-2.2-11.6-0.7-17.2
								c6.2-22.4,40.1-32.6,75.7-22.8c17.8,4.9,32.7,14,42.3,24.5c4.8,5.3,8.3,11,10.2,16.7c1,2.9,1.5,5.8,1.6,8.7v-5.8H307.3z"/>
							<path id="XMLID_142_" class="st74" d="M306.4,289.1h-74.7h-47.8v4.3c-1.7-2.8-3-5.6-4-8.4c-1.9-5.7-2.2-11.4-0.7-17
								c6.1-22.1,39.6-32.2,74.7-22.4c17.5,4.9,32.2,13.8,41.7,24.2c4.7,5.2,8.2,10.8,10.1,16.5c0.9,2.8,1.5,5.7,1.6,8.5v-5.7H306.4
								z"/>
							<path id="XMLID_143_" class="st75" d="M305.5,289.1h-73.6h-47.1v4.2c-1.7-2.7-3-5.5-3.9-8.3c-1.9-5.6-2.2-11.3-0.7-16.7
								c6-21.8,39-31.7,73.6-22.1c17.3,4.8,31.7,13.5,41.1,23.8c4.7,5.1,8.1,10.7,9.9,16.3c0.9,2.8,1.5,5.6,1.6,8.4v-5.6H305.5z"/>
							<path id="XMLID_144_" class="st76" d="M304.5,289.1h-72.5h-46.4v4.1c-1.6-2.7-2.9-5.4-3.9-8.2c-1.8-5.5-2.1-11.1-0.7-16.5
								c6-21.5,38.4-31.2,72.5-21.8c17,4.7,31.3,13.3,40.5,23.5c4.6,5.1,8,10.5,9.8,16c0.9,2.8,1.5,5.5,1.6,8.3v-5.4H304.5z"/>
							<path id="XMLID_145_" class="st77" d="M303.6,289.1h-71.4h-45.7v4c-1.6-2.6-2.9-5.3-3.8-8.1c-1.8-5.4-2.1-10.9-0.6-16.2
								c5.9-21.1,37.8-30.7,71.4-21.4c16.8,4.7,30.8,13.1,39.9,23.1c4.5,5,7.8,10.3,9.6,15.8c0.9,2.7,1.4,5.5,1.5,8.2v-5.3H303.6z"
								/>
							<path id="XMLID_146_" class="st78" d="M302.7,289.1h-70.3h-45v3.8c-1.6-2.6-2.9-5.3-3.7-7.9c-1.8-5.3-2.1-10.8-0.6-16
								c5.8-20.8,37.2-30.3,70.3-21.1c16.5,4.6,30.3,12.9,39.3,22.8c4.5,4.9,7.7,10.2,9.5,15.5c0.9,2.7,1.4,5.4,1.5,8v-5.2H302.7z"
								/>
							<path id="XMLID_147_" class="st79" d="M301.8,289.1h-69.2h-44.3v3.7c-1.6-2.6-2.8-5.2-3.7-7.8c-1.8-5.3-2-10.6-0.6-15.7
								c5.7-20.5,36.7-29.8,69.2-20.8c16.3,4.5,29.8,12.7,38.6,22.4c4.4,4.8,7.6,10,9.4,15.3c0.9,2.6,1.4,5.3,1.5,7.9v-5H301.8z"/>
							<path id="XMLID_148_" class="st80" d="M300.8,289.1h-68.1h-43.6v3.6c-1.5-2.5-2.8-5.1-3.6-7.7c-1.7-5.2-2-10.4-0.6-15.5
								c5.6-20.2,36.1-29.3,68.1-20.5c16,4.4,29.4,12.5,38,22.1c4.3,4.8,7.5,9.9,9.2,15.1c0.9,2.6,1.4,5.2,1.5,7.8v-4.9H300.8z"/>
							<path id="XMLID_149_" class="st81" d="M299.9,289.1h-67H190v3.5c-1.5-2.5-2.7-5-3.6-7.6c-1.7-5.1-2-10.3-0.6-15.2
								c5.5-19.9,35.5-28.9,67-20.1c15.8,4.4,28.9,12.3,37.4,21.7c4.3,4.7,7.4,9.7,9.1,14.8c0.8,2.6,1.3,5.1,1.5,7.7v-4.8H299.9z"/>
							<path id="XMLID_150_" class="st82" d="M299,289.1H233h-42.2v3.4c-1.5-2.4-2.7-4.9-3.5-7.4c-1.7-5-1.9-10.1-0.6-15
								c5.4-19.5,34.9-28.4,65.9-19.8c15.5,4.3,28.4,12.1,36.8,21.4c4.2,4.6,7.2,9.6,8.9,14.6c0.8,2.5,1.3,5,1.4,7.5v-4.6H299z"/>
							<path id="XMLID_151_" class="st83" d="M298,289.1h-64.8h-41.5v3.3c-1.5-2.4-2.6-4.8-3.5-7.3c-1.6-4.9-1.9-9.9-0.6-14.7
								c5.3-19.2,34.3-27.9,64.8-19.5c15.2,4.2,28,11.9,36.2,21c4.1,4.5,7.1,9.4,8.8,14.3c0.8,2.5,1.3,5,1.4,7.4v-4.5H298z"/>
							<path id="XMLID_152_" class="st84" d="M297.1,289.1h-63.7h-40.8v3.2c-1.4-2.4-2.6-4.8-3.4-7.2c-1.6-4.9-1.9-9.8-0.6-14.5
								c5.2-18.9,33.8-27.5,63.7-19.1c15,4.2,27.5,11.7,35.6,20.6c4.1,4.5,7,9.2,8.6,14.1c0.8,2.4,1.3,4.9,1.4,7.3v-4.4H297.1z"/>
							<path id="XMLID_153_" class="st85" d="M296.2,289.1h-62.6h-40.1v3c-1.4-2.3-2.5-4.7-3.3-7.1c-1.6-4.8-1.9-9.6-0.6-14.2
								c5.1-18.6,33.2-27,62.6-18.8c14.7,4.1,27,11.5,35,20.3c4,4.4,6.9,9.1,8.5,13.8c0.8,2.4,1.3,4.8,1.4,7.2v-4.2H296.2z"/>
							<path id="XMLID_154_" class="st86" d="M295.3,289.1h-61.6h-39.4v2.9c-1.4-2.3-2.5-4.6-3.3-6.9c-1.6-4.7-1.8-9.4-0.6-14
								c5.1-18.2,32.6-26.5,61.6-18.5c14.5,4,26.5,11.3,34.4,19.9c3.9,4.3,6.8,8.9,8.3,13.6c0.8,2.3,1.2,4.7,1.3,7v-4.1H295.3z"/>
							<path id="XMLID_155_" class="st87" d="M294.3,289.1h-60.5h-38.7v2.8c-1.4-2.2-2.5-4.5-3.2-6.8c-1.5-4.6-1.8-9.3-0.5-13.7
								c5-17.9,32-26,60.5-18.2c14.2,3.9,26.1,11.1,33.8,19.6c3.8,4.2,6.6,8.8,8.2,13.4c0.8,2.3,1.2,4.6,1.3,6.9v-4H294.3z"/>
							<path id="XMLID_156_" class="st88" d="M293.4,289.1H234h-38v2.7c-1.3-2.2-2.4-4.4-3.2-6.7c-1.5-4.5-1.8-9.1-0.5-13.5
								c4.9-17.6,31.5-25.6,59.4-17.8c14,3.9,25.6,10.9,33.2,19.2c3.8,4.1,6.5,8.6,8,13.1c0.8,2.3,1.2,4.5,1.3,6.8v-3.8H293.4z"/>
							<path id="XMLID_157_" class="st89" d="M292.5,289.1h-58.3h-37.3v2.6c-1.3-2.2-2.4-4.4-3.1-6.6c-1.5-4.4-1.7-8.9-0.5-13.2
								c4.8-17.3,30.9-25.1,58.3-17.5c13.7,3.8,25.1,10.7,32.5,18.9c3.7,4.1,6.4,8.4,7.9,12.9c0.7,2.2,1.2,4.5,1.3,6.7v-3.7H292.5z"
								/>
							<path id="XMLID_158_" class="st90" d="M291.5,289.1h-57.2h-36.6v2.5c-1.3-2.1-2.3-4.3-3-6.5c-1.4-4.4-1.7-8.8-0.5-13
								c4.7-16.9,30.3-24.6,57.2-17.2c13.4,3.7,24.7,10.5,31.9,18.5c3.6,4,6.3,8.3,7.7,12.6c0.7,2.2,1.1,4.4,1.2,6.5v-3.6H291.5z"/>
							<path id="XMLID_159_" class="st91" d="M290.6,289.1h-56.1h-35.9v2.4c-1.3-2.1-2.3-4.2-3-6.3c-1.4-4.3-1.7-8.6-0.5-12.8
								c4.6-16.6,29.7-24.2,56.1-16.9c13.2,3.7,24.2,10.3,31.3,18.2c3.6,3.9,6.2,8.1,7.6,12.4c0.7,2.1,1.1,4.3,1.2,6.4v-3.4H290.6z"
								/>
							<path id="XMLID_160_" class="st92" d="M289.7,289.1h-55h-35.2v2.3c-1.2-2-2.2-4.1-2.9-6.2c-1.4-4.2-1.6-8.4-0.5-12.5
								c4.5-16.3,29.1-23.7,55-16.5c12.9,3.6,23.7,10.1,30.7,17.8c3.5,3.8,6,8,7.4,12.2c0.7,2.1,1.1,4.2,1.2,6.3v-3.3H289.7z"/>
							<path id="XMLID_161_" class="st93" d="M288.7,289.1h-53.9h-34.5v2.1c-1.2-2-2.2-4-2.9-6.1c-1.4-4.1-1.6-8.3-0.5-12.3
								c4.4-16,28.6-23.2,53.9-16.2c12.7,3.5,23.3,9.9,30.1,17.5c3.4,3.8,5.9,7.8,7.3,11.9c0.7,2.1,1.1,4.1,1.2,6.2v-3.2H288.7z"/>
							<path id="XMLID_162_" class="st94" d="M287.8,289.1H235h-33.8v2c-1.2-2-2.1-4-2.8-6c-1.3-4-1.6-8.1-0.5-12
								c4.3-15.6,28-22.8,52.8-15.9c12.4,3.4,22.8,9.7,29.5,17.1c3.4,3.7,5.8,7.7,7.1,11.7c0.7,2,1.1,4,1.1,6v-3H287.8z"/>
							<path id="XMLID_163_" class="st95" d="M286.9,289.1h-51.7H202v1.9c-1.2-1.9-2.1-3.9-2.8-5.8c-1.3-3.9-1.5-7.9-0.5-11.8
								c4.2-15.3,27.4-22.3,51.7-15.5c12.2,3.4,22.3,9.5,28.9,16.8c3.3,3.6,5.7,7.5,7,11.4c0.7,2,1,4,1.1,5.9v-2.9H286.9z"/>
							<path id="XMLID_164_" class="st96" d="M286,289.1h-50.6h-32.4v1.8c-1.1-1.9-2.1-3.8-2.7-5.7c-1.3-3.9-1.5-7.8-0.5-11.5
								c4.2-15,26.8-21.8,50.6-15.2c11.9,3.3,21.8,9.3,28.3,16.4c3.2,3.5,5.6,7.3,6.8,11.2c0.6,1.9,1,3.9,1.1,5.8v-2.8H286z"/>
							<path id="XMLID_165_" class="st97" d="M285,289.1h-49.5h-31.7v1.7c-1.1-1.8-2-3.7-2.6-5.6c-1.3-3.8-1.5-7.6-0.4-11.3
								c4.1-14.7,26.3-21.3,49.5-14.9c11.6,3.2,21.4,9.1,27.7,16.1c3.2,3.5,5.4,7.2,6.7,11c0.6,1.9,1,3.8,1.1,5.7v-2.6H285z"/>
							<path id="XMLID_166_" class="st98" d="M284.1,289.1h-48.5h-27.1v6.8c-6.2-6.8-9-14.6-7-21.7c4-14.4,25.7-20.9,48.5-14.6
								c11.4,3.2,20.9,8.9,27.1,15.7c3.1,3.4,5.3,7,6.6,10.7c0.6,1.8,1,3.7,1.1,5.5v-2.5H284.1z"/>
							<path id="XMLID_167_" class="st99" d="M283.2,289.1h-47.4h-26.5v6.6c-6-6.6-8.8-14.2-6.8-21.2c3.9-14,25.1-20.4,47.4-14.2
								c11.1,3.1,20.4,8.7,26.5,15.3c3,3.3,5.2,6.9,6.4,10.5c0.6,1.8,0.9,3.6,1,5.4v-2.4H283.2z"/>
							<path id="XMLID_168_" class="st100" d="M282.2,289.1H236h-25.8v6.3c-5.9-6.5-8.6-13.9-6.7-20.7c3.8-13.7,24.5-19.9,46.3-13.9
								c10.9,3,20,8.5,25.8,15c2.9,3.2,5.1,6.7,6.3,10.2c0.6,1.8,0.9,3.5,1,5.3v-2.2H282.2z"/>
							<path id="XMLID_169_" class="st101" d="M281.3,289.1h-45.2h-25.2v6.1c-5.7-6.3-8.4-13.6-6.5-20.3
								c3.7-13.4,23.9-19.5,45.2-13.6c10.6,2.9,19.5,8.3,25.2,14.6c2.9,3.2,5,6.5,6.1,10c0.6,1.7,0.9,3.5,1,5.2v-2.1H281.3z"/>
							<path id="XMLID_170_" class="st102" d="M280.4,289.1h-44.1h-24.6v5.9c-5.6-6.2-8.2-13.2-6.4-19.8c3.6-13.1,23.4-19,44.1-13.2
								c20.7,5.7,34.6,21,31,34.1V289.1z"/>
							<path id="XMLID_171_" class="st103" d="M279.5,289.1h-43h-24v5.7c-5.5-6-8-12.9-6.2-19.3c3.5-12.7,22.8-18.5,43-12.9
								c20.2,5.6,33.7,20.5,30.2,33.2V289.1z"/>
							<path id="XMLID_172_" class="st104" d="M278.5,289.1h-41.9h-23.4v5.4c-5.3-5.9-7.8-12.6-6-18.8c3.4-12.4,22.2-18.1,41.9-12.6
								c19.7,5.5,32.9,20,29.4,32.4V289.1z"/>
						</g>
					</g>
					<g id="XMLID_51_">
						<linearGradient id="XMLID_187_" gradientUnits="userSpaceOnUse" x1="216.2306" y1="155.0761" x2="349.9767" y2="155.0761">
							<stop  offset="0" style="stop-color:#3C372E"/>
							<stop  offset="0.2703" style="stop-color:#423D36"/>
							<stop  offset="0.454" style="stop-color:#48443E"/>
							<stop  offset="0.4998" style="stop-color:#433E37"/>
							<stop  offset="0.7675" style="stop-color:#2A210F"/>
							<stop  offset="0.9069" style="stop-color:#201600"/>
						</linearGradient>
						<path id="XMLID_52_" class="st105" d="M350.3,152.3L350.3,152.3h-0.9c-30.8-1.5-62.3-1.3-97.7-1.3c-2.2,0-5,0-8.1,0.1
							c-9.3,0.1-16.6,0.2-20.9,0.9c-9.3,1.7-8.9,6.5-5.4,7.2c0.6-0.5,1.2-1,1.9-1.3c2-0.9,4.5-1.4,8.9-1.5
							c6.5-0.1,14.4-0.2,24.2-0.2c30,0,87.3,1.9,102.1,2.5C353.3,156.9,350.8,153.1,350.3,152.3z"/>
					</g>
					<path id="XMLID_50_" class="st1" d="M346.1,120.5l1.2-1.7c0,0-0.3-0.2-0.3-0.2c-1.5-1.1-4.8-1.7-10.2-2.1
						c-27.6-1.9-58.2-3.1-79.8-3.1c-1.5,0-2.9,0-4.3,0c-4.5,0-8.9,0.1-13,0.1c-20.8,0.1-37.1,0.3-49.1,1c-1,0.1-2,0.1-3,0.2
						c-17.1,0.9-25.7,1.4-32.4,7.3c-4.5,4-6.4,9.5-6.8,20.2l-0.2,5.1c-0.3,8.1-0.5,13.1-0.8,23.9c-0.6,0.3-2.2,1-2.7,1.3l0,1.7
						l4.9-2l0.1-2.4c0.3-9.4,0.5-15.1,0.8-22.4l0.2-5.1c0.4-10,2.1-15.1,6.1-18.6c6.2-5.5,14.5-5.9,31.1-6.8c1-0.1,2-0.1,3-0.2
						c12-0.7,28.2-0.9,49-1c4.1,0,8.5,0,13-0.1c1.4,0,2.8,0,4.3,0c21.6,0,52.1,1.2,79.7,3.1c4.9,0.3,7.9,0.9,9.1,1.7L346.1,120.5
						C346.1,120.5,346.1,120.5,346.1,120.5z"/>
					<linearGradient id="XMLID_191_" gradientUnits="userSpaceOnUse" x1="161.3694" y1="168.6199" x2="149.5501" y2="115.8027">
						<stop  offset="0" style="stop-color:#7F7D7C"/>
						<stop  offset="0.5433" style="stop-color:#8E8D8C"/>
						<stop  offset="1" style="stop-color:#969594"/>
					</linearGradient>
					<path id="XMLID_49_" class="st106" d="M148.1,147.2l0.2-5.1c0.4-10.7,2.3-16.1,6.8-20.2c1-0.9,2-1.6,3.1-2.3
						c-1-2-1.3-3.8-0.6-5.3c0.6-1.1,3-3.1,8.1-5c-5.4,1.2-9.2,3.1-12.6,6.2c-4.8,4.3-7.2,11.8-7.6,23.6c-0.3,9.6-0.8,25.9-0.9,33.2
						c0.4-0.2,2-0.9,2.7-1.3C147.6,160.3,147.8,155.2,148.1,147.2z"/>
					<linearGradient id="XMLID_192_" gradientUnits="userSpaceOnUse" x1="158.2646" y1="113.7911" x2="353.6613" y2="113.7911">
						<stop  offset="5.670860e-002" style="stop-color:#BFBFBF"/>
						<stop  offset="0.2789" style="stop-color:#BCBCBC"/>
						<stop  offset="0.442" style="stop-color:#B3B3B3"/>
						<stop  offset="0.5862" style="stop-color:#A3A3A3"/>
						<stop  offset="0.7194" style="stop-color:#8C8C8C"/>
						<stop  offset="0.8452" style="stop-color:#6F6F6F"/>
						<stop  offset="0.9637" style="stop-color:#4C4C4C"/>
						<stop  offset="1" style="stop-color:#404040"/>
					</linearGradient>
					<path id="XMLID_48_" class="st107" d="M348.3,119.6c1.4-2.1,3.4-2.2,5.3,2.6c-0.6-9.1-1-10.1-2.6-11.2
						c-0.6-0.4-2.4-1.6-8.7-2.1c-34.6-2.4-65.8-3.6-95.3-3.6c-19.9,0-39.3,0.5-59.2,1.6c-9.8,0.5-16.7,1.2-22,2.4
						c-5.1,1.9-7.5,3.8-8.1,5c-0.7,1.4-0.4,3.3,0.6,5.3c6.3-3.8,14.7-4.3,29.3-5c1-0.1,2-0.1,3-0.2c12-0.7,28.3-0.9,49.1-1
						c4.1,0,8.5-0.1,13-0.1c1.4,0,2.9,0,4.3,0c21.7,0,52.2,1.2,79.8,3.1c5.4,0.4,8.6,1,10.2,2.1c0,0,0.3,0.2,0.3,0.2
						C347.7,119.1,348,119.3,348.3,119.6z"/>
					<linearGradient id="XMLID_193_" gradientUnits="userSpaceOnUse" x1="350.8103" y1="119.9412" x2="350.8103" y2="157.7435">
						<stop  offset="6.134970e-003" style="stop-color:#FFFFFF"/>
						<stop  offset="0.1166" style="stop-color:#CCCCCC"/>
						<stop  offset="0.495" style="stop-color:#CACACA"/>
						<stop  offset="0.6313" style="stop-color:#C3C3C3"/>
						<stop  offset="0.7284" style="stop-color:#B8B8B8"/>
						<stop  offset="0.807" style="stop-color:#A7A7A7"/>
						<stop  offset="0.8742" style="stop-color:#919191"/>
						<stop  offset="0.9338" style="stop-color:#757575"/>
						<stop  offset="0.9863" style="stop-color:#565656"/>
						<stop  offset="1" style="stop-color:#4D4D4D"/>
					</linearGradient>
					<path id="XMLID_47_" class="st108" d="M355.5,157.3l-4.2-7c-0.1-5.7-0.6-17.5-1-22.4c-0.4-4.7-0.6-6.7-2-8.2
						c-0.3-0.3-0.6-0.6-1-0.9l-1.2,1.7c1.3,1,1.5,1.9,2.1,7.5c0.5,5.1,1.2,18,1.3,23.1l5,7.5l1.1,0L355.5,157.3z"/>
					<path id="XMLID_46_" class="st2" d="M353.6,122.2c-1.9-4.7-4-4.7-5.3-2.6c1.4,1.5,1.6,3.5,2,8.2c0.5,4.9,0.9,16.7,1,22.4l4.2,7
						c-0.4-8.1-1.3-26.9-1.8-33.5"/>
					
						<radialGradient id="XMLID_194_" cx="569.1877" cy="280.7389" r="392.9178" gradientTransform="matrix(0.6632 0 0 0.6632 -29.4874 99.7978)" gradientUnits="userSpaceOnUse">
						<stop  offset="0.1417" style="stop-color:#6B6966"/>
						<stop  offset="0.2918" style="stop-color:#868583"/>
						<stop  offset="0.4824" style="stop-color:#A4A3A2"/>
						<stop  offset="0.5888" style="stop-color:#AFAEAE"/>
						<stop  offset="0.6619" style="stop-color:#C3C2C2"/>
						<stop  offset="0.7526" style="stop-color:#D4D4D4"/>
						<stop  offset="0.8493" style="stop-color:#DFDFDF"/>
						<stop  offset="0.9612" style="stop-color:#E2E2E2"/>
					</radialGradient>
					<path id="XMLID_45_" class="st109" d="M349.5,151.1c-28.8-1.4-59.8-2.2-97.8-2.2c-7.6,0-22.4,0.2-29.1,0.4
						c-11.5,0.2-13.5,7.3-13.5,10l141.5,32.8v17.5l5.1,2l-211.1-37.5l4.9-2l0.1-2.4c0,0,0.5-15.1,0.8-22.4l0.2-5.1
						c0.4-10,2.1-15.1,6.1-18.6c6.2-5.5,14.5-5.9,31.1-6.8c1-0.1,2-0.1,3-0.2c12-0.7,28.2-0.9,49-1c4.1,0,8.5,0,13-0.1
						c1.4,0,2.8,0,4.3,0c21.6,0,52.1,1.2,79.7,3.1c4.9,0.3,7.9,0.9,9.1,1.7l0.3,0.2c0,0,0,0,0,0c0,0,0.1,0,0.1,0.1c0,0,0,0,0,0
						c0,0,0.1,0.1,0.1,0.1c0,0,0,0,0,0c0,0,0.1,0.1,0.1,0.1c0,0,0,0,0,0c0,0,0.1,0.1,0.1,0.1c0,0,0,0,0,0c0,0,0.1,0.1,0.1,0.1l0,0
						c0.8,0.8,1,2.1,1.4,6c0,0.3,0.1,0.6,0.1,1C348.6,133.1,349.4,146,349.5,151.1"/>
					
						<radialGradient id="XMLID_195_" cx="714.0175" cy="344.9038" r="409.9674" gradientTransform="matrix(0.6632 0 0 0.6632 -29.4874 99.7978)" gradientUnits="userSpaceOnUse">
						<stop  offset="0.1417" style="stop-color:#6B6966"/>
						<stop  offset="0.2918" style="stop-color:#868583"/>
						<stop  offset="0.4824" style="stop-color:#A4A3A2"/>
						<stop  offset="0.5888" style="stop-color:#AFAEAE"/>
						<stop  offset="0.6406" style="stop-color:#C7C6C6"/>
						<stop  offset="0.7088" style="stop-color:#E0DFDF"/>
						<stop  offset="0.7802" style="stop-color:#F1F1F1"/>
						<stop  offset="0.8559" style="stop-color:#FCFCFC"/>
						<stop  offset="0.9435" style="stop-color:#FFFFFF"/>
					</radialGradient>
					<path id="XMLID_44_" class="st110" d="M349.5,151.1c-28.8-1.4-59.8-2.2-97.8-2.2c-7.6,0-22.4,0.2-29.1,0.4
						c-11.5,0.2-13.5,7.3-13.5,10l141.5,32.8v17.5l5.1,2l-211.1-37.5l4.9-2l0.1-2.4c0,0,0.5-15.1,0.8-22.4l0.2-5.1
						c0.4-10,2.1-15.1,6.1-18.6c6.2-5.5,14.5-5.9,31.1-6.8c1-0.1,2-0.1,3-0.2c12-0.7,28.2-0.9,49-1c4.1,0,8.5,0,13-0.1
						c1.4,0,2.8,0,4.3,0c21.6,0,52.1,1.2,79.7,3.1c4.9,0.3,7.9,0.9,9.1,1.7l0.3,0.2c0,0,0,0,0,0c0,0,0.1,0,0.1,0.1c0,0,0,0,0,0
						c0,0,0.1,0.1,0.1,0.1c0,0,0,0,0,0c0,0,0.1,0.1,0.1,0.1c0,0,0,0,0,0c0,0,0.1,0.1,0.1,0.1c0,0,0,0,0,0c0,0,0.1,0.1,0.1,0.1l0,0
						c0.8,0.8,1,2.1,1.4,6c0,0.3,0.1,0.6,0.1,1C348.6,133.1,349.4,146,349.5,151.1"/>
					<polygon id="XMLID_43_" class="st111" points="144.3,188.3 148,190.2 148.1,207.5 144.3,211.6 					"/>
					<defs>
						<filter id="Adobe_OpacityMaskFilter" filterUnits="userSpaceOnUse" x="146.7" y="280.6" width="190.2" height="12.6">
							<feFlood  style="flood-color:white;flood-opacity:1" result="back"/>
							<feBlend  in="SourceGraphic" in2="back" mode="normal"/>
						</filter>
					</defs>
					<mask maskUnits="userSpaceOnUse" x="146.7" y="280.6" width="190.2" height="12.6" id="XMLID_196_">
						<g id="XMLID_21_" class="st112">
							<defs>
								<filter id="Adobe_OpacityMaskFilter_1_" filterUnits="userSpaceOnUse" x="146.7" y="280.6" width="190.2" height="12.6">
									<feFlood  style="flood-color:white;flood-opacity:1" result="back"/>
									<feBlend  in="SourceGraphic" in2="back" mode="normal"/>
								</filter>
							</defs>
							<mask maskUnits="userSpaceOnUse" x="146.7" y="280.6" width="190.2" height="12.6" id="XMLID_196_">
								<g id="XMLID_24_" class="st113">
								</g>
							</mask>
							<linearGradient id="XMLID_197_" gradientUnits="userSpaceOnUse" x1="146.7189" y1="286.8927" x2="336.9154" y2="286.8927">
								<stop  offset="0" style="stop-color:#E8E8E8"/>
								<stop  offset="1" style="stop-color:#FFFFFF"/>
							</linearGradient>
							<path id="XMLID_22_" class="st114" d="M334.1,289.2c1.5-1,2.3-1.9,2.5-2.5c0.5-1.1,0.1-2.1-0.8-3.2
								c-5.2,1.6-12.6,2.1-27.2,2.8c-19.7,1-40.7,1.5-62.4,1.7c-1.7,0-3.3,0-5,0c-25.6,0-48.8-1.4-78.1-3.7
								c-5.4-0.4-8.7-0.9-10.6-2.1c-0.6-0.4-1.1-0.8-1.5-1.2c-0.2,0.2-0.5,0.5-0.8,0.8c-1.9,1.7-2.9,1.4-3.6-1.3
								c0.5,5.3,1,6.1,2.3,7c0.6,0.4,2.4,1.6,8.7,2.1c34.6,2.4,65.8,3.6,95.3,3.6c19.9,0,39.3-0.5,59.2-1.6
								C321.9,291.1,328.8,290.5,334.1,289.2L334.1,289.2z"/>
						</g>
					</mask>
					<linearGradient id="XMLID_198_" gradientUnits="userSpaceOnUse" x1="146.7189" y1="286.8927" x2="336.9154" y2="286.8927">
						<stop  offset="0" style="stop-color:#585551"/>
						<stop  offset="0.5333" style="stop-color:#393224"/>
						<stop  offset="1" style="stop-color:#201600"/>
					</linearGradient>
					<path id="XMLID_42_" class="st115" d="M334.1,289.2c1.5-1,2.3-1.9,2.5-2.5c0.5-1.1,0.1-2.1-0.8-3.2c-5.2,1.6-12.6,2.1-27.2,2.8
						c-19.7,1-40.7,1.5-62.4,1.7c-1.7,0-3.3,0-5,0c-25.6,0-48.8-1.4-78.1-3.7c-5.4-0.4-8.7-0.9-10.6-2.1c-0.6-0.4-1.1-0.8-1.5-1.2
						c-0.2,0.2-0.5,0.5-0.8,0.8c-1.9,1.7-2.9,1.4-3.6-1.3c0.5,5.3,1,6.1,2.3,7c0.6,0.4,2.4,1.6,8.7,2.1c34.6,2.4,65.8,3.6,95.3,3.6
						c19.9,0,39.3-0.5,59.2-1.6C321.9,291.1,328.8,290.5,334.1,289.2L334.1,289.2z"/>
					<path id="XMLID_41_" class="st116" d="M149.1,270.8l0-0.3c-0.2-2.4-0.2-4.3-0.3-7.4c-0.1-3.3-0.4-9.7-0.8-17.2l-3.5-6
						c0.3,7.2,1.4,27.8,1.8,34.8l0.4,5.8c0.7,2.6,1.7,3,3.6,1.3c0.3-0.3,0.6-0.6,0.8-0.8c-1.2-1.3-1.5-3.2-1.8-8
						C149.2,272.3,149.2,271.5,149.1,270.8z"/>
					<linearGradient id="XMLID_199_" gradientUnits="userSpaceOnUse" x1="342.9477" y1="282.729" x2="357.7176" y2="229.3562">
						<stop  offset="0.2699" style="stop-color:#48443E"/>
						<stop  offset="0.4095" style="stop-color:#3C362B"/>
						<stop  offset="0.6261" style="stop-color:#2C2413"/>
						<stop  offset="0.8283" style="stop-color:#231A05"/>
						<stop  offset="1" style="stop-color:#201600"/>
					</linearGradient>
					<path id="XMLID_40_" class="st117" d="M352.4,225.3c-0.3,8.7-0.6,15-0.8,20.9l0,0.2c-0.2,3.7-0.3,7.4-0.5,12.5
						c-0.6,14.1-3.9,18.6-10.2,22.5c-1.5,0.9-3.1,1.7-4.9,2.2c0.9,1.1,1.4,2.1,0.8,3.2c-0.3,0.6-1,1.5-2.5,2.5
						c5.5-1.2,9.3-3.1,12.7-6.2c4.8-4.3,7.2-11.8,7.6-23.6c0.4-10.5,0.8-29,1-35L352.4,225.3z"/>
					
						<radialGradient id="XMLID_200_" cx="705.8705" cy="1083.1979" r="1270.5947" gradientTransform="matrix(0.6632 0 0 0.6632 -29.4874 99.7978)" gradientUnits="userSpaceOnUse">
						<stop  offset="0" style="stop-color:#615E5B"/>
						<stop  offset="5.970509e-002" style="stop-color:#6F6C69"/>
						<stop  offset="0.2889" style="stop-color:#9F9D9C"/>
						<stop  offset="0.4625" style="stop-color:#BDBCBB"/>
						<stop  offset="0.5589" style="stop-color:#C8C7C7"/>
						<stop  offset="0.6754" style="stop-color:#DAD9D9"/>
						<stop  offset="0.8801" style="stop-color:#F5F5F5"/>
						<stop  offset="1" style="stop-color:#FFFFFF"/>
					</radialGradient>
					<path id="XMLID_38_" class="st118" d="M349.4,246.1c-0.2,3.7-0.3,7.5-0.5,12.7c-0.5,13.1-3.5,17.3-9.2,20.8
						c-5.4,3.3-11.8,3.8-31.2,4.7c-19.6,1-40.6,1.5-62.3,1.7c-1.7,0-3.3,0-4.9,0c-25.5,0-48.7-1.4-78-3.7c-5-0.4-8.1-0.8-9.6-1.7
						c-1.5-1-2-1.3-2.4-7.5c-0.1-0.9-0.1-1.8-0.2-2.6c-0.2-2.4-0.4-4.5-0.5-7.7c-0.1-3.3-0.3-6.4-0.8-13.4
						c37.5,2.1,68.2,2.3,96.8,2.3c1.4,0,7.6,0,8.9,0c4.6,0,10,0,14.8-0.2c17.9-0.6,22.9-1.9,35-14.4l1.7-1.7l-157-26.6l0-19.3
						l200.1,35.6l0,0h0c-0.1,3.5-0.3,8-0.4,12C349.7,240.3,349.6,243.3,349.4,246.1z"/>
					<linearGradient id="XMLID_202_" gradientUnits="userSpaceOnUse" x1="291.2451" y1="231.2278" x2="286.8061" y2="249.0314">
						<stop  offset="6.134970e-002" style="stop-color:#585551"/>
						<stop  offset="0.1334" style="stop-color:#73716E"/>
						<stop  offset="0.2328" style="stop-color:#92908E"/>
						<stop  offset="0.3406" style="stop-color:#ACAAA9"/>
						<stop  offset="0.4579" style="stop-color:#BFBEBD"/>
						<stop  offset="0.5895" style="stop-color:#CDCCCC"/>
						<stop  offset="0.7472" style="stop-color:#D6D4D4"/>
						<stop  offset="1" style="stop-color:#D8D7D7"/>
					</linearGradient>
					<path id="XMLID_37_" class="st119" d="M284.5,246c-0.1,0.7-1.1,1.8-4.7,2.6c9.5-1.2,14.4-4.2,23.2-13l-18.4,1.7
						c0,0-1.9,2.6-3.9,3.5c-1.3,0.6-2.9,1-5,1.3c3.9,0.9,5.2,1.4,6.7,2C283.7,244.5,284.6,245.4,284.5,246z"/>
					<linearGradient id="XMLID_203_" gradientUnits="userSpaceOnUse" x1="145.8926" y1="244.7043" x2="284.547" y2="244.7043">
						<stop  offset="0" style="stop-color:#9C9C9C"/>
						<stop  offset="0.1553" style="stop-color:#959594"/>
						<stop  offset="0.3961" style="stop-color:#82817E"/>
						<stop  offset="0.6921" style="stop-color:#63605B"/>
						<stop  offset="1" style="stop-color:#3C372E"/>
					</linearGradient>
					<path id="XMLID_36_" class="st120" d="M279.9,248.6c3.6-0.8,4.6-1.8,4.7-2.6c0-0.6-0.8-1.5-2.1-2c-1.5-0.6-2.8-1.1-6.7-2
						c0,0-2.4,0.2-3.9,0.2c-6.5,0.1-14.4,0.2-24.2,0.2c-29.8,0-86.4-1.9-101.7-2.4l0,0l6.2,7.2c32.4,1.8,62.1,2.2,94.6,2.2
						c1.4,0,7.5,0,8.9,0c4.6,0,10,0,14.7-0.2C274,249.1,277.1,248.9,279.9,248.6z"/>
					<g id="XMLID_34_">
						<linearGradient id="XMLID_204_" gradientUnits="userSpaceOnUse" x1="227.3479" y1="176.5414" x2="353.5472" y2="176.5414">
							<stop  offset="0" style="stop-color:#969594"/>
							<stop  offset="0.223" style="stop-color:#9E9D9C"/>
							<stop  offset="0.5686" style="stop-color:#B3B2B2"/>
							<stop  offset="0.9916" style="stop-color:#D5D5D5"/>
							<stop  offset="1" style="stop-color:#D6D6D6"/>
						</linearGradient>
						<path id="XMLID_35_" class="st121" d="M350.1,189.7l3.5-4.8l-126.2-21.5c13,4.3,48.1,12.4,74.9,18.4
							C301,181.6,345.8,189,350.1,189.7z"/>
					</g>
					<g id="XMLID_32_">
						<linearGradient id="XMLID_208_" gradientUnits="userSpaceOnUse" x1="147.7973" y1="211.8667" x2="281.9628" y2="235.1594">
							<stop  offset="0" style="stop-color:#6B6966"/>
							<stop  offset="0.8957" style="stop-color:#201600"/>
						</linearGradient>
						<path id="XMLID_33_" class="st122" d="M270.4,231.2c-3.5-0.7-6.1-1.3-8.9-1.7c-1.2-0.2-68.4-11.6-113.1-19.4l-4,3.3
							l140.3,23.9C282.6,234.9,275.6,232.2,270.4,231.2z"/>
					</g>
					<linearGradient id="XMLID_209_" gradientUnits="userSpaceOnUse" x1="149.3217" y1="211.762" x2="304.2959" y2="237.2287">
						<stop  offset="0" style="stop-color:#514E48"/>
						<stop  offset="1" style="stop-color:#3C372E"/>
					</linearGradient>
					<path id="XMLID_31_" class="st123" d="M270.4,231.2c-3.5-0.7-6.1-1.3-8.9-1.7c-1.2-0.2-68.4-11.6-113.1-19.4l1.8-1.5l157,26.6
						l-22.5,2C283.4,235.5,276.8,232.5,270.4,231.2z"/>
					<path id="XMLID_30_" class="st2" d="M349.5,151.1c-28.8-1.4-59.8-2.2-97.8-2.2c-7.6,0-22.4,0.2-29.1,0.4
						c-14.3,0.3-22.5,7.1-29.1,14.4l-1.2,1.2l23.4-4.1c0,0,0.4-0.6,1.6-1.6c-3.5-0.7-4-5.5,5.4-7.2c4.3-0.8,11.5-0.8,20.9-0.9
						c3.1,0,5.9-0.1,8.1-0.1c35.5,0,66.9-0.2,97.7,1.3l0.9,0L349.5,151.1z"/>
					<linearGradient id="XMLID_210_" gradientUnits="userSpaceOnUse" x1="196.1102" y1="171.2982" x2="302.2285" y2="171.2982">
						<stop  offset="0.2242" style="stop-color:#48443E"/>
						<stop  offset="0.4016" style="stop-color:#4D4944"/>
						<stop  offset="0.6346" style="stop-color:#5C5954"/>
						<stop  offset="0.8976" style="stop-color:#74716F"/>
						<stop  offset="1" style="stop-color:#7F7D7C"/>
					</linearGradient>
					<path id="XMLID_29_" class="st124" d="M196.1,164.2c9.6,1.6,64.5,10.7,106.1,17.6c-26.8-6-61.8-14.1-74.9-18.4l-11.6-2.6
						L196.1,164.2z"/>
					
						<radialGradient id="XMLID_211_" cx="572.2938" cy="277.995" r="394.4734" gradientTransform="matrix(0.6632 0 0 0.6632 -29.4874 99.7978)" gradientUnits="userSpaceOnUse">
						<stop  offset="0" style="stop-color:#6B6966"/>
						<stop  offset="0.1722" style="stop-color:#868583"/>
						<stop  offset="0.3909" style="stop-color:#A4A3A2"/>
						<stop  offset="0.513" style="stop-color:#AFAEAE"/>
						<stop  offset="0.5841" style="stop-color:#C7C6C6"/>
						<stop  offset="0.6778" style="stop-color:#E0DFDF"/>
						<stop  offset="0.7757" style="stop-color:#F1F1F1"/>
						<stop  offset="0.8797" style="stop-color:#FCFCFC"/>
						<stop  offset="1" style="stop-color:#FFFFFF"/>
					</radialGradient>
					<path id="XMLID_27_" class="st125" d="M349.4,246.1c-0.2,3.7-0.3,7.5-0.5,12.7c-0.5,13.1-3.5,17.3-9.2,20.8
						c-5.4,3.3-11.8,3.8-31.2,4.7c-19.6,1-40.6,1.5-62.3,1.7c-1.7,0-3.3,0-4.9,0c-25.5,0-48.7-1.4-78-3.7c-5-0.4-8.1-0.8-9.6-1.7
						c-1.5-1-2-1.3-2.4-7.5c-0.1-0.9-0.1-1.8-0.2-2.6c-0.2-2.4-0.4-4.5-0.5-7.7c-0.1-3.3-0.3-6.4-0.8-13.4
						c37.5,2.1,68.2,2.3,96.8,2.3c1.4,0,7.6,0,8.9,0c4.6,0,10,0,14.8-0.2c17.9-0.6,22.9-1.9,35-14.4l1.7-1.7l-157-26.6l0-19.3
						l200.1,35.6l0,0h0c-0.1,3.5-0.3,8-0.4,12C349.7,240.3,349.6,243.3,349.4,246.1z"/>
					<path id="XMLID_26_" class="st1" d="M192.4,164.9l3.7-0.6c15.2,2.6,142.8,23.6,154,25.5l3.5-4.8l2.1,0.4l-5.1,6.9L192.4,164.9z
						"/>
					
						<radialGradient id="XMLID_216_" cx="563.9547" cy="283.4762" r="136.3041" gradientTransform="matrix(0.6632 0 0 0.6632 -29.4874 99.7978)" gradientUnits="userSpaceOnUse">
						<stop  offset="0" style="stop-color:#201600"/>
						<stop  offset="0.2707" style="stop-color:#5C5546"/>
						<stop  offset="0.6432" style="stop-color:#A9A6A2"/>
						<stop  offset="0.8118" style="stop-color:#C8C7C7"/>
						<stop  offset="0.8615" style="stop-color:#DAD9D9"/>
						<stop  offset="0.9488" style="stop-color:#F5F5F5"/>
						<stop  offset="1" style="stop-color:#FFFFFF"/>
					</radialGradient>
					<path id="XMLID_25_" class="st126" d="M339.7,279.5c5.7-3.5,8.7-7.6,9.2-20.8c0.2-5.1,0.4-8.9,0.5-12.7
						c0.1-2.8,0.2-5.8,0.3-9.2c0.1-4,0.3-8.5,0.4-12h0l-56.8-10.1c-9.9,3.4-18.7,8-26.1,13.7l39.8,6.7l-1.7,1.7
						c-12.1,12.5-17.1,13.8-35,14.4c-4.8,0.2-10.2,0.2-14.8,0.2c-0.9,0-4.7,0-7.1,0c-2.5,5.7-3.9,11.8-3.9,18.2
						c0,5.6,1.1,11.1,3.1,16.3c21.2-0.2,41.6-0.7,60.8-1.7C327.9,283.3,334.3,282.8,339.7,279.5z"/>
				</g>
				<polygon id="XMLID_23_" class="st116" points="350.6,209.6 352.6,209 352.6,189.4 350.6,192.1 				"/>
				<polygon id="XMLID_19_" class="st127" points="350.6,209.6 352.6,209 355.6,210.5 355.6,211.7 				"/>
				<polygon id="XMLID_20_" class="st128" points="355.6,185.2 352.6,189.4 352.6,209 355.6,210.5 				"/>
			</g>
		</g>
	</g>
</g>
</svg>
