<?xml version="1.0" encoding="UTF-8" standalone="no"?>
<svg
   xmlns:dc="http://purl.org/dc/elements/1.1/"
   xmlns:cc="http://creativecommons.org/ns#"
   xmlns:rdf="http://www.w3.org/1999/02/22-rdf-syntax-ns#"
   xmlns:svg="http://www.w3.org/2000/svg"
   xmlns="http://www.w3.org/2000/svg"
   xmlns:sodipodi="http://sodipodi.sourceforge.net/DTD/sodipodi-0.dtd"
   xmlns:inkscape="http://www.inkscape.org/namespaces/inkscape"
   id="mb-stern_x5F_10"
   viewBox="0 0 64 64"
   width="2500"
   height="2500"
   version="1.1"
   sodipodi:docname="suzuki.svg"
   inkscape:version="0.92.4 5da689c313, 2019-01-14">
  <metadata
     id="metadata239">
    <rdf:RDF>
      <cc:Work
         rdf:about="">
        <dc:format>image/svg+xml</dc:format>
        <dc:type
           rdf:resource="http://purl.org/dc/dcmitype/StillImage" />
        <dc:title></dc:title>
      </cc:Work>
    </rdf:RDF>
  </metadata>
  <defs
     id="defs237" />
  <sodipodi:namedview
     pagecolor="#ffffff"
     bordercolor="#666666"
     borderopacity="1"
     objecttolerance="10"
     gridtolerance="10"
     guidetolerance="10"
     inkscape:pageopacity="0"
     inkscape:pageshadow="2"
     inkscape:window-width="1920"
     inkscape:window-height="1052"
     id="namedview235"
     showgrid="false"
     inkscape:zoom="0.0944"
     inkscape:cx="1250"
     inkscape:cy="1250"
     inkscape:window-x="0"
     inkscape:window-y="0"
     inkscape:window-maximized="1"
     inkscape:current-layer="mb-stern_x5F_10" />
  <style
     id="style2">.st0{fill:url(#outer_1_)}.st1{fill:url(#SVGID_1_)}.st2{opacity:.4;fill:url(#SVGID_2_);enable-background:new}.st3{fill:#fff}.st4{opacity:.4;fill:url(#SVGID_3_);enable-background:new}.st5{fill:#565f64}.st6{fill:url(#SVGID_4_)}.st7{fill:#a4aaae;fill-opacity:.6}.st8{fill:#333e46}.st9{fill:url(#SVGID_5_)}.st10{fill:url(#SVGID_6_);fill-opacity:.8}.st11{opacity:.8;fill:url(#SVGID_7_);enable-background:new}.st12{fill:url(#SVGID_8_)}.st13{fill:url(#SVGID_9_)}.st14{fill:url(#SVGID_10_)}.st15{fill:url(#SVGID_11_)}.st16{fill:url(#SVGID_12_)}.st17{fill:url(#SVGID_13_)}.st18{fill:url(#SVGID_14_)}.st19{fill:#fbfbfb}.st20{fill:#333f47}</style>
  <linearGradient
     id="outer_1_"
     gradientUnits="userSpaceOnUse"
     x1="7.998"
     y1="54.102"
     x2="56.002"
     y2="13.898"
     gradientTransform="matrix(1 0 0 -1 0 66)">
    <stop
       offset="0"
       stop-color="#fff"
       id="stop4" />
    <stop
       offset=".1"
       stop-color="#e7e8e6"
       id="stop6" />
    <stop
       offset=".1"
       stop-color="#cdd0d0"
       id="stop8" />
    <stop
       offset=".2"
       stop-color="#b5bbbd"
       id="stop10" />
    <stop
       offset=".2"
       stop-color="#a5acaf"
       id="stop12" />
    <stop
       offset=".3"
       stop-color="#9ba3a7"
       id="stop14" />
    <stop
       offset=".3"
       stop-color="#98a0a4"
       id="stop16" />
    <stop
       offset=".4"
       stop-color="#828a8f"
       id="stop18" />
    <stop
       offset=".5"
       stop-color="#667075"
       id="stop20" />
    <stop
       offset=".6"
       stop-color="#535c63"
       id="stop22" />
    <stop
       offset=".7"
       stop-color="#475158"
       id="stop24" />
    <stop
       offset=".8"
       stop-color="#434d54"
       id="stop26" />
    <stop
       offset="1"
       stop-color="#475157"
       id="stop28" />
  </linearGradient>
  <linearGradient
     id="SVGID_1_"
     gradientUnits="userSpaceOnUse"
     x1="9.471"
     y1="52.941"
     x2="54.471"
     y2="15.141"
     gradientTransform="matrix(1 0 0 -1 0 66)">
    <stop
       offset="0"
       stop-color="#0b1f2a"
       id="stop32" />
    <stop
       offset=".2"
       stop-color="#333f47"
       id="stop34" />
    <stop
       offset=".5"
       stop-color="#777f84"
       id="stop36" />
    <stop
       offset=".5"
       stop-color="#81898d"
       id="stop38" />
    <stop
       offset=".7"
       stop-color="#b3b8b8"
       id="stop40" />
    <stop
       offset=".8"
       stop-color="#d2d5d3"
       id="stop42" />
    <stop
       offset=".8"
       stop-color="#dee0dd"
       id="stop44" />
    <stop
       offset="1"
       stop-color="#fbfbfb"
       id="stop46" />
  </linearGradient>
  <linearGradient
     id="SVGID_2_"
     gradientUnits="userSpaceOnUse"
     x1="1648.736"
     y1="-160.944"
     x2="1670.636"
     y2="-221.143"
     gradientTransform="matrix(-1 0 0 1 1691.673 223.007)">
    <stop
       offset="0"
       stop-color="#e1e3e1"
       id="stop51" />
    <stop
       offset=".1"
       stop-color="#c1c5c4"
       id="stop53" />
    <stop
       offset=".3"
       stop-color="#9ba1a2"
       id="stop55" />
    <stop
       offset=".5"
       stop-color="#7d8487"
       id="stop57" />
    <stop
       offset=".7"
       stop-color="#687074"
       stop-opacity="0"
       id="stop59" />
    <stop
       offset=".8"
       stop-color="#5b6469"
       stop-opacity="0"
       id="stop61" />
    <stop
       offset="1"
       stop-color="#576065"
       stop-opacity="0"
       id="stop63" />
  </linearGradient>
  <linearGradient
     id="SVGID_3_"
     gradientUnits="userSpaceOnUse"
     x1="18.201"
     y1="57.899"
     x2="45.799"
     y2="10.101"
     gradientTransform="matrix(1 0 0 -1 0 66)">
    <stop
       offset="0"
       stop-color="#e1e3e1"
       id="stop70" />
    <stop
       offset=".1"
       stop-color="#c1c5c4"
       id="stop72" />
    <stop
       offset=".3"
       stop-color="#9ba1a2"
       id="stop74" />
    <stop
       offset=".5"
       stop-color="#7d8487"
       id="stop76" />
    <stop
       offset=".7"
       stop-color="#687074"
       stop-opacity="0"
       id="stop78" />
    <stop
       offset=".8"
       stop-color="#5b6469"
       stop-opacity="0"
       id="stop80" />
    <stop
       offset="1"
       stop-color="#576065"
       stop-opacity="0"
       id="stop82" />
  </linearGradient>
  <linearGradient
     id="SVGID_4_"
     gradientUnits="userSpaceOnUse"
     x1="44.488"
     y1="26.607"
     x2="42.788"
     y2="23.807"
     gradientTransform="matrix(1 0 0 -1 0 66)">
    <stop
       offset="0"
       stop-color="#27343c"
       id="stop91" />
    <stop
       offset="1"
       stop-color="#00111e"
       stop-opacity="0"
       id="stop93" />
  </linearGradient>
  <linearGradient
     id="SVGID_5_"
     gradientUnits="userSpaceOnUse"
     x1="39.58"
     y1="36.888"
     x2="36.78"
     y2="41.388"
     gradientTransform="matrix(1 0 0 -1 0 66)">
    <stop
       offset=".1"
       stop-color="#02131f"
       id="stop108" />
    <stop
       offset=".9"
       stop-color="#02131f"
       stop-opacity="0"
       id="stop110" />
  </linearGradient>
  <linearGradient
     id="SVGID_6_"
     gradientUnits="userSpaceOnUse"
     x1="31.982"
     y1="29.664"
     x2="27.782"
     y2="28.464"
     gradientTransform="matrix(1 0 0 -1 0 66)">
    <stop
       offset=".2"
       stop-color="#02131f"
       id="stop115" />
    <stop
       offset=".9"
       stop-color="#02131f"
       stop-opacity="0"
       id="stop117" />
  </linearGradient>
  <linearGradient
     id="SVGID_7_"
     gradientUnits="userSpaceOnUse"
     x1="20.791"
     y1="24.096"
     x2="20.191"
     y2="25.596"
     gradientTransform="matrix(1 0 0 -1 0 66)">
    <stop
       offset="0"
       stop-color="#02131f"
       id="stop122" />
    <stop
       offset=".1"
       stop-color="#02131f"
       id="stop124" />
    <stop
       offset="1"
       stop-color="#02131f"
       stop-opacity="0"
       id="stop126" />
  </linearGradient>
  <linearGradient
     id="SVGID_8_"
     gradientUnits="userSpaceOnUse"
     x1="35.602"
     y1="48.786"
     x2="32.202"
     y2="48.386"
     gradientTransform="matrix(1 0 0 -1 0 66)">
    <stop
       offset=".3"
       stop-color="#02131f"
       id="stop131" />
    <stop
       offset=".3"
       stop-color="#02131f"
       id="stop133" />
    <stop
       offset=".8"
       stop-color="#02131f"
       stop-opacity="0"
       id="stop135" />
  </linearGradient>
  <linearGradient
     id="SVGID_9_"
     gradientUnits="userSpaceOnUse"
     x1="35.708"
     y1="48.843"
     x2="33.407"
     y2="48.543"
     gradientTransform="matrix(1 0 0 -1 0 66)">
    <stop
       offset=".4"
       stop-color="#27343c"
       id="stop140" />
    <stop
       offset="1"
       stop-color="#3b474e"
       stop-opacity="0"
       id="stop142" />
  </linearGradient>
  <linearGradient
     id="SVGID_10_"
     gradientUnits="userSpaceOnUse"
     x1="-.36"
     y1="33.169"
     x2="27.54"
     y2="17.069"
     gradientTransform="matrix(1 0 0 -1 0 66)">
    <stop
       offset="0"
       stop-color="#24303a"
       stop-opacity="0"
       id="stop147" />
    <stop
       offset="0"
       stop-color="#25323b"
       stop-opacity="0"
       id="stop149" />
    <stop
       offset=".1"
       stop-color="#27343c"
       id="stop151" />
  </linearGradient>
  <linearGradient
     id="SVGID_11_"
     gradientUnits="userSpaceOnUse"
     x1="31.95"
     y1="28.6"
     x2="31.95"
     y2="33.4"
     gradientTransform="matrix(1 0 0 -1 0 66)">
    <stop
       offset=".3"
       stop-color="#a5abaf"
       id="stop156" />
    <stop
       offset="1"
       stop-color="#a5abaf"
       stop-opacity="0"
       id="stop158" />
  </linearGradient>
  <linearGradient
     id="SVGID_12_"
     gradientUnits="userSpaceOnUse"
     x1="47.65"
     y1="63.7"
     x2="47.65"
     y2="2.7"
     gradientTransform="matrix(1 0 0 -1 0 66)">
    <stop
       offset="0"
       stop-color="#dee0dd"
       id="stop163" />
    <stop
       offset="0"
       stop-color="#c5c9c7"
       id="stop165" />
    <stop
       offset="0"
       stop-color="#9ea4a5"
       id="stop167" />
    <stop
       offset="0"
       stop-color="#82898c"
       id="stop169" />
    <stop
       offset="0"
       stop-color="#71797d"
       id="stop171" />
    <stop
       offset="0"
       stop-color="#6b7378"
       id="stop173" />
    <stop
       offset=".2"
       stop-color="#333f47"
       id="stop175" />
    <stop
       offset=".5"
       stop-color="#27343c"
       id="stop177" />
    <stop
       offset=".8"
       stop-color="#333f47"
       id="stop179" />
    <stop
       offset="1"
       stop-color="#434d54"
       id="stop181" />
  </linearGradient>
  <linearGradient
     id="SVGID_13_"
     gradientUnits="userSpaceOnUse"
     x1="32"
     y1="65.3"
     x2="32.3"
     y2="65.3"
     gradientTransform="matrix(1 0 0 -1 0 66)">
    <stop
       offset="0"
       stop-color="#dee0dd"
       id="stop186" />
    <stop
       offset="0"
       stop-color="#c5c9c7"
       id="stop188" />
    <stop
       offset="0"
       stop-color="#9ea4a5"
       id="stop190" />
    <stop
       offset="0"
       stop-color="#82898c"
       id="stop192" />
    <stop
       offset="0"
       stop-color="#71797d"
       id="stop194" />
    <stop
       offset="0"
       stop-color="#6b7378"
       id="stop196" />
    <stop
       offset=".2"
       stop-color="#333f47"
       id="stop198" />
    <stop
       offset=".5"
       stop-color="#27343c"
       id="stop200" />
    <stop
       offset=".8"
       stop-color="#333f47"
       id="stop202" />
    <stop
       offset="1"
       stop-color="#434d54"
       id="stop204" />
  </linearGradient>
  <linearGradient
     id="SVGID_14_"
     gradientUnits="userSpaceOnUse"
     x1="57.289"
     y1="57.907"
     x2="43.789"
     y2="38.107"
     gradientTransform="matrix(1 0 0 -1 0 66)">
    <stop
       offset=".7"
       stop-color="#27343c"
       id="stop209" />
    <stop
       offset=".7"
       stop-color="#2b373f"
       id="stop211" />
    <stop
       offset=".7"
       stop-color="#36424a"
       id="stop213" />
    <stop
       offset=".7"
       stop-color="#49545b"
       id="stop215" />
    <stop
       offset=".8"
       stop-color="#646d73"
       stop-opacity="0"
       id="stop217" />
    <stop
       offset=".8"
       stop-color="#868d92"
       stop-opacity="0"
       id="stop219" />
    <stop
       offset=".8"
       stop-color="#b0b5b8"
       stop-opacity="0"
       id="stop221" />
    <stop
       offset=".8"
       stop-color="#e1e3e4"
       stop-opacity="0"
       id="stop223" />
    <stop
       offset=".8"
       stop-color="#fff"
       stop-opacity="0"
       id="stop225" />
  </linearGradient>
  <g
     id="g129"
     transform="matrix(0.34578894,0,0,0.34578894,4.9031109,0.27120161)">
    <path
       id="path112"
       d="m 55.487,39.154 c 1.426,-4.656 5.037,-2.28 5.037,-2.28 0,0 9.358,7.126 35.025,23.459 C 121.216,76.666 153.215,54 153.215,54 l -76,-54 c -33.334,35.333 -76,48 -76,48 l 0.121,0.047 97.147,68.121 c -1.426,4.656 -5.037,2.281 -5.037,2.281 0,0 -9.358,-7.127 -35.025,-23.461 -25.667,-16.333 -57.666,6.334 -57.666,6.334 l 76,54 c 33.334,-35.334 76,-48 76,-48 l -0.123,-0.048 z"
       inkscape:connector-curvature="0"
       style="fill:#ff0016" />
    <g
       id="g116"
       style="fill:#015cd0">
      <path
         id="path114"
         d="m 0,176.761 11.692,0.062 c 0.201,1.1 -0.115,1.096 0.5,1.67 0.963,0.896 2.457,1.1 3.711,0.879 1.027,-0.18 2.619,-0.494 2.695,-1.769 0.083,-1.384 -0.875,-1.866 -2.077,-2.024 -1.662,-0.217 -3.339,-0.274 -4.996,-0.539 -4.269,-0.701 -6.539,-1.015 -8.357,-2.174 -1.834,-1.16 -1.992,-3.686 -1.992,-5.484 0,-1.182 0.469,-2.297 1.407,-3.35 0.938,-1.049 2.349,-1.875 4.232,-2.478 1.884,-0.601 4.465,-0.899 7.746,-0.899 4.024,0 7.095,0.545 9.206,1.635 2.114,1.09 3.371,3.521 3.772,5.896 h -9.941 c 0.074,-0.141 -0.195,-0.777 -0.238,-0.936 -0.381,-1.379 -1.712,-1.781 -2.987,-2.063 -1.045,-0.231 -2.239,-0.251 -3.181,0.325 -0.573,0.352 -1.018,0.723 -1.018,1.227 0,0.365 0.236,0.694 0.71,0.987 0.461,0.302 1.55,0.585 3.269,0.845 4.255,0.672 7.302,1.348 9.144,2.031 1.84,0.688 3.179,1.535 4.018,2.548 0.837,1.013 1.257,2.147 1.257,3.401 0,1.474 -0.559,2.832 -1.677,4.074 -1.116,1.242 -2.677,2.188 -4.682,2.83 -2.006,0.643 -4.533,0.963 -7.583,0.963 -5.355,0 -9.066,-0.752 -11.127,-2.256 C 1.439,180.66 0.272,179.083 0,176.761 Z m 47.439,-15.674 h 8.641 v 16.246 c 0,3.334 -2.071,5.695 -6.214,7.09 -1.917,0.636 -4.215,0.66 -6.817,0.66 -2.333,0 -4.426,0.043 -6.362,-0.461 -4.56,-1.822 -6.839,-4.252 -6.839,-7.289 V 161.087 H 38.55 V 175 c 0,2.533 0.336,4.418 4.5,4.418 4.248,0 4.333,-1.967 4.333,-4.5 z m 56.499,0 h 8.642 v 16.246 c 0,3.334 -2.071,5.695 -6.214,7.09 -1.916,0.636 -4.215,0.66 -6.817,0.66 -2.333,0 -4.427,0.043 -6.362,-0.461 -4.561,-1.822 -6.84,-4.252 -6.84,-7.289 v -16.246 h 8.702 V 175 c 0,2.533 0.337,4.418 4.5,4.418 4.248,0 4.333,-1.967 4.333,-4.5 z m -46.08,0.168 h 26.766 v 4.994 L 71.549,178 h 13.076 v 6.541 H 57.858 v -5.623 L 70.632,167.334 H 57.882 Z M 114.72,184.5 v -23.285 h 8.579 l -0.002,8.619 9.253,-8.619 h 10.737 l -12.321,11.285 12.834,12 h -11.584 l -8.834,-8.332 0.084,8.332 z m 38.868,-23.288 V 184.5 h -8.562 v -23.285 h 8.562 z"
         inkscape:connector-curvature="0" />
    </g>
  </g>
</svg>
