<?xml version="1.0" standalone="no"?>
<!DOCTYPE svg PUBLIC "-//W3C//DTD SVG 20010904//EN"
 "http://www.w3.org/TR/2001/REC-SVG-20010904/DTD/svg10.dtd">
<svg version="1.0" xmlns="http://www.w3.org/2000/svg"
 width="200.000000pt" height="200.000000pt" viewBox="0 0 200.000000 200.000000"
 preserveAspectRatio="xMidYMid meet">
<metadata>
Created by potrace 1.11, written by Peter Selinger 2001-2013
</metadata>
<g transform="translate(0.000000,200.000000) scale(0.100000,-0.100000)"
fill="#000000" stroke="none">
<path d="M0 1400 l0 -500 500 0 500 0 0 500 0 500 -500 0 -500 0 0 -500z m950
0 l0 -450 -450 0 -450 0 0 450 0 450 450 0 450 0 0 -450z"/>
<path d="M435 1799 c-182 -27 -331 -188 -343 -372 -17 -277 189 -477 468 -453
192 16 337 160 348 349 l5 77 -202 0 -201 0 0 -75 0 -75 110 0 c61 0 110 -3
110 -7 0 -3 -12 -22 -26 -41 -74 -96 -256 -101 -360 -9 -122 108 -125 283 -6
388 105 92 263 88 374 -10 l36 -32 58 56 58 55 -25 26 c-89 96 -251 145 -404
123z"/>
<path d="M1176 1762 c-3 -9 -22 -111 -41 -227 -20 -115 -49 -282 -65 -370 -16
-88 -25 -162 -20 -165 7 -4 35 -5 121 -1 13 1 23 45 54 224 21 122 41 230 44
239 4 11 37 -74 85 -220 43 -130 82 -239 86 -242 13 -8 121 -3 130 6 4 5 42
114 85 242 42 128 78 232 80 230 2 -2 15 -76 41 -230 33 -190 42 -239 46 -244
8 -8 117 -11 129 -3 8 4 -7 118 -50 375 -34 203 -64 377 -67 387 -5 16 -15 18
-76 15 l-71 -3 -88 -260 c-49 -143 -90 -264 -92 -270 -2 -5 -44 112 -94 260
l-90 270 -71 2 c-59 1 -72 -2 -76 -15z"/>
<path d="M123 839 c-35 -10 -80 -58 -89 -95 -17 -68 37 -146 113 -160 76 -14
163 46 163 112 0 23 -3 24 -65 24 -63 0 -65 -1 -65 -25 0 -22 4 -25 37 -25 35
0 36 0 18 -20 -29 -32 -89 -27 -126 9 -17 18 -29 40 -29 56 0 41 50 85 97 85
21 0 46 -7 57 -15 14 -11 22 -11 37 -2 28 17 24 26 -23 47 -47 21 -76 23 -125
9z"/>
<path d="M360 715 l0 -135 25 0 25 0 0 135 0 135 -25 0 -25 0 0 -135z"/>
<path d="M556 842 c-4 -7 -26 -61 -87 -214 l-19 -48 26 0 c19 0 29 7 37 30 11
28 14 30 68 30 54 0 58 -1 68 -30 8 -23 16 -30 36 -30 15 0 25 4 23 9 -93 242
-103 261 -125 261 -12 0 -24 -4 -27 -8z m47 -112 l15 -40 -34 0 c-19 0 -34 3
-34 7 0 14 24 73 30 73 4 0 14 -18 23 -40z"/>
<path d="M759 848 c0 -2 -3 -63 -5 -135 l-5 -133 25 0 c25 0 25 1 28 88 l3 87
59 -87 c46 -69 64 -88 83 -88 l23 0 0 135 0 135 -25 0 c-24 0 -24 -2 -27 -87
l-3 -88 -59 88 c-38 56 -66 87 -78 87 -10 0 -18 -1 -19 -2z"/>
<path d="M1030 715 l0 -135 65 0 c63 0 65 1 65 25 0 23 -4 25 -40 25 l-40 0 0
110 0 110 -25 0 -25 0 0 -135z"/>
<path d="M1200 744 c0 -104 0 -106 30 -136 27 -27 36 -30 73 -25 67 9 77 30
77 159 0 107 0 109 -22 106 -21 -3 -23 -8 -25 -96 -2 -111 -5 -122 -36 -122
-40 0 -47 18 -47 122 0 98 0 98 -25 98 l-25 0 0 -106z"/>
<path d="M1524 839 c-49 -14 -94 -71 -94 -120 0 -77 43 -124 123 -135 48 -7
113 15 124 42 9 24 -17 35 -48 18 -87 -45 -176 24 -143 111 8 21 56 45 89 45
15 0 40 -8 55 -17 24 -14 31 -14 45 -3 14 12 14 14 -1 31 -17 19 -75 40 -104
38 -8 0 -29 -5 -46 -10z"/>
<path d="M1826 842 c-4 -7 -26 -61 -87 -214 l-19 -48 26 0 c19 0 29 7 37 30
11 28 14 30 68 30 54 0 58 -1 68 -30 8 -23 16 -30 36 -30 15 0 25 4 23 9 -93
242 -103 261 -125 261 -12 0 -24 -4 -27 -8z m47 -112 l15 -40 -34 0 c-19 0
-34 3 -34 7 0 14 24 73 30 73 4 0 14 -18 23 -40z"/>
<path d="M692 537 c-169 -62 -193 -290 -39 -378 59 -33 145 -33 204 0 62 35
96 90 101 161 6 77 -10 120 -62 168 -63 58 -133 74 -204 49z m134 -79 c115
-79 64 -258 -73 -258 -66 0 -133 71 -133 142 0 35 37 102 67 120 39 25 100 23
139 -4z"/>
<path d="M1090 537 c-45 -15 -76 -70 -66 -113 4 -18 36 -56 82 -99 41 -38 74
-77 74 -85 0 -44 -68 -55 -97 -16 -17 23 -19 23 -45 8 -34 -20 -35 -32 -5 -60
86 -81 217 -35 217 76 0 45 -2 48 -81 124 -69 66 -80 80 -69 93 16 19 35 19
71 -2 27 -16 29 -16 49 2 26 24 25 30 -9 54 -38 28 -78 33 -121 18z"/>
<path d="M1373 535 c-41 -17 -69 -71 -59 -111 4 -18 37 -57 82 -99 41 -38 74
-77 74 -85 0 -44 -68 -55 -97 -17 -16 23 -19 23 -45 8 -36 -20 -35 -33 2 -65
38 -32 88 -41 134 -26 51 16 76 53 76 108 0 45 -3 49 -81 124 -69 66 -80 80
-69 93 16 20 35 19 71 -2 28 -17 30 -17 51 4 25 26 17 42 -36 67 -41 19 -61
20 -103 1z"/>
<path d="M114 532 c-8 -5 -75 -350 -74 -384 0 -5 16 -8 35 -8 39 0 35 -11 61
143 9 54 18 96 21 94 2 -2 21 -55 42 -118 l38 -114 34 -3 35 -3 39 120 c21 66
41 118 44 115 3 -3 15 -56 26 -117 l21 -112 37 -3 c35 -3 37 -2 32 20 -5 20
-65 368 -65 376 0 1 -16 2 -35 0 l-34 -2 -39 -111 c-22 -60 -43 -121 -47 -134
-4 -12 -10 -19 -15 -15 -4 5 -26 66 -50 137 -40 121 -43 127 -68 127 -15 0
-32 -4 -38 -8z"/>
<path d="M1742 528 c-10 -14 -152 -368 -152 -381 0 -5 16 -7 37 -5 33 3 38 7
52 46 l15 42 82 0 82 0 18 -45 c16 -43 19 -45 55 -45 l39 0 -24 63 c-13 34
-48 124 -77 200 -53 135 -54 137 -85 137 -17 0 -36 -6 -42 -12z m63 -158 c9
-25 19 -51 22 -57 4 -10 -9 -13 -46 -13 -28 0 -51 3 -51 6 0 21 44 124 50 117
4 -4 15 -28 25 -53z"/>
</g>
</svg>
